<?xml version="1.0" encoding="UTF-8"?>
<svg width="220px" height="220px" viewBox="0 0 220 220" version="1.1" xmlns="http://www.w3.org/2000/svg" xmlns:xlink="http://www.w3.org/1999/xlink">
    <title>whySonar/操作簡易</title>
    <g id="whySonar/操作簡易" stroke="none" stroke-width="1" fill="none" fill-rule="evenodd">
        <circle id="Oval-Copy-3" fill="#E2E3E6" cx="110" cy="110" r="110"></circle>
        <circle id="Oval-Copy-3" stroke="#C71532" stroke-width="6" fill="#FFFFFF" cx="110" cy="110" r="97"></circle>
        <g id="Group" transform="translate(20.000000, 20.000000)">
            <circle id="Oval" fill="#E2E3E6" cx="90" cy="90" r="80"></circle>
            <path d="M74.8,49 C75.3522847,49 75.8,49.4477153 75.8,50 C75.8,50.5128358 75.4139598,50.9355072 74.9166211,50.9932723 L74.8,51 L34,51 C33.4477153,51 33,50.5522847 33,50 C33,49.4871642 33.3860402,49.0644928 33.8833789,49.0067277 L34,49 L74.8,49 Z" id="Line-3-Copy-24" fill="#24231F" fill-rule="nonzero"></path>
            <path d="M120,159 C120.552285,159 121,159.447715 121,160 C121,160.512836 120.61396,160.935507 120.116621,160.993272 L120,161 L94.0853659,161 C93.5330811,161 93.0853659,160.552285 93.0853659,160 C93.0853659,159.487164 93.471406,159.064493 93.9687447,159.006728 L94.0853659,159 L120,159 Z" id="Line-3-Copy-26" fill="#24231F" fill-rule="nonzero"></path>
            <path d="M152,154 C152.552285,154 153,154.447715 153,155 C153,155.512836 152.61396,155.935507 152.116621,155.993272 L152,156 L99,156 C98.4477153,156 98,155.552285 98,155 C98,154.487164 98.3860402,154.064493 98.8833789,154.006728 L99,154 L152,154 Z" id="Line-3-Copy-27" fill="#24231F" fill-rule="nonzero"></path>
            <path d="M25,72 C25.5522847,72 26,72.4477153 26,73 L26,79 L32,79 C32.5522847,79 33,79.4477153 33,80 C33,80.5522847 32.5522847,81 32,81 L26,81 L26,87 C26,87.5522847 25.5522847,88 25,88 C24.4477153,88 24,87.5522847 24,87 L24,81 L18,81 C17.4477153,81 17,80.5522847 17,80 C17,79.4477153 17.4477153,79 18,79 L24,79 L24,73 C24,72.4477153 24.4477153,72 25,72 Z" id="Combined-Shape-Copy-2" fill="#24231F"></path>
            <path d="M80,139 C80.5522847,139 81,139.447715 81,140 L81,146 L87,146 C87.5522847,146 88,146.447715 88,147 C88,147.552285 87.5522847,148 87,148 L81,148 L81,154 C81,154.552285 80.5522847,155 80,155 C79.4477153,155 79,154.552285 79,154 L79,148 L73,148 C72.4477153,148 72,147.552285 72,147 C72,146.447715 72.4477153,146 73,146 L79,146 L79,140 C79,139.447715 79.4477153,139 80,139 Z" id="Combined-Shape-Copy-6" fill="#24231F"></path>
            <path d="M165,111 C165.552285,111 166,111.447715 166,112 L166,118 L172,118 C172.552285,118 173,118.447715 173,119 C173,119.552285 172.552285,120 172,120 L166,120 L166,126 C166,126.552285 165.552285,127 165,127 C164.447715,127 164,126.552285 164,126 L164,120 L158,120 C157.447715,120 157,119.552285 157,119 C157,118.447715 157.447715,118 158,118 L164,118 L164,112 C164,111.447715 164.447715,111 165,111 Z" id="Combined-Shape-Copy-3" fill="#24231F"></path>
            <path d="M152,53 C152.552285,53 153,53.4477153 153,54 L153,60 L159,60 C159.552285,60 160,60.4477153 160,61 C160,61.5522847 159.552285,62 159,62 L153,62 L153,68 C153,68.5522847 152.552285,69 152,69 C151.447715,69 151,68.5522847 151,68 L151,62 L145,62 C144.447715,62 144,61.5522847 144,61 C144,60.4477153 144.447715,60 145,60 L151,60 L151,54 C151,53.4477153 151.447715,53 152,53 Z" id="Combined-Shape-Copy-4" fill="#24231F"></path>
            <path d="M70,10 C70.5522847,10 71,10.4477153 71,11 L71,17 L77,17 C77.5522847,17 78,17.4477153 78,18 C78,18.5522847 77.5522847,19 77,19 L71,19 L71,25 C71,25.5522847 70.5522847,26 70,26 C69.4477153,26 69,25.5522847 69,25 L69,19 L63,19 C62.4477153,19 62,18.5522847 62,18 C62,17.4477153 62.4477153,17 63,17 L69,17 L69,11 C69,10.4477153 69.4477153,10 70,10 Z" id="Combined-Shape-Copy-5" fill="#24231F"></path>
            <polygon id="Triangle-Copy-6" fill="#EABDBF" transform="translate(41.000000, 31.000000) rotate(-270.000000) translate(-41.000000, -31.000000) " points="41 27 46 35 36 35"></polygon>
            <polygon id="Triangle-Copy-7" fill="#EABDBF" transform="translate(132.000000, 41.000000) rotate(-270.000000) translate(-132.000000, -41.000000) " points="132 37 137 45 127 45"></polygon>
            <polygon id="Triangle-Copy-8" fill="#EABDBF" transform="translate(29.000000, 114.000000) rotate(-270.000000) translate(-29.000000, -114.000000) " points="29 110 34 118 24 118"></polygon>
            <polygon id="Triangle-Copy-9" fill="#EABDBF" transform="translate(52.000000, 159.000000) rotate(-270.000000) translate(-52.000000, -159.000000) " points="52 155 57 163 47 163"></polygon>
            <polygon id="Triangle-Copy-10" fill="#EABDBF" transform="translate(117.000000, 143.000000) rotate(-270.000000) translate(-117.000000, -143.000000) " points="117 139 122 147 112 147"></polygon>
            <polygon id="Triangle-Copy-12" fill="#EABDBF" transform="translate(159.000000, 90.000000) rotate(-270.000000) translate(-159.000000, -90.000000) " points="159 86 164 94 154 94"></polygon>
            <path d="M140.957317,26 C141.509602,26 141.957317,26.4477153 141.957317,27 C141.957317,27.5128358 141.571277,27.9355072 141.073938,27.9932723 L140.957317,28 L106.042683,28 C105.490398,28 105.042683,27.5522847 105.042683,27 C105.042683,26.4871642 105.428723,26.0644928 105.926062,26.0067277 L106.042683,26 L140.957317,26 Z" id="Line-3-Copy-25" fill="#24231F" fill-rule="nonzero"></path>
            <path d="M50.9573171,141 C51.5096018,141 51.9573171,141.447715 51.9573171,142 C51.9573171,142.512836 51.5712769,142.935507 51.0739382,142.993272 L50.9573171,143 L24,143 C23.4477153,143 23,142.552285 23,142 C23,141.487164 23.3860402,141.064493 23.8833789,141.006728 L24,141 L50.9573171,141 Z" id="Line-3-Copy-28" fill="#24231F" fill-rule="nonzero"></path>
            <path d="M78.8292683,44 C79.381553,44 79.8292683,44.4477153 79.8292683,45 C79.8292683,45.5128358 79.4432281,45.9355072 78.9458894,45.9932723 L78.8292683,46 L14,46 C13.4477153,46 13,45.5522847 13,45 C13,44.4871642 13.3860402,44.0644928 13.8833789,44.0067277 L14,44 L78.8292683,44 Z" id="Line-3-Copy-23" fill="#24231F" fill-rule="nonzero"></path>
            <path d="M66.0851064,65.5959079 L129.914894,65.5959079 C139.903022,65.5959079 148,73.6742483 148,83.6393862 L148,127.15601 C148,131.845487 144.189657,135.647059 139.489362,135.647059 L56.5106383,135.647059 C51.8103426,135.647059 48,131.845487 48,127.15601 L48,83.6393862 C48,73.6742483 56.0969779,65.5959079 66.0851064,65.5959079 Z" id="Path" fill="#D40B26" fill-rule="nonzero"></path>
            <path d="M115.031797,86.6062425 L120.357711,86.6062425 C121.534279,86.6062425 122.488076,87.5521955 122.488076,88.7190876 L122.488076,91.8883553 C122.488076,93.0552475 121.534279,94.0012005 120.357711,94.0012005 L115.031797,94.0012005 L115.031797,99.2833133 C115.031797,100.450205 114.077999,101.396158 112.901431,101.396158 L109.705882,101.396158 C108.529314,101.396158 107.575517,100.450205 107.575517,99.2833133 L107.575517,94.0012005 L102.249603,94.0012005 C101.073034,94.0012005 100.119237,93.0552475 100.119237,91.8883553 L100.119237,88.7190876 C100.119237,87.5521955 101.073034,86.6062425 102.249603,86.6062425 L107.575517,86.6062425 L107.575517,81.3241297 C107.575517,80.1572375 108.529314,79.2112845 109.705882,79.2112845 L112.901431,79.2112845 C114.077999,79.2112845 115.031797,80.1572375 115.031797,81.3241297 L115.031797,86.6062425 Z" id="Path" fill="#FFFFFF" fill-rule="nonzero"></path>
            <circle id="Oval" stroke="#979797" fill="#9F9EA2" cx="69.5" cy="90.5" r="15"></circle>
            <circle id="Oval" stroke="#979797" fill="#FFFFFF" cx="69.5" cy="90.5" r="6"></circle>
            <circle id="Oval" fill="#EABDBF" cx="90" cy="42" r="10"></circle>
            <path d="M90,31 C96.1691382,31 101.170213,35.9895632 101.170213,42.1445013 C101.170213,47.5737372 97.2789246,52.0962062 92.1271322,53.0871798 L92.127,58.595 L121.914894,58.5959079 C131.903022,58.5959079 140,66.6742483 140,76.6393862 L140,120.15601 C140,124.845487 136.189657,128.647059 131.489362,128.647059 L48.5106383,128.647059 C43.8103426,128.647059 40,124.845487 40,120.15601 L40,76.6393862 C40,66.6742483 48.0969779,58.5959079 58.0851064,58.5959079 L87.872,58.595 L87.8718674,53.0869873 C82.7205716,52.0956207 78.8297872,47.5733858 78.8297872,42.1445013 C78.8297872,35.9895632 83.8308618,31 90,31 Z M121.914894,62.8414322 L58.0851064,62.8414322 C50.4471258,62.8414322 44.2553191,69.0189866 44.2553191,76.6393862 L44.2553191,120.15601 C44.2553191,122.500749 46.1604904,124.401535 48.5106383,124.401535 L131.489362,124.401535 C133.83951,124.401535 135.744681,122.500749 135.744681,120.15601 L135.744681,76.6393862 C135.744681,69.0189866 129.552874,62.8414322 121.914894,62.8414322 Z M63.1041335,112.488595 C65.3101994,112.488595 67.0985692,114.262257 67.0985692,116.45018 C67.0985692,118.638103 65.3101994,120.411765 63.1041335,120.411765 C60.8980677,120.411765 59.1096979,118.638103 59.1096979,116.45018 C59.1096979,114.262257 60.8980677,112.488595 63.1041335,112.488595 Z M74.2885533,112.488595 C76.4946191,112.488595 78.2829889,114.262257 78.2829889,116.45018 C78.2829889,118.638103 76.4946191,120.411765 74.2885533,120.411765 C72.0824874,120.411765 70.2941176,118.638103 70.2941176,116.45018 C70.2941176,114.262257 72.0824874,112.488595 74.2885533,112.488595 Z M105.711447,112.488595 C107.917513,112.488595 109.705882,114.262257 109.705882,116.45018 C109.705882,118.638103 107.917513,120.411765 105.711447,120.411765 C103.505381,120.411765 101.717011,118.638103 101.717011,116.45018 C101.717011,114.262257 103.505381,112.488595 105.711447,112.488595 Z M116.895866,112.488595 C119.101932,112.488595 120.890302,114.262257 120.890302,116.45018 C120.890302,118.638103 119.101932,120.411765 116.895866,120.411765 C114.689801,120.411765 112.901431,118.638103 112.901431,116.45018 C112.901431,114.262257 114.689801,112.488595 116.895866,112.488595 Z M72.2362717,69.3437892 C73.3916974,69.5458463 74.1645552,70.6463036 73.962498,71.8017292 C73.9621536,71.8036989 73.9618064,71.8056681 73.9614563,71.8076368 L73.7410028,73.0506693 C81.2871653,75.2171729 86.8044515,82.1214305 86.8044515,90.3037215 C86.8044515,100.222305 78.6971754,108.262905 68.6963434,108.262905 C58.6955114,108.262905 50.5882353,100.222305 50.5882353,90.3037215 C50.5882353,80.3851382 58.6955114,72.3445378 68.6963434,72.3445378 C68.978185,72.3445378 69.2585228,72.3509238 69.5372175,72.3635578 L69.7654551,71.0738534 C69.9715258,69.9147798 71.0766207,69.140993 72.2362717,69.3437892 Z M111.303657,72.3445378 C121.304489,72.3445378 129.411765,80.3851382 129.411765,90.3037215 C129.411765,100.222305 121.304489,108.262905 111.303657,108.262905 C101.302825,108.262905 93.1955485,100.222305 93.1955485,90.3037215 C93.1955485,80.3851382 101.302825,72.3445378 111.303657,72.3445378 Z M68.7882353,76.5705097 L68.6963434,76.5702281 C61.0486484,76.5702281 54.8489666,82.7189225 54.8489666,90.3037215 C54.8489666,97.8885205 61.0486484,104.037215 68.6963434,104.037215 C76.3440384,104.037215 82.5437202,97.8885205 82.5437202,90.3037215 C82.5437202,84.2073186 78.53848,79.0386962 72.9953731,77.2449356 L72.1490137,82.0001254 C75.4366946,83.3462363 77.7503975,86.5570039 77.7503975,90.3037215 C77.7503975,95.2630131 73.6967594,99.2833133 68.6963434,99.2833133 C63.6959274,99.2833133 59.6422893,95.2630131 59.6422893,90.3037215 C59.6422893,85.5979841 63.292022,81.7376768 67.9372128,81.3552448 L68.7882353,76.5705097 Z M111.303657,76.5702281 C103.655962,76.5702281 97.4562798,82.7189225 97.4562798,90.3037215 C97.4562798,97.8885205 103.655962,104.037215 111.303657,104.037215 C118.951352,104.037215 125.151033,97.8885205 125.151033,90.3037215 C125.151033,82.7189225 118.951352,76.5702281 111.303657,76.5702281 Z M112.901431,79.2112845 C114.077999,79.2112845 115.031797,80.1572375 115.031797,81.3241297 L115.031797,86.6062425 L120.357711,86.6062425 C121.534279,86.6062425 122.488076,87.5521955 122.488076,88.7190876 L122.488076,91.8883553 C122.488076,93.0552475 121.534279,94.0012005 120.357711,94.0012005 L115.031797,94.0012005 L115.031797,99.2833133 C115.031797,100.450205 114.077999,101.396158 112.901431,101.396158 L109.705882,101.396158 C108.529314,101.396158 107.575517,100.450205 107.575517,99.2833133 L107.575517,94.0012005 L102.249603,94.0012005 C101.073034,94.0012005 100.119237,93.0552475 100.119237,91.8883553 L100.119237,88.7190876 C100.119237,87.5521955 101.073034,86.6062425 102.249603,86.6062425 L107.575517,86.6062425 L107.575517,81.3241297 C107.575517,80.1572375 108.529314,79.2112845 109.705882,79.2112845 L112.901431,79.2112845 Z M112.901431,81.3241297 L109.705882,81.3241297 L109.705882,87.6626651 C109.705882,88.2461111 109.228984,88.7190876 108.6407,88.7190876 L102.249603,88.7190876 L102.249603,91.8883553 L108.6407,91.8883553 C109.228984,91.8883553 109.705882,92.3613318 109.705882,92.9447779 L109.705882,99.2833133 L112.901431,99.2833133 L112.901431,92.9447779 C112.901431,92.3613318 113.378329,91.8883553 113.966614,91.8883553 L120.357711,91.8883553 L120.357711,88.7190876 L113.966614,88.7190876 C113.378329,88.7190876 112.901431,88.2461111 112.901431,87.6626651 L112.901431,81.3241297 Z M67.1465324,85.8037979 C65.2598064,86.4427874 63.9030207,88.2161104 63.9030207,90.3037215 C63.9030207,92.9292288 66.0490644,95.057623 68.6963434,95.057623 C71.3436224,95.057623 73.4896661,92.9292288 73.4896661,90.3037215 C73.4896661,88.6618765 72.650445,87.21443 71.3742306,86.3603019 L70.8227802,89.4615608 C70.6167095,90.6206344 69.5116146,91.3944211 68.3519635,91.191625 C67.1965379,90.9895678 66.4236801,89.8891106 66.6257372,88.7336849 C66.6260817,88.7317153 66.6264289,88.729746 66.6267789,88.7277773 L67.1465324,85.8037979 Z M95.8760261,68.6470588 C97.0429182,68.6470588 97.9888712,69.5930118 97.9888712,70.759904 C97.9888712,71.9267961 97.0429182,72.8727491 95.8760261,72.8727491 L84.1239739,72.8727491 C82.9570818,72.8727491 82.0111288,71.9267961 82.0111288,70.759904 C82.0111288,69.5930118 82.9570818,68.6470588 84.1239739,68.6470588 L95.8760261,68.6470588 Z M90,35.2455243 C86.1810097,35.2455243 83.0851064,38.3343015 83.0851064,42.1445013 C83.0851064,45.9547011 86.1810097,49.0434783 90,49.0434783 C93.8189903,49.0434783 96.9148936,45.9547011 96.9148936,42.1445013 C96.9148936,38.3343015 93.8189903,35.2455243 90,35.2455243 Z" id="Combined-Shape" fill="#24231F" fill-rule="nonzero"></path>
        </g>
    </g>
</svg>