<?xml version="1.0" encoding="UTF-8"?>
<svg width="220px" height="220px" viewBox="0 0 220 220" version="1.1" xmlns="http://www.w3.org/2000/svg" xmlns:xlink="http://www.w3.org/1999/xlink">
    <title>whySonar/自動化</title>
    <g id="whySonar/自動化" stroke="none" stroke-width="1" fill="none" fill-rule="evenodd">
        <circle id="Oval-Copy-4" fill="#E2E3E6" cx="110" cy="110" r="110"></circle>
        <circle id="Oval-Copy" stroke="#C71532" stroke-width="6" fill="#FFFFFF" cx="110" cy="110" r="97"></circle>
        <g id="Group" transform="translate(20.000000, 20.000000)">
            <circle id="Oval" fill="#E2E3E6" cx="90" cy="90" r="80"></circle>
            <path d="M53.1994177,16.2639925 C53.5600649,15.9120025 54.1447897,15.9120025 54.505437,16.2639925 L54.505437,16.2639925 L59.7295145,21.3626658 C60.0901618,21.7146558 60.0901618,22.2853442 59.7295145,22.6373342 L59.7295145,22.6373342 L54.505437,27.7360075 C54.1447897,28.0879975 53.5600649,28.0879975 53.1994177,27.7360075 C52.8387704,27.3840176 52.8387704,26.8133291 53.1994177,26.4613392 L53.1994177,26.4613392 L57.7704855,22 L53.1994177,17.5386608 C52.8387704,17.1866709 52.8387704,16.6159824 53.1994177,16.2639925 Z M44.7349516,16.2639925 C45.0955989,15.9120025 45.6803236,15.9120025 46.0409709,16.2639925 L46.0409709,16.2639925 L51.2650484,21.3626658 C51.6256957,21.7146558 51.6256957,22.2853442 51.2650484,22.6373342 L51.2650484,22.6373342 L46.0409709,27.7360075 C45.6803236,28.0879975 45.0955989,28.0879975 44.7349516,27.7360075 C44.3743043,27.3840176 44.3743043,26.8133291 44.7349516,26.4613392 L44.7349516,26.4613392 L49.3060194,22 L44.7349516,17.5386608 C44.3743043,17.1866709 44.3743043,16.6159824 44.7349516,16.2639925 Z M36.2704855,16.2639925 C36.6311328,15.9120025 37.2158576,15.9120025 37.5765048,16.2639925 L37.5765048,16.2639925 L42.8005823,21.3626658 C43.1612296,21.7146558 43.1612296,22.2853442 42.8005823,22.6373342 L42.8005823,22.6373342 L37.5765048,27.7360075 C37.2158576,28.0879975 36.6311328,28.0879975 36.2704855,27.7360075 C35.9098382,27.3840176 35.9098382,26.8133291 36.2704855,26.4613392 L36.2704855,26.4613392 L40.8415533,22 L36.2704855,17.5386608 C35.9098382,17.1866709 35.9098382,16.6159824 36.2704855,16.2639925 Z" id="Combined-Shape" fill="#24231F"></path>
            <path d="M126.199418,158.263992 C126.560065,157.912003 127.14479,157.912003 127.505437,158.263992 L127.505437,158.263992 L132.729515,163.362666 C133.090162,163.714656 133.090162,164.285344 132.729515,164.637334 L132.729515,164.637334 L127.505437,169.736008 C127.14479,170.087997 126.560065,170.087997 126.199418,169.736008 C125.83877,169.384018 125.83877,168.813329 126.199418,168.461339 L126.199418,168.461339 L130.770485,164 L126.199418,159.538661 C125.83877,159.186671 125.83877,158.615982 126.199418,158.263992 Z M117.734952,158.263992 C118.095599,157.912003 118.680324,157.912003 119.040971,158.263992 L119.040971,158.263992 L124.265048,163.362666 C124.625696,163.714656 124.625696,164.285344 124.265048,164.637334 L124.265048,164.637334 L119.040971,169.736008 C118.680324,170.087997 118.095599,170.087997 117.734952,169.736008 C117.374304,169.384018 117.374304,168.813329 117.734952,168.461339 L117.734952,168.461339 L122.306019,164 L117.734952,159.538661 C117.374304,159.186671 117.374304,158.615982 117.734952,158.263992 Z M109.270485,158.263992 C109.631133,157.912003 110.215858,157.912003 110.576505,158.263992 L110.576505,158.263992 L115.800582,163.362666 C116.16123,163.714656 116.16123,164.285344 115.800582,164.637334 L115.800582,164.637334 L110.576505,169.736008 C110.215858,170.087997 109.631133,170.087997 109.270485,169.736008 C108.909838,169.384018 108.909838,168.813329 109.270485,168.461339 L109.270485,168.461339 L113.841553,164 L109.270485,159.538661 C108.909838,159.186671 108.909838,158.615982 109.270485,158.263992 Z" id="Combined-Shape-Copy" fill="#24231F"></path>
            <path d="M162.199418,51.2639925 C162.560065,50.9120025 163.14479,50.9120025 163.505437,51.2639925 L163.505437,51.2639925 L168.729515,56.3626658 C169.090162,56.7146558 169.090162,57.2853442 168.729515,57.6373342 L168.729515,57.6373342 L163.505437,62.7360075 C163.14479,63.0879975 162.560065,63.0879975 162.199418,62.7360075 C161.83877,62.3840176 161.83877,61.8133291 162.199418,61.4613392 L162.199418,61.4613392 L166.770485,57 L162.199418,52.5386608 C161.83877,52.1866709 161.83877,51.6159824 162.199418,51.2639925 Z M153.734952,51.2639925 C154.095599,50.9120025 154.680324,50.9120025 155.040971,51.2639925 L155.040971,51.2639925 L160.265048,56.3626658 C160.625696,56.7146558 160.625696,57.2853442 160.265048,57.6373342 L160.265048,57.6373342 L155.040971,62.7360075 C154.680324,63.0879975 154.095599,63.0879975 153.734952,62.7360075 C153.374304,62.3840176 153.374304,61.8133291 153.734952,61.4613392 L153.734952,61.4613392 L158.306019,57 L153.734952,52.5386608 C153.374304,52.1866709 153.374304,51.6159824 153.734952,51.2639925 Z M145.270485,51.2639925 C145.631133,50.9120025 146.215858,50.9120025 146.576505,51.2639925 L146.576505,51.2639925 L151.800582,56.3626658 C152.16123,56.7146558 152.16123,57.2853442 151.800582,57.6373342 L151.800582,57.6373342 L146.576505,62.7360075 C146.215858,63.0879975 145.631133,63.0879975 145.270485,62.7360075 C144.909838,62.3840176 144.909838,61.8133291 145.270485,61.4613392 L145.270485,61.4613392 L149.841553,57 L145.270485,52.5386608 C144.909838,52.1866709 144.909838,51.6159824 145.270485,51.2639925 Z" id="Combined-Shape-Copy-2" fill="#24231F"></path>
            <path d="M27.1994177,105.263992 C27.5600649,104.912003 28.1447897,104.912003 28.505437,105.263992 L28.505437,105.263992 L33.7295145,110.362666 C34.0901618,110.714656 34.0901618,111.285344 33.7295145,111.637334 L33.7295145,111.637334 L28.505437,116.736008 C28.1447897,117.087997 27.5600649,117.087997 27.1994177,116.736008 C26.8387704,116.384018 26.8387704,115.813329 27.1994177,115.461339 L27.1994177,115.461339 L31.7704855,111 L27.1994177,106.538661 C26.8387704,106.186671 26.8387704,105.615982 27.1994177,105.263992 Z M18.7349516,105.263992 C19.0955989,104.912003 19.6803236,104.912003 20.0409709,105.263992 L20.0409709,105.263992 L25.2650484,110.362666 C25.6256957,110.714656 25.6256957,111.285344 25.2650484,111.637334 L25.2650484,111.637334 L20.0409709,116.736008 C19.6803236,117.087997 19.0955989,117.087997 18.7349516,116.736008 C18.3743043,116.384018 18.3743043,115.813329 18.7349516,115.461339 L18.7349516,115.461339 L23.3060194,111 L18.7349516,106.538661 C18.3743043,106.186671 18.3743043,105.615982 18.7349516,105.263992 Z M10.2704855,105.263992 C10.6311328,104.912003 11.2158576,104.912003 11.5765048,105.263992 L11.5765048,105.263992 L16.8005823,110.362666 C17.1612296,110.714656 17.1612296,111.285344 16.8005823,111.637334 L16.8005823,111.637334 L11.5765048,116.736008 C11.2158576,117.087997 10.6311328,117.087997 10.2704855,116.736008 C9.90983818,116.384018 9.90983818,115.813329 10.2704855,115.461339 L10.2704855,115.461339 L14.8415533,111 L10.2704855,106.538661 C9.90983818,106.186671 9.90983818,105.615982 10.2704855,105.263992 Z" id="Combined-Shape-Copy-3" fill="#24231F"></path>
            <path d="M28,165 L32,165 C32.5522847,165 33,164.552285 33,164 C33,163.447715 32.5522847,163 32,163 L28,163 C27.4477153,163 27,163.447715 27,164 C27,164.552285 27.4477153,165 28,165 Z M42,165 L46,165 C46.5522847,165 47,164.552285 47,164 C47,163.447715 46.5522847,163 46,163 L42,163 C41.4477153,163 41,163.447715 41,164 C41,164.552285 41.4477153,165 42,165 Z M56,165 L60,165 C60.5522847,165 61,164.552285 61,164 C61,163.447715 60.5522847,163 60,163 L56,163 C55.4477153,163 55,163.447715 55,164 C55,164.552285 55.4477153,165 56,165 Z M70,165 L74,165 C74.5522847,165 75,164.552285 75,164 C75,163.447715 74.5522847,163 74,163 L70,163 C69.4477153,163 69,163.447715 69,164 C69,164.552285 69.4477153,165 70,165 Z M84,165 L88,165 C88.5522847,165 89,164.552285 89,164 C89,163.447715 88.5522847,163 88,163 L84,163 C83.4477153,163 83,163.447715 83,164 C83,164.552285 83.4477153,165 84,165 Z M98,165 L102,165 C102.552285,165 103,164.552285 103,164 C103,163.447715 102.552285,163 102,163 L98,163 C97.4477153,163 97,163.447715 97,164 C97,164.552285 97.4477153,165 98,165 Z" id="Line-3-Copy-12" fill="#24231F" fill-rule="nonzero"></path>
            <path d="M122,36 L126,36 C126.552285,36 127,35.5522847 127,35 C127,34.4477153 126.552285,34 126,34 L122,34 C121.447715,34 121,34.4477153 121,35 C121,35.5522847 121.447715,36 122,36 Z M136,36 L140,36 C140.552285,36 141,35.5522847 141,35 C141,34.4477153 140.552285,34 140,34 L136,34 C135.447715,34 135,34.4477153 135,35 C135,35.5522847 135.447715,36 136,36 Z M150,36 L154,36 C154.552285,36 155,35.5522847 155,35 C155,34.4477153 154.552285,34 154,34 L150,34 C149.447715,34 149,34.4477153 149,35 C149,35.5522847 149.447715,36 150,36 Z" id="Line-3-Copy-13" fill="#24231F" fill-rule="nonzero"></path>
            <path d="M127,127 L131,127 C131.552285,127 132,126.552285 132,126 C132,125.447715 131.552285,125 131,125 L127,125 C126.447715,125 126,125.447715 126,126 C126,126.552285 126.447715,127 127,127 Z M141,127 L145,127 C145.552285,127 146,126.552285 146,126 C146,125.447715 145.552285,125 145,125 L141,125 C140.447715,125 140,125.447715 140,126 C140,126.552285 140.447715,127 141,127 Z M155,127 L157,127 C157.552285,127 158,126.552285 158,126 C158,125.447715 157.552285,125 157,125 L155,125 C154.447715,125 154,125.447715 154,126 C154,126.552285 154.447715,127 155,127 Z" id="Line-3-Copy-14" fill="#24231F" fill-rule="nonzero"></path>
            <path d="M170.893215,89 C171.445499,89 171.893215,89.4477153 171.893215,90 C171.893215,90.5128358 171.507174,90.9355072 171.009836,90.9932723 L170.893215,91 L128.11773,91 C127.565445,91 127.11773,90.5522847 127.11773,90 C127.11773,89.4871642 127.50377,89.0644928 128.001109,89.0067277 L128.11773,89 L170.893215,89 Z" id="Line-3-Copy-37" fill="#24231F" fill-rule="nonzero"></path>
            <path d="M86.8932145,147 C87.4454993,147 87.8932145,147.447715 87.8932145,148 C87.8932145,148.512836 87.5071743,148.935507 87.0098356,148.993272 L86.8932145,149 L44.1177298,149 C43.5654451,149 43.1177298,148.552285 43.1177298,148 C43.1177298,147.487164 43.50377,147.064493 44.0011087,147.006728 L44.1177298,147 L86.8932145,147 Z" id="Line-3-Copy-41" fill="#24231F" fill-rule="nonzero"></path>
            <path d="M152.94035,96 C153.492635,96 153.94035,96.4477153 153.94035,97 C153.94035,97.5128358 153.55431,97.9355072 153.056971,97.9932723 L152.94035,98 L128.119035,98 C127.56675,98 127.119035,97.5522847 127.119035,97 C127.119035,96.4871642 127.505075,96.0644928 128.002414,96.0067277 L128.119035,96 L152.94035,96 Z" id="Line-3-Copy-38" fill="#24231F" fill-rule="nonzero"></path>
            <path d="M49.9978893,132 C50.5501741,132 50.9978893,132.447715 50.9978893,133 C50.9978893,133.512836 50.6118491,133.935507 50.1145104,133.993272 L49.9978893,134 L10.0267355,134 C9.47445071,134 9.02673546,133.552285 9.02673546,133 C9.02673546,132.487164 9.41277565,132.064493 9.91011433,132.006728 L10.0267355,132 L49.9978893,132 Z" id="Line-3-Copy-39" fill="#24231F" fill-rule="nonzero"></path>
            <path d="M50.0022866,126 C50.5545713,126 51.0022866,126.447715 51.0022866,127 C51.0022866,127.512836 50.6162464,127.935507 50.1189077,127.993272 L50.0022866,128 L25.9883765,128 C25.4360918,128 24.9883765,127.552285 24.9883765,127 C24.9883765,126.487164 25.3744167,126.064493 25.8717554,126.006728 L25.9883765,126 L50.0022866,126 Z" id="Line-3-Copy-40" fill="#24231F" fill-rule="nonzero"></path>
            <circle id="Oval-Copy-13" fill="#EABDBF" cx="41" cy="97" r="5"></circle>
            <circle id="Oval-Copy-17" fill="#EABDBF" cx="147" cy="110" r="5"></circle>
            <circle id="Oval-Copy-18" fill="#EABDBF" cx="166" cy="77" r="5"></circle>
            <circle id="Oval-Copy-14" fill="#EABDBF" cx="79" cy="30" r="5"></circle>
            <circle id="Oval-Copy-19" fill="#EABDBF" cx="116" cy="142" r="5"></circle>
            <circle id="Oval-Copy-15" fill="#EABDBF" cx="21" cy="51" r="5"></circle>
            <path d="M50,81 C50.5522847,81 51,81.4477153 51,82 C51,82.5128358 50.6139598,82.9355072 50.1166211,82.9932723 L50,83 L22.0853659,83 C21.5330811,83 21.0853659,82.5522847 21.0853659,82 C21.0853659,81.4871642 21.471406,81.0644928 21.9687447,81.0067277 L22.0853659,81 L50,81 Z" id="Line-3-Copy-36" fill="#24231F" fill-rule="nonzero"></path>
            <path d="M10,69 L14,69 C14.5522847,69 15,68.5522847 15,68 C15,67.4477153 14.5522847,67 14,67 L10,67 C9.44771525,67 9,67.4477153 9,68 C9,68.5522847 9.44771525,69 10,69 Z M24,69 L28,69 C28.5522847,69 29,68.5522847 29,68 C29,67.4477153 28.5522847,67 28,67 L24,67 C23.4477153,67 23,67.4477153 23,68 C23,68.5522847 23.4477153,69 24,69 Z M38,69 L42,69 C42.5522847,69 43,68.5522847 43,68 C43,67.4477153 42.5522847,67 42,67 L38,67 C37.4477153,67 37,67.4477153 37,68 C37,68.5522847 37.4477153,69 38,69 Z" id="Line-3-Copy-11" fill="#24231F" fill-rule="nonzero"></path>
            <path d="M125.981061,107.595828 C125.492509,106.781575 125.440986,105.777647 125.843613,104.917658 C126.345451,103.84576 126.786562,102.747065 127.164951,101.626184 C127.475778,100.705437 128.233808,100.006162 129.176589,99.7704663 L138.04878,97.5524185 L138.04878,84.4475815 L128.835362,82.1442269 C127.921716,81.9158154 127.179596,81.2513371 126.852015,80.3683815 C126.49164,79.3970343 126.083615,78.4438574 125.629372,77.5119803 C125.206348,76.6441484 125.250801,75.6212715 125.747518,74.7934102 L130.659131,66.6073885 L121.392611,57.3408694 L112.991907,62.381292 C112.182218,62.8671052 111.184638,62.920938 110.327372,62.5250793 C109.480202,62.1338828 108.616448,61.7804743 107.738381,61.4658515 C106.841157,61.1443647 106.163658,60.396177 105.932502,59.4715525 L103.552419,49.9512195 L90.4475815,49.9512195 L88.0674982,59.4715525 C87.8363421,60.396177 87.1588426,61.1443647 86.2616191,61.4658515 C85.3835517,61.7804743 84.5197985,62.1338828 83.6726284,62.5250793 C82.8153618,62.920938 81.8177817,62.8671052 81.008093,62.381292 L72.6073885,57.3408694 L63.3408694,66.6073885 L68.2524824,74.7934102 C68.7491991,75.6212715 68.793652,76.6441484 68.3706277,77.5119803 C67.9163847,78.4438574 67.5083601,79.3970343 67.1479852,80.3683815 C66.820404,81.2513371 66.0782835,81.9158154 65.1646379,82.1442269 L55.9512195,84.4475815 L55.9512195,97.5524188 L64.8234123,99.7704693 C65.766193,100.006165 66.5242226,100.70544 66.83505,101.626187 C67.2134386,102.747065 67.6545496,103.845761 68.1563871,104.917658 C68.5590141,105.777647 68.507491,106.781575 68.0189394,107.595828 L63.3408694,115.392611 L72.6073885,124.659131 L80.1933744,120.107539 C81.025745,119.608117 82.0549076,119.566067 82.9252464,119.995921 C84.0799766,120.566232 85.2677139,121.065292 86.4824858,121.490413 C87.3891568,121.807711 88.0753551,122.559875 88.3083321,123.491783 L90.4475815,132.04878 L103.552419,132.04878 L105.691677,123.491778 C105.924654,122.559871 106.610852,121.807707 107.517523,121.49041 C108.732287,121.065292 109.920025,120.566232 111.074754,119.995921 C111.945092,119.566067 112.974255,119.608117 113.806626,120.107539 L121.392611,124.659131 L130.659131,115.392611 L125.981061,107.595828 Z" id="Path" fill="#D40B26" fill-rule="nonzero"></path>
            <circle id="Oval-Copy-5" fill="#EABDBF" fill-rule="nonzero" cx="90.3571429" cy="89.3571429" r="19.9285714"></circle>
            <path d="M126.423226,113.732887 L114.732887,125.423226 L105.677245,119.989841 C105.485159,119.874589 105.24766,119.864886 105.046813,119.964083 C103.812003,120.573945 102.541791,121.107659 101.242607,121.562321 C101.033375,121.635543 100.875022,121.809119 100.821258,122.024175 L98.2663176,132.243902 L81.733682,132.243902 L79.178751,122.024178 C79.124987,121.809123 78.9666336,121.635546 78.7574018,121.562324 C77.4582108,121.10766 76.1879979,120.573945 74.9531874,119.964083 C74.7523399,119.864886 74.5148409,119.874589 74.3227554,119.989841 L65.2671128,125.423226 L53.5767738,113.732887 L59.1366379,104.466447 C59.2493806,104.278543 59.2612705,104.046867 59.1683566,103.848408 C58.6316912,102.70212 58.1599337,101.527092 57.7552406,100.328293 C57.6835112,100.115813 57.5085813,99.9544415 57.2910165,99.9000503 L46.7560976,97.2663178 L46.7560976,80.733682 L57.6322426,78.0146458 C57.8430839,77.9619354 58.0143425,77.8085943 58.0899382,77.6048353 C58.4753495,76.5660053 58.9117001,75.5466567 59.3974451,74.5501535 C59.4950661,74.3498846 59.4848078,74.1138361 59.3701808,73.9227911 L53.5767738,64.2671128 L65.2671128,52.5767738 L75.1374739,58.4989905 C75.3243251,58.6111012 75.5545359,58.6235242 75.7523667,58.5321722 C76.658332,58.1138259 77.5820823,57.7358693 78.5211758,57.3993801 C78.7282274,57.3251908 78.8845734,57.1525321 78.9379171,56.9391572 L81.733682,45.7560976 L98.266318,45.7560976 L101.062083,56.9391572 C101.115427,57.1525321 101.271773,57.3251908 101.478824,57.3993801 C102.417918,57.7358693 103.341668,58.1138259 104.247633,58.5321722 C104.445464,58.6235242 104.675675,58.6111012 104.862526,58.4989905 L114.732887,52.5767738 L126.423226,64.2671128 L120.629819,73.9227911 C120.515192,74.1138361 120.504934,74.3498846 120.602555,74.5501535 C121.0883,75.5466567 121.52465,76.5660053 121.910062,77.6048353 C121.985657,77.8085943 122.156916,77.9619354 122.367757,78.0146458 L133.243902,80.733682 L133.243902,97.266318 L122.708985,99.9000474 C122.49142,99.9544386 122.31649,100.11581 122.24476,100.32829 C121.840066,101.527092 121.368309,102.70212 120.831643,103.848408 C120.738729,104.046867 120.750619,104.278543 120.863362,104.466447 L126.423226,113.732887 Z M118.981061,105.595828 C118.492509,104.781575 118.440986,103.777647 118.843613,102.917658 C119.345451,101.84576 119.786562,100.747065 120.164951,99.6261837 C120.475778,98.705437 121.233808,98.0061616 122.176589,97.7704663 L131.04878,95.5524185 L131.04878,82.4475815 L121.835362,80.1442269 C120.921716,79.9158154 120.179596,79.2513371 119.852015,78.3683815 C119.49164,77.3970343 119.083615,76.4438574 118.629372,75.5119803 C118.206348,74.6441484 118.250801,73.6212715 118.747518,72.7934102 L123.659131,64.6073885 L114.392611,55.3408694 L105.991907,60.381292 C105.182218,60.8671052 104.184638,60.920938 103.327372,60.5250793 C102.480202,60.1338828 101.616448,59.7804743 100.738381,59.4658515 C99.8411574,59.1443647 99.1636579,58.396177 98.9325018,57.4715525 L96.5524185,47.9512195 L83.4475815,47.9512195 L81.0674982,57.4715525 C80.8363421,58.396177 80.1588426,59.1443647 79.2616191,59.4658515 C78.3835517,59.7804743 77.5197985,60.1338828 76.6726284,60.5250793 C75.8153618,60.920938 74.8177817,60.8671052 74.008093,60.381292 L65.6073885,55.3408694 L56.3408694,64.6073885 L61.2524824,72.7934102 C61.7491991,73.6212715 61.793652,74.6441484 61.3706277,75.5119803 C60.9163847,76.4438574 60.5083601,77.3970343 60.1479852,78.3683815 C59.820404,79.2513371 59.0782835,79.9158154 58.1646379,80.1442269 L48.9512195,82.4475815 L48.9512195,95.5524188 L57.8234123,97.7704693 C58.766193,98.0061647 59.5242226,98.7054401 59.83505,99.6261865 C60.2134386,100.747065 60.6545496,101.845761 61.1563871,102.917658 C61.5590141,103.777647 61.507491,104.781575 61.0189394,105.595828 L56.3408694,113.392611 L65.6073885,122.659131 L73.1933744,118.107539 C74.025745,117.608117 75.0549076,117.566067 75.9252464,117.995921 C77.0799766,118.566232 78.2677139,119.065292 79.4824858,119.490413 C80.3891568,119.807711 81.0753551,120.559875 81.3083321,121.491783 L83.4475815,130.04878 L96.5524195,130.04878 L98.6916769,121.491778 C98.9246543,120.559871 99.6108523,119.807707 100.517523,119.49041 C101.732287,119.065292 102.920025,118.566232 104.074754,117.995921 C104.945092,117.566067 105.974255,117.608117 106.806626,118.107539 L114.392611,122.659131 L123.659131,113.392611 L118.981061,105.595828 Z M100.538902,121.343457 L101.09759,121.147938 C102.381277,120.698701 103.634928,120.17175 104.852401,119.57045 L105.389476,119.305193 L114.517866,124.782228 C114.604239,124.834051 114.714798,124.820441 114.786023,124.749216 L125.749216,113.786023 C125.820441,113.714798 125.834051,113.604239 125.782228,113.517866 L120.186324,104.19136 L120.434037,103.662258 C120.963191,102.532015 121.428954,101.372305 121.828798,100.187869 L122.020636,99.6195986 L132.638605,96.9651063 C132.736325,96.9406764 132.804878,96.8528752 132.804878,96.7521481 L132.804878,81.2478519 C132.804878,81.1471248 132.736325,81.0593236 132.638605,81.0348937 L121.699775,78.3001862 L121.498452,77.7575445 C121.117722,76.7313321 120.686951,75.7252524 120.207918,74.7425188 L119.947072,74.2073935 L125.782228,64.4821336 C125.834051,64.3957609 125.820441,64.2852018 125.749216,64.213977 L114.786023,53.2507839 C114.714798,53.1795592 114.604239,53.1659487 114.517866,53.2177723 L104.590617,59.1741221 L104.063581,58.9307536 C103.170091,58.5181683 102.258366,58.1450561 101.330736,57.8126743 L100.778454,57.6147847 L97.9651063,46.3613946 C97.9406764,46.263675 97.8528752,46.195122 97.7521481,46.195122 L82.2478519,46.195122 C82.1471248,46.195122 82.0593236,46.263675 82.0348937,46.3613946 L79.2215462,57.6147847 L78.6692644,57.8126743 C77.7416344,58.1450561 76.8299086,58.5181683 75.936419,58.9307536 L75.4093832,59.1741221 L65.4821336,53.2177723 C65.3957609,53.1659487 65.2852018,53.1795592 65.213977,53.2507839 L54.2507839,64.213977 C54.1795592,64.2852018 54.1659487,64.3957609 54.2177723,64.4821336 L60.0529282,74.2073935 L59.7920817,74.7425188 C59.3130487,75.7252524 58.8822777,76.7313321 58.5015476,77.7575445 L58.3002247,78.3001862 L47.3613946,81.0348937 C47.263675,81.0593236 47.195122,81.1471248 47.195122,81.2478519 L47.195122,96.7521481 C47.195122,96.8528752 47.263675,96.9406764 47.3613949,96.9651063 L57.9793648,99.6196015 L58.1712025,100.187871 C58.571046,101.372305 59.0368094,102.532016 59.5659627,103.662258 L59.8136761,104.19136 L54.2177723,113.517866 C54.1659487,113.604239 54.1795592,113.714798 54.2507839,113.786023 L65.213977,124.749216 C65.2852018,124.820441 65.3957609,124.834051 65.4821336,124.782228 L74.6105243,119.305193 L75.1475992,119.57045 C76.3650727,120.17175 77.6187243,120.698701 78.9024186,121.147941 L79.4611073,121.34346 L82.0348937,131.638605 C82.0593236,131.736325 82.1471248,131.804878 82.2478519,131.804878 L97.7521481,131.804878 C97.8528752,131.804878 97.9406764,131.736325 97.9651065,131.638605 L100.538902,121.343457 Z M100.094687,132.171001 C99.8259585,133.245916 98.8601456,134 97.7521481,134 L82.2478519,134 C81.1398544,134 80.1740415,133.245916 79.9053126,132.171001 L77.6171983,123.018543 C76.6325959,122.655341 75.665299,122.248955 74.7178049,121.800755 L66.6115146,126.664529 C65.6614146,127.234589 64.4452639,127.084874 63.6617914,126.301402 L52.6985983,115.338209 C51.9151258,114.554736 51.7654108,113.338585 52.3354708,112.388485 L57.3332248,104.058895 C56.951422,103.207057 56.6030787,102.340081 56.289134,101.459724 L46.8289993,99.0946874 C45.7540839,98.8259585 45,97.8601456 45,96.7521481 L45,81.2478519 C45,80.1398544 45.7540839,79.1740415 46.8289993,78.9053126 L56.6504289,76.4499553 C56.9309313,75.7302714 57.2346863,75.0202738 57.5611391,74.3209621 L52.3354708,65.6115146 C51.7654108,64.6614146 51.9151258,63.4452639 52.6985983,62.6617914 L63.6617914,51.6985983 C64.4452639,50.9151258 65.6614146,50.7654108 66.6115146,51.3354708 L75.5481588,56.6974574 C76.1498667,56.4314914 76.759056,56.1821642 77.3751103,55.9498089 L79.9053126,45.8289993 C80.1740415,44.7540839 81.1398544,44 82.2478519,44 L97.7521481,44 C98.8601456,44 99.8259585,44.7540839 100.094687,45.8289993 L102.62489,55.9498089 C103.240944,56.1821642 103.850133,56.4314913 104.451841,56.6974573 L113.388485,51.3354708 C114.338585,50.7654108 115.554736,50.9151258 116.338209,51.6985983 L127.301402,62.6617914 C128.084874,63.4452639 128.234589,64.6614146 127.664529,65.6115146 L122.438861,74.3209619 C122.765314,75.0202736 123.069069,75.7302713 123.349571,76.4499553 L133.171001,78.9053126 C134.245916,79.1740415 135,80.1398544 135,81.2478519 L135,96.7521481 C135,97.8601456 134.245916,98.8259585 133.171001,99.0946874 L123.710867,101.459721 C123.396922,102.34008 123.048578,103.207057 122.666775,104.058895 L127.664529,112.388485 C128.234589,113.338585 128.084874,114.554736 127.301402,115.338209 L116.338209,126.301402 C115.554736,127.084874 114.338585,127.234589 113.388485,126.664529 L105.282195,121.800755 C104.334703,122.248954 103.367407,122.65534 102.38281,123.01854 L100.094687,132.171001 Z M90,110.292683 C78.4828424,110.292683 69.1463415,100.956182 69.1463415,89.4390244 C69.1463415,77.9218668 78.4828424,68.5853659 90,68.5853659 C101.517158,68.5853659 110.853659,77.9218668 110.853659,89.4390244 C110.853659,100.956182 101.517158,110.292683 90,110.292683 Z M90,108.097561 C100.304825,108.097561 108.658537,99.7438496 108.658537,89.4390244 C108.658537,79.1341992 100.304825,70.7804878 90,70.7804878 C79.6951748,70.7804878 71.3414634,79.1341992 71.3414634,89.4390244 C71.3414634,99.7438496 79.6951748,108.097561 90,108.097561 Z M90,109.853659 C101.274691,109.853659 110.414634,100.713716 110.414634,89.4390244 C110.414634,78.1643333 101.274691,69.0243902 90,69.0243902 C78.7253089,69.0243902 69.5853659,78.1643333 69.5853659,89.4390244 C69.5853659,100.713716 78.7253089,109.853659 90,109.853659 Z M90,112.04878 C77.5129765,112.04878 67.3902439,101.926048 67.3902439,89.4390244 C67.3902439,76.9520009 77.5129765,66.8292683 90,66.8292683 C102.487023,66.8292683 112.609756,76.9520009 112.609756,89.4390244 C112.609756,101.926048 102.487023,112.04878 90,112.04878 Z" id="Combined-Shape" fill="#24231F" fill-rule="nonzero"></path>
            <path d="M100.20693,89.6884545 L85.0339584,98.8953803 C84.6758627,99.1126719 84.2196866,98.9805597 84.0150605,98.6002993 C83.9505821,98.4804778 83.9166667,98.3448624 83.9166667,98.2068579 L83.9166667,79.7930064 C83.9166667,79.355041 84.251013,79 84.66345,79 C84.7934105,79 84.9211211,79.0360146 85.0339584,79.104484 L100.20693,88.3114098 C100.565026,88.5287015 100.689438,89.0131131 100.484812,89.3933735 C100.418655,89.5163143 100.322705,89.6182026 100.20693,89.6884545 Z" id="Triangle" fill="#FFFFFF"></path>
            <path d="M84.66345,77 C83.1186976,77 81.9166667,78.276432 81.9166667,79.7930064 L81.9166667,98.2068579 C81.9166667,98.6744475 82.0320508,99.135827 82.253868,99.5480339 C82.9943464,100.924078 84.7216205,101.424311 86.0714835,100.605217 L101.244456,91.3982912 C101.667562,91.141551 102.012212,90.7755694 102.246004,90.3411081 C102.949084,89.0345631 102.523558,87.3777297 101.244456,86.6015731 L86.0714835,77.3946473 C85.6471244,77.1371472 85.1607901,77 84.66345,77 Z M85.916,81.979 L97.486,89 L85.916,96.02 L85.916,81.979 Z" id="Triangle" fill="#24231F" fill-rule="nonzero"></path>
        </g>
    </g>
</svg>