<?xml version="1.0" encoding="UTF-8"?>
<svg width="220px" height="220px" viewBox="0 0 220 220" version="1.1" xmlns="http://www.w3.org/2000/svg" xmlns:xlink="http://www.w3.org/1999/xlink">
    <title>whySonar/高效率</title>
    <g id="whySonar/高效率" stroke="none" stroke-width="1" fill="none" fill-rule="evenodd">
        <circle id="Oval-Copy-2" fill="#E2E3E6" cx="110" cy="110" r="110"></circle>
        <circle id="Oval-Copy-2" stroke="#C71532" stroke-width="6" fill="#FFFFFF" cx="110" cy="110" r="97"></circle>
        <g id="Group" transform="translate(20.000000, 20.000000)">
            <circle id="Oval" fill="#E2E3E6" cx="90" cy="90" r="80"></circle>
            <path d="M44.6,62 L153.4,62 C154.283656,62 155,62.7163444 155,63.6 L155,138.4 C155,139.283656 154.283656,140 153.4,140 L44.6,140 C43.7163444,140 43,139.283656 43,138.4 L43,63.6 C43,62.7163444 43.7163444,62 44.6,62 Z" id="Rectangle" fill="#D40B26"></path>
            <path d="M148.557195,56.8116264 C148.653105,57.6900617 148.018743,58.4799246 147.140307,58.5758346 C146.310674,58.6664162 145.560045,58.1056132 145.398406,57.3030098 L145.376099,57.1589472 C145.156074,55.1437452 143.445365,53.6 141.4,53.6 C140.516344,53.6 139.8,52.8836556 139.8,52 C139.8,51.1163444 140.516344,50.4 141.4,50.4 C145.082568,50.4 148.160405,53.1774422 148.557195,56.8116264 Z M148.6,73.0278911 C148.6,73.9115467 147.883656,74.6278911 147,74.6278911 C146.116344,74.6278911 145.4,73.9115467 145.4,73.0278911 L145.4,65.0278911 C145.4,64.1442355 146.116344,63.4278911 147,63.4278911 C147.883656,63.4278911 148.6,64.1442355 148.6,65.0278911 L148.6,73.0278911 Z M148.6,89.0278911 C148.6,89.9115467 147.883656,90.6278911 147,90.6278911 C146.116344,90.6278911 145.4,89.9115467 145.4,89.0278911 L145.4,81.0278911 C145.4,80.1442355 146.116344,79.4278911 147,79.4278911 C147.883656,79.4278911 148.6,80.1442355 148.6,81.0278911 L148.6,89.0278911 Z M148.6,105.027891 C148.6,105.911547 147.883656,106.627891 147,106.627891 C146.116344,106.627891 145.4,105.911547 145.4,105.027891 L145.4,97.0278911 C145.4,96.1442355 146.116344,95.4278911 147,95.4278911 C147.883656,95.4278911 148.6,96.1442355 148.6,97.0278911 L148.6,105.027891 Z M148.6,121.027891 C148.6,121.911547 147.883656,122.627891 147,122.627891 C146.116344,122.627891 145.4,121.911547 145.4,121.027891 L145.4,113.027891 C145.4,112.144236 146.116344,111.427891 147,111.427891 C147.883656,111.427891 148.6,112.144236 148.6,113.027891 L148.6,121.027891 Z M137.344588,131.6 C136.460933,131.600205 135.744422,130.884026 135.744218,130.00037 C135.744013,129.116715 136.460192,128.400205 137.343847,128.4 L141.475524,128.399307 C142.37667,128.382749 143.224911,128.068018 143.909731,127.514981 L144.092365,127.358289 C144.745646,126.76325 145.757609,126.810464 146.352648,127.463745 C146.947687,128.117026 146.900473,129.128989 146.247192,129.724028 C144.964566,130.892304 143.3016,131.566295 141.505287,131.599037 L137.344588,131.6 Z M121.344218,131.6 C120.460562,131.6 119.744218,130.883656 119.744218,130 C119.744218,129.116344 120.460562,128.4 121.344218,128.4 L129.344218,128.4 C130.227873,128.4 130.944218,129.116344 130.944218,130 C130.944218,130.883656 130.227873,131.6 129.344218,131.6 L121.344218,131.6 Z M105.344218,131.6 C104.460562,131.6 103.744218,130.883656 103.744218,130 C103.744218,129.116344 104.460562,128.4 105.344218,128.4 L113.344218,128.4 C114.227873,128.4 114.944218,129.116344 114.944218,130 C114.944218,130.883656 114.227873,131.6 113.344218,131.6 L105.344218,131.6 Z M89.3442178,131.6 C88.4605622,131.6 87.7442178,130.883656 87.7442178,130 C87.7442178,129.116344 88.4605622,128.4 89.3442178,128.4 L97.3442178,128.4 C98.2278734,128.4 98.9442178,129.116344 98.9442178,130 C98.9442178,130.883656 98.2278734,131.6 97.3442178,131.6 L89.3442178,131.6 Z M73.3442178,131.6 C72.4605622,131.6 71.7442178,130.883656 71.7442178,130 C71.7442178,129.116344 72.4605622,128.4 73.3442178,128.4 L81.3442178,128.4 C82.2278734,128.4 82.9442178,129.116344 82.9442178,130 C82.9442178,130.883656 82.2278734,131.6 81.3442178,131.6 L73.3442178,131.6 Z M57.3442178,131.6 C56.4605622,131.6 55.7442178,130.883656 55.7442178,130 C55.7442178,129.116344 56.4605622,128.4 57.3442178,128.4 L65.3442178,128.4 C66.2278734,128.4 66.9442178,129.116344 66.9442178,130 C66.9442178,130.883656 66.2278734,131.6 65.3442178,131.6 L57.3442178,131.6 Z M41.3442178,131.6 C40.4605622,131.6 39.7442178,130.883656 39.7442178,130 C39.7442178,129.116344 40.4605622,128.4 41.3442178,128.4 L49.3442178,128.4 C50.2278734,128.4 50.9442178,129.116344 50.9442178,130 C50.9442178,130.883656 50.2278734,131.6 49.3442178,131.6 L41.3442178,131.6 Z M33.4,117.716489 C33.3999101,116.832834 34.1161816,116.116327 34.9998372,116.116327 C35.8834928,116.116327 36.5999101,116.832508 36.6,117.716164 L36.6004961,124.463902 C36.6042082,124.702793 36.6287354,124.938103 36.6733927,125.168224 L36.7247348,125.396556 C36.9439597,126.252586 36.4277271,127.124252 35.571697,127.343477 C34.7156668,127.562702 33.8440003,127.04647 33.6247753,126.190439 C33.4852633,125.645672 33.4097419,125.083765 33.4006892,124.488925 L33.4,117.716489 Z M33.4,101.716327 C33.4,100.832671 34.1163444,100.116327 35,100.116327 C35.8836556,100.116327 36.6,100.832671 36.6,101.716327 L36.6,109.716327 C36.6,110.599982 35.8836556,111.316327 35,111.316327 C34.1163444,111.316327 33.4,110.599982 33.4,109.716327 L33.4,101.716327 Z M33.4,85.7163267 C33.4,84.8326711 34.1163444,84.1163267 35,84.1163267 C35.8836556,84.1163267 36.6,84.8326711 36.6,85.7163267 L36.6,93.7163267 C36.6,94.5999823 35.8836556,95.3163267 35,95.3163267 C34.1163444,95.3163267 33.4,94.5999823 33.4,93.7163267 L33.4,85.7163267 Z M33.4,69.7163267 C33.4,68.8326711 34.1163444,68.1163267 35,68.1163267 C35.8836556,68.1163267 36.6,68.8326711 36.6,69.7163267 L36.6,77.7163267 C36.6,78.5999823 35.8836556,79.3163267 35,79.3163267 C34.1163444,79.3163267 33.4,78.5999823 33.4,77.7163267 L33.4,69.7163267 Z M35.131782,52.9159784 C35.7068848,52.2450805 36.7169679,52.1674232 37.3878658,52.742526 C38.0587637,53.3176288 38.136421,54.3277119 37.5613182,54.9986098 C36.9438853,55.7188888 36.6,56.6307395 36.6,57.6 L36.6,61.7163267 C36.6,62.5999823 35.8836556,63.3163267 35,63.3163267 C34.1163444,63.3163267 33.4,62.5999823 33.4,61.7163267 L33.4,57.6 C33.4,55.8595447 34.0217469,54.2109124 35.131782,52.9159784 Z M51.9115645,50.4 C52.7952201,50.4 53.5115645,51.1163444 53.5115645,52 C53.5115645,52.8836556 52.7952201,53.6 51.9115645,53.6 L43.9115645,53.6 C43.0279089,53.6 42.3115645,52.8836556 42.3115645,52 C42.3115645,51.1163444 43.0279089,50.4 43.9115645,50.4 L51.9115645,50.4 Z M67.9115645,50.4 C68.7952201,50.4 69.5115645,51.1163444 69.5115645,52 C69.5115645,52.8836556 68.7952201,53.6 67.9115645,53.6 L59.9115645,53.6 C59.0279089,53.6 58.3115645,52.8836556 58.3115645,52 C58.3115645,51.1163444 59.0279089,50.4 59.9115645,50.4 L67.9115645,50.4 Z M83.9115645,50.4 C84.7952201,50.4 85.5115645,51.1163444 85.5115645,52 C85.5115645,52.8836556 84.7952201,53.6 83.9115645,53.6 L75.9115645,53.6 C75.0279089,53.6 74.3115645,52.8836556 74.3115645,52 C74.3115645,51.1163444 75.0279089,50.4 75.9115645,50.4 L83.9115645,50.4 Z M99.9115645,50.4 C100.79522,50.4 101.511564,51.1163444 101.511564,52 C101.511564,52.8836556 100.79522,53.6 99.9115645,53.6 L91.9115645,53.6 C91.0279089,53.6 90.3115645,52.8836556 90.3115645,52 C90.3115645,51.1163444 91.0279089,50.4 91.9115645,50.4 L99.9115645,50.4 Z M115.911564,50.4 C116.79522,50.4 117.511564,51.1163444 117.511564,52 C117.511564,52.8836556 116.79522,53.6 115.911564,53.6 L107.911564,53.6 C107.027909,53.6 106.311564,52.8836556 106.311564,52 C106.311564,51.1163444 107.027909,50.4 107.911564,50.4 L115.911564,50.4 Z M131.911564,50.4 C132.79522,50.4 133.511564,51.1163444 133.511564,52 C133.511564,52.8836556 132.79522,53.6 131.911564,53.6 L123.911564,53.6 C123.027909,53.6 122.311564,52.8836556 122.311564,52 C122.311564,51.1163444 123.027909,50.4 123.911564,50.4 L131.911564,50.4 Z M141.4,50.4 C142.283656,50.4 143,51.1163444 143,52 C143,52.8836556 142.283656,53.6 141.4,53.6 L139.911564,53.6 C139.027909,53.6 138.311564,52.8836556 138.311564,52 C138.311564,51.1163444 139.027909,50.4 139.911564,50.4 L141.4,50.4 Z" id="Rectangle" fill="#24231F" fill-rule="nonzero"></path>
            <rect id="Rectangle" fill="#24231F" x="113" y="100" width="24" height="20" rx="2"></rect>
            <path d="M173.085366,79 C173.637651,79 174.085366,79.4477153 174.085366,80 C174.085366,80.5128358 173.699326,80.9355072 173.201987,80.9932723 L173.085366,81 L147.085366,81 C146.533081,81 146.085366,80.5522847 146.085366,80 C146.085366,79.4871642 146.471406,79.0644928 146.968745,79.0067277 L147.085366,79 L173.085366,79 Z" id="Line-3-Copy-32" fill="#24231F" fill-rule="nonzero"></path>
            <path d="M163.829268,148 C164.381553,148 164.829268,148.447715 164.829268,149 C164.829268,149.512836 164.443228,149.935507 163.945889,149.993272 L163.829268,150 L99,150 C98.4477153,150 98,149.552285 98,149 C98,148.487164 98.3860402,148.064493 98.8833789,148.006728 L99,148 L163.829268,148 Z" id="Line-3-Copy-30" fill="#24231F" fill-rule="nonzero"></path>
            <path d="M128.829268,154 C129.381553,154 129.829268,154.447715 129.829268,155 C129.829268,155.512836 129.443228,155.935507 128.945889,155.993272 L128.829268,156 L64,156 C63.4477153,156 63,155.552285 63,155 C63,154.487164 63.3860402,154.064493 63.8833789,154.006728 L64,154 L128.829268,154 Z" id="Line-3-Copy-34" fill="#24231F" fill-rule="nonzero"></path>
            <path d="M78.4146341,37.5 C78.9669189,37.5 79.4146341,37.9477153 79.4146341,38.5 C79.4146341,39.0128358 79.028594,39.4355072 78.5312553,39.4932723 L78.4146341,39.5 L13.5853659,39.5 C13.0330811,39.5 12.5853659,39.0522847 12.5853659,38.5 C12.5853659,37.9871642 12.971406,37.5644928 13.4687447,37.5067277 L13.5853659,37.5 L78.4146341,37.5 Z" id="Line-3-Copy-29" fill="#24231F" fill-rule="nonzero"></path>
            <path d="M71.6707317,31.5 C72.2230165,31.5 72.6707317,31.9477153 72.6707317,32.5 C72.6707317,33.0128358 72.2846915,33.4355072 71.7873528,33.4932723 L71.6707317,33.5 L45.6707317,33.5 C45.118447,33.5 44.6707317,33.0522847 44.6707317,32.5 C44.6707317,31.9871642 45.0567719,31.5644928 45.5541106,31.5067277 L45.6707317,31.5 L71.6707317,31.5 Z" id="Line-3-Copy-31" fill="#24231F" fill-rule="nonzero"></path>
            <path d="M150.957317,23 C151.509602,23 151.957317,23.4477153 151.957317,24 C151.957317,24.5128358 151.571277,24.9355072 151.073938,24.9932723 L150.957317,25 L99.0426829,25 C98.4903982,25 98.0426829,24.5522847 98.0426829,24 C98.0426829,23.4871642 98.4287231,23.0644928 98.9260618,23.0067277 L99.0426829,23 L150.957317,23 Z" id="Line-3-Copy-35" fill="#24231F" fill-rule="nonzero"></path>
            <rect id="Rectangle-Copy-20" fill="#EABDBF" x="24" y="64" width="5" height="5"></rect>
            <rect id="Rectangle-Copy-21" fill="#EABDBF" x="59" y="19" width="5" height="5"></rect>
            <rect id="Rectangle-Copy-22" fill="#EABDBF" x="96" y="33" width="5" height="5"></rect>
            <rect id="Rectangle-Copy-29" fill="#EABDBF" x="126" y="38" width="5" height="5"></rect>
            <rect id="Rectangle-Copy-23" fill="#EABDBF" x="161" y="57" width="5" height="5"></rect>
            <rect id="Rectangle-Copy-31" fill="#EABDBF" x="145" y="155" width="5" height="5"></rect>
            <rect id="Rectangle-Copy-24" fill="#EABDBF" x="14" y="86" width="5" height="5"></rect>
            <rect id="Rectangle-Copy-25" fill="#EABDBF" x="56" y="147" width="5" height="5"></rect>
            <rect id="Rectangle-Copy-30" fill="#EABDBF" x="147" y="35" width="5" height="5"></rect>
            <rect id="Rectangle-Copy-26" fill="#EABDBF" x="88" y="162" width="5" height="5"></rect>
            <rect id="Rectangle-Copy-27" fill="#EABDBF" x="153" y="105" width="5" height="5"></rect>
            <rect id="Rectangle-Copy-28" fill="#EABDBF" x="17" y="142" width="5" height="5"></rect>
            <path d="M35.0853659,109 C35.6376506,109 36.0853659,109.447715 36.0853659,110 C36.0853659,110.512836 35.6993257,110.935507 35.201987,110.993272 L35.0853659,111 L9.08536585,111 C8.5330811,111 8.08536585,110.552285 8.08536585,110 C8.08536585,109.487164 8.47140604,109.064493 8.96874473,109.006728 L9.08536585,109 L35.0853659,109 Z" id="Line-3-Copy-33" fill="#24231F" fill-rule="nonzero"></path>
        </g>
    </g>
</svg>