<?xml version="1.0" encoding="UTF-8"?>
<svg width="180px" height="180px" viewBox="0 0 180 180" version="1.1" xmlns="http://www.w3.org/2000/svg" xmlns:xlink="http://www.w3.org/1999/xlink">
    <title>sonarlogo</title>
    <defs>
        <polygon id="path-1" points="0 -9.09494702e-13 179.102331 -9.09494702e-13 179.102331 178.265068 0 178.265068"></polygon>
    </defs>
    <g id="ThreatSonar更新" stroke="none" stroke-width="1" fill="none" fill-rule="evenodd">
        <g id="1440up_ThreatSonar" transform="translate(-870.000000, -3171.000000)">
            <g id="section_whyThreatSonar" transform="translate(-33.000000, 2581.000000)">
                <g id="Intelligence-Corelation-" transform="translate(493.000000, 570.000000)">
                    <g id="sonarlogo" transform="translate(410.000000, 20.838509)">
                        <g id="Group-3">
                            <mask id="mask-2" fill="white">
                                <use xlink:href="#path-1"></use>
                            </mask>
                            <g id="Clip-2"></g>
                            <path d="M179.102752,89.1323665 C179.102752,138.359571 139.009063,178.265068 89.5515865,178.265068 C40.0932679,178.265068 -0.00042122299,138.359571 -0.00042122299,89.1323665 C-0.00042122299,39.906 40.0932679,-0.000335403727 89.5515865,-0.000335403727 C139.009063,-0.000335403727 179.102752,39.906 179.102752,89.1323665" id="Fill-1" fill="#C71532" mask="url(#mask-2)"></path>
                        </g>
                        <path d="M37.0494263,97.8085901 C37.6130227,97.8085901 38.1631399,97.8605776 38.70736,97.935205 C38.2094744,95.0549255 37.9407341,92.1151118 37.9407341,89.1325342 C37.9407341,75.4094907 43.3087999,62.5090248 53.0575848,52.8099876 C60.6893029,45.2139317 70.3218303,40.2600186 80.9198007,38.489087 C83.3123473,38.0882795 84.9247889,35.835205 84.5237846,33.4538385 C84.1210954,31.0775031 81.8507035,29.4985901 79.4674238,29.8700497 C67.0573521,31.9478758 55.7778429,37.7428137 46.8496004,46.6310124 C35.4437243,57.9777205 29.1607621,73.0750807 29.1607621,89.1325342 C29.1607621,92.808559 29.506165,96.4300807 30.1514786,99.9727826 C32.1135353,98.6127205 34.4900754,97.8085901 37.0494263,97.8085901" id="Fill-4" fill="#FEFEFE"></path>
                        <path d="M50.6609945,74.1296739 C48.8227774,78.8538354 47.8295335,83.9125621 47.8295335,89.1322826 C47.8295335,100.227438 52.1681303,110.655978 60.04837,118.499394 C61.9725167,120.41455 64.0558856,122.111693 66.263094,123.595016 C66.419789,120.415388 67.8182493,117.552717 69.9942873,115.479922 C68.6893385,114.516475 67.4256695,113.48427 66.2563545,112.320419 C60.0348909,106.128866 56.610348,97.893028 56.610348,89.1322826 C56.610348,85.5828727 57.2000602,82.1290528 58.2834457,78.8521584 C55.1748201,78.3012578 52.4739382,76.5638665 50.6609945,74.1296739" id="Fill-6" fill="#FEFEFE"></path>
                        <path d="M80.9717796,48.4871366 C75.0771851,49.7138758 69.5718006,52.1874783 64.7698585,55.7251491 C67.662818,56.8470745 70.0191394,59.0422919 71.3485192,61.8169193 C74.8084448,59.5277888 78.6685323,57.8952112 82.7729291,57.0390932 C85.145257,56.5435342 86.6650296,54.2309255 86.1696713,51.8671677 C85.6701009,49.5025714 83.3575867,47.9966087 80.9717796,48.4871366" id="Fill-8" fill="#FEFEFE"></path>
                        <path d="M135.267592,49.8935683 L139.158007,46.0204938 C140.889234,44.2981957 140.889234,41.4791273 139.158007,39.7568292 C137.427623,38.0336925 134.59532,38.0336925 132.864093,39.7568292 L86.4048823,85.9997795 C84.6736558,87.7220776 84.6736558,90.541146 86.4048823,92.2642826 C88.1352663,93.9865807 90.9675697,93.9865807 92.6987962,92.2642826 L102.263928,82.7430093 C103.264754,84.7051211 103.829192,86.8701522 103.829192,89.1324503 C103.829192,92.9258665 102.34396,96.4979161 99.6472906,99.1819845 C94.2598486,104.550121 84.8539392,104.558506 79.4563878,99.1819845 C76.7597182,96.4979161 75.2761709,92.930059 75.2761709,89.1324503 C75.2761709,85.3381957 76.7622456,81.7669845 79.4563878,79.0829161 C81.8186063,76.731736 84.9482932,75.2727298 88.2709001,74.978413 C90.6861927,74.7604006 92.467966,72.6398106 92.2514574,70.2374814 C92.0332638,67.8309596 89.8824993,66.0340342 87.4857404,66.2730093 C82.1185171,66.7509596 77.0613139,69.1063323 73.245876,72.903941 C68.8929577,77.2440652 66.4961988,83.0046242 66.4961988,89.1324503 C66.4961988,95.2644689 68.8946426,101.02922 73.2484034,105.360121 C77.6046915,109.696053 83.3939803,112.081612 89.5505755,112.081612 C95.711383,112.081612 101.501514,109.696053 105.85696,105.360121 C110.210721,101.020835 112.609164,95.2602764 112.609164,89.1324503 C112.609164,84.5080714 111.210704,80.1151211 108.67073,76.3669845 L115.75233,69.3176366 C120.104406,74.9926677 122.493583,81.8734752 122.493583,89.1366429 C122.493583,97.8973882 119.068198,106.133227 112.845049,112.320587 C106.792917,118.341922 98.7972626,121.705183 90.2683395,121.886301 C90.4149251,122.632575 90.4966424,123.400649 90.4966424,124.188009 C90.4966424,126.548413 89.7974122,128.7495 88.6087209,130.615183 C88.9237957,130.621891 89.2338159,130.660463 89.5505755,130.660463 C100.695293,130.660463 111.170267,126.34214 119.053034,118.498724 C126.932431,110.664531 131.274398,100.235991 131.274398,89.1366429 C131.274398,79.5357112 127.987173,70.4521398 122.004964,63.095059 L129.028437,56.1035683 C136.859814,65.347295 141.159659,76.9027919 141.159659,89.1324503 C141.159659,102.855494 135.792435,115.755121 126.045335,125.454997 C116.300763,135.154034 103.343101,140.496177 89.5522604,140.496177 C75.7673169,140.496177 62.8046006,135.154034 53.0575006,125.454997 C50.5739698,122.982233 48.3777131,120.299842 46.4788399,117.451425 C44.6128221,119.74978 41.9178374,121.347978 38.8597585,121.809997 C41.1486842,125.31245 43.8108135,128.60863 46.8495161,131.633134 C58.2562347,142.984034 73.4219472,149.23596 89.5522604,149.23596 C105.687628,149.23596 120.851656,142.984034 132.25332,131.633134 C143.660038,120.283071 149.940473,105.189904 149.940473,89.1324503 C149.940473,74.5658665 144.747636,60.803413 135.267592,49.8935683" id="Fill-10" fill="#FEFEFE"></path>
                        <path d="M44.675837,109.884214 C44.675837,105.709276 41.2437121,102.292351 37.0491736,102.292351 C32.854635,102.292351 29.4225101,105.709276 29.4225101,109.884214 C29.4225101,114.059152 32.854635,117.476078 37.0491736,117.476078 C41.2437121,117.476078 44.675837,114.059152 44.675837,109.884214" id="Fill-12" fill="#FEFEFE"></path>
                        <path d="M60.4010179,59.8189193 C56.4482614,59.8189193 53.2132688,63.038795 53.2132688,66.9739193 C53.2132688,70.9090435 56.4482614,74.1289193 60.4010179,74.1289193 C64.3546169,74.1289193 67.5896095,70.9090435 67.5896095,66.9739193 C67.5896095,63.038795 64.3546169,59.8189193 60.4010179,59.8189193" id="Fill-14" fill="#FEFEFE"></path>
                        <path d="M85.5534221,124.18759 C85.5534221,120.252466 82.3184295,117.03259 78.3648305,117.03259 C74.4103891,117.03259 71.176239,120.252466 71.176239,124.18759 C71.176239,128.122714 74.4103891,131.34259 78.3648305,131.34259 C82.3184295,131.34259 85.5534221,128.122714 85.5534221,124.18759" id="Fill-16" fill="#FEFEFE"></path>
                    </g>
                </g>
            </g>
        </g>
    </g>
</svg>