<?xml version="1.0" encoding="UTF-8"?>
<svg width="480px" height="400px" viewBox="0 0 480 400" version="1.1" xmlns="http://www.w3.org/2000/svg" xmlns:xlink="http://www.w3.org/1999/xlink">
    <title>img/APT</title>
    <g id="img/APT" stroke="none" stroke-width="1" fill="none" fill-rule="evenodd">
        <circle id="Oval-Copy-17" fill="#E2E3E6" cx="153" cy="247" r="138"></circle>
        <circle id="Oval-Copy-18" fill="#E2E3E6" cx="299" cy="169" r="160"></circle>
        <path d="M115.7,39 L119.7,39 C120.252285,39 120.7,38.5522847 120.7,38 C120.7,37.4477153 120.252285,37 119.7,37 L115.7,37 C115.147715,37 114.7,37.4477153 114.7,38 C114.7,38.5522847 115.147715,39 115.7,39 Z M129.7,39 L133.7,39 C134.252285,39 134.7,38.5522847 134.7,38 C134.7,37.4477153 134.252285,37 133.7,37 L129.7,37 C129.147715,37 128.7,37.4477153 128.7,38 C128.7,38.5522847 129.147715,39 129.7,39 Z M143.7,39 L147.7,39 C148.252285,39 148.7,38.5522847 148.7,38 C148.7,37.4477153 148.252285,37 147.7,37 L143.7,37 C143.147715,37 142.7,37.4477153 142.7,38 C142.7,38.5522847 143.147715,39 143.7,39 Z M157.7,39 L161.7,39 C162.252285,39 162.7,38.5522847 162.7,38 C162.7,37.4477153 162.252285,37 161.7,37 L157.7,37 C157.147715,37 156.7,37.4477153 156.7,38 C156.7,38.5522847 157.147715,39 157.7,39 Z M171.7,39 L175.7,39 C176.252285,39 176.7,38.5522847 176.7,38 C176.7,37.4477153 176.252285,37 175.7,37 L171.7,37 C171.147715,37 170.7,37.4477153 170.7,38 C170.7,38.5522847 171.147715,39 171.7,39 Z M185.7,39 L189.7,39 C190.252285,39 190.7,38.5522847 190.7,38 C190.7,37.4477153 190.252285,37 189.7,37 L185.7,37 C185.147715,37 184.7,37.4477153 184.7,38 C184.7,38.5522847 185.147715,39 185.7,39 Z M199.7,39 L203.7,39 C204.252285,39 204.7,38.5522847 204.7,38 C204.7,37.4477153 204.252285,37 203.7,37 L199.7,37 C199.147715,37 198.7,37.4477153 198.7,38 C198.7,38.5522847 199.147715,39 199.7,39 Z M213.7,39 L217.7,39 C218.252285,39 218.7,38.5522847 218.7,38 C218.7,37.4477153 218.252285,37 217.7,37 L213.7,37 C213.147715,37 212.7,37.4477153 212.7,38 C212.7,38.5522847 213.147715,39 213.7,39 Z M227.7,39 L231.7,39 C232.252285,39 232.7,38.5522847 232.7,38 C232.7,37.4477153 232.252285,37 231.7,37 L227.7,37 C227.147715,37 226.7,37.4477153 226.7,38 C226.7,38.5522847 227.147715,39 227.7,39 Z M241.7,39 L245.7,39 C246.252285,39 246.7,38.5522847 246.7,38 C246.7,37.4477153 246.252285,37 245.7,37 L241.7,37 C241.147715,37 240.7,37.4477153 240.7,38 C240.7,38.5522847 241.147715,39 241.7,39 Z M255.7,39 L259.7,39 C260.252285,39 260.7,38.5522847 260.7,38 C260.7,37.4477153 260.252285,37 259.7,37 L255.7,37 C255.147715,37 254.7,37.4477153 254.7,38 C254.7,38.5522847 255.147715,39 255.7,39 Z M269.7,39 L273.7,39 C274.252285,39 274.7,38.5522847 274.7,38 C274.7,37.4477153 274.252285,37 273.7,37 L269.7,37 C269.147715,37 268.7,37.4477153 268.7,38 C268.7,38.5522847 269.147715,39 269.7,39 Z M283.618146,39.2065316 C284.931817,39.3070742 286.239242,39.4441721 287.53937,39.6174876 C288.086812,39.6904651 288.589762,39.3058357 288.662739,38.7583937 C288.735717,38.2109517 288.351087,37.7080023 287.803645,37.6350248 C286.466433,37.4567658 285.121776,37.3157637 283.770771,37.2123637 C283.220097,37.1702174 282.739521,37.5824609 282.697375,38.1331351 C282.655228,38.6838094 283.067472,39.1643853 283.618146,39.2065316 Z M297.2049,41.6104267 C298.472344,41.9671334 299.728249,42.3594923 300.971383,42.7869283 C301.493657,42.9665057 302.06262,42.6886951 302.242198,42.1664208 C302.421775,41.6441466 302.143965,41.0751834 301.62169,40.8956059 C300.342754,40.4558595 299.050674,40.0521993 297.746726,39.6852191 C297.215094,39.5355979 296.66283,39.8452784 296.513209,40.3769098 C296.363588,40.9085412 296.673268,41.4608055 297.2049,41.6104267 Z M310.05814,46.6528724 C311.228937,47.2523433 312.38244,47.8847523 313.517338,48.5492507 C313.993937,48.8283058 314.606516,48.6681648 314.885571,48.1915657 C315.164626,47.7149666 315.004485,47.1023879 314.527886,46.8233327 C313.360514,46.1398208 312.173984,45.4893047 310.969644,44.8726588 C310.478051,44.6209539 309.87549,44.8154212 309.623785,45.3070136 C309.37208,45.798606 309.566547,46.4011675 310.05814,46.6528724 Z M321.651212,54.1147667 C322.681885,54.9318412 323.689522,55.7777376 324.672868,56.6513549 C325.085748,57.0181631 325.717811,56.9808143 326.084619,56.567934 C326.451427,56.1550537 326.414078,55.5229913 326.001198,55.156183 C324.989915,54.2577457 323.953642,53.3878105 322.89367,52.5475082 C322.460883,52.204413 321.831907,52.2771222 321.488812,52.7099087 C321.145717,53.1426952 321.218426,53.7716716 321.651212,54.1147667 Z M331.602725,63.7412502 C332.453528,64.7441365 333.276051,65.7706683 334.069222,66.8195774 C334.402334,67.2600937 335.029484,67.3471618 335.47,67.0140495 C335.910517,66.6809372 335.997585,66.0537873 335.664472,65.613271 C334.848739,64.5345247 334.002828,63.4788045 333.127842,62.4474117 C332.770559,62.0262623 332.139514,61.9744888 331.718365,62.3317724 C331.297215,62.689056 331.245442,63.3201007 331.602725,63.7412502 Z M339.412736,75.0174951 C340.051926,76.1663751 340.658636,77.333199 341.232049,78.5166595 C341.472865,79.0136768 342.070997,79.2213689 342.568014,78.980553 C343.065032,78.7397371 343.272724,78.1416051 343.031908,77.6445879 C342.44205,76.4271878 341.817951,75.2269222 341.160453,74.0451358 C340.891944,73.5625169 340.283034,73.3889469 339.800415,73.6574566 C339.317796,73.9259662 339.144226,74.5348762 339.412736,75.0174951 Z M344.900614,87.6997496 C345.299908,88.9511941 345.663941,90.2147549 345.992167,91.4892165 C346.129909,92.0240489 346.675138,92.3459548 347.20997,92.2082133 C347.744802,92.0704718 348.066708,91.525243 347.928967,90.9904105 C347.591289,89.6792526 347.216772,88.3793006 346.805979,87.0918123 C346.638101,86.5656606 346.07548,86.2752217 345.549328,86.4430989 C345.023176,86.6109761 344.732737,87.1735978 344.900614,87.6997496 Z M347.77322,101.22544 C347.917271,102.529306 348.025063,103.839897 348.096281,105.156186 C348.126119,105.707664 348.597368,106.130537 349.148847,106.100699 C349.700325,106.070861 350.123198,105.599611 350.09336,105.048133 C350.020125,103.694563 349.909272,102.346767 349.761125,101.005817 C349.700477,100.456872 349.206305,100.061029 348.657361,100.121676 C348.108416,100.182323 347.712572,100.676495 347.77322,101.22544 Z M347.942318,115.049202 C347.829896,116.36286 347.680864,117.670038 347.495571,118.969672 C347.417618,119.516427 347.797658,120.022854 348.344414,120.100806 C348.89117,120.178759 349.397596,119.798719 349.475549,119.251963 C349.666132,117.915221 349.819413,116.570777 349.935034,115.219738 C349.982127,114.669465 349.574218,114.185204 349.023944,114.138112 C348.473671,114.09102 347.98941,114.498929 347.942318,115.049202 Z M345.41698,128.607708 C345.049169,129.870763 344.645851,131.122044 344.207613,132.360316 C344.023352,132.880957 344.296042,133.452392 344.816682,133.636652 C345.337323,133.820913 345.908758,133.548223 346.093018,133.027583 C346.543878,131.75365 346.958812,130.466328 347.337216,129.166895 C347.491632,128.636636 347.18695,128.081598 346.656692,127.927183 C346.126433,127.772767 345.571395,128.077449 345.41698,128.607708 Z M340.270192,141.3933 C339.660765,142.558624 339.018565,143.706407 338.344453,144.835339 C338.061309,145.30952 338.216174,145.923454 338.690355,146.206598 C339.164536,146.489743 339.77847,146.334877 340.061615,145.860696 C340.755007,144.699475 341.415587,143.518841 342.042468,142.320143 C342.298408,141.830743 342.109152,141.226524 341.619752,140.970583 C341.130351,140.714643 340.526133,140.903899 340.270192,141.3933 Z M332.691293,152.943585 C331.864924,153.967 331.009942,154.967121 330.12746,155.942698 C329.756967,156.352275 329.788651,156.984647 330.198228,157.35514 C330.607805,157.725633 331.240177,157.693949 331.61067,157.284372 C332.51822,156.281083 333.397494,155.252546 334.24735,154.200043 C334.594312,153.77035 334.527244,153.140747 334.097551,152.793786 C333.667858,152.446824 333.038255,152.513892 332.691293,152.943585 Z M322.971249,162.81252 C321.960572,163.654323 320.926498,164.467619 319.870301,165.251345 C319.426782,165.580448 319.334029,166.206782 319.663132,166.650302 C319.992235,167.093821 320.618569,167.186574 321.062089,166.857471 C322.148338,166.051446 323.211822,165.215019 324.251233,164.349283 C324.675599,163.995825 324.73308,163.365274 324.379622,162.940909 C324.026164,162.516544 323.395614,162.459062 322.971249,162.81252 Z M311.626471,170.518791 C310.471756,171.147558 309.299362,171.743676 308.110597,172.306341 C307.611406,172.542618 307.398272,173.138832 307.634548,173.638023 C307.870825,174.137214 308.467039,174.350349 308.966231,174.114072 C310.189101,173.535265 311.395109,172.922054 312.582912,172.275271 C313.06795,172.011157 313.247045,171.403849 312.982931,170.918811 C312.718818,170.433772 312.11151,170.254677 311.626471,170.518791 Z M298.897399,175.889946 C297.642541,176.277783 296.375828,176.630279 295.098468,176.9469 C294.562406,177.079774 294.235558,177.622055 294.368432,178.158117 C294.501307,178.694179 295.043588,179.021028 295.57965,178.888153 C296.893783,178.562417 298.196974,178.19977 299.487972,177.800764 C300.01563,177.637681 300.311176,177.077726 300.148094,176.550068 C299.985012,176.022411 299.425057,175.726864 298.897399,175.889946 Z M285.34796,178.639602 C284.042855,178.771947 282.73125,178.868028 281.414164,178.927538 C280.862442,178.952466 280.435391,179.419934 280.46032,179.971655 C280.485248,180.523377 280.952715,180.950428 281.504437,180.925499 C282.858772,180.864307 284.207559,180.765502 285.549737,180.629397 C286.099204,180.573678 286.499465,180.083078 286.443746,179.533611 C286.388027,178.984144 285.897427,178.583882 285.34796,178.639602 Z M271.425586,179 L267.425586,179 C266.873302,179 266.425586,179.447715 266.425586,180 C266.425586,180.552285 266.873302,181 267.425586,181 L271.425586,181 C271.977871,181 272.425586,180.552285 272.425586,180 C272.425586,179.447715 271.977871,179 271.425586,179 Z M257.425586,179 L253.425586,179 C252.873302,179 252.425586,179.447715 252.425586,180 C252.425586,180.552285 252.873302,181 253.425586,181 L257.425586,181 C257.977871,181 258.425586,180.552285 258.425586,180 C258.425586,179.447715 257.977871,179 257.425586,179 Z M243.425586,179 L239.425586,179 C238.873302,179 238.425586,179.447715 238.425586,180 C238.425586,180.552285 238.873302,181 239.425586,181 L243.425586,181 C243.977871,181 244.425586,180.552285 244.425586,180 C244.425586,179.447715 243.977871,179 243.425586,179 Z M229.425586,179 L225.425586,179 C224.873302,179 224.425586,179.447715 224.425586,180 C224.425586,180.552285 224.873302,181 225.425586,181 L229.425586,181 C229.977871,181 230.425586,180.552285 230.425586,180 C230.425586,179.447715 229.977871,179 229.425586,179 Z M215.425586,179 L211.425586,179 C210.873302,179 210.425586,179.447715 210.425586,180 C210.425586,180.552285 210.873302,181 211.425586,181 L215.425586,181 C215.977871,181 216.425586,180.552285 216.425586,180 C216.425586,179.447715 215.977871,179 215.425586,179 Z M201.425586,179 L197.425586,179 C196.873302,179 196.425586,179.447715 196.425586,180 C196.425586,180.552285 196.873302,181 197.425586,181 L201.425586,181 C201.977871,181 202.425586,180.552285 202.425586,180 C202.425586,179.447715 201.977871,179 201.425586,179 Z M187.425586,179 L183.425586,179 C182.873302,179 182.425586,179.447715 182.425586,180 C182.425586,180.552285 182.873302,181 183.425586,181 L187.425586,181 C187.977871,181 188.425586,180.552285 188.425586,180 C188.425586,179.447715 187.977871,179 187.425586,179 Z M173.425586,179 L169.425586,179 C168.873302,179 168.425586,179.447715 168.425586,180 C168.425586,180.552285 168.873302,181 169.425586,181 L173.425586,181 C173.977871,181 174.425586,180.552285 174.425586,180 C174.425586,179.447715 173.977871,179 173.425586,179 Z M159.425586,179 L155.425586,179 C154.873302,179 154.425586,179.447715 154.425586,180 C154.425586,180.552285 154.873302,181 155.425586,181 L159.425586,181 C159.977871,181 160.425586,180.552285 160.425586,180 C160.425586,179.447715 159.977871,179 159.425586,179 Z M145.425586,179 L141.425586,179 C140.873302,179 140.425586,179.447715 140.425586,180 C140.425586,180.552285 140.873302,181 141.425586,181 L145.425586,181 C145.977871,181 146.425586,180.552285 146.425586,180 C146.425586,179.447715 145.977871,179 145.425586,179 Z M131.425586,179 L127.425586,179 C126.873302,179 126.425586,179.447715 126.425586,180 C126.425586,180.552285 126.873302,181 127.425586,181 L131.425586,181 C131.977871,181 132.425586,180.552285 132.425586,180 C132.425586,179.447715 131.977871,179 131.425586,179 Z M117.425586,179 L113.425586,179 C112.873302,179 112.425586,179.447715 112.425586,180 C112.425586,180.552285 112.873302,181 113.425586,181 L117.425586,181 C117.977871,181 118.425586,180.552285 118.425586,180 C118.425586,179.447715 117.977871,179 117.425586,179 Z M103.425586,179 L99.4255864,179 C98.8733016,179 98.4255864,179.447715 98.4255864,180 C98.4255864,180.552285 98.8733016,181 99.4255864,181 L103.425586,181 C103.977871,181 104.425586,180.552285 104.425586,180 C104.425586,179.447715 103.977871,179 103.425586,179 Z M89.4255864,179 L85.4255864,179 C84.8733016,179 84.4255864,179.447715 84.4255864,180 C84.4255864,180.552285 84.8733016,181 85.4255864,181 L89.4255864,181 C89.9778711,181 90.4255864,180.552285 90.4255864,180 C90.4255864,179.447715 89.9778711,179 89.4255864,179 Z M75.4255864,179 L71.4255864,179 C70.8733016,179 70.4255864,179.447715 70.4255864,180 C70.4255864,180.552285 70.8733016,181 71.4255864,181 L75.4255864,181 C75.9778711,181 76.4255864,180.552285 76.4255864,180 C76.4255864,179.447715 75.9778711,179 75.4255864,179 Z M61.4255864,179 L57.4255864,179 C56.8733016,179 56.4255864,179.447715 56.4255864,180 C56.4255864,180.552285 56.8733016,181 57.4255864,181 L61.4255864,181 C61.9778711,181 62.4255864,180.552285 62.4255864,180 C62.4255864,179.447715 61.9778711,179 61.4255864,179 Z M47.4255864,179 L43.4255864,179 C42.8733016,179 42.4255864,179.447715 42.4255864,180 C42.4255864,180.552285 42.8733016,181 43.4255864,181 L47.4255864,181 C47.9778711,181 48.4255864,180.552285 48.4255864,180 C48.4255864,179.447715 47.9778711,179 47.4255864,179 Z M33.4255864,179 L30,179 L30,181 L30.5744136,181 C31.1266984,181 31.5744136,180.552285 31.5744136,180 C31.5744136,179.447715 31.1266984,179 30.5744136,179 L30,179 C28.6666667,179 28.6666667,181 30,181 L33.4255864,181 C33.9778711,181 34.4255864,180.552285 34.4255864,180 C34.4255864,179.447715 33.9778711,179 33.4255864,179 Z M40.5744136,181 L44.5744136,181 C45.1266984,181 45.5744136,180.552285 45.5744136,180 C45.5744136,179.447715 45.1266984,179 44.5744136,179 L40.5744136,179 C40.0221289,179 39.5744136,179.447715 39.5744136,180 C39.5744136,180.552285 40.0221289,181 40.5744136,181 Z M54.5744136,181 L58.5744136,181 C59.1266984,181 59.5744136,180.552285 59.5744136,180 C59.5744136,179.447715 59.1266984,179 58.5744136,179 L54.5744136,179 C54.0221289,179 53.5744136,179.447715 53.5744136,180 C53.5744136,180.552285 54.0221289,181 54.5744136,181 Z M68.5744136,181 L72.5744136,181 C73.1266984,181 73.5744136,180.552285 73.5744136,180 C73.5744136,179.447715 73.1266984,179 72.5744136,179 L68.5744136,179 C68.0221289,179 67.5744136,179.447715 67.5744136,180 C67.5744136,180.552285 68.0221289,181 68.5744136,181 Z M82.5744136,181 L86.5744136,181 C87.1266984,181 87.5744136,180.552285 87.5744136,180 C87.5744136,179.447715 87.1266984,179 86.5744136,179 L82.5744136,179 C82.0221289,179 81.5744136,179.447715 81.5744136,180 C81.5744136,180.552285 82.0221289,181 82.5744136,181 Z M96.5744136,181 L100.574414,181 C101.126698,181 101.574414,180.552285 101.574414,180 C101.574414,179.447715 101.126698,179 100.574414,179 L96.5744136,179 C96.0221289,179 95.5744136,179.447715 95.5744136,180 C95.5744136,180.552285 96.0221289,181 96.5744136,181 Z M110.574414,181 L114.574414,181 C115.126698,181 115.574414,180.552285 115.574414,180 C115.574414,179.447715 115.126698,179 114.574414,179 L110.574414,179 C110.022129,179 109.574414,179.447715 109.574414,180 C109.574414,180.552285 110.022129,181 110.574414,181 Z M124.589029,180.995014 C125.963958,180.973449 127.329783,180.881974 128.682904,180.721621 C129.231351,180.656627 129.623267,180.159335 129.558273,179.610888 C129.493279,179.062441 128.995987,178.670525 128.44754,178.735519 C127.162105,178.88785 125.864368,178.974765 124.557663,178.99526 C124.005446,179.003922 123.564808,179.458604 123.573469,180.01082 C123.582131,180.563037 124.036812,181.003676 124.589029,180.995014 Z M138.622351,178.20757 C139.895316,177.70229 141.140333,177.131496 142.352871,176.497808 C142.842342,176.242004 143.031767,175.637838 142.775963,175.148367 C142.520159,174.658895 141.915993,174.46947 141.426521,174.725274 C140.275187,175.326977 139.093079,175.868929 137.88449,176.348656 C137.371165,176.552411 137.120209,177.133719 137.323964,177.647044 C137.527718,178.160369 138.109026,178.411325 138.622351,178.20757 Z M150.745921,170.624209 C151.757191,169.702235 152.720659,168.72884 153.632208,167.708176 C154.000092,167.296254 153.964393,166.664097 153.552471,166.296212 C153.14055,165.928328 152.508392,165.964027 152.140508,166.375948 C151.274518,167.3456 150.359195,168.270353 149.398466,169.14625 C148.990338,169.51834 148.961124,170.15083 149.333214,170.558958 C149.705303,170.967085 150.337794,170.996299 150.745921,170.624209 Z M159.454978,159.184503 C160.073673,157.964187 160.629072,156.712087 161.118615,155.432723 C161.315988,154.916911 161.057842,154.33876 160.54203,154.141386 C160.026218,153.944013 159.448067,154.202159 159.250694,154.717971 C158.785917,155.932612 158.258594,157.121416 157.671143,158.280107 C157.421401,158.772699 157.61827,159.37448 158.110862,159.624222 C158.603454,159.873965 159.205236,159.677096 159.454978,159.184503 Z M163.500899,145.542245 C163.647263,144.188095 163.724785,142.821755 163.732487,141.446783 C163.735558,140.894507 163.290353,140.444296 162.738077,140.441193 C162.185801,140.438122 161.73559,140.883327 161.732502,141.435603 C161.725197,142.742478 161.651533,144.040817 161.51248,145.327326 C161.453132,145.876412 161.850143,146.369646 162.39923,146.428995 C162.948317,146.488343 163.441551,146.091332 163.500899,145.542245 Z M162.464207,131.252217 C162.121164,129.926968 161.710001,128.620572 161.232497,127.338261 C161.039767,126.820696 160.463959,126.557365 159.946394,126.750095 C159.428829,126.942825 159.165498,127.518633 159.358228,128.036198 C159.811731,129.254055 160.202225,130.49478 160.528022,131.753403 C160.666421,132.288065 161.212045,132.609301 161.746707,132.470902 C162.28137,132.332504 162.602606,131.78688 162.464207,131.252217 Z M156.420764,118.234681 C155.63065,117.118593 154.782831,116.043081 153.880233,115.012447 C153.51637,114.596968 152.884589,114.555126 152.469111,114.918989 C152.053633,115.282852 152.01179,115.914633 152.375653,116.330112 C153.23286,117.308916 154.038034,118.33033 154.788406,119.390279 C155.107515,119.841042 155.73162,119.947769 156.182384,119.628659 C156.633147,119.30955 156.739873,118.685445 156.420764,118.234681 Z" id="Rectangle" fill="#24231F" fill-rule="nonzero" transform="translate(189.547423, 109.000000) scale(-1, 1) translate(-189.547423, -109.000000) "></path>
        <path d="M218.7,184 L222.7,184 C223.252285,184 223.7,183.552285 223.7,183 C223.7,182.447715 223.252285,182 222.7,182 L218.7,182 C218.147715,182 217.7,182.447715 217.7,183 C217.7,183.552285 218.147715,184 218.7,184 Z M232.7,184 L236.7,184 C237.252285,184 237.7,183.552285 237.7,183 C237.7,182.447715 237.252285,182 236.7,182 L232.7,182 C232.147715,182 231.7,182.447715 231.7,183 C231.7,183.552285 232.147715,184 232.7,184 Z M246.7,184 L250.7,184 C251.252285,184 251.7,183.552285 251.7,183 C251.7,182.447715 251.252285,182 250.7,182 L246.7,182 C246.147715,182 245.7,182.447715 245.7,183 C245.7,183.552285 246.147715,184 246.7,184 Z M260.7,184 L264.7,184 C265.252285,184 265.7,183.552285 265.7,183 C265.7,182.447715 265.252285,182 264.7,182 L260.7,182 C260.147715,182 259.7,182.447715 259.7,183 C259.7,183.552285 260.147715,184 260.7,184 Z M274.7,184 L278.7,184 C279.252285,184 279.7,183.552285 279.7,183 C279.7,182.447715 279.252285,182 278.7,182 L274.7,182 C274.147715,182 273.7,182.447715 273.7,183 C273.7,183.552285 274.147715,184 274.7,184 Z M288.7,184 L292.7,184 C293.252285,184 293.7,183.552285 293.7,183 C293.7,182.447715 293.252285,182 292.7,182 L288.7,182 C288.147715,182 287.7,182.447715 287.7,183 C287.7,183.552285 288.147715,184 288.7,184 Z M302.7,184 L306.7,184 C307.252285,184 307.7,183.552285 307.7,183 C307.7,182.447715 307.252285,182 306.7,182 L302.7,182 C302.147715,182 301.7,182.447715 301.7,183 C301.7,183.552285 302.147715,184 302.7,184 Z M316.7,184 L320.7,184 C321.252285,184 321.7,183.552285 321.7,183 C321.7,182.447715 321.252285,182 320.7,182 L316.7,182 C316.147715,182 315.7,182.447715 315.7,183 C315.7,183.552285 316.147715,184 316.7,184 Z M330.7,184 L334.7,184 C335.252285,184 335.7,183.552285 335.7,183 C335.7,182.447715 335.252285,182 334.7,182 L330.7,182 C330.147715,182 329.7,182.447715 329.7,183 C329.7,183.552285 330.147715,184 330.7,184 Z M344.7,184 L348.7,184 C349.252285,184 349.7,183.552285 349.7,183 C349.7,182.447715 349.252285,182 348.7,182 L344.7,182 C344.147715,182 343.7,182.447715 343.7,183 C343.7,183.552285 344.147715,184 344.7,184 Z M358.7,184 L362.7,184 C363.252285,184 363.7,183.552285 363.7,183 C363.7,182.447715 363.252285,182 362.7,182 L358.7,182 C358.147715,182 357.7,182.447715 357.7,183 C357.7,183.552285 358.147715,184 358.7,184 Z M372.7,184 L376.7,184 C377.252285,184 377.7,183.552285 377.7,183 C377.7,182.447715 377.252285,182 376.7,182 L372.7,182 C372.147715,182 371.7,182.447715 371.7,183 C371.7,183.552285 372.147715,184 372.7,184 Z M386.689436,184.001804 C388.007992,184.011524 389.321604,184.060525 390.629139,184.148491 C391.180178,184.185562 391.656936,183.768909 391.694008,183.21787 C391.73108,182.666831 391.314427,182.190073 390.763387,182.153002 C389.416079,182.06236 388.062615,182.011873 386.70418,182.001858 C386.15191,181.997786 385.700907,182.442189 385.696807,182.994459 C385.692764,183.546728 386.137166,183.997732 386.689436,184.001804 Z M400.397514,185.554931 C401.68107,185.840881 402.953871,186.165581 404.214541,186.528447 C404.745277,186.681213 405.299365,186.374806 405.45213,185.84407 C405.604895,185.313333 405.298489,184.759246 404.767752,184.606481 C403.467992,184.232363 402.155735,183.897597 400.832411,183.602788 C400.293342,183.482694 399.758985,183.822341 399.638891,184.361411 C399.518798,184.900481 399.858445,185.434838 400.397514,185.554931 Z M413.457194,189.973634 C414.649694,190.525241 415.824863,191.112949 416.981194,191.735839 C417.467421,191.997758 418.073914,191.815921 418.335833,191.329695 C418.597753,190.843468 418.415916,190.236975 417.929689,189.975056 C416.737667,189.33294 415.5262,188.727079 414.296845,188.158424 C413.795589,187.926561 413.201278,188.144947 412.969415,188.646203 C412.737552,189.14746 412.955938,189.741771 413.457194,189.973634 Z M425.25351,197.035403 C426.30261,197.825116 427.327736,198.646392 428.327424,199.49799 C428.747845,199.856131 429.378994,199.805644 429.737135,199.385223 C430.095276,198.964802 430.044788,198.333654 429.624368,197.975513 C428.594079,197.097847 427.537562,196.251423 426.456323,195.437517 C426.015079,195.105369 425.388121,195.19381 425.055973,195.635054 C424.723826,196.076298 424.812266,196.703256 425.25351,197.035403 Z M435.359853,206.474172 C436.219742,207.467318 437.049502,208.486161 437.847879,209.52924 C438.183558,209.967804 438.811205,210.051209 439.249769,209.71553 C439.688333,209.379852 439.771738,208.752204 439.436059,208.31364 C438.61323,207.238614 437.758068,206.188579 436.871861,205.165038 C436.510354,204.747509 435.87882,204.702094 435.46129,205.063601 C435.043761,205.425108 434.998346,206.056642 435.359853,206.474172 Z M443.191984,217.718805 C443.824812,218.869283 444.422648,220.038866 444.98456,221.226047 C445.220835,221.725239 445.817049,221.938374 446.316241,221.702099 C446.815433,221.465824 447.028568,220.86961 446.792293,220.370418 C446.213021,219.146559 445.596727,217.940865 444.944374,216.754891 C444.678196,216.270982 444.070131,216.094476 443.586222,216.360653 C443.102313,216.626831 442.925806,217.234896 443.191984,217.718805 Z M448.515142,230.45076 C448.888853,231.708131 449.224487,232.977893 449.521449,234.25866 C449.646193,234.796673 450.183464,235.131692 450.721476,235.006948 C451.259488,234.882203 451.594508,234.344932 451.469763,233.80692 C451.163599,232.48646 450.817558,231.177328 450.432258,229.880964 C450.274913,229.351567 449.718199,229.049959 449.188802,229.207304 C448.659405,229.364649 448.357797,229.921363 448.515142,230.45076 Z M451.013608,244.039721 C451.112146,245.345844 451.17175,246.658252 451.192097,247.975803 C451.200625,248.528022 451.6552,248.96877 452.207418,248.960243 C452.759637,248.951715 453.200386,248.49714 453.191858,247.944921 C453.170896,246.587457 453.109481,245.235173 453.007941,243.889262 C452.966393,243.338542 452.486265,242.925777 451.935545,242.967325 C451.384826,243.008873 450.97206,243.489001 451.013608,244.039721 Z M451.017962,257.902227 C450.920019,259.216037 450.782714,260.523159 450.606439,261.822376 C450.532187,262.369646 450.915644,262.87349 451.462915,262.947742 C452.010185,263.021995 452.514029,262.638538 452.588281,262.091267 C452.769971,260.752136 452.911487,259.404927 453.012428,258.050913 C453.053486,257.500157 452.640294,257.020396 452.089538,256.979338 C451.538781,256.938279 451.059021,257.351471 451.017962,257.902227 Z M448.543574,271.453306 C448.17105,272.713846 447.760395,273.961593 447.312297,275.195112 C447.123726,275.714207 447.391669,276.287883 447.910764,276.476454 C448.429858,276.665025 449.003535,276.397082 449.192106,275.877987 C449.6541,274.606215 450.077493,273.319766 450.461572,272.020127 C450.618095,271.490486 450.315624,270.934241 449.785984,270.777718 C449.256343,270.621194 448.700098,270.923665 448.543574,271.453306 Z M443.25696,284.162777 C442.626418,285.314772 441.961054,286.447314 441.261895,287.558891 C440.967848,288.026389 441.108458,288.643744 441.575956,288.937791 C442.043455,289.231838 442.660809,289.091228 442.954856,288.62373 C443.67553,287.477949 444.361382,286.310532 445.011353,285.12304 C445.276522,284.638577 445.09875,284.030881 444.614288,283.765712 C444.129825,283.500542 443.522129,283.678315 443.25696,284.162777 Z M435.383784,295.498173 C434.524421,296.491833 433.63523,297.459443 432.717538,298.399588 C432.331762,298.794803 432.339413,299.427922 432.734628,299.813698 C433.129844,300.199475 433.762962,300.191823 434.148739,299.796608 C435.094492,298.827715 436.010876,297.830514 436.896525,296.80646 C437.257798,296.388728 437.21203,295.75722 436.794298,295.395946 C436.376566,295.034673 435.745058,295.080441 435.383784,295.498173 Z M425.273013,304.94991 C424.224029,305.74015 423.151438,306.498535 422.056734,307.22391 C421.596348,307.528972 421.470432,308.149491 421.775495,308.609877 C422.080557,309.070263 422.701075,309.196179 423.161461,308.891117 C424.289773,308.143473 425.395273,307.361819 426.476423,306.547346 C426.917543,306.215034 427.005749,305.588043 426.673436,305.146923 C426.341123,304.705803 425.714132,304.617597 425.273013,304.94991 Z M413.535533,311.990066 C412.344957,312.542714 411.137452,313.059167 409.914503,313.538601 C409.400319,313.740177 409.1469,314.320415 409.348477,314.8346 C409.550053,315.348784 410.130291,315.602203 410.644476,315.400627 C411.905304,314.906343 413.150192,314.373902 414.377606,313.804154 C414.878552,313.571622 415.096145,312.97702 414.863613,312.476074 C414.631081,311.975127 414.036479,311.757534 413.535533,311.990066 Z M400.465252,316.42994 C399.185734,316.716434 397.895879,316.964323 396.597001,317.173108 C396.051716,317.260758 395.680729,317.773854 395.76838,318.319139 C395.85603,318.864424 396.369126,319.23541 396.914411,319.14776 C398.253402,318.932527 399.583137,318.676974 400.902246,318.381615 C401.441187,318.260942 401.780259,317.72622 401.659587,317.18728 C401.538914,316.64834 401.004192,316.309267 400.465252,316.42994 Z M386.735379,317.997842 L386.202731,318 L382.740686,318 C382.188401,318 381.740686,318.447715 381.740686,319 C381.740686,319.552285 382.188401,320 382.740686,320 L386.202772,320 C386.385796,320 386.568696,319.999251 386.751508,319.997777 C387.303775,319.993323 387.747865,319.542011 387.743411,318.989745 C387.738957,318.437478 387.287646,317.993388 386.735379,317.997842 Z M372.740686,318 L368.740686,318 C368.188401,318 367.740686,318.447715 367.740686,319 C367.740686,319.552285 368.188401,320 368.740686,320 L372.740686,320 C373.292971,320 373.740686,319.552285 373.740686,319 C373.740686,318.447715 373.292971,318 372.740686,318 Z M358.740686,318 L354.740686,318 C354.188401,318 353.740686,318.447715 353.740686,319 C353.740686,319.552285 354.188401,320 354.740686,320 L358.740686,320 C359.292971,320 359.740686,319.552285 359.740686,319 C359.740686,318.447715 359.292971,318 358.740686,318 Z M344.740686,318 L340.740686,318 C340.188401,318 339.740686,318.447715 339.740686,319 C339.740686,319.552285 340.188401,320 340.740686,320 L344.740686,320 C345.292971,320 345.740686,319.552285 345.740686,319 C345.740686,318.447715 345.292971,318 344.740686,318 Z M330.740686,318 L326.740686,318 C326.188401,318 325.740686,318.447715 325.740686,319 C325.740686,319.552285 326.188401,320 326.740686,320 L330.740686,320 C331.292971,320 331.740686,319.552285 331.740686,319 C331.740686,318.447715 331.292971,318 330.740686,318 Z M316.740686,318 L312.740686,318 C312.188401,318 311.740686,318.447715 311.740686,319 C311.740686,319.552285 312.188401,320 312.740686,320 L316.740686,320 C317.292971,320 317.740686,319.552285 317.740686,319 C317.740686,318.447715 317.292971,318 316.740686,318 Z M302.740686,318 L298.740686,318 C298.188401,318 297.740686,318.447715 297.740686,319 C297.740686,319.552285 298.188401,320 298.740686,320 L302.740686,320 C303.292971,320 303.740686,319.552285 303.740686,319 C303.740686,318.447715 303.292971,318 302.740686,318 Z M288.740686,318 L284.740686,318 C284.188401,318 283.740686,318.447715 283.740686,319 C283.740686,319.552285 284.188401,320 284.740686,320 L288.740686,320 C289.292971,320 289.740686,319.552285 289.740686,319 C289.740686,318.447715 289.292971,318 288.740686,318 Z M274.740686,318 L270.740686,318 C270.188401,318 269.740686,318.447715 269.740686,319 C269.740686,319.552285 270.188401,320 270.740686,320 L274.740686,320 C275.292971,320 275.740686,319.552285 275.740686,319 C275.740686,318.447715 275.292971,318 274.740686,318 Z M260.740686,318 L256.740686,318 C256.188401,318 255.740686,318.447715 255.740686,319 C255.740686,319.552285 256.188401,320 256.740686,320 L260.740686,320 C261.292971,320 261.740686,319.552285 261.740686,319 C261.740686,318.447715 261.292971,318 260.740686,318 Z M246.740686,318 L242.740686,318 C242.188401,318 241.740686,318.447715 241.740686,319 C241.740686,319.552285 242.188401,320 242.740686,320 L246.740686,320 C247.292971,320 247.740686,319.552285 247.740686,319 C247.740686,318.447715 247.292971,318 246.740686,318 Z M232.740686,318 L228.740686,318 C228.188401,318 227.740686,318.447715 227.740686,319 C227.740686,319.552285 228.188401,320 228.740686,320 L232.740686,320 C233.292971,320 233.740686,319.552285 233.740686,319 C233.740686,318.447715 233.292971,318 232.740686,318 Z M218.740686,318 L214.740686,318 C214.188401,318 213.740686,318.447715 213.740686,319 C213.740686,319.552285 214.188401,320 214.740686,320 L218.740686,320 C219.292971,320 219.740686,319.552285 219.740686,319 C219.740686,318.447715 219.292971,318 218.740686,318 Z M204.740686,318 L200.740686,318 C200.188401,318 199.740686,318.447715 199.740686,319 C199.740686,319.552285 200.188401,320 200.740686,320 L204.740686,320 C205.292971,320 205.740686,319.552285 205.740686,319 C205.740686,318.447715 205.292971,318 204.740686,318 Z M190.740686,318 L186.740686,318 C186.188401,318 185.740686,318.447715 185.740686,319 C185.740686,319.552285 186.188401,320 186.740686,320 L190.740686,320 C191.292971,320 191.740686,319.552285 191.740686,319 C191.740686,318.447715 191.292971,318 190.740686,318 Z M176.740686,318 L172.740686,318 C172.188401,318 171.740686,318.447715 171.740686,319 C171.740686,319.552285 172.188401,320 172.740686,320 L176.740686,320 C177.292971,320 177.740686,319.552285 177.740686,319 C177.740686,318.447715 177.292971,318 176.740686,318 Z M162.740686,318 L158.740686,318 C158.188401,318 157.740686,318.447715 157.740686,319 C157.740686,319.552285 158.188401,320 158.740686,320 L162.740686,320 C163.292971,320 163.740686,319.552285 163.740686,319 C163.740686,318.447715 163.292971,318 162.740686,318 Z M148.740686,318 L144.740686,318 C144.188401,318 143.740686,318.447715 143.740686,319 C143.740686,319.552285 144.188401,320 144.740686,320 L148.740686,320 C149.292971,320 149.740686,319.552285 149.740686,319 C149.740686,318.447715 149.292971,318 148.740686,318 Z M134.740686,318 L133,318 L133,320 L135.259314,320 C135.811599,320 136.259314,319.552285 136.259314,319 C136.259314,318.447715 135.811599,318 135.259314,318 L133,318 C131.666667,318 131.666667,320 133,320 L134.740686,320 C135.292971,320 135.740686,319.552285 135.740686,319 C135.740686,318.447715 135.292971,318 134.740686,318 Z M145.259314,320 L149.259314,320 C149.811599,320 150.259314,319.552285 150.259314,319 C150.259314,318.447715 149.811599,318 149.259314,318 L145.259314,318 C144.707029,318 144.259314,318.447715 144.259314,319 C144.259314,319.552285 144.707029,320 145.259314,320 Z M159.259314,320 L163.259314,320 C163.811599,320 164.259314,319.552285 164.259314,319 C164.259314,318.447715 163.811599,318 163.259314,318 L159.259314,318 C158.707029,318 158.259314,318.447715 158.259314,319 C158.259314,319.552285 158.707029,320 159.259314,320 Z M173.259314,320 L177.259314,320 C177.811599,320 178.259314,319.552285 178.259314,319 C178.259314,318.447715 177.811599,318 177.259314,318 L173.259314,318 C172.707029,318 172.259314,318.447715 172.259314,319 C172.259314,319.552285 172.707029,320 173.259314,320 Z M187.259314,320 L191.259314,320 C191.811599,320 192.259314,319.552285 192.259314,319 C192.259314,318.447715 191.811599,318 191.259314,318 L187.259314,318 C186.707029,318 186.259314,318.447715 186.259314,319 C186.259314,319.552285 186.707029,320 187.259314,320 Z M201.259314,320 L205.259314,320 C205.811599,320 206.259314,319.552285 206.259314,319 C206.259314,318.447715 205.811599,318 205.259314,318 L201.259314,318 C200.707029,318 200.259314,318.447715 200.259314,319 C200.259314,319.552285 200.707029,320 201.259314,320 Z M215.259314,320 L219.259314,320 C219.811599,320 220.259314,319.552285 220.259314,319 C220.259314,318.447715 219.811599,318 219.259314,318 L215.259314,318 C214.707029,318 214.259314,318.447715 214.259314,319 C214.259314,319.552285 214.707029,320 215.259314,320 Z M229.31749,319.928727 C230.69083,319.8457 232.052561,319.690378 233.398664,319.464042 C233.943303,319.372465 234.310583,318.85671 234.219007,318.312071 C234.12743,317.767431 233.611675,317.400151 233.067036,317.491728 C231.790712,317.706331 230.499391,317.853622 229.196798,317.932372 C228.64552,317.9657 228.225638,318.439617 228.258966,318.990895 C228.292294,319.542173 228.766211,319.962055 229.31749,319.928727 Z M243.206338,316.421069 C244.449137,315.843315 245.659748,315.19964 246.833307,314.49314 C247.306466,314.208291 247.459121,313.593804 247.174272,313.120645 C246.889423,312.647486 246.274936,312.49483 245.801777,312.779679 C244.689112,313.449521 243.541392,314.059757 242.363227,314.607463 C241.862414,314.840282 241.645161,315.435008 241.87798,315.935821 C242.110798,316.436635 242.705525,316.653887 243.206338,316.421069 Z M254.837273,308.090926 C255.784394,307.101686 256.678629,306.062922 257.515849,304.979248 C257.853501,304.542202 257.772925,303.914185 257.335879,303.576533 C256.898832,303.238881 256.270815,303.319457 255.933163,303.756503 C255.139117,304.784294 254.290966,305.769525 253.39264,306.707801 C253.0107,307.106725 253.024469,307.73974 253.423394,308.12168 C253.822318,308.503619 254.455334,308.48985 254.837273,308.090926 Z M262.688447,296.016887 C263.206925,294.750519 263.657763,293.456085 264.038654,292.138265 C264.192005,291.607697 263.88621,291.053272 263.355643,290.899921 C262.825075,290.746571 262.27065,291.052365 262.117299,291.582933 C261.756294,292.831948 261.328994,294.058804 260.837568,295.259098 C260.62831,295.770204 260.873007,296.354175 261.384113,296.563433 C261.895219,296.77269 262.47919,296.527994 262.688447,296.016887 Z M265.54603,282.088058 L265.552027,281.403255 C265.552027,280.258881 265.501426,279.118737 265.400567,277.98348 C265.351694,277.433362 264.866115,277.027023 264.315997,277.075897 C263.765879,277.124771 263.35954,277.61035 263.408414,278.160468 C263.504047,279.236905 263.552027,280.317995 263.552027,281.403195 L263.546335,282.053131 C263.53669,282.605331 263.976518,283.060797 264.528719,283.070442 C265.080919,283.080087 265.536385,282.640259 265.54603,282.088058 Z M263.14419,267.981322 C262.667925,266.696955 262.123625,265.438776 261.513641,264.212231 C261.267713,263.717724 260.667471,263.51621 260.172963,263.762138 C259.678456,264.008067 259.476942,264.608308 259.72287,265.102816 C260.30126,266.265831 260.817368,267.458844 261.268966,268.676687 C261.460986,269.194516 262.036432,269.458637 262.554261,269.266617 C263.07209,269.074597 263.33621,268.499151 263.14419,267.981322 Z M255.768551,255.719001 C255.074526,254.940357 254.348488,254.189352 253.591895,253.467811 C253.192222,253.086654 252.559235,253.101665 252.178079,253.501338 C251.796922,253.90101 251.811933,254.533997 252.211606,254.915154 C252.929036,255.599347 253.617471,256.311456 254.275541,257.04976 C254.64302,257.462043 255.275142,257.498365 255.687426,257.130886 C256.099709,256.763407 256.13603,256.131284 255.768551,255.719001 Z" id="Rectangle-Copy-9" fill="#24231F" fill-rule="nonzero" transform="translate(292.595990, 251.000000) scale(1, -1) translate(-292.595990, -251.000000) "></path>
        <polygon id="Path-22" fill="#FFFFFF" points="93 159.257812 201.339844 68.5 356.121094 100.947755 389.082031 205 304.757812 312 158 299"></polygon>
        <g id="shadow" transform="translate(101.750000, 73.000000)" fill-rule="nonzero">
            <polygon id="Line-2-Copy-8" fill="#E2E3E6" points="176.012415 120.730091 176.519909 116.762415 266.487585 128.269909 265.980091 132.237585"></polygon>
            <polygon id="Line-2-Copy-15" fill="#E2E3E6" points="9.0005405 97.714623 9.53537702 93.7505405 139.49946 111.285377 138.964623 115.24946"></polygon>
            <polygon id="Line-2-Copy-12" fill="#E2E3E6" points="232.757024 33.6064921 233.643508 37.5070235 9.7429765 88.3935079 8.85649208 84.4929765"></polygon>
            <polygon id="Line-2-Copy-13" fill="#E2E3E6" points="4.45162734 103.41123 6.83876961 100.201627 170.048373 221.58877 167.66123 224.798373"></polygon>
            <polygon id="Line-2-Copy-5" fill="#E2E3E6" points="241.18424 40.1723374 244.077663 42.9342404 178.31576 111.827663 175.422337 109.06576"></polygon>
            <polygon id="Line-2-Copy-6" fill="#E2E3E6" points="151.213741 124.171805 154.078195 126.963741 74.2862589 208.828195 71.4218053 206.036259"></polygon>
            <polygon id="Line-2" fill="#F0EFF0" points="86.4848881 8.18134295 89.0686571 11.2348881 8.01511191 79.8186571 5.43134295 76.7651119"></polygon>
            <polygon id="Line-2-Copy-2" fill="#F0EFF0" points="121.377283 4.53954942 122.210451 0.627282658 234.122717 24.4604506 233.289549 28.3727173"></polygon>
            <polygon id="Line-2-Copy-3" fill="#F0EFF0" points="105.571673 18.0908432 109.159157 16.3216733 146.928327 92.9091568 143.340843 94.6783267"></polygon>
            <polygon id="Line-2-Copy-9" fill="#F0EFF0" points="159.914545 128.404491 163.845509 127.664545 180.585455 216.595509 176.654491 217.335455"></polygon>
            <polygon id="Line-2-Copy-14" fill="#F0EFF0" points="248.935027 46.4958342 252.754166 47.6850271 199.564973 218.504166 195.745834 217.314973"></polygon>
            <polygon id="Line-2-Copy-7" fill="#F0EFF0" points="253.751772 46.6737804 257.57622 45.5017723 277.748228 111.32622 273.92378 112.498228"></polygon>
            <polygon id="Line-2-Copy" fill="#F0EFF0" points="0.840075158 107.288335 4.46166514 105.590075 47.6599248 197.711665 44.0383349 199.409925"></polygon>
            <polygon id="Line-2-Copy-10" fill="#F0EFF0" points="72.0647791 225.795776 72.4542244 221.814779 168.435221 231.204224 168.045776 235.185221"></polygon>
            <polygon id="Line-2-Copy-11" fill="#F0EFF0" points="271.933567 143.189329 275.060671 145.683567 205.566433 232.810671 202.439329 230.316433"></polygon>
        </g>
        <polygon id="Line-2" fill="#24231F" fill-rule="nonzero" points="185.734888 78.6813429 188.318657 81.7348881 107.265112 150.318657 104.681343 147.265112"></polygon>
        <polygon id="Line-2-Copy-12" fill="#24231F" fill-rule="nonzero" points="334.507024 103.606492 335.393508 107.507024 111.492976 158.393508 110.606492 154.492976"></polygon>
        <polygon id="Line-2-Copy-2" fill="#24231F" fill-rule="nonzero" points="223.127283 74.0395494 223.960451 70.1272827 335.872717 93.9604506 335.039549 97.8727173"></polygon>
        <polygon id="Line-2-Copy-3" fill="#24231F" fill-rule="nonzero" points="211.321673 91.0908432 214.909157 89.3216733 252.678327 165.909157 249.090843 167.678327"></polygon>
        <polygon id="Line-2-Copy-13" fill="#24231F" fill-rule="nonzero" points="110.201627 175.41123 112.58877 172.201627 275.798373 293.58877 273.41123 296.798373"></polygon>
        <polygon id="Line-2-Copy-5" fill="#24231F" fill-rule="nonzero" points="338.952866 113.171966 341.828034 115.952866 280.047134 179.828034 277.171966 177.047134"></polygon>
        <polygon id="Line-2-Copy-7" fill="#24231F" fill-rule="nonzero" points="359.501772 119.67378 363.32622 118.501772 383.498228 184.32622 379.67378 185.498228"></polygon>
        <polygon id="Line-2-Copy-14" fill="#24231F" fill-rule="nonzero" points="347.685027 118.495834 351.504166 119.685027 298.314973 290.504166 294.495834 289.314973"></polygon>
        <polygon id="Line-2-Copy-8" fill="#24231F" fill-rule="nonzero" points="277.762415 190.730091 278.269909 186.762415 368.237585 198.269909 367.730091 202.237585"></polygon>
        <polygon id="Line-2-Copy-9" fill="#24231F" fill-rule="nonzero" points="265.664545 201.404491 269.595509 200.664545 286.335455 289.595509 282.404491 290.335455"></polygon>
        <polygon id="Line-2-Copy-4" fill="#24231F" fill-rule="nonzero" points="110.75054 167.714623 111.285377 163.75054 241.24946 181.285377 240.714623 185.24946"></polygon>
        <polygon id="Line-2-Copy-6" fill="#24231F" fill-rule="nonzero" points="247.942289 197.172162 250.827838 199.942289 176.057711 277.827838 173.172162 275.057711"></polygon>
        <polygon id="Line-2-Copy" fill="#24231F" fill-rule="nonzero" points="101.340075 182.038335 104.961665 180.340075 150.259314 275 146.637724 276.69826"></polygon>
        <polygon id="Line-2-Copy-10" fill="#24231F" fill-rule="nonzero" points="173.814779 300.795776 174.204224 296.814779 270.185221 306.204224 269.795776 310.185221"></polygon>
        <polygon id="Line-2-Copy-11" fill="#24231F" fill-rule="nonzero" points="375.683567 218.189329 378.810671 220.683567 309.316433 307.810671 306.189329 305.316433"></polygon>
        <rect id="Rectangle" fill="#EABDBF" x="93" y="141" width="40" height="40"></rect>
        <rect id="Rectangle-Copy" fill="#EABDBF" x="320" y="84" width="40" height="40"></rect>
        <rect id="Rectangle-Copy-3" fill="#EABDBF" x="200" y="56" width="40" height="40"></rect>
        <rect id="Rectangle-Copy-2" fill="#EABDBF" x="374" y="177" width="40" height="40"></rect>
        <rect id="Rectangle-Copy-5" fill="#EABDBF" x="258" y="295" width="40" height="40"></rect>
        <rect id="Rectangle-Copy-6" fill="#EABDBF" x="154" y="279" width="40" height="40"></rect>
        <rect id="Rectangle-Copy-10" fill="#EABDBF" x="61" y="243" width="10" height="10"></rect>
        <rect id="Rectangle-Copy-11" fill="#EABDBF" x="293" y="47" width="10" height="10"></rect>
        <rect id="Rectangle-Copy-12" fill="#EABDBF" x="449" y="192" width="10" height="10"></rect>
        <rect id="Rectangle-Copy-13" fill="#EABDBF" x="342" y="343" width="10" height="10"></rect>
        <rect id="Rectangle-Copy-14" fill="#EABDBF" x="168" y="360" width="10" height="10"></rect>
        <rect id="Rectangle-Copy-15" fill="#EABDBF" x="29" y="267" width="10" height="10"></rect>
        <rect id="Rectangle-Copy-16" fill="#EABDBF" x="42" y="124" width="10" height="10"></rect>
        <rect id="Rectangle-Copy-17" fill="#EABDBF" x="171" y="14" width="10" height="10"></rect>
        <rect id="Rectangle-Copy-18" fill="#EABDBF" x="407" y="280" width="10" height="10"></rect>
        <path d="M396.935976,51 C397.48826,51 397.935976,51.4477153 397.935976,52 C397.935976,52.5128358 397.549935,52.9355072 397.052597,52.9932723 L396.935976,53 L315,53 C314.447715,53 314,52.5522847 314,52 C314,51.4871642 314.38604,51.0644928 314.883379,51.0067277 L315,51 L396.935976,51 Z" id="Line-3-Copy-31" fill="#24231F" fill-rule="nonzero"></path>
        <path d="M148.925305,80 C149.47759,80 149.925305,80.4477153 149.925305,81 C149.925305,81.5128358 149.539265,81.9355072 149.041926,81.9932723 L148.925305,82 L66.9893293,82 C66.4370445,82 65.9893293,81.5522847 65.9893293,81 C65.9893293,80.4871642 66.3753695,80.0644928 66.8727081,80.0067277 L66.9893293,80 L148.925305,80 Z" id="Line-3-Copy-33" fill="#24231F" fill-rule="nonzero"></path>
        <path d="M161.925305,70 C162.47759,70 162.925305,70.4477153 162.925305,71 C162.925305,71.5128358 162.539265,71.9355072 162.041926,71.9932723 L161.925305,72 L79.9893293,72 C79.4370445,72 78.9893293,71.5522847 78.9893293,71 C78.9893293,70.4871642 79.3753695,70.0644928 79.8727081,70.0067277 L79.9893293,70 L161.925305,70 Z" id="Line-3-Copy-34" fill="#24231F" fill-rule="nonzero"></path>
        <path d="M93.0373476,219 C93.5896323,219 94.0373476,219.447715 94.0373476,220 C94.0373476,220.512836 93.6513074,220.935507 93.1539687,220.993272 L93.0373476,221 L30.0266768,221 C29.4743921,221 29.0266768,220.552285 29.0266768,220 C29.0266768,219.487164 29.412717,219.064493 29.9100557,219.006728 L30.0266768,219 L93.0373476,219 Z" id="Line-3-Copy-35" fill="#24231F" fill-rule="nonzero"></path>
        <path d="M234,335 C234.552285,335 235,335.447715 235,336 C235,336.512836 234.61396,336.935507 234.116621,336.993272 L234,337 L133.026677,337 C132.474392,337 132.026677,336.552285 132.026677,336 C132.026677,335.487164 132.412717,335.064493 132.910056,335.006728 L133.026677,335 L234,335 Z" id="Line-3-Copy-36" fill="#24231F" fill-rule="nonzero"></path>
        <path d="M393.925305,60 C394.47759,60 394.925305,60.4477153 394.925305,61 C394.925305,61.5128358 394.539265,61.9355072 394.041926,61.9932723 L393.925305,62 L357,62 C356.447715,62 356,61.5522847 356,61 C356,60.4871642 356.38604,60.0644928 356.883379,60.0067277 L357,60 L393.925305,60 Z" id="Line-3-Copy-32" fill="#24231F" fill-rule="nonzero"></path>
        <path d="M406.925305,146 C407.47759,146 407.925305,146.447715 407.925305,147 C407.925305,147.512836 407.539265,147.935507 407.041926,147.993272 L406.925305,148 L370,148 C369.447715,148 369,147.552285 369,147 C369,146.487164 369.38604,146.064493 369.883379,146.006728 L370,146 L406.925305,146 Z" id="Line-3-Copy-40" fill="#24231F" fill-rule="nonzero"></path>
        <path d="M447.040015,165 C447.5923,165 448.040015,165.447715 448.040015,166 C448.040015,166.512836 447.653975,166.935507 447.156636,166.993272 L447.040015,167 L389.03468,167 C388.482395,167 388.03468,166.552285 388.03468,166 C388.03468,165.487164 388.42072,165.064493 388.918059,165.006728 L389.03468,165 L447.040015,165 Z" id="Line-3-Copy-37" fill="#24231F" fill-rule="nonzero"></path>
        <path d="M72,92 L76,92 C76.5522847,92 77,91.5522847 77,91 C77,90.4477153 76.5522847,90 76,90 L72,90 C71.4477153,90 71,90.4477153 71,91 C71,91.5522847 71.4477153,92 72,92 Z M86,92 L90,92 C90.5522847,92 91,91.5522847 91,91 C91,90.4477153 90.5522847,90 90,90 L86,90 C85.4477153,90 85,90.4477153 85,91 C85,91.5522847 85.4477153,92 86,92 Z M100,92 L104,92 C104.552285,92 105,91.5522847 105,91 C105,90.4477153 104.552285,90 104,90 L100,90 C99.4477153,90 99,90.4477153 99,91 C99,91.5522847 99.4477153,92 100,92 Z M114,92 L118,92 C118.552285,92 119,91.5522847 119,91 C119,90.4477153 118.552285,90 118,90 L114,90 C113.447715,90 113,90.4477153 113,91 C113,91.5522847 113.447715,92 114,92 Z M128,92 L132,92 C132.552285,92 133,91.5522847 133,91 C133,90.4477153 132.552285,90 132,90 L128,90 C127.447715,90 127,90.4477153 127,91 C127,91.5522847 127.447715,92 128,92 Z M142,92 L146,92 C146.552285,92 147,91.5522847 147,91 C147,90.4477153 146.552285,90 146,90 L142,90 C141.447715,90 141,90.4477153 141,91 C141,91.5522847 141.447715,92 142,92 Z M156,92 L160,92 C160.552285,92 161,91.5522847 161,91 C161,90.4477153 160.552285,90 160,90 L156,90 C155.447715,90 155,90.4477153 155,91 C155,91.5522847 155.447715,92 156,92 Z" id="Line-3-Copy-17" fill="#24231F" fill-rule="nonzero"></path>
        <path d="M288,74 L292,74 C292.552285,74 293,73.5522847 293,73 C293,72.4477153 292.552285,72 292,72 L288,72 C287.447715,72 287,72.4477153 287,73 C287,73.5522847 287.447715,74 288,74 Z M302,74 L306,74 C306.552285,74 307,73.5522847 307,73 C307,72.4477153 306.552285,72 306,72 L302,72 C301.447715,72 301,72.4477153 301,73 C301,73.5522847 301.447715,74 302,74 Z M316,74 L320,74 C320.552285,74 321,73.5522847 321,73 C321,72.4477153 320.552285,72 320,72 L316,72 C315.447715,72 315,72.4477153 315,73 C315,73.5522847 315.447715,74 316,74 Z M330,74 L334,74 C334.552285,74 335,73.5522847 335,73 C335,72.4477153 334.552285,72 334,72 L330,72 C329.447715,72 329,72.4477153 329,73 C329,73.5522847 329.447715,74 330,74 Z M344,74 L348,74 C348.552285,74 349,73.5522847 349,73 C349,72.4477153 348.552285,72 348,72 L344,72 C343.447715,72 343,72.4477153 343,73 C343,73.5522847 343.447715,74 344,74 Z M358,74 L362,74 C362.552285,74 363,73.5522847 363,73 C363,72.4477153 362.552285,72 362,72 L358,72 C357.447715,72 357,72.4477153 357,73 C357,73.5522847 357.447715,74 358,74 Z M372,74 L376,74 C376.552285,74 377,73.5522847 377,73 C377,72.4477153 376.552285,72 376,72 L372,72 C371.447715,72 371,72.4477153 371,73 C371,73.5522847 371.447715,74 372,74 Z" id="Line-3-Copy-18" fill="#24231F" fill-rule="nonzero"></path>
        <path d="M381,156 L385,156 C385.552285,156 386,155.552285 386,155 C386,154.447715 385.552285,154 385,154 L381,154 C380.447715,154 380,154.447715 380,155 C380,155.552285 380.447715,156 381,156 Z M395,156 L399,156 C399.552285,156 400,155.552285 400,155 C400,154.447715 399.552285,154 399,154 L395,154 C394.447715,154 394,154.447715 394,155 C394,155.552285 394.447715,156 395,156 Z M409,156 L413,156 C413.552285,156 414,155.552285 414,155 C414,154.447715 413.552285,154 413,154 L409,154 C408.447715,154 408,154.447715 408,155 C408,155.552285 408.447715,156 409,156 Z M423,156 L427,156 C427.552285,156 428,155.552285 428,155 C428,154.447715 427.552285,154 427,154 L423,154 C422.447715,154 422,154.447715 422,155 C422,155.552285 422.447715,156 423,156 Z M437,156 L441,156 C441.552285,156 442,155.552285 442,155 C442,154.447715 441.552285,154 441,154 L437,154 C436.447715,154 436,154.447715 436,155 C436,155.552285 436.447715,156 437,156 Z M451,156 L455,156 C455.552285,156 456,155.552285 456,155 C456,154.447715 455.552285,154 455,154 L451,154 C450.447715,154 450,154.447715 450,155 C450,155.552285 450.447715,156 451,156 Z" id="Line-3-Copy-19" fill="#24231F" fill-rule="nonzero"></path>
        <path d="M362,267 L366,267 C366.552285,267 367,266.552285 367,266 C367,265.447715 366.552285,265 366,265 L362,265 C361.447715,265 361,265.447715 361,266 C361,266.552285 361.447715,267 362,267 Z M376,267 L380,267 C380.552285,267 381,266.552285 381,266 C381,265.447715 380.552285,265 380,265 L376,265 C375.447715,265 375,265.447715 375,266 C375,266.552285 375.447715,267 376,267 Z M390,267 L394,267 C394.552285,267 395,266.552285 395,266 C395,265.447715 394.552285,265 394,265 L390,265 C389.447715,265 389,265.447715 389,266 C389,266.552285 389.447715,267 390,267 Z M404,267 L408,267 C408.552285,267 409,266.552285 409,266 C409,265.447715 408.552285,265 408,265 L404,265 C403.447715,265 403,265.447715 403,266 C403,266.552285 403.447715,267 404,267 Z M418,267 L422,267 C422.552285,267 423,266.552285 423,266 C423,265.447715 422.552285,265 422,265 L418,265 C417.447715,265 417,265.447715 417,266 C417,266.552285 417.447715,267 418,267 Z M432,267 L436,267 C436.552285,267 437,266.552285 437,266 C437,265.447715 436.552285,265 436,265 L432,265 C431.447715,265 431,265.447715 431,266 C431,266.552285 431.447715,267 432,267 Z" id="Line-3-Copy-20" fill="#24231F" fill-rule="nonzero"></path>
        <path d="M88,250 L92,250 C92.5522847,250 93,249.552285 93,249 C93,248.447715 92.5522847,248 92,248 L88,248 C87.4477153,248 87,248.447715 87,249 C87,249.552285 87.4477153,250 88,250 Z M102,250 L106,250 C106.552285,250 107,249.552285 107,249 C107,248.447715 106.552285,248 106,248 L102,248 C101.447715,248 101,248.447715 101,249 C101,249.552285 101.447715,250 102,250 Z M116,250 L120,250 C120.552285,250 121,249.552285 121,249 C121,248.447715 120.552285,248 120,248 L116,248 C115.447715,248 115,248.447715 115,249 C115,249.552285 115.447715,250 116,250 Z" id="Line-3-Copy-21" fill="#24231F" fill-rule="nonzero"></path>
        <path d="M12,206 L16,206 C16.5522847,206 17,205.552285 17,205 C17,204.447715 16.5522847,204 16,204 L12,204 C11.4477153,204 11,204.447715 11,205 C11,205.552285 11.4477153,206 12,206 Z M26,206 L30,206 C30.5522847,206 31,205.552285 31,205 C31,204.447715 30.5522847,204 30,204 L26,204 C25.4477153,204 25,204.447715 25,205 C25,205.552285 25.4477153,206 26,206 Z M40,206 L44,206 C44.5522847,206 45,205.552285 45,205 C45,204.447715 44.5522847,204 44,204 L40,204 C39.4477153,204 39,204.447715 39,205 C39,205.552285 39.4477153,206 40,206 Z M54,206 L58,206 C58.5522847,206 59,205.552285 59,205 C59,204.447715 58.5522847,204 58,204 L54,204 C53.4477153,204 53,204.447715 53,205 C53,205.552285 53.4477153,206 54,206 Z M68,206 L72,206 C72.5522847,206 73,205.552285 73,205 C73,204.447715 72.5522847,204 72,204 L68,204 C67.4477153,204 67,204.447715 67,205 C67,205.552285 67.4477153,206 68,206 Z M82,206 L86,206 C86.5522847,206 87,205.552285 87,205 C87,204.447715 86.5522847,204 86,204 L82,204 C81.4477153,204 81,204.447715 81,205 C81,205.552285 81.4477153,206 82,206 Z" id="Line-3-Copy-22" fill="#24231F" fill-rule="nonzero"></path>
        <path d="M253,349 L257,349 C257.552285,349 258,348.552285 258,348 C258,347.447715 257.552285,347 257,347 L253,347 C252.447715,347 252,347.447715 252,348 C252,348.552285 252.447715,349 253,349 Z M267,349 L271,349 C271.552285,349 272,348.552285 272,348 C272,347.447715 271.552285,347 271,347 L267,347 C266.447715,347 266,347.447715 266,348 C266,348.552285 266.447715,349 267,349 Z M281,349 L285,349 C285.552285,349 286,348.552285 286,348 C286,347.447715 285.552285,347 285,347 L281,347 C280.447715,347 280,347.447715 280,348 C280,348.552285 280.447715,349 281,349 Z M295,349 L299,349 C299.552285,349 300,348.552285 300,348 C300,347.447715 299.552285,347 299,347 L295,347 C294.447715,347 294,347.447715 294,348 C294,348.552285 294.447715,349 295,349 Z M309,349 L313,349 C313.552285,349 314,348.552285 314,348 C314,347.447715 313.552285,347 313,347 L309,347 C308.447715,347 308,347.447715 308,348 C308,348.552285 308.447715,349 309,349 Z M323,349 L327,349 C327.552285,349 328,348.552285 328,348 C328,347.447715 327.552285,347 327,347 L323,347 C322.447715,347 322,347.447715 322,348 C322,348.552285 322.447715,349 323,349 Z" id="Line-3-Copy-23" fill="#24231F" fill-rule="nonzero"></path>
        <path d="M196,346 C196.552285,346 197,346.447715 197,347 C197,347.512836 196.61396,347.935507 196.116621,347.993272 L196,348 L105.03468,348 C104.482395,348 104.03468,347.552285 104.03468,347 C104.03468,346.487164 104.42072,346.064493 104.918059,346.006728 L105.03468,346 L196,346 Z" id="Line-3-Copy-38" fill="#24231F" fill-rule="nonzero"></path>
        <g id="Group-2" transform="translate(182.000000, 52.000000)">
            <path d="M48,1 L48,29 L33,29 L33,39 L16,39 L16,29 L1,29 L1,1 L48,1 Z" id="Combined-Shape" fill="#D40B26"></path>
            <rect id="Rectangle" fill="#FFFFFF" x="6" y="5" width="38" height="20"></rect>
            <path d="M10.9247359,40 C10.2501897,40 9.7033619,39.4531722 9.7033619,38.778626 C9.7033619,38.1040797 10.2501897,37.5572519 10.9247359,37.5572519 L15.767,37.557 L15.767,30.534 L1.5161503,30.5343511 C0.678803609,30.5343511 0,29.8508164 0,29.0076336 L0,1.52671756 C0,0.683534733 0.678803609,0 1.5161503,0 L48.2135794,0 C49.0509261,0 49.7297297,0.683534733 49.7297297,1.52671756 L49.7297297,29.0076336 C49.7297297,29.8508164 49.0509261,30.5343511 48.2135794,30.5343511 L33.961,30.534 L33.961,37.557 L38.8049938,37.5572519 C39.47954,37.5572519 40.0263678,38.1040797 40.0263678,38.778626 C40.0263678,39.4531722 39.47954,40 38.8049938,40 L10.9247359,40 Z M31.5359262,30.5343511 L18.1938036,30.5343511 L18.1938036,37.5572519 L31.5359262,37.5572519 L31.5359262,30.5343511 Z M47.3038893,2.44274809 L2.42584047,2.44274809 L2.42584047,28.0916031 L47.3038893,28.0916031 L47.3038893,2.44274809 Z M43.6651285,4.58015267 C44.5024752,4.58015267 45.1812788,5.2636874 45.1812788,6.10687023 L45.1812788,24.4274809 C45.1812788,25.2706637 44.5024752,25.9541985 43.6651285,25.9541985 L6.06460119,25.9541985 C5.2272545,25.9541985 4.54845089,25.2706637 4.54845089,24.4274809 L4.54845089,6.10687023 C4.54845089,5.2636874 5.2272545,4.58015267 6.06460119,4.58015267 L43.6651285,4.58015267 Z M42.7554384,7.02290076 L6.97429136,7.02290076 L6.97429136,23.5114504 L42.7554384,23.5114504 L42.7554384,7.02290076 Z" id="Combined-Shape" fill="#24231F" fill-rule="nonzero"></path>
        </g>
        <g id="Group-2-Copy" transform="translate(329.000000, 89.000000)">
            <path d="M48,1 L48,29 L33,29 L33,39 L16,39 L16,29 L1,29 L1,1 L48,1 Z" id="Combined-Shape" fill="#D40B26"></path>
            <rect id="Rectangle" fill="#FFFFFF" x="6" y="5" width="38" height="20"></rect>
            <path d="M10.9247359,40 C10.2501897,40 9.7033619,39.4531722 9.7033619,38.778626 C9.7033619,38.1040797 10.2501897,37.5572519 10.9247359,37.5572519 L15.767,37.557 L15.767,30.534 L1.5161503,30.5343511 C0.678803609,30.5343511 0,29.8508164 0,29.0076336 L0,1.52671756 C0,0.683534733 0.678803609,0 1.5161503,0 L48.2135794,0 C49.0509261,0 49.7297297,0.683534733 49.7297297,1.52671756 L49.7297297,29.0076336 C49.7297297,29.8508164 49.0509261,30.5343511 48.2135794,30.5343511 L33.961,30.534 L33.961,37.557 L38.8049938,37.5572519 C39.47954,37.5572519 40.0263678,38.1040797 40.0263678,38.778626 C40.0263678,39.4531722 39.47954,40 38.8049938,40 L10.9247359,40 Z M31.5359262,30.5343511 L18.1938036,30.5343511 L18.1938036,37.5572519 L31.5359262,37.5572519 L31.5359262,30.5343511 Z M47.3038893,2.44274809 L2.42584047,2.44274809 L2.42584047,28.0916031 L47.3038893,28.0916031 L47.3038893,2.44274809 Z M43.6651285,4.58015267 C44.5024752,4.58015267 45.1812788,5.2636874 45.1812788,6.10687023 L45.1812788,24.4274809 C45.1812788,25.2706637 44.5024752,25.9541985 43.6651285,25.9541985 L6.06460119,25.9541985 C5.2272545,25.9541985 4.54845089,25.2706637 4.54845089,24.4274809 L4.54845089,6.10687023 C4.54845089,5.2636874 5.2272545,4.58015267 6.06460119,4.58015267 L43.6651285,4.58015267 Z M42.7554384,7.02290076 L6.97429136,7.02290076 L6.97429136,23.5114504 L42.7554384,23.5114504 L42.7554384,7.02290076 Z" id="Combined-Shape" fill="#24231F" fill-rule="nonzero"></path>
        </g>
        <g id="Group-2-Copy-2" transform="translate(355.000000, 181.000000)">
            <path d="M48,1 L48,29 L33,29 L33,39 L16,39 L16,29 L1,29 L1,1 L48,1 Z" id="Combined-Shape" fill="#D40B26"></path>
            <rect id="Rectangle" fill="#FFFFFF" x="6" y="5" width="38" height="20"></rect>
            <path d="M10.9247359,40 C10.2501897,40 9.7033619,39.4531722 9.7033619,38.778626 C9.7033619,38.1040797 10.2501897,37.5572519 10.9247359,37.5572519 L15.767,37.557 L15.767,30.534 L1.5161503,30.5343511 C0.678803609,30.5343511 0,29.8508164 0,29.0076336 L0,1.52671756 C0,0.683534733 0.678803609,0 1.5161503,0 L48.2135794,0 C49.0509261,0 49.7297297,0.683534733 49.7297297,1.52671756 L49.7297297,29.0076336 C49.7297297,29.8508164 49.0509261,30.5343511 48.2135794,30.5343511 L33.961,30.534 L33.961,37.557 L38.8049938,37.5572519 C39.47954,37.5572519 40.0263678,38.1040797 40.0263678,38.778626 C40.0263678,39.4531722 39.47954,40 38.8049938,40 L10.9247359,40 Z M31.5359262,30.5343511 L18.1938036,30.5343511 L18.1938036,37.5572519 L31.5359262,37.5572519 L31.5359262,30.5343511 Z M47.3038893,2.44274809 L2.42584047,2.44274809 L2.42584047,28.0916031 L47.3038893,28.0916031 L47.3038893,2.44274809 Z M43.6651285,4.58015267 C44.5024752,4.58015267 45.1812788,5.2636874 45.1812788,6.10687023 L45.1812788,24.4274809 C45.1812788,25.2706637 44.5024752,25.9541985 43.6651285,25.9541985 L6.06460119,25.9541985 C5.2272545,25.9541985 4.54845089,25.2706637 4.54845089,24.4274809 L4.54845089,6.10687023 C4.54845089,5.2636874 5.2272545,4.58015267 6.06460119,4.58015267 L43.6651285,4.58015267 Z M42.7554384,7.02290076 L6.97429136,7.02290076 L6.97429136,23.5114504 L42.7554384,23.5114504 L42.7554384,7.02290076 Z" id="Combined-Shape" fill="#24231F" fill-rule="nonzero"></path>
        </g>
        <g id="Group-2-Copy-3" transform="translate(264.000000, 288.000000)">
            <path d="M48,1 L48,29 L33,29 L33,39 L16,39 L16,29 L1,29 L1,1 L48,1 Z" id="Combined-Shape" fill="#D40B26"></path>
            <rect id="Rectangle" fill="#FFFFFF" x="6" y="5" width="38" height="20"></rect>
            <path d="M10.9247359,40 C10.2501897,40 9.7033619,39.4531722 9.7033619,38.778626 C9.7033619,38.1040797 10.2501897,37.5572519 10.9247359,37.5572519 L15.767,37.557 L15.767,30.534 L1.5161503,30.5343511 C0.678803609,30.5343511 0,29.8508164 0,29.0076336 L0,1.52671756 C0,0.683534733 0.678803609,0 1.5161503,0 L48.2135794,0 C49.0509261,0 49.7297297,0.683534733 49.7297297,1.52671756 L49.7297297,29.0076336 C49.7297297,29.8508164 49.0509261,30.5343511 48.2135794,30.5343511 L33.961,30.534 L33.961,37.557 L38.8049938,37.5572519 C39.47954,37.5572519 40.0263678,38.1040797 40.0263678,38.778626 C40.0263678,39.4531722 39.47954,40 38.8049938,40 L10.9247359,40 Z M31.5359262,30.5343511 L18.1938036,30.5343511 L18.1938036,37.5572519 L31.5359262,37.5572519 L31.5359262,30.5343511 Z M47.3038893,2.44274809 L2.42584047,2.44274809 L2.42584047,28.0916031 L47.3038893,28.0916031 L47.3038893,2.44274809 Z M43.6651285,4.58015267 C44.5024752,4.58015267 45.1812788,5.2636874 45.1812788,6.10687023 L45.1812788,24.4274809 C45.1812788,25.2706637 44.5024752,25.9541985 43.6651285,25.9541985 L6.06460119,25.9541985 C5.2272545,25.9541985 4.54845089,25.2706637 4.54845089,24.4274809 L4.54845089,6.10687023 C4.54845089,5.2636874 5.2272545,4.58015267 6.06460119,4.58015267 L43.6651285,4.58015267 Z M42.7554384,7.02290076 L6.97429136,7.02290076 L6.97429136,23.5114504 L42.7554384,23.5114504 L42.7554384,7.02290076 Z" id="Combined-Shape" fill="#24231F" fill-rule="nonzero"></path>
        </g>
        <g id="Group-2-Copy-4" transform="translate(135.000000, 274.000000)">
            <path d="M48,1 L48,29 L33,29 L33,39 L16,39 L16,29 L1,29 L1,1 L48,1 Z" id="Combined-Shape" fill="#D40B26"></path>
            <rect id="Rectangle" fill="#FFFFFF" x="6" y="5" width="38" height="20"></rect>
            <path d="M10.9247359,40 C10.2501897,40 9.7033619,39.4531722 9.7033619,38.778626 C9.7033619,38.1040797 10.2501897,37.5572519 10.9247359,37.5572519 L15.767,37.557 L15.767,30.534 L1.5161503,30.5343511 C0.678803609,30.5343511 0,29.8508164 0,29.0076336 L0,1.52671756 C0,0.683534733 0.678803609,0 1.5161503,0 L48.2135794,0 C49.0509261,0 49.7297297,0.683534733 49.7297297,1.52671756 L49.7297297,29.0076336 C49.7297297,29.8508164 49.0509261,30.5343511 48.2135794,30.5343511 L33.961,30.534 L33.961,37.557 L38.8049938,37.5572519 C39.47954,37.5572519 40.0263678,38.1040797 40.0263678,38.778626 C40.0263678,39.4531722 39.47954,40 38.8049938,40 L10.9247359,40 Z M31.5359262,30.5343511 L18.1938036,30.5343511 L18.1938036,37.5572519 L31.5359262,37.5572519 L31.5359262,30.5343511 Z M47.3038893,2.44274809 L2.42584047,2.44274809 L2.42584047,28.0916031 L47.3038893,28.0916031 L47.3038893,2.44274809 Z M43.6651285,4.58015267 C44.5024752,4.58015267 45.1812788,5.2636874 45.1812788,6.10687023 L45.1812788,24.4274809 C45.1812788,25.2706637 44.5024752,25.9541985 43.6651285,25.9541985 L6.06460119,25.9541985 C5.2272545,25.9541985 4.54845089,25.2706637 4.54845089,24.4274809 L4.54845089,6.10687023 C4.54845089,5.2636874 5.2272545,4.58015267 6.06460119,4.58015267 L43.6651285,4.58015267 Z M42.7554384,7.02290076 L6.97429136,7.02290076 L6.97429136,23.5114504 L42.7554384,23.5114504 L42.7554384,7.02290076 Z" id="Combined-Shape" fill="#24231F" fill-rule="nonzero"></path>
        </g>
        <g id="Group-2-Copy-5" transform="translate(77.000000, 145.000000)">
            <path d="M48,1 L48,29 L33,29 L33,39 L16,39 L16,29 L1,29 L1,1 L48,1 Z" id="Combined-Shape" fill="#D40B26"></path>
            <rect id="Rectangle" fill="#FFFFFF" x="6" y="5" width="38" height="20"></rect>
            <path d="M10.9247359,40 C10.2501897,40 9.7033619,39.4531722 9.7033619,38.778626 C9.7033619,38.1040797 10.2501897,37.5572519 10.9247359,37.5572519 L15.767,37.557 L15.767,30.534 L1.5161503,30.5343511 C0.678803609,30.5343511 0,29.8508164 0,29.0076336 L0,1.52671756 C0,0.683534733 0.678803609,0 1.5161503,0 L48.2135794,0 C49.0509261,0 49.7297297,0.683534733 49.7297297,1.52671756 L49.7297297,29.0076336 C49.7297297,29.8508164 49.0509261,30.5343511 48.2135794,30.5343511 L33.961,30.534 L33.961,37.557 L38.8049938,37.5572519 C39.47954,37.5572519 40.0263678,38.1040797 40.0263678,38.778626 C40.0263678,39.4531722 39.47954,40 38.8049938,40 L10.9247359,40 Z M31.5359262,30.5343511 L18.1938036,30.5343511 L18.1938036,37.5572519 L31.5359262,37.5572519 L31.5359262,30.5343511 Z M47.3038893,2.44274809 L2.42584047,2.44274809 L2.42584047,28.0916031 L47.3038893,28.0916031 L47.3038893,2.44274809 Z M43.6651285,4.58015267 C44.5024752,4.58015267 45.1812788,5.2636874 45.1812788,6.10687023 L45.1812788,24.4274809 C45.1812788,25.2706637 44.5024752,25.9541985 43.6651285,25.9541985 L6.06460119,25.9541985 C5.2272545,25.9541985 4.54845089,25.2706637 4.54845089,24.4274809 L4.54845089,6.10687023 C4.54845089,5.2636874 5.2272545,4.58015267 6.06460119,4.58015267 L43.6651285,4.58015267 Z M42.7554384,7.02290076 L6.97429136,7.02290076 L6.97429136,23.5114504 L42.7554384,23.5114504 L42.7554384,7.02290076 Z" id="Combined-Shape" fill="#24231F" fill-rule="nonzero"></path>
        </g>
        <g id="APT" transform="translate(178.000000, 122.000000)">
            <path d="M62,41.2 C46.2435009,41.2 30.7482368,47.5491102 18.2900742,57.974305 C7.2381379,67.2227465 0,78.678301 0,87 C0,95.261668 7.11460187,104.939989 18.4591719,112.552626 C30.6067474,120.70411 46.1142143,125.6 62,125.6 C77.8857857,125.6 93.3932526,120.70411 105.540828,112.552626 C116.885398,104.939989 124,95.261668 124,87 C124,78.678301 116.761862,67.2227465 105.709926,57.974305 C93.2517632,47.5491102 77.7564991,41.2 62,41.2 Z M62,45.2 C76.7548081,45.2 91.36607,51.1868945 103.142888,61.0419288 C113.375971,69.6051403 120,80.0887661 120,87 C120,93.6643051 113.662421,102.285606 103.311986,109.231141 C91.8120837,116.948011 77.0771621,121.6 62,121.6 C46.9228379,121.6 32.1879163,116.948011 20.6880143,109.231141 C10.3375792,102.285606 4,93.6643051 4,87 C4,80.0887661 10.6240293,69.6051403 20.8571121,61.0419288 C32.63393,51.1868945 47.2451919,45.2 62,45.2 Z" id="Oval" fill="#24231F" fill-rule="nonzero"></path>
            <ellipse id="Oval" fill="#FFFFFF" fill-rule="nonzero" cx="62" cy="29.8153846" rx="27.5" ry="27.4153846"></ellipse>
            <path d="M62,0 C45.4883388,0 32.1,13.3471439 32.1,29.8153846 C32.1,46.2836253 45.4883388,59.6307692 62,59.6307692 C78.5116612,59.6307692 91.9,46.2836253 91.9,29.8153846 C91.9,13.3471439 78.5116612,0 62,0 Z M62,3.81538462 C76.4096925,3.81538462 88.0879459,15.4577049 88.0879459,29.8153846 C88.0879459,44.1730644 76.4096925,55.8153846 62,55.8153846 C47.5903075,55.8153846 35.9120541,44.1730644 35.9120541,29.8153846 C35.9120541,15.4577049 47.5903075,3.81538462 62,3.81538462 Z" id="Oval" fill="#24231F" fill-rule="nonzero"></path>
            <path d="M54.8,33.6 C74.0195093,33.6 89.6,31.4509668 89.6,28.8 C89.6,26.1490332 74.0195093,26.6509668 54.8,24 C35.5804907,21.3490332 20.3152344,21.3490332 20.3152344,24 C20.3152344,26.6509668 35.5804907,33.6 54.8,33.6 Z" id="Oval" fill="#D40B26"></path>
            <path d="M31.7684279,20 L30.9389297,20.0029026 C23.7520417,20.0549838 20.28125,20.8290547 20.28125,24.0165043 C20.28125,29.1673372 37.9779954,35 54.3543975,35 C62.7902688,35 70.724072,34.5582072 76.7505685,33.7775362 L77.3889022,33.6926009 C85.0327123,32.6479625 88.71875,31.4569614 88.71875,28.4099026 C88.71875,26.2658431 87.1785513,25.4587836 84.4279182,24.8905518 L83.9804885,24.8029287 C82.5943056,24.5454898 80.7978029,24.3344359 78.1785492,24.1025966 L67.0623351,23.1971928 L64.8554514,22.9976256 C61.6040388,22.6930645 58.6023463,22.3625744 55.6426318,21.9726352 L54.6573301,21.8404077 C45.9129732,20.6453635 37.7874401,20 31.7684279,20 Z M30.4087995,25 C35.8104392,25 43.066353,25.5297651 50.955619,26.5185754 L52.6554252,26.7374637 C56.3318296,27.2234514 60.0276032,27.6154841 64.1276479,27.9740688 L68.1507169,28.3039024 C71.1323323,28.5381183 74.9211453,28.8266055 75.4641415,28.8710019 L76.8398506,28.9877116 C77.290711,29.0275604 77.7134483,29.0667358 78.1103356,29.1055659 L79,29.195817 L78.9056402,29.215354 C77.8617244,29.4139751 76.6705176,29.6026749 75.3498531,29.7772549 L74.1054051,29.9330958 C68.3741472,30.6128746 60.9024236,31 52.9578628,31 C45.1407875,31 37.4377813,29.7625984 31.1074446,27.7444821 L30.5894918,27.5764712 C28.5400395,26.9000758 26.7629015,26.1735601 25.4024018,25.472606 L25,25.2586465 L25.1748531,25.2374646 C26.5278205,25.0820396 28.2978492,25 30.4087995,25 Z" id="Oval" fill="#24231F" fill-rule="nonzero"></path>
            <path d="M89.5,29.8153846 C89.5,14.6742858 77.1878306,2.4 62,2.4 C46.8121694,2.4 34.5,14.6742858 34.5,29.8153846 C34.5,36.3305634 89.5,36.3305634 89.5,29.8153846 Z" id="Oval" fill="#D40B26" fill-rule="nonzero"></path>
            <path d="M62,0 C45.4883388,0 32.1,12.9507891 32.1,28.9299913 C32.1,34.1536715 44.1475492,36 62,36 L63.7464766,35.9939252 C80.6337012,35.8745935 91.9,33.9814623 91.9,28.9299913 C91.9,12.9507891 78.5116612,0 62,0 Z M62.4193079,4.80341981 C75.810853,5.02200418 86.6494978,15.6918495 87.086314,28.9814446 L87.0932,29.3064 L87.0254115,29.3492335 C86.8326621,29.4637089 86.5668762,29.5942251 86.2336219,29.7295734 C84.9696974,30.2429049 83.0211116,30.7163925 80.5318265,31.1095594 C75.6566901,31.8795566 68.97374,32.3017687 62,32.3017687 C55.02626,32.3017687 48.3433099,31.8795566 43.4681735,31.1095594 C40.9788884,30.7163925 39.0303026,30.2429049 37.7663781,29.7295734 L37.5745663,29.6490339 C37.3297309,29.5426603 37.128788,29.4408138 36.9745885,29.3492335 L36.9056,29.3064 L36.913686,28.9814446 C37.3550523,15.5534163 48.4160808,4.8 62,4.8 L62.4193079,4.80341981 Z" id="Oval" fill="#24231F" fill-rule="nonzero"></path>
            <path d="M59.3281629,44.246834 C50.185916,46.3044254 45.2048062,43.9179748 44.3848336,37.0874823 C44.2738009,35.437105 44.2738009,33.5383511 44.8766857,32.4997941 C44.8766857,32.4997941 49.6938448,36.4154741 59.3281629,44.246834 Z" id="Path-31" fill="#24231F" fill-rule="nonzero"></path>
            <path d="M79.5,44.246834 C70.357753,46.3044254 65.3766433,43.9179748 64.5566707,37.0874823 C64.4456379,35.437105 64.4456379,33.5383511 65.0485228,32.4997941 C65.0485228,32.4997941 69.8656818,36.4154741 79.5,44.246834 Z" id="Path-31" fill="#24231F" fill-rule="nonzero" transform="translate(72.000000, 38.730563) scale(-1, 1) translate(-72.000000, -38.730563) "></path>
            <polygon id="Path-18" fill="#E2E3E6" points="8.91364438 60.675 12.2011719 54.3714844 112.4 54.3714844 117.2 60.675 107.6 118.8 107.6 126 104.5 129.659766 22.4796875 129.659766 17.4277344 127.015385 17.4277344 117.046154"></polygon>
            <polygon id="Path-5" fill="#D40B26" points="53.25 76.5834961 47.431543 72.4549805 46.2283203 81.1749023 44.3281629 86.9966102 45.0476563 95.6100586 49.5 101.465332 57.4144531 104.753906 66.265332 103.338462 72 98.4474609 74.7880859 91.2 74.2282227 86.2268555 72.7144531 81.1749023 72 72.4549805 65.75 76.5834961 59.3281629 74.8977539"></polygon>
            <polygon id="Rectangle" fill="#9F9EA2" points="109.5 120.397656 109.5 127 16.0824219 127 14.5 120.397656"></polygon>
            <path d="M109.71493,52.2461538 C114.547421,52.2461538 118.46493,56.1516084 118.46493,60.9692308 C118.46493,61.4133036 118.430915,61.8567282 118.363182,62.2956373 L110.286259,114.634099 C110.149037,115.523297 109.880121,116.363849 109.501137,117.137259 L109.5,123.276923 C109.5,128.094545 105.582492,132 100.75,132 L23.25,132 C18.4175084,132 14.5,128.094545 14.5,123.276923 L14.4998461,117.139265 C14.1203437,116.365302 13.8510817,115.524065 13.7137411,114.634099 L5.63681805,62.2956373 C4.90200299,57.5340357 8.17827215,53.0801425 12.95457,52.3475884 C13.3948338,52.280064 13.8396269,52.2461538 14.2850704,52.2461538 L109.71493,52.2461538 Z M104.5,122.030769 L19.5,122.030769 L19.5,123.276923 C19.5,125.341618 21.1789322,127.015385 23.25,127.015385 L100.75,127.015385 C102.821068,127.015385 104.5,125.341618 104.5,123.276923 L104.5,122.030769 Z M109.71493,57.2307692 L14.2850704,57.2307692 C14.0941661,57.2307692 13.9035404,57.2453021 13.714856,57.2742412 C11.6678712,57.5881929 10.2637558,59.4970043 10.5786765,61.5376907 L18.6555996,113.876152 C18.937041,115.699892 20.5111019,117.046154 22.3619935,117.046154 L101.638007,117.046154 C103.488898,117.046154 105.062959,115.699892 105.3444,113.876152 L113.421323,61.5376907 C113.450352,61.3495868 113.46493,61.1595477 113.46493,60.9692308 C113.46493,58.9045355 111.785997,57.2307692 109.71493,57.2307692 Z M72.7620297,69.9176539 L74.2312253,83.0688272 C77.0936409,89.1115412 75.8623407,96.3533345 70.9844794,101.150768 C64.6398652,107.39077 54.3601348,107.39077 48.0155206,101.150768 C43.1386522,96.3543111 41.9070687,89.1147181 44.7666898,83.0732267 L45.9137579,69.9477948 L53.3320587,75.0262193 C57.2839632,73.4321295 61.7419316,73.4355989 65.6909859,75.035536 L72.7620297,69.9176539 Z M48.0322642,74.421436 L47.2374414,83.5162682 L47.1145702,83.9565904 C44.5935699,89.0838556 45.6068829,95.2808174 49.771276,99.3765464 C55.1423905,104.6591 63.8576095,104.6591 69.228724,99.3765464 C73.3906335,95.2832601 74.4053976,89.0910637 71.8896416,83.9651641 L71.7701284,83.5554188 L70.7530842,74.4515769 L65.9906297,77.8985476 L65.3256973,77.5932063 C61.6577092,75.9088419 57.3852673,75.902623 53.7121703,77.5758866 L53.0684673,77.8691228 L48.0322642,74.421436 Z M48.2649536,86.9966102 L50.3077717,88.6673374 C50.4640527,88.7951524 50.7673674,89.030013 51.1904793,89.3359198 C51.9006741,89.8493855 52.6774187,90.3632814 53.4922751,90.8414847 C54.8775075,91.6544166 56.2237652,92.2758036 57.4578137,92.6299261 C58.2032079,92.8438243 58.8884445,92.9538462 59.5,92.9538462 C60.1179187,92.9538462 60.8115674,92.8415272 61.5668717,92.6232734 C62.7969028,92.2678419 64.1382003,91.6488454 65.5184991,90.8408042 C66.3355742,90.3624799 67.1146701,89.8484593 67.8272036,89.3348652 C68.2517308,89.028866 68.556152,88.7939142 68.7130829,88.6660077 L68.7130829,88.6660077 L70.7542725,87.0023376 L70.7542725,89.6307692 C70.7542725,95.0187788 65.8995756,100.015385 59.5,100.015385 C53.1024185,100.015385 48.2649536,95.0225476 48.2649536,89.6307692 L48.2649536,89.6307692 L48.2649536,86.9966102 Z M67.6293424,92.4765075 C67.3530443,92.6505768 67.0711285,92.822122 66.7844184,92.9899651 C65.2392411,93.8945279 63.7179673,94.5965818 62.2628578,95.0170523 C61.2948676,95.2967641 60.3722806,95.4461538 59.5,95.4461538 C58.6360468,95.4461538 57.7232168,95.2995895 56.7662783,95.0249866 C55.3042269,94.6054364 53.775947,93.9000341 52.2240335,92.9892845 C51.9404266,92.8228481 51.661549,92.6527727 51.3881978,92.4802062 C52.6505295,95.3083272 55.7138536,97.5230769 59.5,97.5230769 C63.2895567,97.5230769 66.3629216,95.3045169 67.6293424,92.4765075 Z M51.0717712,84.7006023 C54.4085567,84.3169933 56.384633,85.9603822 57,89.6307692 C49.711062,86.7276003 47.7349857,85.0842114 51.0717712,84.7006023 Z M67.9282288,84.7006023 C71.2650143,85.0842114 69.288938,86.7276003 62,89.6307692 C62.615367,85.9603822 64.5914433,84.3169933 67.9282288,84.7006023 Z" id="Combined-Shape" fill="#24231F" fill-rule="nonzero"></path>
        </g>
        <g id="report" transform="translate(53.000000, 285.000000)">
            <rect id="Rectangle" fill="#FFFFFF" x="1" y="2" width="58" height="68"></rect>
            <polygon id="Path-4" fill="#EABDBF" points="9.0847435 44.2494774 51.1563721 44.2494774 51.1563721 32.2491245 45 38.249301 39.6660309 36 27.4640274 39.9159241 21.0377884 32.7374105 15.6480255 40.4060764 9.0847435 36"></polygon>
            <circle id="Oval" fill="#EABDBF" cx="48" cy="19" r="7"></circle>
            <path d="M59,0 C59.5522847,0 60,0.44771525 60,1 L60,70 C60,70.5522847 59.5522847,71 59,71 L1,71 C0.44771525,71 0,70.5522847 0,70 L0,1 C0,0.44771525 0.44771525,0 1,0 L59,0 Z M58,2 L2,2 L2,69 L58,69 L58,2 Z M52,62 L52,64 L8,64 L8,62 L52,62 Z M52,57 L52,59 L8,59 L8,57 L52,57 Z M52,52 L52,54 L8,54 L8,52 L52,52 Z M28,47.5 L28,49.5 L8,49.5 L8,47.5 L28,47.5 Z M52,27 L52,45 L8,45 L8,27 L52,27 Z M50,34.136 L44.8018197,39.8316514 L39.511,37.0755 L27.0033004,40.8986669 L20.993,34.195 L15.8740065,41.9447434 L10,37.732 L10,43 L50,43 L50,34.136 Z M50,29 L10,29 L10,35.271 L15.3505,39.108 L20.7523145,30.9311682 L27.6395,38.6125 L39.7092659,34.9240683 L44.3615,37.347 L50,31.171 L50,29 Z M43.25,7 C48.0824916,7 52,10.9175084 52,15.75 C52,20.5824916 48.0824916,24.5 43.25,24.5 C38.4175084,24.5 34.5,20.5824916 34.5,15.75 C34.5,10.9175084 38.4175084,7 43.25,7 Z M32,22 L32,24 L8,24 L8,22 L32,22 Z M43.25,9 C39.5220779,9 36.5,12.0220779 36.5,15.75 C36.5,19.4779221 39.5220779,22.5 43.25,22.5 C46.9779221,22.5 50,19.4779221 50,15.75 C50,12.0220779 46.9779221,9 43.25,9 Z M32,17 L32,19 L8,19 L8,17 L32,17 Z M32,12 L32,14 L8,14 L8,12 L32,12 Z M32,7 L32,9 L8,9 L8,7 L32,7 Z" id="Combined-Shape" fill="#24231F" fill-rule="nonzero"></path>
        </g>
        <g id="report-copy" transform="translate(386.000000, 36.000000)">
            <rect id="Rectangle" fill="#FFFFFF" x="1" y="2" width="58" height="68"></rect>
            <polygon id="Path-4" fill="#EABDBF" points="9.0847435 44.2494774 51.1563721 44.2494774 51.1563721 32.2491245 45 38.249301 39.6660309 36 27.4640274 39.9159241 21.0377884 32.7374105 15.6480255 40.4060764 9.0847435 36"></polygon>
            <circle id="Oval" fill="#EABDBF" cx="48" cy="19" r="7"></circle>
            <path d="M59,0 C59.5522847,0 60,0.44771525 60,1 L60,70 C60,70.5522847 59.5522847,71 59,71 L1,71 C0.44771525,71 0,70.5522847 0,70 L0,1 C0,0.44771525 0.44771525,0 1,0 L59,0 Z M58,2 L2,2 L2,69 L58,69 L58,2 Z M52,62 L52,64 L8,64 L8,62 L52,62 Z M52,57 L52,59 L8,59 L8,57 L52,57 Z M52,52 L52,54 L8,54 L8,52 L52,52 Z M28,47.5 L28,49.5 L8,49.5 L8,47.5 L28,47.5 Z M52,27 L52,45 L8,45 L8,27 L52,27 Z M50,34.136 L44.8018197,39.8316514 L39.511,37.0755 L27.0033004,40.8986669 L20.993,34.195 L15.8740065,41.9447434 L10,37.732 L10,43 L50,43 L50,34.136 Z M50,29 L10,29 L10,35.271 L15.3505,39.108 L20.7523145,30.9311682 L27.6395,38.6125 L39.7092659,34.9240683 L44.3615,37.347 L50,31.171 L50,29 Z M43.25,7 C48.0824916,7 52,10.9175084 52,15.75 C52,20.5824916 48.0824916,24.5 43.25,24.5 C38.4175084,24.5 34.5,20.5824916 34.5,15.75 C34.5,10.9175084 38.4175084,7 43.25,7 Z M32,22 L32,24 L8,24 L8,22 L32,22 Z M43.25,9 C39.5220779,9 36.5,12.0220779 36.5,15.75 C36.5,19.4779221 39.5220779,22.5 43.25,22.5 C46.9779221,22.5 50,19.4779221 50,15.75 C50,12.0220779 46.9779221,9 43.25,9 Z M32,17 L32,19 L8,19 L8,17 L32,17 Z M32,12 L32,14 L8,14 L8,12 L32,12 Z M32,7 L32,9 L8,9 L8,7 L32,7 Z" id="Combined-Shape" fill="#24231F" fill-rule="nonzero"></path>
        </g>
        <g id="report-copy-2" transform="translate(329.000000, 235.000000)">
            <rect id="Rectangle" fill="#FFFFFF" x="1" y="2" width="58" height="68"></rect>
            <polygon id="Path-4" fill="#EABDBF" points="9.0847435 44.2494774 51.1563721 44.2494774 51.1563721 32.2491245 45 38.249301 39.6660309 36 27.4640274 39.9159241 21.0377884 32.7374105 15.6480255 40.4060764 9.0847435 36"></polygon>
            <circle id="Oval" fill="#EABDBF" cx="48" cy="19" r="7"></circle>
            <path d="M59,0 C59.5522847,0 60,0.44771525 60,1 L60,70 C60,70.5522847 59.5522847,71 59,71 L1,71 C0.44771525,71 0,70.5522847 0,70 L0,1 C0,0.44771525 0.44771525,0 1,0 L59,0 Z M58,2 L2,2 L2,69 L58,69 L58,2 Z M52,62 L52,64 L8,64 L8,62 L52,62 Z M52,57 L52,59 L8,59 L8,57 L52,57 Z M52,52 L52,54 L8,54 L8,52 L52,52 Z M28,47.5 L28,49.5 L8,49.5 L8,47.5 L28,47.5 Z M52,27 L52,45 L8,45 L8,27 L52,27 Z M50,34.136 L44.8018197,39.8316514 L39.511,37.0755 L27.0033004,40.8986669 L20.993,34.195 L15.8740065,41.9447434 L10,37.732 L10,43 L50,43 L50,34.136 Z M50,29 L10,29 L10,35.271 L15.3505,39.108 L20.7523145,30.9311682 L27.6395,38.6125 L39.7092659,34.9240683 L44.3615,37.347 L50,31.171 L50,29 Z M43.25,7 C48.0824916,7 52,10.9175084 52,15.75 C52,20.5824916 48.0824916,24.5 43.25,24.5 C38.4175084,24.5 34.5,20.5824916 34.5,15.75 C34.5,10.9175084 38.4175084,7 43.25,7 Z M32,22 L32,24 L8,24 L8,22 L32,22 Z M43.25,9 C39.5220779,9 36.5,12.0220779 36.5,15.75 C36.5,19.4779221 39.5220779,22.5 43.25,22.5 C46.9779221,22.5 50,19.4779221 50,15.75 C50,12.0220779 46.9779221,9 43.25,9 Z M32,17 L32,19 L8,19 L8,17 L32,17 Z M32,12 L32,14 L8,14 L8,12 L32,12 Z M32,7 L32,9 L8,9 L8,7 L32,7 Z" id="Combined-Shape" fill="#24231F" fill-rule="nonzero"></path>
        </g>
        <g id="report-copy-3" transform="translate(61.000000, 58.000000)">
            <rect id="Rectangle" fill="#FFFFFF" x="1" y="2" width="58" height="68"></rect>
            <polygon id="Path-4" fill="#EABDBF" points="9.0847435 44.2494774 51.1563721 44.2494774 51.1563721 32.2491245 45 38.249301 39.6660309 36 27.4640274 39.9159241 21.0377884 32.7374105 15.6480255 40.4060764 9.0847435 36"></polygon>
            <circle id="Oval" fill="#EABDBF" cx="48" cy="19" r="7"></circle>
            <path d="M59,0 C59.5522847,0 60,0.44771525 60,1 L60,70 C60,70.5522847 59.5522847,71 59,71 L1,71 C0.44771525,71 0,70.5522847 0,70 L0,1 C0,0.44771525 0.44771525,0 1,0 L59,0 Z M58,2 L2,2 L2,69 L58,69 L58,2 Z M52,62 L52,64 L8,64 L8,62 L52,62 Z M52,57 L52,59 L8,59 L8,57 L52,57 Z M52,52 L52,54 L8,54 L8,52 L52,52 Z M28,47.5 L28,49.5 L8,49.5 L8,47.5 L28,47.5 Z M52,27 L52,45 L8,45 L8,27 L52,27 Z M50,34.136 L44.8018197,39.8316514 L39.511,37.0755 L27.0033004,40.8986669 L20.993,34.195 L15.8740065,41.9447434 L10,37.732 L10,43 L50,43 L50,34.136 Z M50,29 L10,29 L10,35.271 L15.3505,39.108 L20.7523145,30.9311682 L27.6395,38.6125 L39.7092659,34.9240683 L44.3615,37.347 L50,31.171 L50,29 Z M43.25,7 C48.0824916,7 52,10.9175084 52,15.75 C52,20.5824916 48.0824916,24.5 43.25,24.5 C38.4175084,24.5 34.5,20.5824916 34.5,15.75 C34.5,10.9175084 38.4175084,7 43.25,7 Z M32,22 L32,24 L8,24 L8,22 L32,22 Z M43.25,9 C39.5220779,9 36.5,12.0220779 36.5,15.75 C36.5,19.4779221 39.5220779,22.5 43.25,22.5 C46.9779221,22.5 50,19.4779221 50,15.75 C50,12.0220779 46.9779221,9 43.25,9 Z M32,17 L32,19 L8,19 L8,17 L32,17 Z M32,12 L32,14 L8,14 L8,12 L32,12 Z M32,7 L32,9 L8,9 L8,7 L32,7 Z" id="Combined-Shape" fill="#24231F" fill-rule="nonzero"></path>
        </g>
    </g>
</svg>