<?xml version="1.0" encoding="UTF-8"?>
<svg width="480px" height="400px" viewBox="0 0 480 400" version="1.1" xmlns="http://www.w3.org/2000/svg" xmlns:xlink="http://www.w3.org/1999/xlink">
    <title>img/data-recovery</title>
    <g id="img/data-recovery" stroke="none" stroke-width="1" fill="none" fill-rule="evenodd">
        <circle id="Oval-Copy-19" fill="#E2E3E6" cx="295.968988" cy="240.5" r="144.5"></circle>
        <circle id="Oval-Copy-20" fill="#E2E3E6" cx="165.968988" cy="219.5" r="144.5"></circle>
        <circle id="Oval-Copy-21" fill="#E2E3E6" cx="254.968988" cy="166.5" r="144.5"></circle>
        <g id="window" transform="translate(130.000000, 60.000000)">
            <rect id="Rectangle" fill="#FFFFFF" x="0" y="0" width="260" height="180" rx="4"></rect>
            <path d="M256,0 C258.209139,0 260,1.790861 260,4 L260,176 C260,178.209139 258.209139,180 256,180 L4,180 C1.790861,180 0,178.209139 0,176 L0,4 C0,1.790861 1.790861,0 4,0 L256,0 Z M255,5 L5,5 L5,175 L255,175 L255,5 Z" id="Rectangle" fill="#24231F" fill-rule="nonzero"></path>
            <rect id="Rectangle-Copy-17" fill="#F0EFF0" x="20" y="46" width="140" height="60"></rect>
            <rect id="Rectangle-Copy-18" fill="#F0EFF0" x="20" y="116" width="140" height="20"></rect>
            <rect id="Rectangle-Copy-20" fill="#F0EFF0" x="168" y="46" width="72" height="90"></rect>
            <rect id="Rectangle-Copy-21" fill="#F0EFF0" x="168" y="146" width="72" height="20"></rect>
            <rect id="Rectangle-Copy-19" fill="#F0EFF0" x="20" y="146" width="140" height="20"></rect>
            <path d="M4,0 L256,0 C258.209139,-4.05812251e-16 260,1.790861 260,4 L260,36 L260,36 L0,36 L0,4 C-2.705415e-16,1.790861 1.790861,2.18216909e-15 4,0 Z" id="Rectangle" fill="#EABDBF"></path>
            <path d="M256,0 C258.209139,0 260,1.790861 260,4 L260,36 L0,36 L0,4 C0,1.790861 1.790861,0 4,0 L256,0 Z M255,5 L5,5 L5,31 L255,31 L255,5 Z" id="Rectangle" fill="#24231F" fill-rule="nonzero"></path>
            <circle id="Oval" fill="#24231F" cx="237" cy="18" r="7"></circle>
            <circle id="Oval-Copy" fill="#24231F" cx="215" cy="18" r="7"></circle>
            <circle id="Oval-Copy-2" fill="#24231F" cx="193" cy="18" r="7"></circle>
        </g>
        <g id="window" transform="translate(110.000000, 110.000000)">
            <rect id="Rectangle" fill="#FFFFFF" x="0" y="0" width="260" height="180" rx="4"></rect>
            <path d="M256,0 C258.209139,0 260,1.790861 260,4 L260,176 C260,178.209139 258.209139,180 256,180 L4,180 C1.790861,180 0,178.209139 0,176 L0,4 C0,1.790861 1.790861,0 4,0 L256,0 Z M255,5 L5,5 L5,175 L255,175 L255,5 Z" id="Rectangle" fill="#24231F" fill-rule="nonzero"></path>
            <rect id="Rectangle-Copy-17" fill="#F0EFF0" x="20" y="46" width="140" height="60"></rect>
            <rect id="Rectangle-Copy-18" fill="#F0EFF0" x="20" y="116" width="140" height="20"></rect>
            <rect id="Rectangle-Copy-20" fill="#F0EFF0" x="168" y="46" width="72" height="90"></rect>
            <rect id="Rectangle-Copy-21" fill="#F0EFF0" x="168" y="146" width="72" height="20"></rect>
            <rect id="Rectangle-Copy-19" fill="#F0EFF0" x="20" y="146" width="140" height="20"></rect>
            <path d="M4,0 L256,0 C258.209139,-4.05812251e-16 260,1.790861 260,4 L260,36 L260,36 L0,36 L0,4 C-2.705415e-16,1.790861 1.790861,2.18216909e-15 4,0 Z" id="Rectangle" fill="#EABDBF"></path>
            <path d="M256,0 C258.209139,0 260,1.790861 260,4 L260,36 L0,36 L0,4 C0,1.790861 1.790861,0 4,0 L256,0 Z M255,5 L5,5 L5,31 L255,31 L255,5 Z" id="Rectangle" fill="#24231F" fill-rule="nonzero"></path>
            <circle id="Oval" fill="#24231F" cx="237" cy="18" r="7"></circle>
            <circle id="Oval-Copy" fill="#24231F" cx="215" cy="18" r="7"></circle>
            <circle id="Oval-Copy-2" fill="#24231F" cx="193" cy="18" r="7"></circle>
        </g>
        <g id="window" transform="translate(90.000000, 160.000000)">
            <rect id="Rectangle" fill="#FFFFFF" x="0" y="0" width="260" height="180" rx="4"></rect>
            <path d="M256,0 C258.209139,0 260,1.790861 260,4 L260,176 C260,178.209139 258.209139,180 256,180 L4,180 C1.790861,180 0,178.209139 0,176 L0,4 C0,1.790861 1.790861,0 4,0 L256,0 Z M255,5 L5,5 L5,175 L255,175 L255,5 Z" id="Rectangle" fill="#24231F" fill-rule="nonzero"></path>
            <rect id="Rectangle-Copy-17" fill="#F0EFF0" x="20" y="46" width="140" height="60"></rect>
            <rect id="Rectangle-Copy-18" fill="#F0EFF0" x="20" y="116" width="140" height="20"></rect>
            <rect id="Rectangle-Copy-20" fill="#F0EFF0" x="168" y="46" width="72" height="90"></rect>
            <rect id="Rectangle-Copy-21" fill="#F0EFF0" x="168" y="146" width="72" height="20"></rect>
            <rect id="Rectangle-Copy-19" fill="#F0EFF0" x="20" y="146" width="140" height="20"></rect>
            <path d="M4,0 L256,0 C258.209139,-4.05812251e-16 260,1.790861 260,4 L260,36 L260,36 L0,36 L0,4 C-2.705415e-16,1.790861 1.790861,2.18216909e-15 4,0 Z" id="Rectangle" fill="#EABDBF"></path>
            <path d="M256,0 C258.209139,0 260,1.790861 260,4 L260,36 L0,36 L0,4 C0,1.790861 1.790861,0 4,0 L256,0 Z M255,5 L5,5 L5,31 L255,31 L255,5 Z" id="Rectangle" fill="#24231F" fill-rule="nonzero"></path>
            <circle id="Oval" fill="#24231F" cx="237" cy="18" r="7"></circle>
            <circle id="Oval-Copy" fill="#24231F" cx="215" cy="18" r="7"></circle>
            <circle id="Oval-Copy-2" fill="#24231F" cx="193" cy="18" r="7"></circle>
        </g>
        <g id="clock" transform="translate(140.000000, 100.000000)">
            <circle id="Oval" fill="#D40B26" cx="100" cy="100" r="96.5517241"></circle>
            <path d="M100,0 C44.771525,0 0,44.771525 0,100 C0,155.228475 44.771525,200 100,200 C155.228475,200 200,155.228475 200,100 C200,44.771525 155.228475,0 100,0 Z M100,5 C152.467051,5 195,47.5329488 195,100 C195,152.467051 152.467051,195 100,195 C47.5329488,195 5,152.467051 5,100 C5,47.5329488 47.5329488,5 100,5 Z" id="Oval" fill="#24231F" fill-rule="nonzero"></path>
            <circle id="Oval" fill="#FFFFFF" cx="100" cy="100" r="77.2413793"></circle>
            <path d="M100,19.3103448 C55.436334,19.3103448 19.3103448,55.436334 19.3103448,100 C19.3103448,144.563666 55.436334,180.689655 100,180.689655 C144.563666,180.689655 180.689655,144.563666 180.689655,100 C180.689655,55.436334 144.563666,19.3103448 100,19.3103448 Z M100,24 C141.973641,24 176,58.026359 176,100 C176,141.973641 141.973641,176 100,176 C58.026359,176 24,141.973641 24,100 C24,58.026359 58.026359,24 100,24 Z" id="Oval" fill="#24231F" fill-rule="nonzero"></path>
            <path d="M100,40.6896552 C132.756199,40.6896552 159.310345,67.243801 159.310345,100 C159.310345,132.756199 132.756199,159.310345 100,159.310345 C74.0046061,159.310345 51.9152935,142.586422 43.90433,119.310846 L52.7455315,119.310776 C60.3591018,137.922221 78.6482845,151.034483 100,151.034483 C128.185567,151.034483 151.034483,128.185567 151.034483,100 C151.034483,71.8144335 128.185567,48.9655172 100,48.9655172 C71.8144335,48.9655172 48.9655172,71.8144335 48.9655172,100 C48.9655172,100.461371 48.9716395,100.921312 48.9838072,101.379746 L40.7053771,101.37926 C40.6949147,100.920773 40.6896552,100.461001 40.6896552,100 C40.6896552,67.243801 67.243801,40.6896552 100,40.6896552 Z" id="Combined-Shape" fill="#24231F" fill-rule="nonzero"></path>
            <polygon id="Triangle" fill="#24231F" transform="translate(44.827586, 104.137931) scale(1, -1) translate(-44.827586, -104.137931) " points="44.8275862 95.862069 58.6206897 112.413793 31.0344828 112.413793"></polygon>
            <path d="M131.367981,77.6357821 L132.709045,78.9768467 C133.685356,79.9531574 133.685356,81.5360699 132.709045,82.5123806 L101.13307,114.088356 C100.174718,115.046708 98.6318761,115.064336 97.6520212,114.141241 C97.4741868,114.035969 97.3061006,113.906837 97.1529426,113.753679 L77.2808037,93.8815402 C76.304493,92.9052294 76.304493,91.322317 77.2808037,90.3460063 L78.6218683,89.0049417 C79.5981791,88.0286309 81.1810915,88.0286309 82.1574022,89.0049417 L99.3103594,106.157338 L127.832447,77.6357821 C128.808758,76.6594714 130.39167,76.6594714 131.367981,77.6357821 Z" id="Combined-Shape" fill="#D40B26"></path>
        </g>
        <g id="file" transform="translate(44.000000, 65.000000)">
            <polygon id="Path" fill="#FFFFFF" fill-rule="nonzero" points="6.84782609 0 40.0768512 0 53.1521739 11.8359375 53.1521739 54 6.84782609 54"></polygon>
            <polygon id="Path" fill="#EABDBF" fill-rule="nonzero" points="2.84782609 5 36.0768512 5 49.1521739 16.8359375 49.1521739 59 2.84782609 59"></polygon>
            <rect id="Rectangle-Copy-17" fill="#FFFFFF" x="13" y="8" width="26" height="4"></rect>
            <rect id="Rectangle-Copy-22" fill="#FFFFFF" x="13" y="16" width="34" height="4"></rect>
            <path d="M40.0768512,0 L53.1521739,11.8359375 L53.1521739,54 L6.84782609,54 L6.84782609,0 L40.0768512,0 Z M37.1738261,2.618 L9.45652174,2.61818182 L9.45652174,51.3818182 L50.5434783,51.3818182 L50.5428261,14.971 L37.173913,14.9714489 L37.1738261,2.618 Z M49.8278261,12.353 L39.7818261,3.259 L39.7826087,12.353267 L49.8278261,12.353 Z" id="Combined-Shape" fill="#24231F" fill-rule="nonzero"></path>
            <rect id="Rectangle" stroke="#24231F" stroke-width="3" fill="#D40B26" fill-rule="nonzero" x="0" y="21" width="60" height="26"></rect>
            <path d="M61.5,19.5 L-1.5,19.5 L-1.5,48.5 L61.5,48.5 L61.5,19.5 Z M58.5,22.5 L58.5,45.5 L1.5,45.5 L1.5,22.5 L58.5,22.5 Z" id="Rectangle" fill="#24231F" fill-rule="nonzero"></path>
        </g>
        <g id="file-copy" transform="translate(184.000000, 315.000000)">
            <polygon id="Path" fill="#FFFFFF" fill-rule="nonzero" points="6.84782609 0 40.0768512 0 53.1521739 11.8359375 53.1521739 54 6.84782609 54"></polygon>
            <polygon id="Path" fill="#EABDBF" fill-rule="nonzero" points="2.84782609 5 36.0768512 5 49.1521739 16.8359375 49.1521739 59 2.84782609 59"></polygon>
            <rect id="Rectangle-Copy-17" fill="#FFFFFF" x="13" y="8" width="26" height="4"></rect>
            <rect id="Rectangle-Copy-22" fill="#FFFFFF" x="13" y="16" width="34" height="4"></rect>
            <path d="M40.0768512,0 L53.1521739,11.8359375 L53.1521739,54 L6.84782609,54 L6.84782609,0 L40.0768512,0 Z M37.1738261,2.618 L9.45652174,2.61818182 L9.45652174,51.3818182 L50.5434783,51.3818182 L50.5428261,14.971 L37.173913,14.9714489 L37.1738261,2.618 Z M49.8278261,12.353 L39.7818261,3.259 L39.7826087,12.353267 L49.8278261,12.353 Z" id="Combined-Shape" fill="#24231F" fill-rule="nonzero"></path>
            <rect id="Rectangle" fill="#D40B26" fill-rule="nonzero" x="0" y="21" width="60" height="26"></rect>
            <path d="M61.5,19.5 L-1.5,19.5 L-1.5,48.5 L61.5,48.5 L61.5,19.5 Z M58.5,22.5 L58.5,45.5 L1.5,45.5 L1.5,22.5 L58.5,22.5 Z" id="Rectangle" fill="#24231F" fill-rule="nonzero"></path>
        </g>
        <g id="file-copy-3" transform="translate(396.000000, 160.000000)">
            <polygon id="Path" fill="#FFFFFF" fill-rule="nonzero" points="6.84782609 0 40.0768512 0 53.1521739 11.8359375 53.1521739 54 6.84782609 54"></polygon>
            <polygon id="Path" fill="#EABDBF" fill-rule="nonzero" points="2.84782609 5 36.0768512 5 49.1521739 16.8359375 49.1521739 59 2.84782609 59"></polygon>
            <rect id="Rectangle-Copy-17" fill="#FFFFFF" x="13" y="8" width="26" height="4"></rect>
            <rect id="Rectangle-Copy-22" fill="#FFFFFF" x="13" y="16" width="34" height="4"></rect>
            <path d="M40.0768512,0 L53.1521739,11.8359375 L53.1521739,54 L6.84782609,54 L6.84782609,0 L40.0768512,0 Z M37.1738261,2.618 L9.45652174,2.61818182 L9.45652174,51.3818182 L50.5434783,51.3818182 L50.5428261,14.971 L37.173913,14.9714489 L37.1738261,2.618 Z M49.8278261,12.353 L39.7818261,3.259 L39.7826087,12.353267 L49.8278261,12.353 Z" id="Combined-Shape" fill="#24231F" fill-rule="nonzero"></path>
            <rect id="Rectangle" fill="#D40B26" fill-rule="nonzero" x="0" y="21" width="60" height="26"></rect>
            <path d="M61.5,19.5 L-1.5,19.5 L-1.5,48.5 L61.5,48.5 L61.5,19.5 Z M58.5,22.5 L58.5,45.5 L1.5,45.5 L1.5,22.5 L58.5,22.5 Z" id="Rectangle" fill="#24231F" fill-rule="nonzero"></path>
        </g>
        <path d="M59.1994177,207.263992 C59.5600649,206.912003 60.1447897,206.912003 60.505437,207.263992 L60.505437,207.263992 L65.7295145,212.362666 C66.0901618,212.714656 66.0901618,213.285344 65.7295145,213.637334 L65.7295145,213.637334 L60.505437,218.736008 C60.1447897,219.087997 59.5600649,219.087997 59.1994177,218.736008 C58.8387704,218.384018 58.8387704,217.813329 59.1994177,217.461339 L59.1994177,217.461339 L63.7704855,213 L59.1994177,208.538661 C58.8387704,208.186671 58.8387704,207.615982 59.1994177,207.263992 Z M50.7349516,207.263992 C51.0955989,206.912003 51.6803236,206.912003 52.0409709,207.263992 L52.0409709,207.263992 L57.2650484,212.362666 C57.6256957,212.714656 57.6256957,213.285344 57.2650484,213.637334 L57.2650484,213.637334 L52.0409709,218.736008 C51.6803236,219.087997 51.0955989,219.087997 50.7349516,218.736008 C50.3743043,218.384018 50.3743043,217.813329 50.7349516,217.461339 L50.7349516,217.461339 L55.3060194,213 L50.7349516,208.538661 C50.3743043,208.186671 50.3743043,207.615982 50.7349516,207.263992 Z M42.2704855,207.263992 C42.6311328,206.912003 43.2158576,206.912003 43.5765048,207.263992 L43.5765048,207.263992 L48.8005823,212.362666 C49.1612296,212.714656 49.1612296,213.285344 48.8005823,213.637334 L48.8005823,213.637334 L43.5765048,218.736008 C43.2158576,219.087997 42.6311328,219.087997 42.2704855,218.736008 C41.9098382,218.384018 41.9098382,217.813329 42.2704855,217.461339 L42.2704855,217.461339 L46.8415533,213 L42.2704855,208.538661 C41.9098382,208.186671 41.9098382,207.615982 42.2704855,207.263992 Z" id="Combined-Shape-Copy-6" fill="#24231F" transform="translate(54.000000, 213.000000) scale(-1, 1) translate(-54.000000, -213.000000) "></path>
        <path d="M371.199418,39.2639925 C371.560065,38.9120025 372.14479,38.9120025 372.505437,39.2639925 L372.505437,39.2639925 L377.729515,44.3626658 C378.090162,44.7146558 378.090162,45.2853442 377.729515,45.6373342 L377.729515,45.6373342 L372.505437,50.7360075 C372.14479,51.0879975 371.560065,51.0879975 371.199418,50.7360075 C370.83877,50.3840176 370.83877,49.8133291 371.199418,49.4613392 L371.199418,49.4613392 L375.770485,45 L371.199418,40.5386608 C370.83877,40.1866709 370.83877,39.6159824 371.199418,39.2639925 Z M362.734952,39.2639925 C363.095599,38.9120025 363.680324,38.9120025 364.040971,39.2639925 L364.040971,39.2639925 L369.265048,44.3626658 C369.625696,44.7146558 369.625696,45.2853442 369.265048,45.6373342 L369.265048,45.6373342 L364.040971,50.7360075 C363.680324,51.0879975 363.095599,51.0879975 362.734952,50.7360075 C362.374304,50.3840176 362.374304,49.8133291 362.734952,49.4613392 L362.734952,49.4613392 L367.306019,45 L362.734952,40.5386608 C362.374304,40.1866709 362.374304,39.6159824 362.734952,39.2639925 Z M354.270485,39.2639925 C354.631133,38.9120025 355.215858,38.9120025 355.576505,39.2639925 L355.576505,39.2639925 L360.800582,44.3626658 C361.16123,44.7146558 361.16123,45.2853442 360.800582,45.6373342 L360.800582,45.6373342 L355.576505,50.7360075 C355.215858,51.0879975 354.631133,51.0879975 354.270485,50.7360075 C353.909838,50.3840176 353.909838,49.8133291 354.270485,49.4613392 L354.270485,49.4613392 L358.841553,45 L354.270485,40.5386608 C353.909838,40.1866709 353.909838,39.6159824 354.270485,39.2639925 Z" id="Combined-Shape-Copy-7" fill="#24231F" transform="translate(366.000000, 45.000000) scale(-1, 1) translate(-366.000000, -45.000000) "></path>
        <path d="M417.199418,250.263992 C417.560065,249.912003 418.14479,249.912003 418.505437,250.263992 L418.505437,250.263992 L423.729515,255.362666 C424.090162,255.714656 424.090162,256.285344 423.729515,256.637334 L423.729515,256.637334 L418.505437,261.736008 C418.14479,262.087997 417.560065,262.087997 417.199418,261.736008 C416.83877,261.384018 416.83877,260.813329 417.199418,260.461339 L417.199418,260.461339 L421.770485,256 L417.199418,251.538661 C416.83877,251.186671 416.83877,250.615982 417.199418,250.263992 Z M408.734952,250.263992 C409.095599,249.912003 409.680324,249.912003 410.040971,250.263992 L410.040971,250.263992 L415.265048,255.362666 C415.625696,255.714656 415.625696,256.285344 415.265048,256.637334 L415.265048,256.637334 L410.040971,261.736008 C409.680324,262.087997 409.095599,262.087997 408.734952,261.736008 C408.374304,261.384018 408.374304,260.813329 408.734952,260.461339 L408.734952,260.461339 L413.306019,256 L408.734952,251.538661 C408.374304,251.186671 408.374304,250.615982 408.734952,250.263992 Z M400.270485,250.263992 C400.631133,249.912003 401.215858,249.912003 401.576505,250.263992 L401.576505,250.263992 L406.800582,255.362666 C407.16123,255.714656 407.16123,256.285344 406.800582,256.637334 L406.800582,256.637334 L401.576505,261.736008 C401.215858,262.087997 400.631133,262.087997 400.270485,261.736008 C399.909838,261.384018 399.909838,260.813329 400.270485,260.461339 L400.270485,260.461339 L404.841553,256 L400.270485,251.538661 C399.909838,251.186671 399.909838,250.615982 400.270485,250.263992 Z" id="Combined-Shape-Copy-8" fill="#24231F" transform="translate(412.000000, 256.000000) scale(-1, 1) translate(-412.000000, -256.000000) "></path>
        <path d="M33.1994177,267.263992 C33.5600649,266.912003 34.1447897,266.912003 34.505437,267.263992 L34.505437,267.263992 L39.7295145,272.362666 C40.0901618,272.714656 40.0901618,273.285344 39.7295145,273.637334 L39.7295145,273.637334 L34.505437,278.736008 C34.1447897,279.087997 33.5600649,279.087997 33.1994177,278.736008 C32.8387704,278.384018 32.8387704,277.813329 33.1994177,277.461339 L33.1994177,277.461339 L37.7704855,273 L33.1994177,268.538661 C32.8387704,268.186671 32.8387704,267.615982 33.1994177,267.263992 Z M24.7349516,267.263992 C25.0955989,266.912003 25.6803236,266.912003 26.0409709,267.263992 L26.0409709,267.263992 L31.2650484,272.362666 C31.6256957,272.714656 31.6256957,273.285344 31.2650484,273.637334 L31.2650484,273.637334 L26.0409709,278.736008 C25.6803236,279.087997 25.0955989,279.087997 24.7349516,278.736008 C24.3743043,278.384018 24.3743043,277.813329 24.7349516,277.461339 L24.7349516,277.461339 L29.3060194,273 L24.7349516,268.538661 C24.3743043,268.186671 24.3743043,267.615982 24.7349516,267.263992 Z M16.2704855,267.263992 C16.6311328,266.912003 17.2158576,266.912003 17.5765048,267.263992 L17.5765048,267.263992 L22.8005823,272.362666 C23.1612296,272.714656 23.1612296,273.285344 22.8005823,273.637334 L22.8005823,273.637334 L17.5765048,278.736008 C17.2158576,279.087997 16.6311328,279.087997 16.2704855,278.736008 C15.9098382,278.384018 15.9098382,277.813329 16.2704855,277.461339 L16.2704855,277.461339 L20.8415533,273 L16.2704855,268.538661 C15.9098382,268.186671 15.9098382,267.615982 16.2704855,267.263992 Z" id="Combined-Shape-Copy-9" fill="#24231F" transform="translate(28.000000, 273.000000) scale(-1, 1) translate(-28.000000, -273.000000) "></path>
        <path d="M103.199418,30.2639925 C103.560065,29.9120025 104.14479,29.9120025 104.505437,30.2639925 L104.505437,30.2639925 L109.729515,35.3626658 C110.090162,35.7146558 110.090162,36.2853442 109.729515,36.6373342 L109.729515,36.6373342 L104.505437,41.7360075 C104.14479,42.0879975 103.560065,42.0879975 103.199418,41.7360075 C102.83877,41.3840176 102.83877,40.8133291 103.199418,40.4613392 L103.199418,40.4613392 L107.770485,36 L103.199418,31.5386608 C102.83877,31.1866709 102.83877,30.6159824 103.199418,30.2639925 Z M94.7349516,30.2639925 C95.0955989,29.9120025 95.6803236,29.9120025 96.0409709,30.2639925 L96.0409709,30.2639925 L101.265048,35.3626658 C101.625696,35.7146558 101.625696,36.2853442 101.265048,36.6373342 L101.265048,36.6373342 L96.0409709,41.7360075 C95.6803236,42.0879975 95.0955989,42.0879975 94.7349516,41.7360075 C94.3743043,41.3840176 94.3743043,40.8133291 94.7349516,40.4613392 L94.7349516,40.4613392 L99.3060194,36 L94.7349516,31.5386608 C94.3743043,31.1866709 94.3743043,30.6159824 94.7349516,30.2639925 Z M86.2704855,30.2639925 C86.6311328,29.9120025 87.2158576,29.9120025 87.5765048,30.2639925 L87.5765048,30.2639925 L92.8005823,35.3626658 C93.1612296,35.7146558 93.1612296,36.2853442 92.8005823,36.6373342 L92.8005823,36.6373342 L87.5765048,41.7360075 C87.2158576,42.0879975 86.6311328,42.0879975 86.2704855,41.7360075 C85.9098382,41.3840176 85.9098382,40.8133291 86.2704855,40.4613392 L86.2704855,40.4613392 L90.8415533,36 L86.2704855,31.5386608 C85.9098382,31.1866709 85.9098382,30.6159824 86.2704855,30.2639925 Z" id="Combined-Shape-Copy-10" fill="#24231F" transform="translate(98.000000, 36.000000) scale(-1, 1) translate(-98.000000, -36.000000) "></path>
        <path d="M153,51 L157,51 C157.552285,51 158,50.5522847 158,50 C158,49.4477153 157.552285,49 157,49 L153,49 C152.447715,49 152,49.4477153 152,50 C152,50.5522847 152.447715,51 153,51 Z M167,51 L171,51 C171.552285,51 172,50.5522847 172,50 C172,49.4477153 171.552285,49 171,49 L167,49 C166.447715,49 166,49.4477153 166,50 C166,50.5522847 166.447715,51 167,51 Z M181,51 L185,51 C185.552285,51 186,50.5522847 186,50 C186,49.4477153 185.552285,49 185,49 L181,49 C180.447715,49 180,49.4477153 180,50 C180,50.5522847 180.447715,51 181,51 Z M195,51 L199,51 C199.552285,51 200,50.5522847 200,50 C200,49.4477153 199.552285,49 199,49 L195,49 C194.447715,49 194,49.4477153 194,50 C194,50.5522847 194.447715,51 195,51 Z M209,51 L213,51 C213.552285,51 214,50.5522847 214,50 C214,49.4477153 213.552285,49 213,49 L209,49 C208.447715,49 208,49.4477153 208,50 C208,50.5522847 208.447715,51 209,51 Z M223,51 L227,51 C227.552285,51 228,50.5522847 228,50 C228,49.4477153 227.552285,49 227,49 L223,49 C222.447715,49 222,49.4477153 222,50 C222,50.5522847 222.447715,51 223,51 Z" id="Line-3-Copy-22" fill="#24231F" fill-rule="nonzero"></path>
        <path d="M349,325 L353,325 C353.552285,325 354,324.552285 354,324 C354,323.447715 353.552285,323 353,323 L349,323 C348.447715,323 348,323.447715 348,324 C348,324.552285 348.447715,325 349,325 Z M363,325 L367,325 C367.552285,325 368,324.552285 368,324 C368,323.447715 367.552285,323 367,323 L363,323 C362.447715,323 362,323.447715 362,324 C362,324.552285 362.447715,325 363,325 Z M377,325 L381,325 C381.552285,325 382,324.552285 382,324 C382,323.447715 381.552285,323 381,323 L377,323 C376.447715,323 376,323.447715 376,324 C376,324.552285 376.447715,325 377,325 Z M391,325 L395,325 C395.552285,325 396,324.552285 396,324 C396,323.447715 395.552285,323 395,323 L391,323 C390.447715,323 390,323.447715 390,324 C390,324.552285 390.447715,325 391,325 Z M405,325 L409,325 C409.552285,325 410,324.552285 410,324 C410,323.447715 409.552285,323 409,323 L405,323 C404.447715,323 404,323.447715 404,324 C404,324.552285 404.447715,325 405,325 Z M419,325 L423,325 C423.552285,325 424,324.552285 424,324 C424,323.447715 423.552285,323 423,323 L419,323 C418.447715,323 418,323.447715 418,324 C418,324.552285 418.447715,325 419,325 Z" id="Line-3-Copy-23" fill="#24231F" fill-rule="nonzero"></path>
        <path d="M73,351 L77,351 C77.5522847,351 78,350.552285 78,350 C78,349.447715 77.5522847,349 77,349 L73,349 C72.4477153,349 72,349.447715 72,350 C72,350.552285 72.4477153,351 73,351 Z M87,351 L91,351 C91.5522847,351 92,350.552285 92,350 C92,349.447715 91.5522847,349 91,349 L87,349 C86.4477153,349 86,349.447715 86,350 C86,350.552285 86.4477153,351 87,351 Z M101,351 L105,351 C105.552285,351 106,350.552285 106,350 C106,349.447715 105.552285,349 105,349 L101,349 C100.447715,349 100,349.447715 100,350 C100,350.552285 100.447715,351 101,351 Z M115,351 L119,351 C119.552285,351 120,350.552285 120,350 C120,349.447715 119.552285,349 119,349 L115,349 C114.447715,349 114,349.447715 114,350 C114,350.552285 114.447715,351 115,351 Z M129,351 L133,351 C133.552285,351 134,350.552285 134,350 C134,349.447715 133.552285,349 133,349 L129,349 C128.447715,349 128,349.447715 128,350 C128,350.552285 128.447715,351 129,351 Z M143,351 L147,351 C147.552285,351 148,350.552285 148,350 C148,349.447715 147.552285,349 147,349 L143,349 C142.447715,349 142,349.447715 142,350 C142,350.552285 142.447715,351 143,351 Z" id="Line-3-Copy-24" fill="#24231F" fill-rule="nonzero"></path>
        <path d="M31,236 L35,236 C35.5522847,236 36,235.552285 36,235 C36,234.447715 35.5522847,234 35,234 L31,234 C30.4477153,234 30,234.447715 30,235 C30,235.552285 30.4477153,236 31,236 Z M45,236 L49,236 C49.5522847,236 50,235.552285 50,235 C50,234.447715 49.5522847,234 49,234 L45,234 C44.4477153,234 44,234.447715 44,235 C44,235.552285 44.4477153,236 45,236 Z M59,236 L63,236 C63.5522847,236 64,235.552285 64,235 C64,234.447715 63.5522847,234 63,234 L59,234 C58.4477153,234 58,234.447715 58,235 C58,235.552285 58.4477153,236 59,236 Z M73,236 L77,236 C77.5522847,236 78,235.552285 78,235 C78,234.447715 77.5522847,234 77,234 L73,234 C72.4477153,234 72,234.447715 72,235 C72,235.552285 72.4477153,236 73,236 Z M87,236 L91,236 C91.5522847,236 92,235.552285 92,235 C92,234.447715 91.5522847,234 91,234 L87,234 C86.4477153,234 86,234.447715 86,235 C86,235.552285 86.4477153,236 87,236 Z" id="Line-3-Copy-27" fill="#24231F" fill-rule="nonzero"></path>
        <path d="M371,94 L375,94 C375.552285,94 376,93.5522847 376,93 C376,92.4477153 375.552285,92 375,92 L371,92 C370.447715,92 370,92.4477153 370,93 C370,93.5522847 370.447715,94 371,94 Z M385,94 L389,94 C389.552285,94 390,93.5522847 390,93 C390,92.4477153 389.552285,92 389,92 L385,92 C384.447715,92 384,92.4477153 384,93 C384,93.5522847 384.447715,94 385,94 Z M399,94 L403,94 C403.552285,94 404,93.5522847 404,93 C404,92.4477153 403.552285,92 403,92 L399,92 C398.447715,92 398,92.4477153 398,93 C398,93.5522847 398.447715,94 399,94 Z M413,94 L417,94 C417.552285,94 418,93.5522847 418,93 C418,92.4477153 417.552285,92 417,92 L413,92 C412.447715,92 412,92.4477153 412,93 C412,93.5522847 412.447715,94 413,94 Z M427,94 L431,94 C431.552285,94 432,93.5522847 432,93 C432,92.4477153 431.552285,92 431,92 L427,92 C426.447715,92 426,92.4477153 426,93 C426,93.5522847 426.447715,94 427,94 Z M441,94 L445,94 C445.552285,94 446,93.5522847 446,93 C446,92.4477153 445.552285,92 445,92 L441,92 C440.447715,92 440,92.4477153 440,93 C440,93.5522847 440.447715,94 441,94 Z" id="Line-3-Copy-25" fill="#24231F" fill-rule="nonzero"></path>
        <path d="M27,152 L31,152 C31.5522847,152 32,151.552285 32,151 C32,150.447715 31.5522847,150 31,150 L27,150 C26.4477153,150 26,150.447715 26,151 C26,151.552285 26.4477153,152 27,152 Z M41,152 L45,152 C45.5522847,152 46,151.552285 46,151 C46,150.447715 45.5522847,150 45,150 L41,150 C40.4477153,150 40,150.447715 40,151 C40,151.552285 40.4477153,152 41,152 Z M55,152 L59,152 C59.5522847,152 60,151.552285 60,151 C60,150.447715 59.5522847,150 59,150 L55,150 C54.4477153,150 54,150.447715 54,151 C54,151.552285 54.4477153,152 55,152 Z M69,152 L73,152 C73.5522847,152 74,151.552285 74,151 C74,150.447715 73.5522847,150 73,150 L69,150 C68.4477153,150 68,150.447715 68,151 C68,151.552285 68.4477153,152 69,152 Z M83,152 L87,152 C87.5522847,152 88,151.552285 88,151 C88,150.447715 87.5522847,150 87,150 L83,150 C82.4477153,150 82,150.447715 82,151 C82,151.552285 82.4477153,152 83,152 Z M97,152 L101,152 C101.552285,152 102,151.552285 102,151 C102,150.447715 101.552285,150 101,150 L97,150 C96.4477153,150 96,150.447715 96,151 C96,151.552285 96.4477153,152 97,152 Z" id="Line-3-Copy-26" fill="#24231F" fill-rule="nonzero"></path>
        <path d="M290.268243,41 C291.245293,41 292.037348,41.4477153 292.037348,42 C292.037348,42.5128358 291.354402,42.9355072 290.474558,42.9932723 L290.268243,43 L178.795781,43 C177.818732,43 177.026677,42.5522847 177.026677,42 C177.026677,41.4871642 177.709622,41.0644928 178.589466,41.0067277 L178.795781,41 L290.268243,41 Z" id="Line-3-Copy-35" fill="#24231F" fill-rule="nonzero"></path>
        <path d="M303.103751,351 C303.613469,351 304.026677,351.447715 304.026677,352 C304.026677,352.512836 303.670391,352.935507 303.211384,352.993272 L303.103751,353 L244.949602,353 C244.439885,353 244.026677,352.552285 244.026677,352 C244.026677,351.487164 244.382963,351.064493 244.84197,351.006728 L244.949602,351 L303.103751,351 Z" id="Line-3-Copy-36" fill="#24231F" fill-rule="nonzero"></path>
        <path d="M451.103751,313 C451.613469,313 452.026677,313.447715 452.026677,314 C452.026677,314.512836 451.670391,314.935507 451.211384,314.993272 L451.103751,315 L392.949602,315 C392.439885,315 392.026677,314.552285 392.026677,314 C392.026677,313.487164 392.382963,313.064493 392.84197,313.006728 L392.949602,313 L451.103751,313 Z" id="Line-3-Copy-37" fill="#24231F" fill-rule="nonzero"></path>
        <path d="M419.565214,139 C419.820073,139 420.026677,139.447715 420.026677,140 C420.026677,140.512836 419.848534,140.935507 419.61903,140.993272 L419.565214,141 L390.48814,141 C390.233281,141 390.026677,140.552285 390.026677,140 C390.026677,139.487164 390.20482,139.064493 390.434323,139.006728 L390.48814,139 L419.565214,139 Z" id="Line-3-Copy-43" fill="#24231F" fill-rule="nonzero"></path>
        <path d="M442.411393,131 C442.751205,131 443.026677,131.447715 443.026677,132 C443.026677,132.512836 442.789153,132.935507 442.483148,132.993272 L442.411393,133 L403.64196,133 C403.302149,133 403.026677,132.552285 403.026677,132 C403.026677,131.487164 403.264201,131.064493 403.570205,131.006728 L403.64196,131 L442.411393,131 Z" id="Line-3-Copy-44" fill="#24231F" fill-rule="nonzero"></path>
        <path d="M80.1037514,141 C80.613469,141 81.0266768,141.447715 81.0266768,142 C81.0266768,142.512836 80.6703905,142.935507 80.211384,142.993272 L80.1037514,143 L21.9496022,143 C21.4398846,143 21.0266768,142.552285 21.0266768,142 C21.0266768,141.487164 21.3829631,141.064493 21.8419696,141.006728 L21.9496022,141 L80.1037514,141 Z" id="Line-3-Copy-38" fill="#24231F" fill-rule="nonzero"></path>
        <path d="M91.719035,212 C91.8889409,212 92.0266768,212.447715 92.0266768,213 C92.0266768,213.512836 91.9079147,213.935507 91.7549126,213.993272 L91.719035,214 L72.3343186,214 C72.1644128,214 72.0266768,213.552285 72.0266768,213 C72.0266768,212.487164 72.1454389,212.064493 72.2984411,212.006728 L72.3343186,212 L91.719035,212 Z" id="Line-3-Copy-45" fill="#24231F" fill-rule="nonzero"></path>
        <path d="M60.4113932,258 C60.751205,258 61.0266768,258.447715 61.0266768,259 C61.0266768,259.512836 60.7891526,259.935507 60.4831483,259.993272 L60.4113932,260 L21.6419604,260 C21.3021487,260 21.0266768,259.552285 21.0266768,259 C21.0266768,258.487164 21.264201,258.064493 21.5702054,258.006728 L21.6419604,258 L60.4113932,258 Z" id="Line-3-Copy-46" fill="#24231F" fill-rule="nonzero"></path>
        <path d="M325.103751,33 C325.613469,33 326.026677,33.4477153 326.026677,34 C326.026677,34.5128358 325.670391,34.9355072 325.211384,34.9932723 L325.103751,35 L266.949602,35 C266.439885,35 266.026677,34.5522847 266.026677,34 C266.026677,33.4871642 266.382963,33.0644928 266.84197,33.0067277 L266.949602,33 L325.103751,33 Z" id="Line-3-Copy-39" fill="#24231F" fill-rule="nonzero"></path>
        <path d="M127.103751,51 C127.613469,51 128.026677,51.4477153 128.026677,52 C128.026677,52.5128358 127.670391,52.9355072 127.211384,52.9932723 L127.103751,53 L68.9496022,53 C68.4398846,53 68.0266768,52.5522847 68.0266768,52 C68.0266768,51.4871642 68.3829631,51.0644928 68.8419696,51.0067277 L68.9496022,51 L127.103751,51 Z" id="Line-3-Copy-42" fill="#24231F" fill-rule="nonzero"></path>
        <path d="M83.4113932,340 C83.751205,340 84.0266768,340.447715 84.0266768,341 C84.0266768,341.512836 83.7891526,341.935507 83.4831483,341.993272 L83.4113932,342 L44.6419604,342 C44.3021487,342 44.0266768,341.552285 44.0266768,341 C44.0266768,340.487164 44.264201,340.064493 44.5702054,340.006728 L44.6419604,340 L83.4113932,340 Z" id="Line-3-Copy-40" fill="#24231F" fill-rule="nonzero"></path>
        <path d="M283.411393,356 C283.751205,356 284.026677,356.447715 284.026677,357 C284.026677,357.512836 283.789153,357.935507 283.483148,357.993272 L283.411393,358 L244.64196,358 C244.302149,358 244.026677,357.552285 244.026677,357 C244.026677,356.487164 244.264201,356.064493 244.570205,356.006728 L244.64196,356 L283.411393,356 Z" id="Line-3-Copy-41" fill="#24231F" fill-rule="nonzero"></path>
        <g id="Group-2" transform="translate(60.000000, 240.000000)">
            <path d="M22.7476417,0.818207841 L23.6162791,0.813953488 L23.6162791,0.813953488 L24.4849164,0.818207841 L24.4849164,0.818207841 L25.3451783,0.830867984 L25.3451783,0.830867984 L26.1964643,0.851779545 L26.1964643,0.851779545 L27.0381741,0.880788151 L27.0381741,0.880788151 L27.8697073,0.917739431 L27.8697073,0.917739431 L28.6904637,0.962479011 L28.6904637,0.962479011 L29.4998429,1.01485252 L29.4998429,1.01485252 L30.2972445,1.07470558 L30.2972445,1.07470558 L31.0820682,1.14188383 L31.0820682,1.14188383 L31.8537138,1.21623289 L31.8537138,1.21623289 L32.6115807,1.29759838 L32.6115807,1.29759838 L33.3550688,1.38582594 L33.3550688,1.38582594 L34.0835776,1.4807612 L34.0835776,1.4807612 L34.7965069,1.58224977 L34.7965069,1.58224977 L35.4932563,1.6901373 L35.4932563,1.6901373 L36.1732254,1.8042694 L36.1732254,1.8042694 L36.8358139,1.9244917 C36.9447636,1.94502769 37.0529641,1.96581101 37.1604029,1.98683843 L37.7957949,2.11590659 L37.7957949,2.11590659 L38.4123055,2.25067903 L38.4123055,2.25067903 L39.0093343,2.39100136 L39.0093343,2.39100136 L39.5862811,2.53671922 L39.5862811,2.53671922 L40.1425454,2.68767823 L40.1425454,2.68767823 L40.6775269,2.84372403 L40.6775269,2.84372403 L41.1906253,3.00470223 C41.3579442,3.05916655 41.5215159,3.11442721 41.6812403,3.17045848 L42.1487715,3.34083839 C42.4526309,3.45593191 42.740701,3.57400496 43.0121811,3.69485171 L43.4068589,3.87817638 C45.0623451,4.68137482 46,5.59741385 46,6.56976744 C46,6.64222648 45.9947931,6.7143728 45.9844702,6.78618301 C45.9951162,6.83820871 46,6.89178984 46,6.94651163 L46,57.472093 C46,57.5269675 45.995089,57.5806949 45.9856824,57.6328597 C45.9947961,57.7042738 46,57.7763992 46,57.8488372 C46,58.6715979 45.3286613,59.4540388 44.1191587,60.1619148 L43.7760516,60.3530974 C43.3010516,60.6054741 42.7564904,60.8475792 42.1487715,61.0777663 L41.6812403,61.2481462 L41.6812403,61.2481462 L41.1906253,61.4139024 L41.1906253,61.4139024 L40.6775269,61.5748806 C40.5901702,61.6013036 40.5019018,61.627521 40.412734,61.6535297 L39.8670361,61.8070514 L39.8670361,61.8070514 L39.3003555,61.9554092 L39.3003555,61.9554092 L38.7132927,62.0984485 L38.7132927,62.0984485 L38.1064479,62.2360152 L38.1064479,62.2360152 L37.4804215,62.3679548 L37.4804215,62.3679548 L36.8358139,62.494113 L36.8358139,62.494113 L36.1732254,62.6143353 L36.1732254,62.6143353 L35.4932563,62.7284674 L35.4932563,62.7284674 L34.7965069,62.8363549 L34.7965069,62.8363549 L34.0835776,62.9378435 C33.9634411,62.9542164 33.8426555,62.9703163 33.7212332,62.9861399 L32.9851597,63.0777406 C32.8612408,63.0924463 32.7367103,63.1068692 32.6115807,63.1210063 L31.8537138,63.2023718 L31.8537138,63.2023718 L31.0820682,63.2767208 C30.9523458,63.2885191 30.8220743,63.3000185 30.6912661,63.3112159 L29.9000784,63.3747509 L29.9000784,63.3747509 L29.096613,63.4308835 C28.9617123,63.4396135 28.826325,63.4480286 28.6904637,63.4561256 L27.8697073,63.5008652 C27.7319998,63.5076771 27.5938433,63.5141644 27.4552503,63.520324 L26.6185537,63.5533233 L26.6185537,63.5533233 L25.7719808,63.5783027 L25.7719808,63.5783027 L24.9161318,63.5951078 L24.9161318,63.5951078 L24.0516072,63.6035844 L24.0516072,63.6035844 L23.180951,63.6035844 L23.180951,63.6035844 L22.3164263,63.5951078 L22.3164263,63.5951078 L21.4605774,63.5783027 L21.4605774,63.5783027 L20.6140044,63.5533233 L20.6140044,63.5533233 L19.7773079,63.520324 L19.7773079,63.520324 L18.951088,63.4794593 C18.8142911,63.4720017 18.6779558,63.4642227 18.5420944,63.4561256 L17.7327153,63.4037521 L17.7327153,63.4037521 L16.9353136,63.3438991 C16.8034448,63.3333088 16.6721001,63.3224134 16.541292,63.3112159 L15.7629823,63.240433 L15.7629823,63.240433 L14.998151,63.1625564 C14.8718357,63.1489944 14.746107,63.1351433 14.6209774,63.1210063 L13.8774893,63.0327787 C13.7548062,63.0175109 13.6327473,63.0019635 13.511325,62.9861399 L12.7905309,62.8879087 L12.7905309,62.8879087 L12.0856165,62.7832013 L12.0856165,62.7832013 L11.3971823,62.6721722 L11.3971823,62.6721722 L10.7258284,62.5549757 C10.6153928,62.5349376 10.5056939,62.5146489 10.3967442,62.494113 L9.7521366,62.3679548 L9.7521366,62.3679548 L9.12611024,62.2360152 L9.12611024,62.2360152 L8.51926547,62.0984485 L8.51926547,62.0984485 L7.93220264,61.9554092 L7.93220264,61.9554092 L7.36552208,61.8070514 L7.36552208,61.8070514 L6.81982412,61.6535297 L6.81982412,61.6535297 L6.29570911,61.4949984 L6.29570911,61.4949984 L5.79377738,61.3316119 C2.93171083,60.364663 1.23255814,59.1577747 1.23255814,57.8488372 C1.23255814,57.7757254 1.23785929,57.7029319 1.24836813,57.6304809 C1.23734326,57.5793082 1.23255814,57.5262594 1.23255814,57.472093 L1.23255814,6.94651163 C1.23255814,6.89214062 1.23737948,6.83889569 1.24661796,6.78718106 C1.23781315,6.71503774 1.23255814,6.6425604 1.23255814,6.56976744 C1.23255814,5.37302456 2.65291108,4.26158657 5.08378667,3.34083839 L5.55131785,3.17045848 C5.63118003,3.14244284 5.71200405,3.11461986 5.79377738,3.08699275 L6.29570911,2.92360623 C6.38122968,2.89677545 6.46767455,2.87014698 6.55503123,2.84372403 L7.09001275,2.68767823 L7.09001275,2.68767823 L7.64627705,2.53671922 L7.64627705,2.53671922 L8.22322379,2.39100136 L8.22322379,2.39100136 L8.82025263,2.25067903 L8.82025263,2.25067903 L9.43676324,2.11590659 L9.43676324,2.11590659 L10.0721553,1.98683843 L10.0721553,1.98683843 L10.7258284,1.86362892 L10.7258284,1.86362892 L11.3971823,1.74643242 L11.3971823,1.74643242 L12.0856165,1.63540331 L12.0856165,1.63540331 L12.7905309,1.53069597 L12.7905309,1.53069597 L13.511325,1.43246476 L13.511325,1.43246476 L14.2473985,1.34086405 L14.2473985,1.34086405 L14.998151,1.25604823 L14.998151,1.25604823 L15.7629823,1.17817165 C15.8915941,1.16577907 16.0207674,1.15368206 16.1504899,1.14188383 L16.9353136,1.07470558 L16.9353136,1.07470558 L17.7327153,1.01485252 L17.7327153,1.01485252 L18.5420944,0.962479011 L18.5420944,0.962479011 L19.3628508,0.917739431 L19.3628508,0.917739431 L20.1943841,0.880788151 L20.1943841,0.880788151 L21.0360939,0.851779545 L21.0360939,0.851779545 L21.8873799,0.830867984 L21.8873799,0.830867984 L22.7476417,0.818207841 L22.7476417,0.818207841 Z" id="Path" fill="#FFFFFF"></path>
            <path d="M26.7476417,5.81820784 L27.6162791,5.81395349 L27.6162791,5.81395349 L28.4849164,5.81820784 L28.4849164,5.81820784 L29.3451783,5.83086798 L29.3451783,5.83086798 L30.1964643,5.85177955 L30.1964643,5.85177955 L31.0381741,5.88078815 L31.0381741,5.88078815 L31.8697073,5.91773943 L31.8697073,5.91773943 L32.6904637,5.96247901 L32.6904637,5.96247901 L33.4998429,6.01485252 L33.4998429,6.01485252 L34.2972445,6.07470558 L34.2972445,6.07470558 L35.0820682,6.14188383 L35.0820682,6.14188383 L35.8537138,6.21623289 L35.8537138,6.21623289 L36.6115807,6.29759838 L36.6115807,6.29759838 L37.3550688,6.38582594 L37.3550688,6.38582594 L38.0835776,6.4807612 L38.0835776,6.4807612 L38.7965069,6.58224977 L38.7965069,6.58224977 L39.4932563,6.6901373 L39.4932563,6.6901373 L40.1732254,6.8042694 L40.1732254,6.8042694 L40.8358139,6.9244917 C40.9447636,6.94502769 41.0529641,6.96581101 41.1604029,6.98683843 L41.7957949,7.11590659 L41.7957949,7.11590659 L42.4123055,7.25067903 L42.4123055,7.25067903 L43.0093343,7.39100136 L43.0093343,7.39100136 L43.5862811,7.53671922 L43.5862811,7.53671922 L44.1425454,7.68767823 L44.1425454,7.68767823 L44.6775269,7.84372403 L44.6775269,7.84372403 L45.1906253,8.00470223 C45.3579442,8.05916655 45.5215159,8.11442721 45.6812403,8.17045848 L46.1487715,8.34083839 C46.4526309,8.45593191 46.740701,8.57400496 47.0121811,8.69485171 L47.4068589,8.87817638 C49.0623451,9.68137482 50,10.5974139 50,11.5697674 C50,11.6422265 49.9947931,11.7143728 49.9844702,11.786183 C49.9951162,11.8382087 50,11.8917898 50,11.9465116 L50,62.472093 C50,62.5269675 49.995089,62.5806949 49.9856824,62.6328597 C49.9947961,62.7042738 50,62.7763992 50,62.8488372 C50,63.6715979 49.3286613,64.4540388 48.1191587,65.1619148 L47.7760516,65.3530974 C47.3010516,65.6054741 46.7564904,65.8475792 46.1487715,66.0777663 L45.6812403,66.2481462 L45.6812403,66.2481462 L45.1906253,66.4139024 L45.1906253,66.4139024 L44.6775269,66.5748806 C44.5901702,66.6013036 44.5019018,66.627521 44.412734,66.6535297 L43.8670361,66.8070514 L43.8670361,66.8070514 L43.3003555,66.9554092 L43.3003555,66.9554092 L42.7132927,67.0984485 L42.7132927,67.0984485 L42.1064479,67.2360152 L42.1064479,67.2360152 L41.4804215,67.3679548 L41.4804215,67.3679548 L40.8358139,67.494113 L40.8358139,67.494113 L40.1732254,67.6143353 L40.1732254,67.6143353 L39.4932563,67.7284674 L39.4932563,67.7284674 L38.7965069,67.8363549 L38.7965069,67.8363549 L38.0835776,67.9378435 C37.9634411,67.9542164 37.8426555,67.9703163 37.7212332,67.9861399 L36.9851597,68.0777406 C36.8612408,68.0924463 36.7367103,68.1068692 36.6115807,68.1210063 L35.8537138,68.2023718 L35.8537138,68.2023718 L35.0820682,68.2767208 C34.9523458,68.2885191 34.8220743,68.3000185 34.6912661,68.3112159 L33.9000784,68.3747509 L33.9000784,68.3747509 L33.096613,68.4308835 C32.9617123,68.4396135 32.826325,68.4480286 32.6904637,68.4561256 L31.8697073,68.5008652 C31.7319998,68.5076771 31.5938433,68.5141644 31.4552503,68.520324 L30.6185537,68.5533233 L30.6185537,68.5533233 L29.7719808,68.5783027 L29.7719808,68.5783027 L28.9161318,68.5951078 L28.9161318,68.5951078 L28.0516072,68.6035844 L28.0516072,68.6035844 L27.180951,68.6035844 L27.180951,68.6035844 L26.3164263,68.5951078 L26.3164263,68.5951078 L25.4605774,68.5783027 L25.4605774,68.5783027 L24.6140044,68.5533233 L24.6140044,68.5533233 L23.7773079,68.520324 L23.7773079,68.520324 L22.951088,68.4794593 C22.8142911,68.4720017 22.6779558,68.4642227 22.5420944,68.4561256 L21.7327153,68.4037521 L21.7327153,68.4037521 L20.9353136,68.3438991 C20.8034448,68.3333088 20.6721001,68.3224134 20.541292,68.3112159 L19.7629823,68.240433 L19.7629823,68.240433 L18.998151,68.1625564 C18.8718357,68.1489944 18.746107,68.1351433 18.6209774,68.1210063 L17.8774893,68.0327787 C17.7548062,68.0175109 17.6327473,68.0019635 17.511325,67.9861399 L16.7905309,67.8879087 L16.7905309,67.8879087 L16.0856165,67.7832013 L16.0856165,67.7832013 L15.3971823,67.6721722 L15.3971823,67.6721722 L14.7258284,67.5549757 C14.6153928,67.5349376 14.5056939,67.5146489 14.3967442,67.494113 L13.7521366,67.3679548 L13.7521366,67.3679548 L13.1261102,67.2360152 L13.1261102,67.2360152 L12.5192655,67.0984485 L12.5192655,67.0984485 L11.9322026,66.9554092 L11.9322026,66.9554092 L11.3655221,66.8070514 L11.3655221,66.8070514 L10.8198241,66.6535297 L10.8198241,66.6535297 L10.2957091,66.4949984 L10.2957091,66.4949984 L9.79377738,66.3316119 C6.93171083,65.364663 5.23255814,64.1577747 5.23255814,62.8488372 C5.23255814,62.7757254 5.23785929,62.7029319 5.24836813,62.6304809 C5.23734326,62.5793082 5.23255814,62.5262594 5.23255814,62.472093 L5.23255814,11.9465116 C5.23255814,11.8921406 5.23737948,11.8388957 5.24661796,11.7871811 C5.23781315,11.7150377 5.23255814,11.6425604 5.23255814,11.5697674 C5.23255814,10.3730246 6.65291108,9.26158657 9.08378667,8.34083839 L9.55131785,8.17045848 C9.63118003,8.14244284 9.71200405,8.11461986 9.79377738,8.08699275 L10.2957091,7.92360623 C10.3812297,7.89677545 10.4676746,7.87014698 10.5550312,7.84372403 L11.0900128,7.68767823 L11.0900128,7.68767823 L11.6462771,7.53671922 L11.6462771,7.53671922 L12.2232238,7.39100136 L12.2232238,7.39100136 L12.8202526,7.25067903 L12.8202526,7.25067903 L13.4367632,7.11590659 L13.4367632,7.11590659 L14.0721553,6.98683843 L14.0721553,6.98683843 L14.7258284,6.86362892 L14.7258284,6.86362892 L15.3971823,6.74643242 L15.3971823,6.74643242 L16.0856165,6.63540331 L16.0856165,6.63540331 L16.7905309,6.53069597 L16.7905309,6.53069597 L17.511325,6.43246476 L17.511325,6.43246476 L18.2473985,6.34086405 L18.2473985,6.34086405 L18.998151,6.25604823 L18.998151,6.25604823 L19.7629823,6.17817165 C19.8915941,6.16577907 20.0207674,6.15368206 20.1504899,6.14188383 L20.9353136,6.07470558 L20.9353136,6.07470558 L21.7327153,6.01485252 L21.7327153,6.01485252 L22.5420944,5.96247901 L22.5420944,5.96247901 L23.3628508,5.91773943 L23.3628508,5.91773943 L24.1943841,5.88078815 L24.1943841,5.88078815 L25.0360939,5.85177955 L25.0360939,5.85177955 L25.8873799,5.83086798 L25.8873799,5.83086798 L26.7476417,5.81820784 L26.7476417,5.81820784 Z" id="Path" fill="#D40B26"></path>
            <path d="M46.5075772,6.25913175 L46.5116279,6.39534884 L46.5116279,57.6744186 L46.508,57.674 C46.3128224,61.4502798 36.7711913,63.8003263 24.4783805,63.9462689 L24.0328754,63.9505827 L23.255814,63.9534884 C10.3981268,63.9534884 0.235964891,61.5816633 0.00405070209,57.6943566 L0.003,57.674 L0,57.6744186 L0,6.39534884 L0.00407548575,6.25871696 C0.22926811,2.49564256 9.76041509,0.152840055 22.033948,0.00721118978 L22.4787525,0.00290567284 L23.255814,-5.68434189e-14 C36.1135011,-5.68434189e-14 46.275663,2.37182505 46.5075772,6.25913175 Z M44.1875845,43.6944465 C43.0100943,44.37343 41.4218606,44.9616268 39.5081923,45.4489393 L39.5081923,45.4489393 L38.9902119,45.5764944 C38.902616,45.5973526 38.8143923,45.6180098 38.7255482,45.638465 L38.7255482,45.638465 L38.1850986,45.7587659 C37.5460283,45.8962732 36.8772924,46.023798 36.1814601,46.1410365 L36.1814601,46.1410365 L35.5784565,46.2390003 C35.4768698,46.2549054 35.3747452,46.2705988 35.2720901,46.2860796 L35.2720901,46.2860796 L34.6498529,46.3764063 L34.0152428,46.4615883 L33.3686193,46.5415831 L32.7103419,46.6163482 C32.4890137,46.6403935 32.2658031,46.6635601 32.0407701,46.6858409 L32.0407701,46.6858409 L31.3602635,46.7500188 L30.6691815,46.8088392 L29.9678838,46.8622597 C29.8501695,46.8707108 29.7320445,46.878935 29.6135163,46.8869317 L29.6135163,46.8869317 L28.897569,46.9321724 C28.777458,46.9392548 28.6569588,46.9461078 28.5360789,46.9527305 L28.5360789,46.9527305 L27.8062909,46.9896957 L27.0677252,47.0210907 C26.9439194,47.0258566 26.8197628,47.0303887 26.695263,47.0346861 L26.695263,47.0346861 L25.9442048,47.057646 C25.8183618,47.0610008 25.6921906,47.064119 25.5656986,47.0669999 L25.5656986,47.0669999 L24.8029568,47.0814289 L24.0328754,47.0901176 L23.255814,47.0930233 L22.4787525,47.0901176 L21.7086711,47.0814289 L20.9459293,47.0669999 C20.6929453,47.0612382 20.4412444,47.0545268 20.1908867,47.0468729 L20.1908867,47.0468729 L19.4439028,47.0210907 L18.705337,46.9896957 L18.705337,46.9896957 L18.3393233,46.9719067 L17.6140589,46.9321724 L17.6140589,46.9321724 L17.2548982,46.9102376 L16.5437441,46.8622597 L15.8424464,46.8088392 L15.1513644,46.7500188 L15.1513644,46.7500188 L14.8097667,46.7185969 L14.1346826,46.6517562 C14.0230848,46.6401738 13.9119501,46.6283708 13.801286,46.6163482 L13.801286,46.6163482 L13.1430086,46.5415831 L12.4963851,46.4615883 L11.861775,46.3764063 L11.2395378,46.2860796 C11.1368827,46.2705988 11.0347581,46.2549054 10.9331714,46.2390003 L10.9331714,46.2390003 L10.3301678,46.1410365 C9.63433546,46.023798 8.9655996,45.8962732 8.3265293,45.7587659 L8.3265293,45.7587659 L7.7860797,45.638465 C7.69723559,45.6180098 7.60901187,45.5973526 7.52141604,45.5764944 L7.52141604,45.5764944 L7.00343565,45.4489393 C5.09018652,44.9617335 3.50222936,44.3736876 2.32481721,43.6948927 L2.3255814,57.5581395 L2.32817632,57.5964884 C2.40942564,58.2075627 4.39592751,59.2963204 7.90167156,60.1266282 C11.9233552,61.0791322 17.4014745,61.627907 23.255814,61.627907 C29.1101534,61.627907 34.5882727,61.0791322 38.6099563,60.1266282 C42.0817957,59.3043504 44.0636365,58.2285976 44.18056,57.6143512 L44.1860465,57.5581395 Z M44.1885758,25.670619 C43.0109858,26.349844 41.4223977,26.9382342 39.5081923,27.4256835 L39.5081923,27.4256835 L38.9902119,27.5532386 C38.902616,27.5740968 38.8143923,27.594754 38.7255482,27.6152092 L38.7255482,27.6152092 L38.1850986,27.7355101 C37.5460283,27.8730174 36.8772924,28.0005422 36.1814601,28.1177807 L36.1814601,28.1177807 L35.5784565,28.2157445 C35.4768698,28.2316496 35.3747452,28.247343 35.2720901,28.2628238 L35.2720901,28.2628238 L34.6498529,28.3531505 L34.0152428,28.4383325 L33.3686193,28.5183273 L32.7103419,28.5930924 C32.4890137,28.6171377 32.2658031,28.6403043 32.0407701,28.6625851 L32.0407701,28.6625851 L31.3602635,28.726763 L30.6691815,28.7855834 L29.9678838,28.8390039 C29.8501695,28.8474549 29.7320445,28.8556792 29.6135163,28.8636758 L29.6135163,28.8636758 L28.897569,28.9089165 C28.777458,28.915999 28.6569588,28.922852 28.5360789,28.9294747 L28.5360789,28.9294747 L27.8062909,28.9664399 L27.0677252,28.9978349 L27.0677252,28.9978349 L26.695263,29.0114302 L25.9442048,29.0343902 C25.8183618,29.0377449 25.6921906,29.0408632 25.5656986,29.0437441 L25.5656986,29.0437441 L24.8029568,29.0581731 L24.0328754,29.0668618 L23.255814,29.0697674 L22.4787525,29.0668618 L21.7086711,29.0581731 L20.9459293,29.0437441 C20.6929453,29.0379824 20.4412444,29.031271 20.1908867,29.0236171 L20.1908867,29.0236171 L19.4439028,28.9978349 L18.705337,28.9664399 L18.705337,28.9664399 L18.3393233,28.9486509 L17.6140589,28.9089165 C17.493948,28.9018341 17.3742252,28.8945222 17.2548982,28.8869818 L17.2548982,28.8869818 L16.5437441,28.8390039 L15.8424464,28.7855834 L15.1513644,28.726763 C15.0370554,28.7165119 14.923187,28.7060377 14.8097667,28.6953411 L14.8097667,28.6953411 L14.1346826,28.6285004 C14.0230848,28.616918 13.9119501,28.605115 13.801286,28.5930924 L13.801286,28.5930924 L13.1430086,28.5183273 L12.4963851,28.4383325 L11.861775,28.3531505 L11.2395378,28.2628238 C11.1368827,28.247343 11.0347581,28.2316496 10.9331714,28.2157445 L10.9331714,28.2157445 L10.3301678,28.1177807 C9.63433546,28.0005422 8.9655996,27.8730174 8.3265293,27.7355101 L8.3265293,27.7355101 L7.7860797,27.6152092 C7.69723559,27.594754 7.60901187,27.5740968 7.52141604,27.5532386 L7.52141604,27.5532386 L7.00343565,27.4256835 C5.08965059,26.9383412 3.50133977,26.3501024 2.32382789,25.6710664 L2.324,40.697 L2.3255814,40.6976744 L2.32817632,40.7360233 C2.35756437,40.9570502 2.63621362,41.2405716 3.1458577,41.5517531 L3.1458577,41.5517531 L3.33529382,41.6626737 C3.36845517,41.6813329 3.40240838,41.7000737 3.43714972,41.718889 L3.43714972,41.718889 L3.65502567,41.8326169 L3.89163842,41.9477911 C3.97361231,41.9863857 4.05867925,42.0251646 4.14680951,42.0640712 L4.14680951,42.0640712 L4.42036049,42.1811167 L4.71211288,42.2985875 C4.76224515,42.3181825 4.81312838,42.337781 4.86475884,42.357376 L4.86475884,42.357376 L5.18347875,42.4748464 L5.51995392,42.5918912 L5.87400589,42.70817 L6.2454562,42.8233426 C6.30880453,42.8424269 6.37287035,42.861451 6.43764996,42.8804076 L6.43764996,42.8804076 L6.83486315,42.9932826 L7.24902853,43.1042004 L7.67996763,43.2128208 L7.90167156,43.2661631 C11.9233552,44.2186671 17.4014745,44.7674419 23.255814,44.7674419 C29.1101534,44.7674419 34.5882727,44.2186671 38.6099563,43.2661631 C38.6845466,43.2484969 38.7584492,43.2307138 38.8316603,43.2128208 L38.8316603,43.2128208 L39.2625994,43.1042004 L39.6767648,42.9932826 L40.073978,42.8804076 C40.1387576,42.861451 40.2028234,42.8424269 40.2661717,42.8233426 L40.2661717,42.8233426 L40.637622,42.70817 L40.991674,42.5918912 C41.0492229,42.5724381 41.1060394,42.5529531 41.1621198,42.5334433 L41.1621198,42.5334433 L41.4897397,42.4161431 L41.799515,42.2985875 L42.0912674,42.1811167 L42.3648184,42.0640712 C42.4529487,42.0251646 42.5380156,41.9863857 42.6199895,41.9477911 L42.6199895,41.9477911 L42.8566022,41.8326169 L43.0744782,41.718889 L43.0744782,41.718889 L43.1763341,41.6626737 L43.3657702,41.5517531 C43.9053933,41.2222668 44.1860465,40.9237904 44.1860465,40.6976744 L44.1860465,40.6976744 L44.187,40.697 Z M44.1871705,9.39235964 C40.6255843,11.4458669 33.3068216,12.6688948 24.5910742,12.7820775 L24.0328754,12.787792 L23.255814,12.7906977 C13.95625,12.7906977 6.06676304,11.5499539 2.32464498,9.39246782 L2.324,22.674 L2.3255814,22.6744186 L2.32817632,22.7127675 C2.35756437,22.9337944 2.63621362,23.2173158 3.1458577,23.5284973 L3.1458577,23.5284973 L3.33529382,23.6394178 C3.36845517,23.6580771 3.40240838,23.6768179 3.43714972,23.6956331 L3.43714972,23.6956331 L3.65502567,23.8093611 L3.89163842,23.9245353 C3.97361231,23.9631299 4.05867925,24.0019088 4.14680951,24.0408153 L4.14680951,24.0408153 L4.42036049,24.1578609 L4.71211288,24.2753317 C4.76224515,24.2949267 4.81312838,24.3145252 4.86475884,24.3341202 L4.86475884,24.3341202 L5.18347875,24.4515906 L5.51995392,24.5686354 L5.87400589,24.6849142 L6.2454562,24.8000868 C6.30880453,24.8191711 6.37287035,24.8381951 6.43764996,24.8571518 L6.43764996,24.8571518 L6.83486315,24.9700268 L7.24902853,25.0809446 L7.67996763,25.189565 L7.90167156,25.2429072 C11.9233552,26.1954113 17.4014745,26.744186 23.255814,26.744186 C29.1101534,26.744186 34.5882727,26.1954113 38.6099563,25.2429072 C38.6845466,25.2252411 38.7584492,25.207458 38.8316603,25.189565 L38.8316603,25.189565 L39.2625994,25.0809446 L39.6767648,24.9700268 L40.073978,24.8571518 C40.1387576,24.8381951 40.2028234,24.8191711 40.2661717,24.8000868 L40.2661717,24.8000868 L40.637622,24.6849142 L40.991674,24.5686354 C41.0492229,24.5491823 41.1060394,24.5296973 41.1621198,24.5101875 L41.1621198,24.5101875 L41.4897397,24.3928873 L41.799515,24.2753317 L42.0912674,24.1578609 L42.3648184,24.0408153 C42.4529487,24.0019088 42.5380156,23.9631299 42.6199895,23.9245353 L42.6199895,23.9245353 L42.8566022,23.8093611 L43.0744782,23.6956331 L43.0744782,23.6956331 L43.1763341,23.6394178 L43.3657702,23.5284973 C43.9053933,23.199011 44.1860465,22.9005346 44.1860465,22.6744186 L44.1860465,22.6744186 L44.187,22.674 L44.1871705,9.39235964 Z M23.255814,2.3255814 C17.4014745,2.3255814 11.9233552,2.87435617 7.90167156,3.8268602 C4.32133721,4.67483412 2.3255814,5.79237282 2.3255814,6.39534884 C2.3255814,6.99832485 4.32133721,8.11586355 7.90167156,8.96383747 C11.9233552,9.91634151 17.4014745,10.4651163 23.255814,10.4651163 C29.1101534,10.4651163 34.5882727,9.91634151 38.6099563,8.96383747 C42.1902907,8.11586355 44.1860465,6.99832485 44.1860465,6.39534884 C44.1860465,5.79237282 42.1902907,4.67483412 38.6099563,3.8268602 C34.5882727,2.87435617 29.1101534,2.3255814 23.255814,2.3255814 Z" id="Combined-Shape" fill="#24231F" fill-rule="nonzero"></path>
        </g>
        <g id="Group-2-Copy" transform="translate(330.000000, 262.000000)">
            <path d="M22.7476417,0.818207841 L23.6162791,0.813953488 L23.6162791,0.813953488 L24.4849164,0.818207841 L24.4849164,0.818207841 L25.3451783,0.830867984 L25.3451783,0.830867984 L26.1964643,0.851779545 L26.1964643,0.851779545 L27.0381741,0.880788151 L27.0381741,0.880788151 L27.8697073,0.917739431 L27.8697073,0.917739431 L28.6904637,0.962479011 L28.6904637,0.962479011 L29.4998429,1.01485252 L29.4998429,1.01485252 L30.2972445,1.07470558 L30.2972445,1.07470558 L31.0820682,1.14188383 L31.0820682,1.14188383 L31.8537138,1.21623289 L31.8537138,1.21623289 L32.6115807,1.29759838 L32.6115807,1.29759838 L33.3550688,1.38582594 L33.3550688,1.38582594 L34.0835776,1.4807612 L34.0835776,1.4807612 L34.7965069,1.58224977 L34.7965069,1.58224977 L35.4932563,1.6901373 L35.4932563,1.6901373 L36.1732254,1.8042694 L36.1732254,1.8042694 L36.8358139,1.9244917 C36.9447636,1.94502769 37.0529641,1.96581101 37.1604029,1.98683843 L37.7957949,2.11590659 L37.7957949,2.11590659 L38.4123055,2.25067903 L38.4123055,2.25067903 L39.0093343,2.39100136 L39.0093343,2.39100136 L39.5862811,2.53671922 L39.5862811,2.53671922 L40.1425454,2.68767823 L40.1425454,2.68767823 L40.6775269,2.84372403 L40.6775269,2.84372403 L41.1906253,3.00470223 C41.3579442,3.05916655 41.5215159,3.11442721 41.6812403,3.17045848 L42.1487715,3.34083839 C42.4526309,3.45593191 42.740701,3.57400496 43.0121811,3.69485171 L43.4068589,3.87817638 C45.0623451,4.68137482 46,5.59741385 46,6.56976744 C46,6.64222648 45.9947931,6.7143728 45.9844702,6.78618301 C45.9951162,6.83820871 46,6.89178984 46,6.94651163 L46,57.472093 C46,57.5269675 45.995089,57.5806949 45.9856824,57.6328597 C45.9947961,57.7042738 46,57.7763992 46,57.8488372 C46,58.6715979 45.3286613,59.4540388 44.1191587,60.1619148 L43.7760516,60.3530974 C43.3010516,60.6054741 42.7564904,60.8475792 42.1487715,61.0777663 L41.6812403,61.2481462 L41.6812403,61.2481462 L41.1906253,61.4139024 L41.1906253,61.4139024 L40.6775269,61.5748806 C40.5901702,61.6013036 40.5019018,61.627521 40.412734,61.6535297 L39.8670361,61.8070514 L39.8670361,61.8070514 L39.3003555,61.9554092 L39.3003555,61.9554092 L38.7132927,62.0984485 L38.7132927,62.0984485 L38.1064479,62.2360152 L38.1064479,62.2360152 L37.4804215,62.3679548 L37.4804215,62.3679548 L36.8358139,62.494113 L36.8358139,62.494113 L36.1732254,62.6143353 L36.1732254,62.6143353 L35.4932563,62.7284674 L35.4932563,62.7284674 L34.7965069,62.8363549 L34.7965069,62.8363549 L34.0835776,62.9378435 C33.9634411,62.9542164 33.8426555,62.9703163 33.7212332,62.9861399 L32.9851597,63.0777406 C32.8612408,63.0924463 32.7367103,63.1068692 32.6115807,63.1210063 L31.8537138,63.2023718 L31.8537138,63.2023718 L31.0820682,63.2767208 C30.9523458,63.2885191 30.8220743,63.3000185 30.6912661,63.3112159 L29.9000784,63.3747509 L29.9000784,63.3747509 L29.096613,63.4308835 C28.9617123,63.4396135 28.826325,63.4480286 28.6904637,63.4561256 L27.8697073,63.5008652 C27.7319998,63.5076771 27.5938433,63.5141644 27.4552503,63.520324 L26.6185537,63.5533233 L26.6185537,63.5533233 L25.7719808,63.5783027 L25.7719808,63.5783027 L24.9161318,63.5951078 L24.9161318,63.5951078 L24.0516072,63.6035844 L24.0516072,63.6035844 L23.180951,63.6035844 L23.180951,63.6035844 L22.3164263,63.5951078 L22.3164263,63.5951078 L21.4605774,63.5783027 L21.4605774,63.5783027 L20.6140044,63.5533233 L20.6140044,63.5533233 L19.7773079,63.520324 L19.7773079,63.520324 L18.951088,63.4794593 C18.8142911,63.4720017 18.6779558,63.4642227 18.5420944,63.4561256 L17.7327153,63.4037521 L17.7327153,63.4037521 L16.9353136,63.3438991 C16.8034448,63.3333088 16.6721001,63.3224134 16.541292,63.3112159 L15.7629823,63.240433 L15.7629823,63.240433 L14.998151,63.1625564 C14.8718357,63.1489944 14.746107,63.1351433 14.6209774,63.1210063 L13.8774893,63.0327787 C13.7548062,63.0175109 13.6327473,63.0019635 13.511325,62.9861399 L12.7905309,62.8879087 L12.7905309,62.8879087 L12.0856165,62.7832013 L12.0856165,62.7832013 L11.3971823,62.6721722 L11.3971823,62.6721722 L10.7258284,62.5549757 C10.6153928,62.5349376 10.5056939,62.5146489 10.3967442,62.494113 L9.7521366,62.3679548 L9.7521366,62.3679548 L9.12611024,62.2360152 L9.12611024,62.2360152 L8.51926547,62.0984485 L8.51926547,62.0984485 L7.93220264,61.9554092 L7.93220264,61.9554092 L7.36552208,61.8070514 L7.36552208,61.8070514 L6.81982412,61.6535297 L6.81982412,61.6535297 L6.29570911,61.4949984 L6.29570911,61.4949984 L5.79377738,61.3316119 C2.93171083,60.364663 1.23255814,59.1577747 1.23255814,57.8488372 C1.23255814,57.7757254 1.23785929,57.7029319 1.24836813,57.6304809 C1.23734326,57.5793082 1.23255814,57.5262594 1.23255814,57.472093 L1.23255814,6.94651163 C1.23255814,6.89214062 1.23737948,6.83889569 1.24661796,6.78718106 C1.23781315,6.71503774 1.23255814,6.6425604 1.23255814,6.56976744 C1.23255814,5.37302456 2.65291108,4.26158657 5.08378667,3.34083839 L5.55131785,3.17045848 C5.63118003,3.14244284 5.71200405,3.11461986 5.79377738,3.08699275 L6.29570911,2.92360623 C6.38122968,2.89677545 6.46767455,2.87014698 6.55503123,2.84372403 L7.09001275,2.68767823 L7.09001275,2.68767823 L7.64627705,2.53671922 L7.64627705,2.53671922 L8.22322379,2.39100136 L8.22322379,2.39100136 L8.82025263,2.25067903 L8.82025263,2.25067903 L9.43676324,2.11590659 L9.43676324,2.11590659 L10.0721553,1.98683843 L10.0721553,1.98683843 L10.7258284,1.86362892 L10.7258284,1.86362892 L11.3971823,1.74643242 L11.3971823,1.74643242 L12.0856165,1.63540331 L12.0856165,1.63540331 L12.7905309,1.53069597 L12.7905309,1.53069597 L13.511325,1.43246476 L13.511325,1.43246476 L14.2473985,1.34086405 L14.2473985,1.34086405 L14.998151,1.25604823 L14.998151,1.25604823 L15.7629823,1.17817165 C15.8915941,1.16577907 16.0207674,1.15368206 16.1504899,1.14188383 L16.9353136,1.07470558 L16.9353136,1.07470558 L17.7327153,1.01485252 L17.7327153,1.01485252 L18.5420944,0.962479011 L18.5420944,0.962479011 L19.3628508,0.917739431 L19.3628508,0.917739431 L20.1943841,0.880788151 L20.1943841,0.880788151 L21.0360939,0.851779545 L21.0360939,0.851779545 L21.8873799,0.830867984 L21.8873799,0.830867984 L22.7476417,0.818207841 L22.7476417,0.818207841 Z" id="Path" fill="#FFFFFF"></path>
            <path d="M26.7476417,5.81820784 L27.6162791,5.81395349 L27.6162791,5.81395349 L28.4849164,5.81820784 L28.4849164,5.81820784 L29.3451783,5.83086798 L29.3451783,5.83086798 L30.1964643,5.85177955 L30.1964643,5.85177955 L31.0381741,5.88078815 L31.0381741,5.88078815 L31.8697073,5.91773943 L31.8697073,5.91773943 L32.6904637,5.96247901 L32.6904637,5.96247901 L33.4998429,6.01485252 L33.4998429,6.01485252 L34.2972445,6.07470558 L34.2972445,6.07470558 L35.0820682,6.14188383 L35.0820682,6.14188383 L35.8537138,6.21623289 L35.8537138,6.21623289 L36.6115807,6.29759838 L36.6115807,6.29759838 L37.3550688,6.38582594 L37.3550688,6.38582594 L38.0835776,6.4807612 L38.0835776,6.4807612 L38.7965069,6.58224977 L38.7965069,6.58224977 L39.4932563,6.6901373 L39.4932563,6.6901373 L40.1732254,6.8042694 L40.1732254,6.8042694 L40.8358139,6.9244917 C40.9447636,6.94502769 41.0529641,6.96581101 41.1604029,6.98683843 L41.7957949,7.11590659 L41.7957949,7.11590659 L42.4123055,7.25067903 L42.4123055,7.25067903 L43.0093343,7.39100136 L43.0093343,7.39100136 L43.5862811,7.53671922 L43.5862811,7.53671922 L44.1425454,7.68767823 L44.1425454,7.68767823 L44.6775269,7.84372403 L44.6775269,7.84372403 L45.1906253,8.00470223 C45.3579442,8.05916655 45.5215159,8.11442721 45.6812403,8.17045848 L46.1487715,8.34083839 C46.4526309,8.45593191 46.740701,8.57400496 47.0121811,8.69485171 L47.4068589,8.87817638 C49.0623451,9.68137482 50,10.5974139 50,11.5697674 C50,11.6422265 49.9947931,11.7143728 49.9844702,11.786183 C49.9951162,11.8382087 50,11.8917898 50,11.9465116 L50,62.472093 C50,62.5269675 49.995089,62.5806949 49.9856824,62.6328597 C49.9947961,62.7042738 50,62.7763992 50,62.8488372 C50,63.6715979 49.3286613,64.4540388 48.1191587,65.1619148 L47.7760516,65.3530974 C47.3010516,65.6054741 46.7564904,65.8475792 46.1487715,66.0777663 L45.6812403,66.2481462 L45.6812403,66.2481462 L45.1906253,66.4139024 L45.1906253,66.4139024 L44.6775269,66.5748806 C44.5901702,66.6013036 44.5019018,66.627521 44.412734,66.6535297 L43.8670361,66.8070514 L43.8670361,66.8070514 L43.3003555,66.9554092 L43.3003555,66.9554092 L42.7132927,67.0984485 L42.7132927,67.0984485 L42.1064479,67.2360152 L42.1064479,67.2360152 L41.4804215,67.3679548 L41.4804215,67.3679548 L40.8358139,67.494113 L40.8358139,67.494113 L40.1732254,67.6143353 L40.1732254,67.6143353 L39.4932563,67.7284674 L39.4932563,67.7284674 L38.7965069,67.8363549 L38.7965069,67.8363549 L38.0835776,67.9378435 C37.9634411,67.9542164 37.8426555,67.9703163 37.7212332,67.9861399 L36.9851597,68.0777406 C36.8612408,68.0924463 36.7367103,68.1068692 36.6115807,68.1210063 L35.8537138,68.2023718 L35.8537138,68.2023718 L35.0820682,68.2767208 C34.9523458,68.2885191 34.8220743,68.3000185 34.6912661,68.3112159 L33.9000784,68.3747509 L33.9000784,68.3747509 L33.096613,68.4308835 C32.9617123,68.4396135 32.826325,68.4480286 32.6904637,68.4561256 L31.8697073,68.5008652 C31.7319998,68.5076771 31.5938433,68.5141644 31.4552503,68.520324 L30.6185537,68.5533233 L30.6185537,68.5533233 L29.7719808,68.5783027 L29.7719808,68.5783027 L28.9161318,68.5951078 L28.9161318,68.5951078 L28.0516072,68.6035844 L28.0516072,68.6035844 L27.180951,68.6035844 L27.180951,68.6035844 L26.3164263,68.5951078 L26.3164263,68.5951078 L25.4605774,68.5783027 L25.4605774,68.5783027 L24.6140044,68.5533233 L24.6140044,68.5533233 L23.7773079,68.520324 L23.7773079,68.520324 L22.951088,68.4794593 C22.8142911,68.4720017 22.6779558,68.4642227 22.5420944,68.4561256 L21.7327153,68.4037521 L21.7327153,68.4037521 L20.9353136,68.3438991 C20.8034448,68.3333088 20.6721001,68.3224134 20.541292,68.3112159 L19.7629823,68.240433 L19.7629823,68.240433 L18.998151,68.1625564 C18.8718357,68.1489944 18.746107,68.1351433 18.6209774,68.1210063 L17.8774893,68.0327787 C17.7548062,68.0175109 17.6327473,68.0019635 17.511325,67.9861399 L16.7905309,67.8879087 L16.7905309,67.8879087 L16.0856165,67.7832013 L16.0856165,67.7832013 L15.3971823,67.6721722 L15.3971823,67.6721722 L14.7258284,67.5549757 C14.6153928,67.5349376 14.5056939,67.5146489 14.3967442,67.494113 L13.7521366,67.3679548 L13.7521366,67.3679548 L13.1261102,67.2360152 L13.1261102,67.2360152 L12.5192655,67.0984485 L12.5192655,67.0984485 L11.9322026,66.9554092 L11.9322026,66.9554092 L11.3655221,66.8070514 L11.3655221,66.8070514 L10.8198241,66.6535297 L10.8198241,66.6535297 L10.2957091,66.4949984 L10.2957091,66.4949984 L9.79377738,66.3316119 C6.93171083,65.364663 5.23255814,64.1577747 5.23255814,62.8488372 C5.23255814,62.7757254 5.23785929,62.7029319 5.24836813,62.6304809 C5.23734326,62.5793082 5.23255814,62.5262594 5.23255814,62.472093 L5.23255814,11.9465116 C5.23255814,11.8921406 5.23737948,11.8388957 5.24661796,11.7871811 C5.23781315,11.7150377 5.23255814,11.6425604 5.23255814,11.5697674 C5.23255814,10.3730246 6.65291108,9.26158657 9.08378667,8.34083839 L9.55131785,8.17045848 C9.63118003,8.14244284 9.71200405,8.11461986 9.79377738,8.08699275 L10.2957091,7.92360623 C10.3812297,7.89677545 10.4676746,7.87014698 10.5550312,7.84372403 L11.0900128,7.68767823 L11.0900128,7.68767823 L11.6462771,7.53671922 L11.6462771,7.53671922 L12.2232238,7.39100136 L12.2232238,7.39100136 L12.8202526,7.25067903 L12.8202526,7.25067903 L13.4367632,7.11590659 L13.4367632,7.11590659 L14.0721553,6.98683843 L14.0721553,6.98683843 L14.7258284,6.86362892 L14.7258284,6.86362892 L15.3971823,6.74643242 L15.3971823,6.74643242 L16.0856165,6.63540331 L16.0856165,6.63540331 L16.7905309,6.53069597 L16.7905309,6.53069597 L17.511325,6.43246476 L17.511325,6.43246476 L18.2473985,6.34086405 L18.2473985,6.34086405 L18.998151,6.25604823 L18.998151,6.25604823 L19.7629823,6.17817165 C19.8915941,6.16577907 20.0207674,6.15368206 20.1504899,6.14188383 L20.9353136,6.07470558 L20.9353136,6.07470558 L21.7327153,6.01485252 L21.7327153,6.01485252 L22.5420944,5.96247901 L22.5420944,5.96247901 L23.3628508,5.91773943 L23.3628508,5.91773943 L24.1943841,5.88078815 L24.1943841,5.88078815 L25.0360939,5.85177955 L25.0360939,5.85177955 L25.8873799,5.83086798 L25.8873799,5.83086798 L26.7476417,5.81820784 L26.7476417,5.81820784 Z" id="Path" fill="#D40B26"></path>
            <path d="M46.5075772,6.25913175 L46.5116279,6.39534884 L46.5116279,57.6744186 L46.508,57.674 C46.3128224,61.4502798 36.7711913,63.8003263 24.4783805,63.9462689 L24.0328754,63.9505827 L23.255814,63.9534884 C10.3981268,63.9534884 0.235964891,61.5816633 0.00405070209,57.6943566 L0.003,57.674 L0,57.6744186 L0,6.39534884 L0.00407548575,6.25871696 C0.22926811,2.49564256 9.76041509,0.152840055 22.033948,0.00721118978 L22.4787525,0.00290567284 L23.255814,-5.68434189e-14 C36.1135011,-5.68434189e-14 46.275663,2.37182505 46.5075772,6.25913175 Z M44.1875845,43.6944465 C43.0100943,44.37343 41.4218606,44.9616268 39.5081923,45.4489393 L39.5081923,45.4489393 L38.9902119,45.5764944 C38.902616,45.5973526 38.8143923,45.6180098 38.7255482,45.638465 L38.7255482,45.638465 L38.1850986,45.7587659 C37.5460283,45.8962732 36.8772924,46.023798 36.1814601,46.1410365 L36.1814601,46.1410365 L35.5784565,46.2390003 C35.4768698,46.2549054 35.3747452,46.2705988 35.2720901,46.2860796 L35.2720901,46.2860796 L34.6498529,46.3764063 L34.0152428,46.4615883 L33.3686193,46.5415831 L32.7103419,46.6163482 C32.4890137,46.6403935 32.2658031,46.6635601 32.0407701,46.6858409 L32.0407701,46.6858409 L31.3602635,46.7500188 L30.6691815,46.8088392 L29.9678838,46.8622597 C29.8501695,46.8707108 29.7320445,46.878935 29.6135163,46.8869317 L29.6135163,46.8869317 L28.897569,46.9321724 C28.777458,46.9392548 28.6569588,46.9461078 28.5360789,46.9527305 L28.5360789,46.9527305 L27.8062909,46.9896957 L27.0677252,47.0210907 C26.9439194,47.0258566 26.8197628,47.0303887 26.695263,47.0346861 L26.695263,47.0346861 L25.9442048,47.057646 C25.8183618,47.0610008 25.6921906,47.064119 25.5656986,47.0669999 L25.5656986,47.0669999 L24.8029568,47.0814289 L24.0328754,47.0901176 L23.255814,47.0930233 L22.4787525,47.0901176 L21.7086711,47.0814289 L20.9459293,47.0669999 C20.6929453,47.0612382 20.4412444,47.0545268 20.1908867,47.0468729 L20.1908867,47.0468729 L19.4439028,47.0210907 L18.705337,46.9896957 L18.705337,46.9896957 L18.3393233,46.9719067 L17.6140589,46.9321724 L17.6140589,46.9321724 L17.2548982,46.9102376 L16.5437441,46.8622597 L15.8424464,46.8088392 L15.1513644,46.7500188 L15.1513644,46.7500188 L14.8097667,46.7185969 L14.1346826,46.6517562 C14.0230848,46.6401738 13.9119501,46.6283708 13.801286,46.6163482 L13.801286,46.6163482 L13.1430086,46.5415831 L12.4963851,46.4615883 L11.861775,46.3764063 L11.2395378,46.2860796 C11.1368827,46.2705988 11.0347581,46.2549054 10.9331714,46.2390003 L10.9331714,46.2390003 L10.3301678,46.1410365 C9.63433546,46.023798 8.9655996,45.8962732 8.3265293,45.7587659 L8.3265293,45.7587659 L7.7860797,45.638465 C7.69723559,45.6180098 7.60901187,45.5973526 7.52141604,45.5764944 L7.52141604,45.5764944 L7.00343565,45.4489393 C5.09018652,44.9617335 3.50222936,44.3736876 2.32481721,43.6948927 L2.3255814,57.5581395 L2.32817632,57.5964884 C2.40942564,58.2075627 4.39592751,59.2963204 7.90167156,60.1266282 C11.9233552,61.0791322 17.4014745,61.627907 23.255814,61.627907 C29.1101534,61.627907 34.5882727,61.0791322 38.6099563,60.1266282 C42.0817957,59.3043504 44.0636365,58.2285976 44.18056,57.6143512 L44.1860465,57.5581395 Z M44.1885758,25.670619 C43.0109858,26.349844 41.4223977,26.9382342 39.5081923,27.4256835 L39.5081923,27.4256835 L38.9902119,27.5532386 C38.902616,27.5740968 38.8143923,27.594754 38.7255482,27.6152092 L38.7255482,27.6152092 L38.1850986,27.7355101 C37.5460283,27.8730174 36.8772924,28.0005422 36.1814601,28.1177807 L36.1814601,28.1177807 L35.5784565,28.2157445 C35.4768698,28.2316496 35.3747452,28.247343 35.2720901,28.2628238 L35.2720901,28.2628238 L34.6498529,28.3531505 L34.0152428,28.4383325 L33.3686193,28.5183273 L32.7103419,28.5930924 C32.4890137,28.6171377 32.2658031,28.6403043 32.0407701,28.6625851 L32.0407701,28.6625851 L31.3602635,28.726763 L30.6691815,28.7855834 L29.9678838,28.8390039 C29.8501695,28.8474549 29.7320445,28.8556792 29.6135163,28.8636758 L29.6135163,28.8636758 L28.897569,28.9089165 C28.777458,28.915999 28.6569588,28.922852 28.5360789,28.9294747 L28.5360789,28.9294747 L27.8062909,28.9664399 L27.0677252,28.9978349 L27.0677252,28.9978349 L26.695263,29.0114302 L25.9442048,29.0343902 C25.8183618,29.0377449 25.6921906,29.0408632 25.5656986,29.0437441 L25.5656986,29.0437441 L24.8029568,29.0581731 L24.0328754,29.0668618 L23.255814,29.0697674 L22.4787525,29.0668618 L21.7086711,29.0581731 L20.9459293,29.0437441 C20.6929453,29.0379824 20.4412444,29.031271 20.1908867,29.0236171 L20.1908867,29.0236171 L19.4439028,28.9978349 L18.705337,28.9664399 L18.705337,28.9664399 L18.3393233,28.9486509 L17.6140589,28.9089165 C17.493948,28.9018341 17.3742252,28.8945222 17.2548982,28.8869818 L17.2548982,28.8869818 L16.5437441,28.8390039 L15.8424464,28.7855834 L15.1513644,28.726763 C15.0370554,28.7165119 14.923187,28.7060377 14.8097667,28.6953411 L14.8097667,28.6953411 L14.1346826,28.6285004 C14.0230848,28.616918 13.9119501,28.605115 13.801286,28.5930924 L13.801286,28.5930924 L13.1430086,28.5183273 L12.4963851,28.4383325 L11.861775,28.3531505 L11.2395378,28.2628238 C11.1368827,28.247343 11.0347581,28.2316496 10.9331714,28.2157445 L10.9331714,28.2157445 L10.3301678,28.1177807 C9.63433546,28.0005422 8.9655996,27.8730174 8.3265293,27.7355101 L8.3265293,27.7355101 L7.7860797,27.6152092 C7.69723559,27.594754 7.60901187,27.5740968 7.52141604,27.5532386 L7.52141604,27.5532386 L7.00343565,27.4256835 C5.08965059,26.9383412 3.50133977,26.3501024 2.32382789,25.6710664 L2.324,40.697 L2.3255814,40.6976744 L2.32817632,40.7360233 C2.35756437,40.9570502 2.63621362,41.2405716 3.1458577,41.5517531 L3.1458577,41.5517531 L3.33529382,41.6626737 C3.36845517,41.6813329 3.40240838,41.7000737 3.43714972,41.718889 L3.43714972,41.718889 L3.65502567,41.8326169 L3.89163842,41.9477911 C3.97361231,41.9863857 4.05867925,42.0251646 4.14680951,42.0640712 L4.14680951,42.0640712 L4.42036049,42.1811167 L4.71211288,42.2985875 C4.76224515,42.3181825 4.81312838,42.337781 4.86475884,42.357376 L4.86475884,42.357376 L5.18347875,42.4748464 L5.51995392,42.5918912 L5.87400589,42.70817 L6.2454562,42.8233426 C6.30880453,42.8424269 6.37287035,42.861451 6.43764996,42.8804076 L6.43764996,42.8804076 L6.83486315,42.9932826 L7.24902853,43.1042004 L7.67996763,43.2128208 L7.90167156,43.2661631 C11.9233552,44.2186671 17.4014745,44.7674419 23.255814,44.7674419 C29.1101534,44.7674419 34.5882727,44.2186671 38.6099563,43.2661631 C38.6845466,43.2484969 38.7584492,43.2307138 38.8316603,43.2128208 L38.8316603,43.2128208 L39.2625994,43.1042004 L39.6767648,42.9932826 L40.073978,42.8804076 C40.1387576,42.861451 40.2028234,42.8424269 40.2661717,42.8233426 L40.2661717,42.8233426 L40.637622,42.70817 L40.991674,42.5918912 C41.0492229,42.5724381 41.1060394,42.5529531 41.1621198,42.5334433 L41.1621198,42.5334433 L41.4897397,42.4161431 L41.799515,42.2985875 L42.0912674,42.1811167 L42.3648184,42.0640712 C42.4529487,42.0251646 42.5380156,41.9863857 42.6199895,41.9477911 L42.6199895,41.9477911 L42.8566022,41.8326169 L43.0744782,41.718889 L43.0744782,41.718889 L43.1763341,41.6626737 L43.3657702,41.5517531 C43.9053933,41.2222668 44.1860465,40.9237904 44.1860465,40.6976744 L44.1860465,40.6976744 L44.187,40.697 Z M44.1871705,9.39235964 C40.6255843,11.4458669 33.3068216,12.6688948 24.5910742,12.7820775 L24.0328754,12.787792 L23.255814,12.7906977 C13.95625,12.7906977 6.06676304,11.5499539 2.32464498,9.39246782 L2.324,22.674 L2.3255814,22.6744186 L2.32817632,22.7127675 C2.35756437,22.9337944 2.63621362,23.2173158 3.1458577,23.5284973 L3.1458577,23.5284973 L3.33529382,23.6394178 C3.36845517,23.6580771 3.40240838,23.6768179 3.43714972,23.6956331 L3.43714972,23.6956331 L3.65502567,23.8093611 L3.89163842,23.9245353 C3.97361231,23.9631299 4.05867925,24.0019088 4.14680951,24.0408153 L4.14680951,24.0408153 L4.42036049,24.1578609 L4.71211288,24.2753317 C4.76224515,24.2949267 4.81312838,24.3145252 4.86475884,24.3341202 L4.86475884,24.3341202 L5.18347875,24.4515906 L5.51995392,24.5686354 L5.87400589,24.6849142 L6.2454562,24.8000868 C6.30880453,24.8191711 6.37287035,24.8381951 6.43764996,24.8571518 L6.43764996,24.8571518 L6.83486315,24.9700268 L7.24902853,25.0809446 L7.67996763,25.189565 L7.90167156,25.2429072 C11.9233552,26.1954113 17.4014745,26.744186 23.255814,26.744186 C29.1101534,26.744186 34.5882727,26.1954113 38.6099563,25.2429072 C38.6845466,25.2252411 38.7584492,25.207458 38.8316603,25.189565 L38.8316603,25.189565 L39.2625994,25.0809446 L39.6767648,24.9700268 L40.073978,24.8571518 C40.1387576,24.8381951 40.2028234,24.8191711 40.2661717,24.8000868 L40.2661717,24.8000868 L40.637622,24.6849142 L40.991674,24.5686354 C41.0492229,24.5491823 41.1060394,24.5296973 41.1621198,24.5101875 L41.1621198,24.5101875 L41.4897397,24.3928873 L41.799515,24.2753317 L42.0912674,24.1578609 L42.3648184,24.0408153 C42.4529487,24.0019088 42.5380156,23.9631299 42.6199895,23.9245353 L42.6199895,23.9245353 L42.8566022,23.8093611 L43.0744782,23.6956331 L43.0744782,23.6956331 L43.1763341,23.6394178 L43.3657702,23.5284973 C43.9053933,23.199011 44.1860465,22.9005346 44.1860465,22.6744186 L44.1860465,22.6744186 L44.187,22.674 L44.1871705,9.39235964 Z M23.255814,2.3255814 C17.4014745,2.3255814 11.9233552,2.87435617 7.90167156,3.8268602 C4.32133721,4.67483412 2.3255814,5.79237282 2.3255814,6.39534884 C2.3255814,6.99832485 4.32133721,8.11586355 7.90167156,8.96383747 C11.9233552,9.91634151 17.4014745,10.4651163 23.255814,10.4651163 C29.1101534,10.4651163 34.5882727,9.91634151 38.6099563,8.96383747 C42.1902907,8.11586355 44.1860465,6.99832485 44.1860465,6.39534884 C44.1860465,5.79237282 42.1902907,4.67483412 38.6099563,3.8268602 C34.5882727,2.87435617 29.1101534,2.3255814 23.255814,2.3255814 Z" id="Combined-Shape" fill="#24231F" fill-rule="nonzero"></path>
        </g>
    </g>
</svg>