<?xml version="1.0" encoding="UTF-8"?>
<svg width="617px" height="120px" viewBox="0 0 617 120" version="1.1" xmlns="http://www.w3.org/2000/svg" xmlns:xlink="http://www.w3.org/1999/xlink">
    <title>EDR logo</title>
    <defs>
        <polygon id="path-1" points="0 0 120.000866 0 120.000866 120 0 120"></polygon>
    </defs>
    <g id="ThreatSonar-EDR-本次新增頁面" stroke="none" stroke-width="1" fill="none" fill-rule="evenodd">
        <g id="1440up_ThreatSonar-EDR" transform="translate(-460.000000, -220.000000)">
            <g id="hero" transform="translate(0.000000, -425.000000)">
                <g id="EDR-logo" transform="translate(460.000000, 645.000000)">
                    <g id="Group-3">
                        <mask id="mask-2" fill="white">
                            <use xlink:href="#path-1"></use>
                        </mask>
                        <g id="Clip-2"></g>
                        <path d="M120.000866,59.9999381 C120.000866,93.1365356 93.1374019,120 60.0008044,120 C26.8629694,120 -0.000495019383,93.1365356 -0.000495019383,59.9999381 C-0.000495019383,26.8633406 26.8629694,-0.000123754846 60.0008044,-0.000123754846 C93.1374019,-0.000123754846 120.000866,26.8633406 120.000866,59.9999381 L202,61.7974773 L255.615634,49.9006764 L202,20.070179" id="Fill-1" fill="#C71532" mask="url(#mask-2)"></path>
                    </g>
                    <path d="M24.823242,65.8401768 C25.2006943,65.8401768 25.5694837,65.8748282 25.9345605,65.9255676 C25.6004224,63.9863292 25.4209779,62.0074892 25.4209779,60.0001856 C25.4209779,50.7618864 29.0172937,42.0780089 35.5490745,35.5487032 C40.6626247,30.4363905 47.1164399,27.1011974 54.217493,25.9094383 C55.8201182,25.6396527 56.900498,24.1224183 56.63195,22.519793 C56.3621644,20.9196429 54.8412174,19.8565888 53.2435423,20.1065735 C44.9296918,21.5062409 37.3719833,25.4069936 31.3896741,31.3905404 C23.7478124,39.0274519 19.5376725,49.1901999 19.5376725,60.0001856 C19.5376725,62.474045 19.7690941,64.9120155 20.2009985,67.2967713 C21.5165125,66.3809855 23.1092374,65.8401768 24.823242,65.8401768" id="Fill-4" fill="#FEFEFE"></path>
                    <path d="M33.9436029,49.9006764 C32.7122421,53.081176 32.0464411,56.4856718 32.0464411,60.0003094 C32.0464411,67.4676768 34.9534424,74.4882892 40.2328241,79.7689085 C41.5223496,81.0571964 42.9183043,82.2006912 44.3971747,83.1981552 C44.5023663,81.0584339 45.4391905,79.131571 46.8970226,77.7356163 C46.0220758,77.0871409 45.1768302,76.3928763 44.3922245,75.6082705 C40.2241613,71.4414449 37.9297464,65.8972278 37.9297464,60.0003094 C37.9297464,57.6106033 38.3245244,55.2852498 39.0509653,53.0799384 C36.9681713,52.7086739 35.1588754,51.5391906 33.9436029,49.9006764" id="Fill-6" fill="#FEFEFE"></path>
                    <path d="M54.2520206,32.6394743 C50.3030034,33.4649191 46.6138715,35.1306593 43.3962455,37.5117026 C45.3342464,38.2666071 46.9133582,39.74424 47.8043931,41.6117006 C50.1223214,40.0709528 52.7087976,38.9720097 55.4586303,38.3965497 C57.0488801,38.0624116 58.0661449,36.5055757 57.7344819,34.9140884 C57.4003438,33.322601 55.8509332,32.3090489 54.2520206,32.6394743" id="Fill-8" fill="#FEFEFE"></path>
                    <path d="M90.630995,33.5859513 L93.2372721,30.9796743 C94.396855,29.8188538 94.396855,27.9216921 93.2372721,26.7621092 C92.0776892,25.6025262 90.1805274,25.6025262 89.0209445,26.7621092 L57.8916506,57.8914031 C56.7320677,59.050986 56.7320677,60.9481478 57.8916506,62.1077307 L57.8916506,62.1077307 C59.0512335,63.2673136 60.9496328,63.2673136 62.1092157,62.1077307 L68.5184792,55.6984672 C69.1879929,57.0189314 69.5666827,58.4767635 69.5666827,60.0001856 C69.5666827,62.5532481 68.5716938,64.9578048 66.764873,66.7646255 C63.1549442,70.378267 56.8533474,70.3832172 53.2359933,66.7646255 C51.4291725,64.9578048 50.4354211,62.5557232 50.4354211,60.0001856 C50.4354211,57.4458856 51.4316476,55.041329 53.2359933,53.2357458 C54.8188177,51.6529213 56.9164624,50.6703078 59.1428121,50.4723001 C60.7615254,50.3250318 61.9545222,48.8981384 61.809729,47.2806626 C61.6624607,45.6607117 60.2219543,44.4516268 58.616854,44.6125081 C55.0205381,44.9330332 51.6321305,46.5195703 49.0753554,49.0763454 C46.1584536,51.9969598 44.5533533,55.8754366 44.5533533,60.0001856 C44.5533533,64.1274097 46.1596912,68.0083617 49.0765929,70.9240259 C51.9959697,73.8421651 55.8744466,75.448503 60.0004331,75.448503 C64.1276572,75.448503 68.0073717,73.8421651 70.9255109,70.9240259 C73.8424126,68.002174 75.4499881,64.1249346 75.4499881,60.0001856 C75.4499881,56.8865137 74.5131639,53.9300104 72.8102972,51.4066491 L77.555058,46.6618884 C80.4707222,50.4822004 82.0721099,55.1131068 82.0721099,60.0026607 C82.0721099,65.8995791 79.7764575,71.4437962 75.6071567,75.6093843 C71.552948,79.6623555 66.1956007,81.9258317 60.4806019,82.048349 C60.5796058,82.5507936 60.634058,83.0680889 60.634058,83.5977596 C60.634058,85.1867718 60.1650271,86.6681173 59.3692834,87.924229 C59.5796667,87.9291792 59.7875748,87.9551677 60.0004331,87.9551677 C67.466563,87.9551677 74.4859378,85.0481664 79.7665571,79.7687847 C85.0459388,74.4943532 87.9554153,67.4737408 87.9554153,60.0026607 C87.9554153,53.5389451 85.752579,47.4254558 81.7441595,42.4727868 L86.4505563,37.76639 C91.6977618,43.9887837 94.5787746,51.7680133 94.5787746,60.0001856 C94.5787746,69.2372473 90.9824588,77.9211248 84.4519156,84.4504305 C77.9226099,90.9797362 69.2412075,94.576052 60.0016707,94.576052 C50.764609,94.576052 42.0794939,90.9797362 35.5489507,84.4504305 C33.8856856,82.7859278 32.4142405,80.9803446 31.1420407,79.0633821 C29.8908792,80.6103176 28.085296,81.6857473 26.0359157,81.9963719 C27.5704758,84.3539017 29.3537831,86.5740637 31.3895503,88.6098309 C39.0326496,96.2504551 49.19416,100.45812 60.0016707,100.45812 C70.8116565,100.45812 80.9719293,96.2504551 88.6113159,88.6098309 C96.2531777,80.9692067 100.46208,70.8089339 100.46208,60.0001856 C100.46208,50.1938517 96.9833313,40.9295639 90.630995,33.5859513" id="Fill-10" fill="#FEFEFE"></path>
                    <path d="M29.9335746,73.9691376 C29.9335746,71.1586651 27.6342096,68.8593 24.823737,68.8593 C22.0132645,68.8593 19.7126619,71.1586651 19.7126619,73.9691376 C19.7126619,76.7796102 22.0132645,79.0789752 24.823737,79.0789752 C27.6342096,79.0789752 29.9335746,76.7796102 29.9335746,73.9691376" id="Fill-12" fill="#FEFEFE"></path>
                    <path d="M40.4695671,40.2674755 C37.8199759,40.2674755 35.6530285,42.4344228 35.6530285,45.0840141 C35.6530285,47.7323678 37.8199759,49.9005527 40.4695671,49.9005527 C43.1191584,49.9005527 45.2861057,47.7323678 45.2861057,45.0840141 C45.2861057,42.4344228 43.1191584,40.2674755 40.4695671,40.2674755" id="Fill-14" fill="#FEFEFE"></path>
                    <path d="M57.321512,83.5975121 C57.321512,80.9479209 55.1545646,78.7809735 52.5049734,78.7809735 C49.8566197,78.7809735 47.6884348,80.9479209 47.6884348,83.5975121 C47.6884348,86.2471034 49.8566197,88.4140507 52.5049734,88.4140507 C55.1545646,88.4140507 57.321512,86.2471034 57.321512,83.5975121" id="Fill-16" fill="#FEFEFE"></path>
                    <polygon id="Fill-18" fill="#FEFEFE" points="138.667305 39.5221 138.667305 49.5462425 153.146622 49.5462425 153.146622 94.097987 163.170764 94.097987 163.170764 39.5221"></polygon>
                    <path d="M186.016527,52.8876234 L184.876745,52.8876234 C182.293982,52.8876234 179.851061,53.4742213 177.649462,54.4951988 L177.649462,39.5221 L167.62532,39.5221 L167.62532,94.097987 L177.649462,94.097987 L177.649462,70.1390489 C177.649462,66.1541428 180.891839,62.9117659 184.876745,62.9117659 L186.016527,62.9117659 C190.001433,62.9117659 193.242573,66.1541428 193.242573,70.1390489 L193.242573,94.097987 L203.266715,94.097987 L203.266715,70.1390489 C203.266715,60.6260139 195.528325,52.8876234 186.016527,52.8876234" id="Fill-20" fill="#FEFEFE"></path>
                    <path d="M293.484617,77.9734731 C293.484617,81.9583792 290.243477,85.1995186 286.258571,85.1995186 L285.117552,85.1995186 C281.132646,85.1995186 277.891506,81.9583792 277.891506,77.9734731 L277.891506,69.0247603 C277.891506,65.0398542 281.132646,61.7974773 285.117552,61.7974773 L286.258571,61.7974773 C290.243477,61.7974773 293.484617,65.0398542 293.484617,69.0247603 L293.484617,72.3908921 L293.484617,77.9734731 Z M295.712204,51.7733347 L295.712204,54.6122709 C292.994548,52.8227758 289.748458,51.7733347 286.258571,51.7733347 L285.117552,51.7733347 C275.978256,51.7733347 268.496038,58.9251273 267.923053,67.9233421 L267.923053,79.0736537 C268.496038,88.0731061 275.978256,95.2248986 285.117552,95.2248986 L286.258571,95.2248986 C289.748458,95.2248986 292.994548,94.1754576 295.712204,92.3859625 L295.712204,94.097492 L303.508759,94.097492 L303.508759,51.7733347 L295.712204,51.7733347 Z" id="Fill-22" fill="#FEFEFE"></path>
                    <path d="M228.825804,52.2975603 C224.994354,52.2975603 220.555267,53.5549095 216.632239,55.7119565 L216.632239,51.7740773 L206.608096,51.7740773 L206.608096,94.0982345 L216.632239,94.0982345 L216.632239,69.5489858 C216.632239,66.6444595 223.958526,62.9120134 228.883968,62.9120134 L228.825804,52.2975603 Z" id="Fill-24" fill="#FEFEFE"></path>
                    <path d="M240.022523,69.5945276 L240.022523,69.0252553 C240.022523,65.0403492 243.263663,61.7979723 247.248569,61.7979723 L248.389589,61.7979723 C252.374495,61.7979723 255.615634,65.0403492 255.615634,69.0252553 L255.615634,69.5945276 L240.022523,69.5945276 Z M248.389589,51.7738298 L247.248569,51.7738298 C237.736771,51.7738298 229.998381,59.5122203 229.998381,69.0252553 L230.054071,79.0741487 C230.627055,88.0723636 238.109273,95.2253937 247.248569,95.2253937 L248.389589,95.2253937 C256.684876,95.2253937 265.639776,89.9064104 265.639776,81.315349 L255.615634,81.315349 C255.615634,83.2026104 251.901751,85.2000136 248.389589,85.2000136 L247.248569,85.2000136 C243.263663,85.2000136 240.022523,81.9588742 240.022523,77.9739682 L240.022523,77.3910828 L265.639776,77.3910828 L265.639776,69.0252553 C265.639776,59.5122203 257.901386,51.7738298 248.389589,51.7738298 L248.389589,51.7738298 Z" id="Fill-26" fill="#FEFEFE"></path>
                    <path d="M316.874283,60.2838317 L324.670838,60.2838317 L324.670838,52.6741463 L316.874283,52.6741463 L316.874283,45.0904493 L306.85014,45.0904493 L306.85014,83.7081489 C306.85014,87.1175949 307.773351,89.6533317 309.675463,91.4626276 C312.073832,93.747142 315.196167,94.0973683 318.376666,94.0973683 C319.084544,94.0973683 323.794654,94.0107399 324.670838,94.0107399 L324.670838,84.2266818 L317.988076,84.2266818 C317.373015,84.2266818 316.874283,83.7403252 316.874283,83.1401142 L316.874283,60.2838317 Z" id="Fill-28" fill="#FEFEFE"></path>
                    <path d="M363.044493,61.848588 L345.405715,61.848588 C342.327932,61.848588 339.823134,59.486108 339.823134,56.5815818 L339.823134,54.7116461 C339.823134,51.8083574 342.327932,49.4446398 345.405715,49.4446398 L373.322333,49.4446398 L373.322333,39.5219763 L345.405715,39.5219763 C336.799803,39.5219763 329.798991,46.3359181 329.798991,54.7116461 L329.798991,56.5815818 C329.798991,64.9573097 336.799803,71.7712515 345.405715,71.7712515 L363.044493,71.7712515 C366.122276,71.7712515 368.627074,74.1337315 368.627074,77.0382578 L368.627074,78.9081935 C368.627074,81.8127197 366.122276,84.1751997 363.044493,84.1751997 L331.701103,84.1751997 L331.701103,94.0978633 L363.044493,94.0978633 C371.650405,94.0978633 378.651217,87.2839215 378.651217,78.9081935 L378.651217,77.0382578 C378.651217,68.6625298 371.650405,61.848588 363.044493,61.848588" id="Fill-30" fill="#FEFEFE"></path>
                    <path d="M411.54674,77.841798 C411.54674,80.9220561 409.040704,83.4293293 405.959208,83.4293293 L398.19978,83.4293293 C395.118284,83.4293293 392.612248,80.9220561 392.612248,77.841798 L392.612248,68.5861731 C392.612248,65.505915 395.118284,62.9998793 398.19978,62.9998793 L405.959208,62.9998793 C409.040704,62.9998793 411.54674,65.505915 411.54674,68.5861731 L411.54674,77.841798 Z M406.415864,51.7740773 L397.743124,51.7740773 C388.772135,51.7740773 381.474312,59.0719005 381.474312,68.0428893 L381.474312,78.3863193 C381.474312,87.3573081 388.772135,94.6551313 397.743124,94.6551313 L406.415864,94.6551313 C415.386852,94.6551313 422.684676,87.3573081 422.684676,78.3863193 L422.684676,68.0428893 C422.684676,59.0719005 415.386852,51.7740773 406.415864,51.7740773 L406.415864,51.7740773 Z" id="Fill-32" fill="#FEFEFE"></path>
                    <path d="M518.650742,78.3631772 L518.650742,94.0862303 L528.67241,94.0862303 L528.67241,78.3631772 C528.67241,61.2379816 544.806329,61.2379816 550.106749,61.2379816 L559.571519,61.2379816 L559.571519,51.2163142 L550.106749,51.2163142 C530.116629,51.2163142 518.650742,61.1105141 518.650742,78.3631772" id="Fill-34" fill="#FEFEFE"></path>
                    <path d="M492.335759,84.6217072 L483.296705,84.6217072 C481.071593,84.6217072 479.308087,82.6007906 479.746179,80.2964754 C480.074129,78.5688577 481.695318,77.3857614 483.453874,77.3845238 L501.556733,77.3845238 C501.60376,77.3845238 501.639649,77.4303131 501.627273,77.4761024 C500.535755,81.5847633 496.783508,84.6217072 492.335759,84.6217072 M500.564219,51.7734585 L475.511288,51.7734585 L475.511288,61.7951259 L500.564219,61.7951259 C502.559147,61.7951259 504.182811,63.4187895 504.182811,65.4137176 L504.182811,67.3628564 L483.291755,67.364094 C475.35907,67.364094 468.986933,74.1755607 469.713373,82.2579897 C470.351948,89.3627554 476.625082,94.6433746 483.758311,94.6433746 L492.265219,94.6433746 C496.750095,94.6433746 500.871131,93.1273778 504.182811,90.6040165 L504.182811,94.0864778 L514.204478,94.0864778 L514.204478,65.34689 L514.200765,65.34689 C514.164877,57.8560092 508.062525,51.7734585 500.564219,51.7734585" id="Fill-36" fill="#FEFEFE"></path>
                    <polygon id="Fill-38" fill="#FEFEFE" points="456.233129 77.5946596 436.314787 51.7744485 436.314787 51.773211 426.169365 51.773211 426.169365 94.0862303 436.314787 94.0862303 436.314787 68.2771572 456.233129 94.0862303 466.378552 94.0862303 466.378552 51.773211 456.233129 51.773211"></polygon>
                    <path d="M547.481537,73.2084166 L559.571148,73.2084166 L559.571148,66.8053408 L550.106378,66.8053408 C544.159957,66.8053408 539.626817,67.5342569 536.83367,71.0872585 C534.429114,74.1464783 534.430351,77.918526 534.431533,82.695463 L534.431533,94.085859 C534.431533,94.085859 534.431533,94.085859 534.431533,94.085859 L537.957364,94.085859 L541.097025,94.085859 L559.571148,94.085859 L559.571148,87.6840209 L541.097025,87.6840209 L541.097025,83.9255862 L559.571148,83.9255862 L559.571148,77.523748 L541.469527,77.523748 C542.333336,75.01895 544.684678,73.2084166 547.481537,73.2084166" id="Fill-40" fill="#FEFEFE"></path>
                    <path d="M581.90766,80.4462187 C581.90766,84.4645386 578.573705,87.7341416 574.474944,87.7341416 L568.882463,87.7341416 L568.882463,73.1582959 L574.888285,73.1582959 C578.759337,73.1582959 581.90766,76.2435042 581.90766,80.0365902 L581.90766,80.4462187 Z M574.888285,66.8059596 L568.882463,66.8059596 L563.785001,66.8059596 L562.280142,66.8059596 L562.280142,94.0864778 L568.882463,94.0864778 L568.882463,94.0864778 C570.313069,94.0864778 572.123602,94.0864778 574.474944,94.0864778 C582.161358,94.0864778 588.389939,87.9791762 588.389939,80.4462187 L588.389939,80.0365902 C588.389939,72.7288665 582.345752,66.8059596 574.888285,66.8059596 L574.888285,66.8059596 Z" id="Fill-42" fill="#FEFEFE"></path>
                    <path d="M605.983671,80.7245434 L597.026295,80.7245434 L597.026295,73.2881147 L605.983671,73.2881147 C608.034288,73.2881147 609.702504,74.95633 609.702504,77.0057103 C609.702504,79.056328 608.034288,80.7245434 605.983671,80.7245434 M616.183545,77.0057103 C616.183545,71.3723897 611.616991,66.8058359 605.983671,66.8058359 L597.026295,66.8058359 L592.109515,66.8058359 L590.515552,66.8058359 L590.515552,94.6432509 L597.026295,94.6432509 L597.026295,87.2068222 L605.666858,87.2068222 C608.226108,87.226623 609.228523,88.5569876 609.228523,91.9416826 L609.228523,94.6432509 L615.721939,94.6432509 L615.721939,91.9416826 C615.721939,88.5198611 614.780165,86.0088753 613.05131,84.3505604 C614.97941,82.4942377 616.183545,79.8929108 616.183545,77.0057103" id="Fill-44" fill="#FEFEFE"></path>
                </g>
            </g>
        </g>
    </g>
</svg>