<?xml version="1.0" encoding="UTF-8"?>
<svg width="480px" height="400px" viewBox="0 0 480 400" version="1.1" xmlns="http://www.w3.org/2000/svg" xmlns:xlink="http://www.w3.org/1999/xlink">
    <title>img/MDRplatform</title>
    <g id="img/MDRplatform" stroke="none" stroke-width="1" fill="none" fill-rule="evenodd">
        <circle id="Oval-Copy-19" fill="#E2E3E6" cx="176.5" cy="156.5" r="144.5"></circle>
        <circle id="Oval-Copy-20" fill="#E2E3E6" cx="339" cy="266" r="123"></circle>
        <path d="M72.6,37 L76.6,37 C77.1522847,37 77.6,36.5522847 77.6,36 C77.6,35.4477153 77.1522847,35 76.6,35 L72.6,35 C72.0477153,35 71.6,35.4477153 71.6,36 C71.6,36.5522847 72.0477153,37 72.6,37 Z M86.6,37 L90.6,37 C91.1522847,37 91.6,36.5522847 91.6,36 C91.6,35.4477153 91.1522847,35 90.6,35 L86.6,35 C86.0477153,35 85.6,35.4477153 85.6,36 C85.6,36.5522847 86.0477153,37 86.6,37 Z M100.6,37 L104.6,37 C105.152285,37 105.6,36.5522847 105.6,36 C105.6,35.4477153 105.152285,35 104.6,35 L100.6,35 C100.047715,35 99.6,35.4477153 99.6,36 C99.6,36.5522847 100.047715,37 100.6,37 Z M114.6,37 L118.6,37 C119.152285,37 119.6,36.5522847 119.6,36 C119.6,35.4477153 119.152285,35 118.6,35 L114.6,35 C114.047715,35 113.6,35.4477153 113.6,36 C113.6,36.5522847 114.047715,37 114.6,37 Z M128.6,37 L132.6,37 C133.152285,37 133.6,36.5522847 133.6,36 C133.6,35.4477153 133.152285,35 132.6,35 L128.6,35 C128.047715,35 127.6,35.4477153 127.6,36 C127.6,36.5522847 128.047715,37 128.6,37 Z M142.6,37 L146.6,37 C147.152285,37 147.6,36.5522847 147.6,36 C147.6,35.4477153 147.152285,35 146.6,35 L142.6,35 C142.047715,35 141.6,35.4477153 141.6,36 C141.6,36.5522847 142.047715,37 142.6,37 Z M156.6,37 L160.6,37 C161.152285,37 161.6,36.5522847 161.6,36 C161.6,35.4477153 161.152285,35 160.6,35 L156.6,35 C156.047715,35 155.6,35.4477153 155.6,36 C155.6,36.5522847 156.047715,37 156.6,37 Z M170.6,37 L174.6,37 C175.152285,37 175.6,36.5522847 175.6,36 C175.6,35.4477153 175.152285,35 174.6,35 L170.6,35 C170.047715,35 169.6,35.4477153 169.6,36 C169.6,36.5522847 170.047715,37 170.6,37 Z M184.6,37 L188.6,37 C189.152285,37 189.6,36.5522847 189.6,36 C189.6,35.4477153 189.152285,35 188.6,35 L184.6,35 C184.047715,35 183.6,35.4477153 183.6,36 C183.6,36.5522847 184.047715,37 184.6,37 Z M198.6,37 L202.6,37 C203.152285,37 203.6,36.5522847 203.6,36 C203.6,35.4477153 203.152285,35 202.6,35 L198.6,35 C198.047715,35 197.6,35.4477153 197.6,36 C197.6,36.5522847 198.047715,37 198.6,37 Z M212.6,37 L216.6,37 C217.152285,37 217.6,36.5522847 217.6,36 C217.6,35.4477153 217.152285,35 216.6,35 L212.6,35 C212.047715,35 211.6,35.4477153 211.6,36 C211.6,36.5522847 212.047715,37 212.6,37 Z M226.6,37 L230.6,37 C231.152285,37 231.6,36.5522847 231.6,36 C231.6,35.4477153 231.152285,35 230.6,35 L226.6,35 C226.047715,35 225.6,35.4477153 225.6,36 C225.6,36.5522847 226.047715,37 226.6,37 Z M240.6,37 L244.6,37 C245.152285,37 245.6,36.5522847 245.6,36 C245.6,35.4477153 245.152285,35 244.6,35 L240.6,35 C240.047715,35 239.6,35.4477153 239.6,36 C239.6,36.5522847 240.047715,37 240.6,37 Z M254.6,37 L258.6,37 C259.152285,37 259.6,36.5522847 259.6,36 C259.6,35.4477153 259.152285,35 258.6,35 L254.6,35 C254.047715,35 253.6,35.4477153 253.6,36 C253.6,36.5522847 254.047715,37 254.6,37 Z M268.6,37 L272.6,37 C273.152285,37 273.6,36.5522847 273.6,36 C273.6,35.4477153 273.152285,35 272.6,35 L268.6,35 C268.047715,35 267.6,35.4477153 267.6,36 C267.6,36.5522847 268.047715,37 268.6,37 Z M282.6,37 L286.6,37 C287.152285,37 287.6,36.5522847 287.6,36 C287.6,35.4477153 287.152285,35 286.6,35 L282.6,35 C282.047715,35 281.6,35.4477153 281.6,36 C281.6,36.5522847 282.047715,37 282.6,37 Z M296.6,37 L300.6,37 C301.152285,37 301.6,36.5522847 301.6,36 C301.6,35.4477153 301.152285,35 300.6,35 L296.6,35 C296.047715,35 295.6,35.4477153 295.6,36 C295.6,36.5522847 296.047715,37 296.6,37 Z M310.6,37 L314.6,37 C315.152285,37 315.6,36.5522847 315.6,36 C315.6,35.4477153 315.152285,35 314.6,35 L310.6,35 C310.047715,35 309.6,35.4477153 309.6,36 C309.6,36.5522847 310.047715,37 310.6,37 Z M324.6,37 L328.6,37 C329.152285,37 329.6,36.5522847 329.6,36 C329.6,35.4477153 329.152285,35 328.6,35 L324.6,35 C324.047715,35 323.6,35.4477153 323.6,36 C323.6,36.5522847 324.047715,37 324.6,37 Z M338.6,37 L342.6,37 C343.152285,37 343.6,36.5522847 343.6,36 C343.6,35.4477153 343.152285,35 342.6,35 L338.6,35 C338.047715,35 337.6,35.4477153 337.6,36 C337.6,36.5522847 338.047715,37 338.6,37 Z M352.6,37 L356.6,37 C357.152285,37 357.6,36.5522847 357.6,36 C357.6,35.4477153 357.152285,35 356.6,35 L352.6,35 C352.047715,35 351.6,35.4477153 351.6,36 C351.6,36.5522847 352.047715,37 352.6,37 Z M366.566144,37.0392277 C367.88403,37.0829892 369.196723,37.1633062 370.503218,37.2798838 C371.053317,37.3289688 371.539051,36.9228165 371.588136,36.3727173 C371.637221,35.8226181 371.231069,35.3368834 370.68097,35.2877984 C369.33743,35.1679153 367.987597,35.0853259 366.632519,35.0403294 C366.080539,35.0220004 365.618211,35.4546104 365.599882,36.006591 C365.581553,36.5585715 366.014163,37.0208987 366.566144,37.0392277 Z M380.263985,38.8517173 C381.544713,39.1524346 382.815144,39.4890906 384.074082,39.8611685 C384.603719,40.0177024 385.159971,39.7152423 385.316505,39.1856051 C385.473039,38.6559678 385.170578,38.0997163 384.640941,37.9431824 C383.345751,37.5603899 382.038742,37.2140413 380.721156,36.9046695 C380.183493,36.7784254 379.645291,37.1119458 379.519047,37.6496082 C379.392802,38.1872706 379.726323,38.7254732 380.263985,38.8517173 Z M393.318604,43.324855 C394.514205,43.8725068 395.693807,44.4538045 396.856108,45.0679608 C397.344415,45.3259811 397.949433,45.1392966 398.207453,44.6509893 C398.465473,44.1626821 398.278789,43.5576641 397.790482,43.2996438 C396.594858,42.6678797 395.381416,42.0699059 394.151496,41.5065341 C393.64938,41.2765373 393.055886,41.4971331 392.825889,41.9992485 C392.595893,42.501364 392.816488,43.0948582 393.318604,43.324855 Z M405.210426,50.2649441 C406.275794,51.0363969 407.319369,51.8376937 408.339872,52.6677837 C408.768316,53.0162859 409.398156,52.95148 409.746658,52.5230355 C410.09516,52.0945911 410.030354,51.4647514 409.60191,51.1162491 C408.552384,50.2625516 407.479119,49.438457 406.383425,48.6450451 C405.936103,48.3211303 405.310891,48.4211722 404.986976,48.868495 C404.663061,49.3158177 404.763103,49.9410293 405.210426,50.2649441 Z M415.56516,59.4430233 C416.458894,60.4078571 417.325441,61.3975486 418.163679,62.4108564 C418.515708,62.836408 419.146062,62.89601 419.571613,62.5439812 C419.997165,62.1919524 420.056767,61.5615989 419.704738,61.1360473 C418.842682,60.0939466 417.951518,59.0761414 417.032401,58.0839051 C416.657091,57.6787375 416.024389,57.6545333 415.619222,58.0298434 C415.214054,58.4051536 415.18985,59.0378557 415.56516,59.4430233 Z M423.868663,70.3796004 C424.557353,71.4993172 425.214404,72.6382625 425.838938,73.7951269 C426.101299,74.2811156 426.707956,74.4624015 427.193945,74.2000402 C427.679934,73.937679 427.86122,73.3310215 427.598858,72.8450328 C426.956449,71.6550567 426.280605,70.4835338 425.572228,69.3318099 C425.282889,68.8613833 424.666977,68.7145831 424.19655,69.0039224 C423.726124,69.2932618 423.579324,69.9091738 423.868663,70.3796004 Z M429.905435,82.802937 C430.359584,84.0357337 430.778948,85.2819143 431.162925,86.5402334 C431.324117,87.0684715 431.883011,87.366021 432.411249,87.2048289 C432.939487,87.0436367 433.237037,86.484743 433.075844,85.9565049 C432.680808,84.661944 432.249366,83.3798732 431.782141,82.1115793 C431.591228,81.5933413 431.016347,81.3279921 430.498109,81.5189052 C429.979871,81.7098184 429.714522,82.284699 429.905435,82.802937 Z M433.36989,96.1857526 C433.570969,97.4825297 433.735847,98.7871626 433.864163,100.098576 C433.917945,100.648236 434.407131,101.050225 434.956791,100.996443 C435.506451,100.942661 435.908439,100.453475 435.854657,99.9038147 C435.722684,98.5550257 435.553099,97.2131457 435.346271,95.8792938 C435.261645,95.3335311 434.750614,94.9597063 434.204851,95.0443325 C433.659088,95.1289588 433.285263,95.6399899 433.36989,96.1857526 Z M434.136993,109.997547 C434.081539,111.314155 433.989555,112.625361 433.861346,113.930152 C433.807338,114.47979 434.209126,114.969141 434.758764,115.023149 C435.308401,115.077156 435.797753,114.675369 435.85176,114.125731 C435.98361,112.783893 436.0782,111.435534 436.135222,110.08171 C436.158463,109.529915 435.729985,109.063756 435.178189,109.040514 C434.626394,109.017273 434.160235,109.445751 434.136993,109.997547 Z M432.207789,123.650877 C431.896025,124.928696 431.548399,126.195981 431.165438,127.451531 C431.004311,127.979789 431.30193,128.538646 431.830188,128.699772 C432.358446,128.860899 432.917303,128.56328 433.078429,128.035022 C433.47242,126.743314 433.830056,125.439535 434.150794,124.124933 C434.281701,123.588387 433.952866,123.047309 433.41632,122.916402 C432.879774,122.785495 432.338696,123.11433 432.207789,123.650877 Z M427.609797,136.691032 C427.051351,137.881594 426.459404,139.055891 425.834755,140.212619 C425.572333,140.698575 425.753542,141.305255 426.239498,141.567677 C426.725454,141.8301 427.332134,141.64889 427.594556,141.162935 C428.237106,139.973057 428.846028,138.765086 429.420499,137.540362 C429.655035,137.040351 429.439824,136.444883 428.939813,136.210347 C428.439802,135.975811 427.844333,136.191021 427.609797,136.691032 Z M420.562534,148.520038 C419.781505,149.578474 418.970835,150.614858 418.131586,151.627912 C417.779253,152.053212 417.838404,152.683607 418.263704,153.035941 C418.689003,153.388274 419.319399,153.329123 419.671732,152.903823 C420.534844,151.861965 421.368572,150.796103 422.171826,149.707548 C422.499748,149.263154 422.405329,148.637069 421.960935,148.309147 C421.516541,147.981225 420.890456,148.075644 420.562534,148.520038 Z M411.292909,158.791189 C410.320617,159.675805 409.323737,160.533035 408.303517,161.361768 C407.874841,161.709984 407.809615,162.339781 408.157832,162.768457 C408.506049,163.197134 409.135845,163.262359 409.564522,162.914142 C410.613737,162.061857 411.638939,161.180272 412.638849,160.270529 C413.047357,159.898858 413.07722,159.266397 412.705549,158.857889 C412.333878,158.449381 411.701418,158.419518 411.292909,158.791189 Z M400.285153,166.994577 C399.15892,167.673454 398.013709,168.320493 396.85083,168.934827 C396.362501,169.192806 396.175765,169.797808 396.433743,170.286137 C396.691722,170.774467 397.296724,170.961203 397.785053,170.703224 C398.981229,170.071299 400.159211,169.405745 401.31765,168.707455 C401.790649,168.422339 401.942957,167.807765 401.657841,167.334767 C401.372724,166.861769 400.758151,166.709461 400.285153,166.994577 Z M387.805921,172.920171 C386.569064,173.36314 385.319085,173.771217 384.057222,174.143812 C383.527545,174.300212 383.224944,174.856387 383.381344,175.386064 C383.537744,175.915741 384.093919,176.218341 384.623595,176.061942 C385.921803,175.678615 387.207784,175.258784 388.48026,174.803059 C389.000205,174.616846 389.270748,174.044391 389.084534,173.524446 C388.898321,173.004501 388.325866,172.733958 387.805921,172.920171 Z M374.389224,176.263913 C373.090904,176.453223 371.784966,176.60632 370.472476,176.722852 C369.922355,176.771696 369.51599,177.257253 369.564833,177.807373 C369.613677,178.357494 370.099234,178.763859 370.649354,178.715016 C371.999208,178.595166 373.342392,178.437703 374.677796,178.242985 C375.224301,178.163299 375.602733,177.655669 375.523046,177.109164 C375.443359,176.562658 374.93573,176.184227 374.389224,176.263913 Z M360.525586,177 L356.525586,177 C355.973302,177 355.525586,177.447715 355.525586,178 C355.525586,178.552285 355.973302,179 356.525586,179 L360.525586,179 C361.077871,179 361.525586,178.552285 361.525586,178 C361.525586,177.447715 361.077871,177 360.525586,177 Z M346.525586,177 L342.525586,177 C341.973302,177 341.525586,177.447715 341.525586,178 C341.525586,178.552285 341.973302,179 342.525586,179 L346.525586,179 C347.077871,179 347.525586,178.552285 347.525586,178 C347.525586,177.447715 347.077871,177 346.525586,177 Z M332.525586,177 L328.525586,177 C327.973302,177 327.525586,177.447715 327.525586,178 C327.525586,178.552285 327.973302,179 328.525586,179 L332.525586,179 C333.077871,179 333.525586,178.552285 333.525586,178 C333.525586,177.447715 333.077871,177 332.525586,177 Z M318.525586,177 L314.525586,177 C313.973302,177 313.525586,177.447715 313.525586,178 C313.525586,178.552285 313.973302,179 314.525586,179 L318.525586,179 C319.077871,179 319.525586,178.552285 319.525586,178 C319.525586,177.447715 319.077871,177 318.525586,177 Z M304.525586,177 L300.525586,177 C299.973302,177 299.525586,177.447715 299.525586,178 C299.525586,178.552285 299.973302,179 300.525586,179 L304.525586,179 C305.077871,179 305.525586,178.552285 305.525586,178 C305.525586,177.447715 305.077871,177 304.525586,177 Z M290.525586,177 L286.525586,177 C285.973302,177 285.525586,177.447715 285.525586,178 C285.525586,178.552285 285.973302,179 286.525586,179 L290.525586,179 C291.077871,179 291.525586,178.552285 291.525586,178 C291.525586,177.447715 291.077871,177 290.525586,177 Z M276.525586,177 L272.525586,177 C271.973302,177 271.525586,177.447715 271.525586,178 C271.525586,178.552285 271.973302,179 272.525586,179 L276.525586,179 C277.077871,179 277.525586,178.552285 277.525586,178 C277.525586,177.447715 277.077871,177 276.525586,177 Z M262.525586,177 L258.525586,177 C257.973302,177 257.525586,177.447715 257.525586,178 C257.525586,178.552285 257.973302,179 258.525586,179 L262.525586,179 C263.077871,179 263.525586,178.552285 263.525586,178 C263.525586,177.447715 263.077871,177 262.525586,177 Z M248.525586,177 L244.525586,177 C243.973302,177 243.525586,177.447715 243.525586,178 C243.525586,178.552285 243.973302,179 244.525586,179 L248.525586,179 C249.077871,179 249.525586,178.552285 249.525586,178 C249.525586,177.447715 249.077871,177 248.525586,177 Z M234.525586,177 L230.525586,177 C229.973302,177 229.525586,177.447715 229.525586,178 C229.525586,178.552285 229.973302,179 230.525586,179 L234.525586,179 C235.077871,179 235.525586,178.552285 235.525586,178 C235.525586,177.447715 235.077871,177 234.525586,177 Z M220.525586,177 L216.525586,177 C215.973302,177 215.525586,177.447715 215.525586,178 C215.525586,178.552285 215.973302,179 216.525586,179 L220.525586,179 C221.077871,179 221.525586,178.552285 221.525586,178 C221.525586,177.447715 221.077871,177 220.525586,177 Z M206.525586,177 L202.525586,177 C201.973302,177 201.525586,177.447715 201.525586,178 C201.525586,178.552285 201.973302,179 202.525586,179 L206.525586,179 C207.077871,179 207.525586,178.552285 207.525586,178 C207.525586,177.447715 207.077871,177 206.525586,177 Z M192.525586,177 L188.525586,177 C187.973302,177 187.525586,177.447715 187.525586,178 C187.525586,178.552285 187.973302,179 188.525586,179 L192.525586,179 C193.077871,179 193.525586,178.552285 193.525586,178 C193.525586,177.447715 193.077871,177 192.525586,177 Z M178.525586,177 L174.525586,177 C173.973302,177 173.525586,177.447715 173.525586,178 C173.525586,178.552285 173.973302,179 174.525586,179 L178.525586,179 C179.077871,179 179.525586,178.552285 179.525586,178 C179.525586,177.447715 179.077871,177 178.525586,177 Z M164.525586,177 L160.525586,177 C159.973302,177 159.525586,177.447715 159.525586,178 C159.525586,178.552285 159.973302,179 160.525586,179 L164.525586,179 C165.077871,179 165.525586,178.552285 165.525586,178 C165.525586,177.447715 165.077871,177 164.525586,177 Z M150.525586,177 L146.525586,177 C145.973302,177 145.525586,177.447715 145.525586,178 C145.525586,178.552285 145.973302,179 146.525586,179 L150.525586,179 C151.077871,179 151.525586,178.552285 151.525586,178 C151.525586,177.447715 151.077871,177 150.525586,177 Z M136.525586,177 L132.525586,177 C131.973302,177 131.525586,177.447715 131.525586,178 C131.525586,178.552285 131.973302,179 132.525586,179 L136.525586,179 C137.077871,179 137.525586,178.552285 137.525586,178 C137.525586,177.447715 137.077871,177 136.525586,177 Z M122.525586,177 L118.525586,177 C117.973302,177 117.525586,177.447715 117.525586,178 C117.525586,178.552285 117.973302,179 118.525586,179 L122.525586,179 C123.077871,179 123.525586,178.552285 123.525586,178 C123.525586,177.447715 123.077871,177 122.525586,177 Z M123.474414,179 L127.474414,179 C128.026698,179 128.474414,178.552285 128.474414,178 C128.474414,177.447715 128.026698,177 127.474414,177 L123.474414,177 C122.922129,177 122.474414,177.447715 122.474414,178 C122.474414,178.552285 122.922129,179 123.474414,179 Z M137.474414,179 L141.474414,179 C142.026698,179 142.474414,178.552285 142.474414,178 C142.474414,177.447715 142.026698,177 141.474414,177 L137.474414,177 C136.922129,177 136.474414,177.447715 136.474414,178 C136.474414,178.552285 136.922129,179 137.474414,179 Z M151.474414,179 L155.474414,179 C156.026698,179 156.474414,178.552285 156.474414,178 C156.474414,177.447715 156.026698,177 155.474414,177 L151.474414,177 C150.922129,177 150.474414,177.447715 150.474414,178 C150.474414,178.552285 150.922129,179 151.474414,179 Z M165.474414,179 L169.474414,179 C170.026698,179 170.474414,178.552285 170.474414,178 C170.474414,177.447715 170.026698,177 169.474414,177 L165.474414,177 C164.922129,177 164.474414,177.447715 164.474414,178 C164.474414,178.552285 164.922129,179 165.474414,179 Z M179.474414,179 L183.474414,179 C184.026698,179 184.474414,178.552285 184.474414,178 C184.474414,177.447715 184.026698,177 183.474414,177 L179.474414,177 C178.922129,177 178.474414,177.447715 178.474414,178 C178.474414,178.552285 178.922129,179 179.474414,179 Z M193.474414,179 L197.474414,179 C198.026698,179 198.474414,178.552285 198.474414,178 C198.474414,177.447715 198.026698,177 197.474414,177 L193.474414,177 C192.922129,177 192.474414,177.447715 192.474414,178 C192.474414,178.552285 192.922129,179 193.474414,179 Z M207.474414,179 L209.952907,179 C210.493728,179 211.031641,178.974932 211.565472,178.925105 C212.115367,178.873778 212.519536,178.386391 212.468209,177.836497 C212.416882,177.286602 211.929496,176.882433 211.379601,176.93376 C210.907537,176.977822 210.431648,177 209.952907,177 L207.474414,177 C206.922129,177 206.474414,177.447715 206.474414,178 C206.474414,178.552285 206.922129,179 207.474414,179 Z M221.225301,174.774479 C222.295465,173.840197 223.246931,172.776449 224.056059,171.608907 C224.370644,171.154974 224.257679,170.531968 223.803746,170.217383 C223.349813,169.902799 222.726807,170.015764 222.412222,170.469697 C221.697101,171.501589 220.855999,172.44195 219.909976,173.267853 C219.493933,173.63107 219.451109,174.262785 219.814326,174.678828 C220.177543,175.094872 220.809258,175.137696 221.225301,174.774479 Z M227.097102,161.516112 C227.069259,160.087357 226.864144,158.676839 226.489305,157.311813 C226.34306,156.779243 225.792772,156.466065 225.260202,156.61231 C224.727632,156.758555 224.414453,157.308843 224.560698,157.841413 C224.891728,159.046902 225.07288,160.29263 225.097482,161.55508 C225.108242,162.10726 225.564596,162.546167 226.116776,162.535406 C226.668956,162.524646 227.107863,162.068292 227.097102,161.516112 Z M220.692573,148.483679 C219.587778,147.595841 218.374562,146.846657 217.076435,146.254361 C216.57398,146.025106 215.980813,146.246578 215.751558,146.749032 C215.522303,147.251487 215.743775,147.844655 216.246229,148.07391 C217.392775,148.597044 218.464088,149.2586 219.439743,150.042658 C219.870243,150.388617 220.499688,150.320084 220.845648,149.889583 C221.191607,149.459083 221.123074,148.829638 220.692573,148.483679 Z" id="Rectangle" fill="#24231F" fill-rule="nonzero"></path>
        <path d="M218.879699,182 L222.879699,182 C223.431984,182 223.879699,181.552285 223.879699,181 C223.879699,180.447715 223.431984,180 222.879699,180 L218.879699,180 C218.327414,180 217.879699,180.447715 217.879699,181 C217.879699,181.552285 218.327414,182 218.879699,182 Z M232.879699,182 L236.879699,182 C237.431984,182 237.879699,181.552285 237.879699,181 C237.879699,180.447715 237.431984,180 236.879699,180 L232.879699,180 C232.327414,180 231.879699,180.447715 231.879699,181 C231.879699,181.552285 232.327414,182 232.879699,182 Z M246.879699,182 L250.879699,182 C251.431984,182 251.879699,181.552285 251.879699,181 C251.879699,180.447715 251.431984,180 250.879699,180 L246.879699,180 C246.327414,180 245.879699,180.447715 245.879699,181 C245.879699,181.552285 246.327414,182 246.879699,182 Z M260.879699,182 L264.879699,182 C265.431984,182 265.879699,181.552285 265.879699,181 C265.879699,180.447715 265.431984,180 264.879699,180 L260.879699,180 C260.327414,180 259.879699,180.447715 259.879699,181 C259.879699,181.552285 260.327414,182 260.879699,182 Z M274.879699,182 L278.879699,182 C279.431984,182 279.879699,181.552285 279.879699,181 C279.879699,180.447715 279.431984,180 278.879699,180 L274.879699,180 C274.327414,180 273.879699,180.447715 273.879699,181 C273.879699,181.552285 274.327414,182 274.879699,182 Z M288.879699,182 L292.879699,182 C293.431984,182 293.879699,181.552285 293.879699,181 C293.879699,180.447715 293.431984,180 292.879699,180 L288.879699,180 C288.327414,180 287.879699,180.447715 287.879699,181 C287.879699,181.552285 288.327414,182 288.879699,182 Z M302.879699,182 L306.879699,182 C307.431984,182 307.879699,181.552285 307.879699,181 C307.879699,180.447715 307.431984,180 306.879699,180 L302.879699,180 C302.327414,180 301.879699,180.447715 301.879699,181 C301.879699,181.552285 302.327414,182 302.879699,182 Z M316.879699,182 L320.879699,182 C321.431984,182 321.879699,181.552285 321.879699,181 C321.879699,180.447715 321.431984,180 320.879699,180 L316.879699,180 C316.327414,180 315.879699,180.447715 315.879699,181 C315.879699,181.552285 316.327414,182 316.879699,182 Z M330.879699,182 L334.875096,182.0009 C335.427374,182.003551 335.877233,181.557989 335.879907,181.005711 C335.882534,180.453432 335.436973,180.003574 334.884694,180.000923 L330.879699,180 C330.327414,180 329.879699,180.447715 329.879699,181 C329.879699,181.552285 330.327414,182 330.879699,182 Z M344.726423,182.677482 C346.032615,182.851955 347.331782,183.059844 348.622995,183.300814 C349.165906,183.402134 349.688158,183.044154 349.789478,182.501242 C349.890798,181.958331 349.532818,181.436078 348.989907,181.334758 C347.66482,181.087466 346.331602,180.874129 344.991219,180.695089 C344.443796,180.621967 343.940746,181.006464 343.867624,181.553887 C343.794503,182.10131 344.179,182.604361 344.726423,182.677482 Z M358.197291,185.740865 C359.448904,186.14823 360.688927,186.587837 361.916309,187.059159 C362.431887,187.257145 363.010344,186.999685 363.208329,186.484108 C363.406314,185.96853 363.148855,185.390073 362.633277,185.192088 C361.373565,184.70835 360.10087,184.257161 358.816276,183.839061 C358.291107,183.668133 357.72681,183.955302 357.555882,184.48047 C357.384954,185.005639 357.672122,185.569937 358.197291,185.740865 Z M370.877982,191.186023 C372.035104,191.812695 373.175775,192.469161 374.298894,193.154686 C374.770303,193.442423 375.385712,193.293527 375.673448,192.822118 C375.961185,192.35071 375.812289,191.735301 375.340881,191.447564 C374.188381,190.744107 373.017855,190.070458 371.830428,189.427374 C371.344791,189.164363 370.737891,189.344838 370.474881,189.830475 C370.21187,190.316113 370.392345,190.923012 370.877982,191.186023 Z M382.401141,198.84976 C383.427317,199.674883 384.4322,200.526296 385.414736,201.403071 C385.826808,201.770787 386.458951,201.73483 386.826667,201.322758 C387.194383,200.910686 387.158426,200.278543 386.746354,199.910827 C385.738277,199.01126 384.707266,198.137709 383.6544,197.291125 C383.223995,196.945047 382.594531,197.013408 382.248453,197.443813 C381.902375,197.874218 381.970736,198.503682 382.401141,198.84976 Z M392.380785,208.477437 C393.241969,209.473016 394.077457,210.49053 394.886336,211.528921 C395.225731,211.964616 395.854065,212.042682 396.289759,211.703288 C396.725454,211.363893 396.803521,210.73556 396.464126,210.299865 C395.6342,209.234456 394.776981,208.190475 393.893403,207.169009 C393.532091,206.751311 392.900578,206.705601 392.48288,207.066914 C392.065182,207.428226 392.019472,208.059739 392.380785,208.477437 Z M400.39817,219.621329 C401.068255,220.754625 401.708996,221.905113 402.319673,223.071691 C402.575809,223.560989 403.180103,223.750004 403.669401,223.493868 C404.158699,223.237732 404.347714,222.633438 404.091578,222.14414 C403.464898,220.94699 402.807375,219.76637 402.11975,218.603409 C401.838659,218.128008 401.225401,217.970488 400.75,218.251579 C400.274598,218.53267 400.117079,219.145928 400.39817,219.621329 Z M406.32934,232.117804 C406.782917,233.352345 407.204591,234.599151 407.593854,235.857175 C407.757108,236.384779 408.317159,236.680144 408.844764,236.51689 C409.372369,236.353636 409.667734,235.793585 409.50448,235.26598 C409.104958,233.974803 408.672172,232.69514 408.206644,231.428072 C408.01618,230.909669 407.44153,230.643822 406.923126,230.834286 C406.404723,231.02475 406.138876,231.599401 406.32934,232.117804 Z M409.89982,245.498516 C410.121574,246.793863 410.310156,248.096809 410.465246,249.406435 C410.530196,249.954887 411.027456,250.346844 411.575908,250.281894 C412.124361,250.216945 412.516317,249.719684 412.451368,249.171232 C412.292224,247.827377 412.098707,246.490329 411.871142,245.16104 C411.77795,244.616674 411.261108,244.250926 410.716743,244.344117 C410.172377,244.437308 409.806629,244.95415 409.89982,245.498516 Z M410.995826,259.307661 C410.982184,260.626846 410.935122,261.941789 410.854866,263.251671 C410.821091,263.802922 411.240589,264.277179 411.79184,264.310954 C412.343091,264.344729 412.817348,263.925232 412.851123,263.373981 C412.933451,262.030264 412.981726,260.681433 412.995719,259.328342 C413.00143,258.776086 412.558368,258.323765 412.006113,258.318 C411.453857,258.312344 411.001537,258.755405 410.995826,259.307661 Z M409.614964,273.066981 C409.365481,274.361165 409.082768,275.646916 408.767213,276.923255 C408.63466,277.459397 408.961834,278.001481 409.497976,278.134034 C410.034118,278.266586 410.576202,277.939412 410.708755,277.40327 C411.032615,276.093337 411.322766,274.773762 411.578807,273.445554 C411.683347,272.903254 411.328473,272.378886 410.786172,272.274346 C410.243872,272.169805 409.719504,272.52468 409.614964,273.066981 Z M405.775363,286.34338 C405.296148,287.569177 404.785335,288.78185 404.243516,289.980321 C404.016003,290.483567 404.239528,291.075964 404.742774,291.303477 C405.246019,291.53099 405.838416,291.307465 406.06593,290.804219 C406.621997,289.574231 407.146249,288.329653 407.638078,287.071593 C407.839168,286.557219 407.585202,285.97722 407.070827,285.776129 C406.556453,285.575039 405.976454,285.829005 405.775363,286.34338 Z M399.610902,298.680425 C398.918454,299.800097 398.197203,300.901751 397.447952,301.984291 C397.133642,302.438414 397.246984,303.061352 397.701107,303.375662 C398.15523,303.689971 398.778168,303.57663 399.092478,303.122506 C399.86128,302.011719 400.60136,300.881304 401.311896,299.732384 C401.602387,299.262667 401.457095,298.646398 400.987378,298.355907 C400.517662,298.065417 399.901392,298.210708 399.610902,298.680425 Z M391.297821,309.747967 C390.415588,310.725114 389.50838,311.679517 388.577174,312.610158 C388.186532,313.000564 388.18634,313.633729 388.576746,314.024372 C388.967152,314.415015 389.600317,314.415206 389.990959,314.0248 C390.946357,313.069981 391.877135,312.090783 392.782292,311.088245 C393.1524,310.67832 393.120121,310.045978 392.710196,309.675871 C392.30027,309.305763 391.667928,309.338042 391.297821,309.747967 Z M381.177182,319.114133 C380.134509,319.918271 379.071348,320.69546 377.988782,321.444843 C377.534681,321.759185 377.421384,322.382131 377.735726,322.836232 C378.050068,323.290333 378.673014,323.40363 379.127114,323.089288 C380.237899,322.320371 381.32876,321.522932 382.398588,320.697853 C382.83592,320.360571 382.917027,319.732622 382.579745,319.29529 C382.242463,318.857958 381.614514,318.776851 381.177182,319.114133 Z M369.535314,326.523945 C368.365796,327.127533 367.180656,327.70084 365.980989,328.243214 C365.477745,328.470732 365.254226,329.063131 365.481744,329.566375 C365.709262,330.069618 366.301661,330.293138 366.804904,330.06562 C368.036089,329.508997 369.252348,328.920636 370.452559,328.301207 C370.943337,328.047917 371.135858,327.444731 370.882568,326.953954 C370.629278,326.463176 370.026092,326.270655 369.535314,326.523945 Z M356.711476,331.725921 C355.453086,332.107115 354.183956,332.455856 352.905101,332.771699 C352.368926,332.904119 352.041619,333.446123 352.17404,333.982298 C352.30646,334.518472 352.848464,334.845779 353.384639,334.713359 C354.69718,334.389197 355.99975,334.031267 357.291302,333.640027 C357.819867,333.479913 358.118556,332.921627 357.958442,332.393061 C357.798328,331.864495 357.240042,331.565806 356.711476,331.725921 Z M343.146627,334.516844 C341.841173,334.663676 340.529492,334.777237 339.212452,334.857259 C338.661184,334.890753 338.241445,335.364797 338.27494,335.916065 C338.308434,336.467333 338.782478,336.887072 339.333746,336.853578 C340.68495,336.77148 342.030725,336.654967 343.370169,336.504312 C343.918993,336.442583 344.313861,335.947631 344.252132,335.398807 C344.190402,334.849983 343.695451,334.455115 343.146627,334.516844 Z M329.236258,335 L325.236258,335 C324.683973,335 324.236258,335.447715 324.236258,336 C324.236258,336.552285 324.683973,337 325.236258,337 L329.236258,337 C329.788542,337 330.236258,336.552285 330.236258,336 C330.236258,335.447715 329.788542,335 329.236258,335 Z M315.236258,335 L311.236258,335 C310.683973,335 310.236258,335.447715 310.236258,336 C310.236258,336.552285 310.683973,337 311.236258,337 L315.236258,337 C315.788542,337 316.236258,336.552285 316.236258,336 C316.236258,335.447715 315.788542,335 315.236258,335 Z M301.236258,335 L297.236258,335 C296.683973,335 296.236258,335.447715 296.236258,336 C296.236258,336.552285 296.683973,337 297.236258,337 L301.236258,337 C301.788542,337 302.236258,336.552285 302.236258,336 C302.236258,335.447715 301.788542,335 301.236258,335 Z M287.236258,335 L283.236258,335 C282.683973,335 282.236258,335.447715 282.236258,336 C282.236258,336.552285 282.683973,337 283.236258,337 L287.236258,337 C287.788542,337 288.236258,336.552285 288.236258,336 C288.236258,335.447715 287.788542,335 287.236258,335 Z M273.236258,335 L269.236258,335 C268.683973,335 268.236258,335.447715 268.236258,336 C268.236258,336.552285 268.683973,337 269.236258,337 L273.236258,337 C273.788542,337 274.236258,336.552285 274.236258,336 C274.236258,335.447715 273.788542,335 273.236258,335 Z M259.236258,335 L255.236258,335 C254.683973,335 254.236258,335.447715 254.236258,336 C254.236258,336.552285 254.683973,337 255.236258,337 L259.236258,337 C259.788542,337 260.236258,336.552285 260.236258,336 C260.236258,335.447715 259.788542,335 259.236258,335 Z M245.236258,335 L241.236258,335 C240.683973,335 240.236258,335.447715 240.236258,336 C240.236258,336.552285 240.683973,337 241.236258,337 L245.236258,337 C245.788542,337 246.236258,336.552285 246.236258,336 C246.236258,335.447715 245.788542,335 245.236258,335 Z M231.236258,335 L227.236258,335 C226.683973,335 226.236258,335.447715 226.236258,336 C226.236258,336.552285 226.683973,337 227.236258,337 L231.236258,337 C231.788542,337 232.236258,336.552285 232.236258,336 C232.236258,335.447715 231.788542,335 231.236258,335 Z M217.236258,335 L213.236258,335 C212.683973,335 212.236258,335.447715 212.236258,336 C212.236258,336.552285 212.683973,337 213.236258,337 L217.236258,337 C217.788542,337 218.236258,336.552285 218.236258,336 C218.236258,335.447715 217.788542,335 217.236258,335 Z M203.236258,335 L199.236258,335 C198.683973,335 198.236258,335.447715 198.236258,336 C198.236258,336.552285 198.683973,337 199.236258,337 L203.236258,337 C203.788542,337 204.236258,336.552285 204.236258,336 C204.236258,335.447715 203.788542,335 203.236258,335 Z M189.236258,335 L185.236258,335 C184.683973,335 184.236258,335.447715 184.236258,336 C184.236258,336.552285 184.683973,337 185.236258,337 L189.236258,337 C189.788542,337 190.236258,336.552285 190.236258,336 C190.236258,335.447715 189.788542,335 189.236258,335 Z M175.236258,335 L171.236258,335 C170.683973,335 170.236258,335.447715 170.236258,336 C170.236258,336.552285 170.683973,337 171.236258,337 L175.236258,337 C175.788542,337 176.236258,336.552285 176.236258,336 C176.236258,335.447715 175.788542,335 175.236258,335 Z M161.236258,335 L157.236258,335 C156.683973,335 156.236258,335.447715 156.236258,336 C156.236258,336.552285 156.683973,337 157.236258,337 L161.236258,337 C161.788542,337 162.236258,336.552285 162.236258,336 C162.236258,335.447715 161.788542,335 161.236258,335 Z M147.236258,335 L143.236258,335 C142.683973,335 142.236258,335.447715 142.236258,336 C142.236258,336.552285 142.683973,337 143.236258,337 L147.236258,337 C147.788542,337 148.236258,336.552285 148.236258,336 C148.236258,335.447715 147.788542,335 147.236258,335 Z M133.236258,335 L129.236258,335 C128.683973,335 128.236258,335.447715 128.236258,336 C128.236258,336.552285 128.683973,337 129.236258,337 L133.236258,337 C133.788542,337 134.236258,336.552285 134.236258,336 C134.236258,335.447715 133.788542,335 133.236258,335 Z M119.236258,335 L115.236258,335 C114.683973,335 114.236258,335.447715 114.236258,336 C114.236258,336.552285 114.683973,337 115.236258,337 L119.236258,337 C119.788542,337 120.236258,336.552285 120.236258,336 C120.236258,335.447715 119.788542,335 119.236258,335 Z M105.236258,335 L101.236258,335 C100.683973,335 100.236258,335.447715 100.236258,336 C100.236258,336.552285 100.683973,337 101.236258,337 L105.236258,337 C105.788542,337 106.236258,336.552285 106.236258,336 C106.236258,335.447715 105.788542,335 105.236258,335 Z M91.2362577,335 L87.2362577,335 C86.683973,335 86.2362577,335.447715 86.2362577,336 C86.2362577,336.552285 86.683973,337 87.2362577,337 L91.2362577,337 C91.7885425,337 92.2362577,336.552285 92.2362577,336 C92.2362577,335.447715 91.7885425,335 91.2362577,335 Z M77.2362577,335 L73.2362577,335 C72.683973,335 72.2362577,335.447715 72.2362577,336 C72.2362577,336.552285 72.683973,337 73.2362577,337 L77.2362577,337 C77.7885425,337 78.2362577,336.552285 78.2362577,336 C78.2362577,335.447715 77.7885425,335 77.2362577,335 Z M63.2362577,335 L59.2362577,335 C58.683973,335 58.2362577,335.447715 58.2362577,336 C58.2362577,336.552285 58.683973,337 59.2362577,337 L63.2362577,337 C63.7885425,337 64.2362577,336.552285 64.2362577,336 C64.2362577,335.447715 63.7885425,335 63.2362577,335 Z M49.2362577,335 L45.2362577,335 C44.683973,335 44.2362577,335.447715 44.2362577,336 C44.2362577,336.552285 44.683973,337 45.2362577,337 L49.2362577,337 C49.7885425,337 50.2362577,336.552285 50.2362577,336 C50.2362577,335.447715 49.7885425,335 49.2362577,335 Z M35.2362577,335 L35,335 L35,337 L38.7637423,337 C39.316027,337 39.7637423,336.552285 39.7637423,336 C39.7637423,335.447715 39.316027,335 38.7637423,335 L35,335 C33.6666667,335 33.6666667,337 35,337 L35.2362577,337 C35.7885425,337 36.2362577,336.552285 36.2362577,336 C36.2362577,335.447715 35.7885425,335 35.2362577,335 Z M48.7637423,337 L52.7637423,337 C53.316027,337 53.7637423,336.552285 53.7637423,336 C53.7637423,335.447715 53.316027,335 52.7637423,335 L48.7637423,335 C48.2114575,335 47.7637423,335.447715 47.7637423,336 C47.7637423,336.552285 48.2114575,337 48.7637423,337 Z M62.7637423,337 L66.7637423,337 C67.316027,337 67.7637423,336.552285 67.7637423,336 C67.7637423,335.447715 67.316027,335 66.7637423,335 L62.7637423,335 C62.2114575,335 61.7637423,335.447715 61.7637423,336 C61.7637423,336.552285 62.2114575,337 62.7637423,337 Z M76.7637423,337 L80.7637423,337 C81.316027,337 81.7637423,336.552285 81.7637423,336 C81.7637423,335.447715 81.316027,335 80.7637423,335 L76.7637423,335 C76.2114575,335 75.7637423,335.447715 75.7637423,336 C75.7637423,336.552285 76.2114575,337 76.7637423,337 Z M90.7637423,337 L94.7637423,337 C95.316027,337 95.7637423,336.552285 95.7637423,336 C95.7637423,335.447715 95.316027,335 94.7637423,335 L90.7637423,335 C90.2114575,335 89.7637423,335.447715 89.7637423,336 C89.7637423,336.552285 90.2114575,337 90.7637423,337 Z M104.763742,337 L108.763742,337 C109.316027,337 109.763742,336.552285 109.763742,336 C109.763742,335.447715 109.316027,335 108.763742,335 L104.763742,335 C104.211458,335 103.763742,335.447715 103.763742,336 C103.763742,336.552285 104.211458,337 104.763742,337 Z M118.763742,337 L122.763742,337 C123.316027,337 123.763742,336.552285 123.763742,336 C123.763742,335.447715 123.316027,335 122.763742,335 L118.763742,335 C118.211458,335 117.763742,335.447715 117.763742,336 C117.763742,336.552285 118.211458,337 118.763742,337 Z M132.763742,337 L136.763742,337 C137.316027,337 137.763742,336.552285 137.763742,336 C137.763742,335.447715 137.316027,335 136.763742,335 L132.763742,335 C132.211458,335 131.763742,335.447715 131.763742,336 C131.763742,336.552285 132.211458,337 132.763742,337 Z M146.763742,337 L150.763742,337 C151.316027,337 151.763742,336.552285 151.763742,336 C151.763742,335.447715 151.316027,335 150.763742,335 L146.763742,335 C146.211458,335 145.763742,335.447715 145.763742,336 C145.763742,336.552285 146.211458,337 146.763742,337 Z M160.763742,337 L164.763742,337 C165.316027,337 165.763742,336.552285 165.763742,336 C165.763742,335.447715 165.316027,335 164.763742,335 L160.763742,335 C160.211458,335 159.763742,335.447715 159.763742,336 C159.763742,336.552285 160.211458,337 160.763742,337 Z M174.763742,337 L178.763742,337 C179.316027,337 179.763742,336.552285 179.763742,336 C179.763742,335.447715 179.316027,335 178.763742,335 L174.763742,335 C174.211458,335 173.763742,335.447715 173.763742,336 C173.763742,336.552285 174.211458,337 174.763742,337 Z M188.763742,337 L192.763742,337 C193.316027,337 193.763742,336.552285 193.763742,336 C193.763742,335.447715 193.316027,335 192.763742,335 L188.763742,335 C188.211458,335 187.763742,335.447715 187.763742,336 C187.763742,336.552285 188.211458,337 188.763742,337 Z M202.763742,337 L206.763742,337 C207.316027,337 207.763742,336.552285 207.763742,336 C207.763742,335.447715 207.316027,335 206.763742,335 L202.763742,335 C202.211458,335 201.763742,335.447715 201.763742,336 C201.763742,336.552285 202.211458,337 202.763742,337 Z M216.763742,337 L220.763742,337 C221.316027,337 221.763742,336.552285 221.763742,336 C221.763742,335.447715 221.316027,335 220.763742,335 L216.763742,335 C216.211458,335 215.763742,335.447715 215.763742,336 C215.763742,336.552285 216.211458,337 216.763742,337 Z M230.763742,337 L234.763742,337 C235.316027,337 235.763742,336.552285 235.763742,336 C235.763742,335.447715 235.316027,335 234.763742,335 L230.763742,335 C230.211458,335 229.763742,335.447715 229.763742,336 C229.763742,336.552285 230.211458,337 230.763742,337 Z M244.763742,337 L248.763742,337 C249.316027,337 249.763742,336.552285 249.763742,336 C249.763742,335.447715 249.316027,335 248.763742,335 L244.763742,335 C244.211458,335 243.763742,335.447715 243.763742,336 C243.763742,336.552285 244.211458,337 244.763742,337 Z M258.763742,337 L262.763742,337 C263.316027,337 263.763742,336.552285 263.763742,336 C263.763742,335.447715 263.316027,335 262.763742,335 L258.763742,335 C258.211458,335 257.763742,335.447715 257.763742,336 C257.763742,336.552285 258.211458,337 258.763742,337 Z M272.763742,337 L276.763742,337 C277.316027,337 277.763742,336.552285 277.763742,336 C277.763742,335.447715 277.316027,335 276.763742,335 L272.763742,335 C272.211458,335 271.763742,335.447715 271.763742,336 C271.763742,336.552285 272.211458,337 272.763742,337 Z M286.763742,337 L290.763742,337 C291.316027,337 291.763742,336.552285 291.763742,336 C291.763742,335.447715 291.316027,335 290.763742,335 L286.763742,335 C286.211458,335 285.763742,335.447715 285.763742,336 C285.763742,336.552285 286.211458,337 286.763742,337 Z M300.763742,337 L303.410824,337 C303.963109,337 304.410824,336.552285 304.410824,336 C304.410824,335.447715 303.963109,335 303.410824,335 L300.763742,335 C300.211458,335 299.763742,335.447715 299.763742,336 C299.763742,336.552285 300.211458,337 300.763742,337 Z" id="Rectangle-Copy-9" fill="#24231F" fill-rule="nonzero" transform="translate(223.497887, 258.500000) scale(-1, 1) translate(-223.497887, -258.500000) "></path>
        <rect id="Rectangle" fill="#FFFFFF" x="89" y="98" width="300" height="220" rx="1"></rect>
        <path d="M388,96 L90,96 C88.3431458,96 87,97.3431458 87,99 L87,317 C87,318.656854 88.3431458,320 90,320 L388,320 C389.656854,320 391,318.656854 391,317 L391,99 C391,97.3431458 389.656854,96 388,96 Z M387,100 L387,316 L91,316 L91,100 L387,100 Z" id="Rectangle" fill="#24231F" fill-rule="nonzero"></path>
        <rect id="Rectangle-Copy-17" fill="#F0EFF0" x="105" y="143" width="190" height="72"></rect>
        <rect id="Rectangle-Copy-28" fill="#F0EFF0" x="303" y="143" width="72" height="108"></rect>
        <rect id="Rectangle-Copy-22" fill="#F0EFF0" x="105" y="223" width="190" height="10"></rect>
        <rect id="Rectangle-Copy-23" fill="#F0EFF0" x="105" y="241" width="190" height="10"></rect>
        <rect id="Rectangle-Copy-25" fill="#F0EFF0" x="105" y="259" width="190" height="10"></rect>
        <rect id="Rectangle-Copy-26" fill="#F0EFF0" x="105" y="277" width="190" height="10"></rect>
        <rect id="Rectangle-Copy-27" fill="#F0EFF0" x="105" y="295" width="190" height="10"></rect>
        <rect id="Rectangle-Copy-29" fill="#F0EFF0" x="303" y="259" width="72" height="10"></rect>
        <rect id="Rectangle-Copy-30" fill="#F0EFF0" x="303" y="277" width="72" height="10"></rect>
        <rect id="Rectangle-Copy-31" fill="#F0EFF0" x="303" y="295" width="72" height="10"></rect>
        <rect id="Rectangle-Copy" fill="#EABDBF" x="89" y="98" width="300" height="30" rx="1"></rect>
        <path d="M388,96 L90,96 C88.3431458,96 87,97.3431458 87,99 L87,127 C87,128.656854 88.3431458,130 90,130 L388,130 C389.656854,130 391,128.656854 391,127 L391,99 C391,97.3431458 389.656854,96 388,96 Z M387,100 L387,126 L91,126 L91,100 L387,100 Z" id="Rectangle-Copy" fill="#24231F" fill-rule="nonzero"></path>
        <circle id="Oval" fill="#24231F" cx="334" cy="113" r="7"></circle>
        <circle id="Oval-Copy" fill="#24231F" cx="354" cy="113" r="7"></circle>
        <circle id="Oval-Copy-2" fill="#24231F" cx="374" cy="113" r="7"></circle>
        <polygon id="Path-23" fill="#FFFFFF" points="352.204346 328.270508 339 341.474854 339 287 380.389404 324.925781 361.434326 324.925781 371.328369 344.290039 362.406982 348.383301"></polygon>
        <path d="M337,341.474854 L337.005513,341.629732 C337.125949,343.307292 339.191341,344.11194 340.414214,342.889067 L351.668,331.634 L360.623346,349.288088 C361.10922,350.245907 362.26485,350.648977 363.241015,350.201099 L372.162401,346.107837 L372.299633,346.038489 C373.233619,345.521126 373.603466,344.347101 373.109359,343.380054 L364.702,326.925 L380.389404,326.925781 C382.213608,326.925781 383.085527,324.683619 381.740573,323.451216 L340.351168,285.525434 C339.068275,284.349898 337,285.259971 337,287 L337,341.474854 Z M341,291.545 L375.246,322.925 L361.434326,322.925781 L361.286688,322.930978 C359.877329,323.030788 358.996064,324.549377 359.653336,325.835767 L368.598,343.342 L363.32,345.763 L353.987982,327.365721 L353.912612,327.230002 C353.248928,326.134579 351.714973,325.931454 350.790132,326.856294 L341,336.645 L341,291.545 Z" id="Path-23" fill="#24231F" fill-rule="nonzero"></path>
        <g id="對話" transform="translate(52.000000, 230.000000)">
            <path d="M2.88,-5.1159077e-15 L63.36,-5.1159077e-15 C64.9505801,-1.61402502e-15 66.24,1.28941992 66.24,2.88 L66.24,40.32 C66.24,41.9105801 64.9505801,43.2 63.36,43.2 L24.7134375,43.2 L24.7134375,43.2 L11.6142187,56.1965625 L11.6142187,43.2 L2.88,43.2 C1.28941992,43.2 6.3887909e-16,41.9105801 0,40.32 L0,2.88 C-6.3887909e-16,1.28941992 1.28941992,-4.37963367e-15 2.88,-5.1159077e-15 Z" id="Rectangle" fill="#FFFFFF"></path>
            <path d="M63.36,-1 L2.88,-1 C0.737135171,-1 -1,0.737135171 -1,2.88 L-1,40.32 L-0.994951368,40.5196643 C-0.891032831,42.5697394 0.804099697,44.2 2.88,44.2 L10.614,44.2 L10.6142187,56.1965625 L10.6201806,56.3099618 C10.7067071,57.1224146 11.7148847,57.5053685 12.3185384,56.9064454 L25.124,44.2 L63.36,44.2 C65.5028648,44.2 67.24,42.4628648 67.24,40.32 L67.24,2.88 C67.24,0.737135171 65.5028648,-1 63.36,-1 Z M2.88,1 L63.36,1 C64.3982953,1 65.24,1.84170467 65.24,2.88 L65.24,40.32 C65.24,41.3582953 64.3982953,42.2 63.36,42.2 L24.7134375,42.2 L24.5826571,42.2085848 C24.3670262,42.2370254 24.1652054,42.3352527 24.0091178,42.4901171 L12.614,53.795 L12.6142187,43.2 C12.6142188,42.6477153 12.1665035,42.2 11.6142187,42.2 L2.88,42.2 C1.84170467,42.2 1,41.3582953 1,40.32 L1,2.88 C1,1.84170467 1.84170467,1 2.88,1 Z" id="Rectangle" fill="#24231F" fill-rule="nonzero"></path>
            <circle id="Oval" fill="#24231F" cx="21" cy="22" r="3"></circle>
            <circle id="Oval-Copy-7" fill="#24231F" cx="33" cy="22" r="3"></circle>
            <circle id="Oval-Copy-8" fill="#24231F" cx="45" cy="22" r="3"></circle>
        </g>
        <g id="對話-copy" transform="translate(272.500000, 92.500000) scale(-1, 1) translate(-272.500000, -92.500000) translate(239.000000, 64.000000)">
            <path d="M2.88,-5.1159077e-15 L63.36,-5.1159077e-15 C64.9505801,-1.61402502e-15 66.24,1.28941992 66.24,2.88 L66.24,40.32 C66.24,41.9105801 64.9505801,43.2 63.36,43.2 L24.7134375,43.2 L24.7134375,43.2 L11.6142187,56.1965625 L11.6142187,43.2 L2.88,43.2 C1.28941992,43.2 6.3887909e-16,41.9105801 0,40.32 L0,2.88 C-6.3887909e-16,1.28941992 1.28941992,-4.37963367e-15 2.88,-5.1159077e-15 Z" id="Rectangle" fill="#FFFFFF"></path>
            <path d="M63.36,-1 L2.88,-1 C0.737135171,-1 -1,0.737135171 -1,2.88 L-1,40.32 L-0.994951368,40.5196643 C-0.891032831,42.5697394 0.804099697,44.2 2.88,44.2 L10.614,44.2 L10.6142188,56.1965625 L10.6201806,56.3099618 C10.7067071,57.1224146 11.7148847,57.5053685 12.3185384,56.9064454 L25.124,44.2 L63.36,44.2 C65.5028648,44.2 67.24,42.4628648 67.24,40.32 L67.24,2.88 C67.24,0.737135171 65.5028648,-1 63.36,-1 Z M2.88,1 L63.36,1 C64.3982953,1 65.24,1.84170467 65.24,2.88 L65.24,40.32 C65.24,41.3582953 64.3982953,42.2 63.36,42.2 L24.7134375,42.2 L24.5826571,42.2085848 C24.3670262,42.2370254 24.1652054,42.3352527 24.0091178,42.4901171 L12.614,53.795 L12.6142188,43.2 C12.6142188,42.6477153 12.1665035,42.2 11.6142188,42.2 L2.88,42.2 C1.84170467,42.2 1,41.3582953 1,40.32 L1,2.88 C1,1.84170467 1.84170467,1 2.88,1 Z" id="Rectangle" fill="#24231F" fill-rule="nonzero"></path>
            <circle id="Oval" fill="#24231F" cx="21" cy="22" r="3"></circle>
            <circle id="Oval-Copy-7" fill="#24231F" cx="33" cy="22" r="3"></circle>
            <circle id="Oval-Copy-8" fill="#24231F" cx="45" cy="22" r="3"></circle>
        </g>
        <rect id="Rectangle-Copy-24" fill="#EABDBF" x="381" y="40" width="72" height="48"></rect>
        <rect id="Rectangle-Copy-21" fill="#EABDBF" x="89" y="333" width="76" height="24"></rect>
        <path d="M434.6,31 C435.704569,31 436.6,31.8885952 436.6,32.9847328 L436.6,43.152 L448.929771,43.1526718 C450.025909,43.1526718 450.914504,44.0481023 450.914504,45.1526718 L450.914504,81.1526718 C450.914504,82.2572413 450.025909,83.1526718 448.929771,83.1526718 L430.670229,83.1526718 C429.574091,83.1526718 428.685496,82.2572413 428.685496,81.1526718 L428.684,70.694 L415.8,70.694 L415.8,79.824 L422.212214,79.8244275 C423.089124,79.8244275 423.8,80.5353036 423.8,81.4122137 C423.8,82.2891239 423.089124,83 422.212214,83 L385.387786,83 C384.510876,83 383.8,82.2891239 383.8,81.4122137 C383.8,80.5353036 384.510876,79.8244275 385.387786,79.8244275 L391.799,79.824 L391.799,70.694 L373,70.6946565 C371.895431,70.6946565 371,69.8060613 371,68.7099237 L371,32.9847328 C371,31.8885952 371.895431,31 373,31 L434.6,31 Z M436.6,50.053 L443.812214,50.0534351 C444.689124,50.0534351 445.4,50.7643112 445.4,51.6412214 C445.4,52.5181315 444.689124,53.2290076 443.812214,53.2290076 L436.6,53.229 L436.6,55.213 L443.812214,55.2137405 C444.689124,55.2137405 445.4,55.9246166 445.4,56.8015267 C445.4,57.6784369 444.689124,58.389313 443.812214,58.389313 L436.6,58.389 L436.600136,67.7033652 C437.504844,67.0602132 438.608642,66.6824427 439.8,66.6824427 C442.869185,66.6824427 445.357252,69.1896481 445.357252,72.2824427 C445.357252,75.3752373 442.869185,77.8824427 439.8,77.8824427 C436.730815,77.8824427 434.242748,75.3752373 434.242748,72.2824427 C434.242748,71.7307075 434.321929,71.1976083 434.469465,70.6940546 L431.861,70.694 L431.861,79.9526718 L447.738931,79.9526718 L447.738931,46.3526718 L436.6,46.352 L436.6,50.053 Z M412.6,70.6946565 L395,70.6946565 L395,79.8244275 L412.6,79.8244275 L412.6,70.6946565 Z M439.8,69.8824427 C438.484635,69.8824427 437.418321,70.9569593 437.418321,72.2824427 C437.418321,73.6079261 438.484635,74.6824427 439.8,74.6824427 C441.115365,74.6824427 442.181679,73.6079261 442.181679,72.2824427 C442.181679,70.9569593 441.115365,69.8824427 439.8,69.8824427 Z M433.4,34.1755725 L374.2,34.1755725 L374.2,67.519084 L433.4,67.519084 L433.4,43.304 L430.599,43.303 L430.6,62.7557252 C430.6,63.8518629 429.704569,64.740458 428.6,64.740458 L379,64.740458 C377.895431,64.740458 377,63.8518629 377,62.7557252 L377,38.9389313 C377,37.8427936 377.895431,36.9541985 379,36.9541985 L428.6,36.9541985 C429.704569,36.9541985 430.6,37.8427936 430.6,38.9389313 L430.598998,43.1539358 L433.4,43.152 L433.4,34.1755725 Z M427.4,40.129771 L380.2,40.129771 L380.2,61.5648855 L427.4,61.5648855 L427.4,40.129771 Z" id="Shape" fill="#24231F" fill-rule="nonzero"></path>
        <path d="M156.8,325 C158.567311,325 160,326.432689 160,328.2 L160,349.8 C160,351.567311 158.567311,353 156.8,353 L83.2,353 C81.4326888,353 80,351.567311 80,349.8 L80,328.2 C80,326.432689 81.4326888,325 83.2,325 L156.8,325 Z M156.8,328.2 L83.2,328.2 L83.2,349.8 L156.8,349.8 L156.8,328.2 Z M98.4,340.2 L98.4,346.6 L86.4,346.6 L86.4,340.2 L98.4,340.2 Z M140.8,342.6 L140.8,346.6 L136.8,346.6 L136.8,342.6 L140.8,342.6 Z M122.8,342.6 L122.8,346.6 L118.8,346.6 L118.8,342.6 L122.8,342.6 Z M146.8,342.6 L146.8,346.6 L142.8,346.6 L142.8,342.6 L146.8,342.6 Z M128.8,342.6 L128.8,346.6 L124.8,346.6 L124.8,342.6 L128.8,342.6 Z M110.8,342.6 L110.8,346.6 L106.8,346.6 L106.8,342.6 L110.8,342.6 Z M152.8,342.6 L152.8,346.6 L148.8,346.6 L148.8,342.6 L152.8,342.6 Z M134.8,342.6 L134.8,346.6 L130.8,346.6 L130.8,342.6 L134.8,342.6 Z M116.8,342.6 L116.8,346.6 L112.8,346.6 L112.8,342.6 L116.8,342.6 Z M98.4,331.4 L98.4,337.8 L86.4,337.8 L86.4,331.4 L98.4,331.4 Z M152.8,333 L152.8,336.2 L140.8,336.2 L140.8,333 L152.8,333 Z M138.8,333 L138.8,336.2 L126.8,336.2 L126.8,333 L138.8,333 Z M124.8,333 L124.8,336.2 L112.8,336.2 L112.8,333 L124.8,333 Z" id="Combined-Shape" fill="#24231F" fill-rule="nonzero"></path>
        <g id="Group" transform="translate(161.000000, 156.000000)">
            <path d="M86.4252215,13.1779105 L146.162655,106.613383 C149.137601,111.266504 147.777172,117.450275 143.12405,120.425221 C141.515636,121.453552 139.64648,122 137.737433,122 L18.2625668,122 C12.7397193,122 8.26256679,117.522847 8.26256679,112 C8.26256679,110.090953 8.80901502,108.221797 9.83734531,106.613383 L69.5747785,13.1779105 C72.5497249,8.52478919 78.7334957,7.16435963 83.386617,10.1393061 C84.6077155,10.9200083 85.6445192,11.9568121 86.4252215,13.1779105 Z" id="Triangle" fill="#D40B26"></path>
            <path d="M82.2399915,28.7839864 L128.218753,102.350005 C129.682305,104.691688 128.970439,107.77644 126.628756,109.239992 C125.834098,109.736653 124.91586,110 123.978762,110 L32.0212382,110 C29.2598145,110 27.0212382,107.761424 27.0212382,105 C27.0212382,104.062901 27.2845854,103.144663 27.7812467,102.350005 L73.7600085,28.7839864 C75.2235601,26.4423038 78.308312,25.730438 80.6499947,27.1939896 C81.2938404,27.5963931 81.837588,28.1401408 82.2399915,28.7839864 Z" id="Triangle" fill="#FFFFFF"></path>
            <path d="M67.8897342,12.1005871 C71.4596699,6.51684152 78.8801948,4.88432605 84.4639404,8.45426176 C85.8165418,9.31903968 86.9807045,10.4456775 87.8886551,11.7664018 L88.1102658,12.1005871 L147.847699,105.53606 C151.417635,111.119805 149.785119,118.54033 144.201374,122.110266 C142.384812,123.271674 140.291087,123.920853 138.141151,123.993209 L137.737433,124 L18.2625668,124 C11.6351498,124 6.26256679,118.627417 6.26256679,112 C6.26256679,109.8439 6.84342803,107.730203 7.9405554,105.879859 L8.15230101,105.53606 L67.8897342,12.1005871 Z M82.0845047,11.6857082 C78.4669127,9.53474578 73.7916087,10.5620337 71.4087731,14.0305322 L71.2598228,14.2552339 L11.5223896,107.690706 C10.6997254,108.977438 10.2625668,110.472763 10.2625668,112 C10.2625668,116.334914 13.7104046,119.864543 18.0133875,119.996193 L18.2625668,120 L137.737433,120 C139.26467,120 140.759996,119.562841 142.046727,118.740177 C145.694774,116.407819 146.81298,111.610057 144.616253,107.915495 L144.47761,107.690706 L84.7401772,14.2552339 C84.1780715,13.3760431 83.4500122,12.6162751 82.5978767,12.0178079 L82.3092936,11.8243504 L82.0845047,11.6857082 Z M72.0640119,27.7239886 C74.1129842,24.4456328 78.4316369,23.4490207 81.7099926,25.497993 C82.5212382,26.0050215 83.2189725,26.6723341 83.7610999,27.4578352 L83.9359881,27.7239886 L129.91475,101.290007 C131.963722,104.568363 130.96711,108.887016 127.688754,110.935988 C126.661812,111.577827 125.48745,111.941346 124.280981,111.993474 L123.978762,112 L32.0212382,112 C28.155245,112 25.0212382,108.865993 25.0212382,105 C25.0212382,103.78898 25.335385,102.600459 25.9306078,101.549748 L26.0852501,101.290007 L72.0640119,27.7239886 Z M79.432122,28.7977709 C78.1045375,28.0749525 76.4408379,28.4572365 75.5617265,29.685999 L75.4560051,29.8439843 L29.4772433,103.410003 C29.1792465,103.886798 29.0212382,104.437741 29.0212382,105 C29.0212382,106.597681 30.2701582,107.903661 31.8449654,107.994907 L32.0212382,108 L123.978762,108 C124.541021,108 125.091964,107.841992 125.568759,107.543995 C126.921731,106.698387 127.367908,104.950779 126.614972,103.567878 L126.522757,103.410003 L80.5439949,29.8439843 C80.3427931,29.5220615 80.082698,29.2418462 79.778031,29.0176599 L79.5899968,28.8899862 L79.432122,28.7977709 Z" id="Shape" fill="#24231F" fill-rule="nonzero"></path>
            <path d="M81.36,81.8 L82.92,61.52 L83.28,52.04 L72.54,52.04 L72.9,61.52 L74.46,81.8 L81.36,81.8 Z M77.88,98.84 C81.6,98.84 84.24,95.9 84.24,92.18 C84.24,88.52 81.6,85.58 77.88,85.58 C74.22,85.58 71.58,88.52 71.58,92.18 C71.58,95.9 74.22,98.84 77.88,98.84 Z" id="!" fill="#24231F" fill-rule="nonzero"></path>
        </g>
        <path d="M282.998958,55 C283.551243,55 283.998958,55.4477153 283.998958,56 C283.998958,56.5128358 283.612918,56.9355072 283.115579,56.9932723 L282.998958,57 L133,57 C132.447715,57 132,56.5522847 132,56 C132,55.4871642 132.38604,55.0644928 132.883379,55.0067277 L133,55 L282.998958,55 Z" id="Line-3-Copy-49" fill="#24231F" fill-rule="nonzero"></path>
        <path d="M89.0010629,151 C89.5533477,151 90.0010629,151.447715 90.0010629,152 C90.0010629,152.512836 89.6150227,152.935507 89.117684,152.993272 L89.0010629,153 L20,153 C19.4477153,153 19,152.552285 19,152 C19,151.487164 19.3860402,151.064493 19.8833789,151.006728 L20,151 L89.0010629,151 Z" id="Line-3-Copy-50" fill="#24231F" fill-rule="nonzero"></path>
        <path d="M89.0010629,162 C89.5533477,162 90.0010629,162.447715 90.0010629,163 C90.0010629,163.512836 89.6150227,163.935507 89.117684,163.993272 L89.0010629,164 L41,164 C40.4477153,164 40,163.552285 40,163 C40,162.487164 40.3860402,162.064493 40.8833789,162.006728 L41,162 L89.0010629,162 Z" id="Line-3-Copy-51" fill="#24231F" fill-rule="nonzero"></path>
        <path d="M420,277 C420.552285,277 421,277.447715 421,278 C421,278.512836 420.61396,278.935507 420.116621,278.993272 L420,279 L389.001052,279 C388.448768,279 388.001052,278.552285 388.001052,278 C388.001052,277.487164 388.387093,277.064493 388.884431,277.006728 L389.001052,277 L420,277 Z" id="Line-3-Copy-53" fill="#24231F" fill-rule="nonzero"></path>
        <path d="M346.998942,350 C347.551227,350 347.998942,350.447715 347.998942,351 C347.998942,351.512836 347.612902,351.935507 347.115563,351.993272 L346.998942,352 L284.999995,352 C284.44771,352 283.999995,351.552285 283.999995,351 C283.999995,350.487164 284.386035,350.064493 284.883374,350.006728 L284.999995,350 L346.998942,350 Z" id="Line-3-Copy-54" fill="#24231F" fill-rule="nonzero"></path>
        <path d="M451,263 C451.552285,263 452,263.447715 452,264 C452,264.512836 451.61396,264.935507 451.116621,264.993272 L451,265 L389.001052,265 C388.448768,265 388.001052,264.552285 388.001052,264 C388.001052,263.487164 388.387093,263.064493 388.884431,263.006728 L389.001052,263 L451,263 Z" id="Line-3-Copy-52" fill="#24231F" fill-rule="nonzero"></path>
        <path d="M180.998942,69 C181.551227,69 181.998942,69.4477153 181.998942,70 C181.998942,70.5128358 181.612902,70.9355072 181.115563,70.9932723 L180.998942,71 L109,71 C108.447715,71 108,70.5522847 108,70 C108,69.4871642 108.38604,69.0644928 108.883379,69.0067277 L109,69 L180.998942,69 Z" id="Line-3-Copy-55" fill="#24231F" fill-rule="nonzero"></path>
        <circle id="Oval" fill="#EABDBF" cx="70" cy="101" r="5"></circle>
        <circle id="Oval-Copy-3" fill="#EABDBF" cx="37" cy="70" r="5"></circle>
        <circle id="Oval-Copy-4" fill="#EABDBF" cx="339" cy="62" r="5"></circle>
        <circle id="Oval-Copy-5" fill="#EABDBF" cx="213" cy="79" r="5"></circle>
        <circle id="Oval-Copy-6" fill="#EABDBF" cx="412" cy="121" r="5"></circle>
        <circle id="Oval-Copy-9" fill="#EABDBF" cx="456" cy="173" r="5"></circle>
        <circle id="Oval-Copy-10" fill="#EABDBF" cx="405" cy="217" r="5"></circle>
        <circle id="Oval-Copy-11" fill="#EABDBF" cx="435" cy="300" r="5"></circle>
        <circle id="Oval-Copy-12" fill="#EABDBF" cx="216" cy="359" r="5"></circle>
        <circle id="Oval-Copy-13" fill="#EABDBF" cx="40" cy="323" r="5"></circle>
        <path d="M78.1994177,63.2639925 C78.5600649,62.9120025 79.1447897,62.9120025 79.505437,63.2639925 L79.505437,63.2639925 L84.7295145,68.3626658 C85.0901618,68.7146558 85.0901618,69.2853442 84.7295145,69.6373342 L84.7295145,69.6373342 L79.505437,74.7360075 C79.1447897,75.0879975 78.5600649,75.0879975 78.1994177,74.7360075 C77.8387704,74.3840176 77.8387704,73.8133291 78.1994177,73.4613392 L78.1994177,73.4613392 L82.7704855,69 L78.1994177,64.5386608 C77.8387704,64.1866709 77.8387704,63.6159824 78.1994177,63.2639925 Z M69.7349516,63.2639925 C70.0955989,62.9120025 70.6803236,62.9120025 71.0409709,63.2639925 L71.0409709,63.2639925 L76.2650484,68.3626658 C76.6256957,68.7146558 76.6256957,69.2853442 76.2650484,69.6373342 L76.2650484,69.6373342 L71.0409709,74.7360075 C70.6803236,75.0879975 70.0955989,75.0879975 69.7349516,74.7360075 C69.3743043,74.3840176 69.3743043,73.8133291 69.7349516,73.4613392 L69.7349516,73.4613392 L74.3060194,69 L69.7349516,64.5386608 C69.3743043,64.1866709 69.3743043,63.6159824 69.7349516,63.2639925 Z M61.2704855,63.2639925 C61.6311328,62.9120025 62.2158576,62.9120025 62.5765048,63.2639925 L62.5765048,63.2639925 L67.8005823,68.3626658 C68.1612296,68.7146558 68.1612296,69.2853442 67.8005823,69.6373342 L67.8005823,69.6373342 L62.5765048,74.7360075 C62.2158576,75.0879975 61.6311328,75.0879975 61.2704855,74.7360075 C60.9098382,74.3840176 60.9098382,73.8133291 61.2704855,73.4613392 L61.2704855,73.4613392 L65.8415533,69 L61.2704855,64.5386608 C60.9098382,64.1866709 60.9098382,63.6159824 61.2704855,63.2639925 Z" id="Combined-Shape-Copy-4" fill="#24231F"></path>
        <path d="M441.199418,230.263992 C441.560065,229.912003 442.14479,229.912003 442.505437,230.263992 L442.505437,230.263992 L447.729515,235.362666 C448.090162,235.714656 448.090162,236.285344 447.729515,236.637334 L447.729515,236.637334 L442.505437,241.736008 C442.14479,242.087997 441.560065,242.087997 441.199418,241.736008 C440.83877,241.384018 440.83877,240.813329 441.199418,240.461339 L441.199418,240.461339 L445.770485,236 L441.199418,231.538661 C440.83877,231.186671 440.83877,230.615982 441.199418,230.263992 Z M432.734952,230.263992 C433.095599,229.912003 433.680324,229.912003 434.040971,230.263992 L434.040971,230.263992 L439.265048,235.362666 C439.625696,235.714656 439.625696,236.285344 439.265048,236.637334 L439.265048,236.637334 L434.040971,241.736008 C433.680324,242.087997 433.095599,242.087997 432.734952,241.736008 C432.374304,241.384018 432.374304,240.813329 432.734952,240.461339 L432.734952,240.461339 L437.306019,236 L432.734952,231.538661 C432.374304,231.186671 432.374304,230.615982 432.734952,230.263992 Z M424.270485,230.263992 C424.631133,229.912003 425.215858,229.912003 425.576505,230.263992 L425.576505,230.263992 L430.800582,235.362666 C431.16123,235.714656 431.16123,236.285344 430.800582,236.637334 L430.800582,236.637334 L425.576505,241.736008 C425.215858,242.087997 424.631133,242.087997 424.270485,241.736008 C423.909838,241.384018 423.909838,240.813329 424.270485,240.461339 L424.270485,240.461339 L428.841553,236 L424.270485,231.538661 C423.909838,231.186671 423.909838,230.615982 424.270485,230.263992 Z" id="Combined-Shape-Copy-5" fill="#24231F"></path>
        <path d="M193.199418,353.263992 C193.560065,352.912003 194.14479,352.912003 194.505437,353.263992 L194.505437,353.263992 L199.729515,358.362666 C200.090162,358.714656 200.090162,359.285344 199.729515,359.637334 L199.729515,359.637334 L194.505437,364.736008 C194.14479,365.087997 193.560065,365.087997 193.199418,364.736008 C192.83877,364.384018 192.83877,363.813329 193.199418,363.461339 L193.199418,363.461339 L197.770485,359 L193.199418,354.538661 C192.83877,354.186671 192.83877,353.615982 193.199418,353.263992 Z M184.734952,353.263992 C185.095599,352.912003 185.680324,352.912003 186.040971,353.263992 L186.040971,353.263992 L191.265048,358.362666 C191.625696,358.714656 191.625696,359.285344 191.265048,359.637334 L191.265048,359.637334 L186.040971,364.736008 C185.680324,365.087997 185.095599,365.087997 184.734952,364.736008 C184.374304,364.384018 184.374304,363.813329 184.734952,363.461339 L184.734952,363.461339 L189.306019,359 L184.734952,354.538661 C184.374304,354.186671 184.374304,353.615982 184.734952,353.263992 Z M176.270485,353.263992 C176.631133,352.912003 177.215858,352.912003 177.576505,353.263992 L177.576505,353.263992 L182.800582,358.362666 C183.16123,358.714656 183.16123,359.285344 182.800582,359.637334 L182.800582,359.637334 L177.576505,364.736008 C177.215858,365.087997 176.631133,365.087997 176.270485,364.736008 C175.909838,364.384018 175.909838,363.813329 176.270485,363.461339 L176.270485,363.461339 L180.841553,359 L176.270485,354.538661 C175.909838,354.186671 175.909838,353.615982 176.270485,353.263992 Z" id="Combined-Shape-Copy-6" fill="#24231F"></path>
        <g id="專家" transform="translate(312.000000, 160.000000)">
            <circle id="Oval" stroke="#24231F" stroke-width="4" fill="#FFFFFF" cx="52" cy="52" r="50"></circle>
            <circle id="Oval-Copy-14" fill="#EABDBF" cx="61" cy="55" r="36"></circle>
            <circle id="Oval" stroke="#24231F" stroke-width="4" cx="52" cy="52" r="41"></circle>
            <path d="M51.5,42 C56.7896454,42 61.2727138,45.4184843 62.8176492,50.1454277 L65.65321,50.5414658 C66.3776934,50.6426985 66.9274726,51.2179877 66.993365,51.9186447 L67,52.0603443 L67,56.4378248 C67,57.1536477 66.495501,57.7673489 65.7956857,57.9302393 L65.65321,57.9567033 L64.176,58.162 L64.1764706,59.7725608 C64.1764706,60.0961021 63.9205089,60.3611686 63.595847,60.3845971 L63.5490196,60.3862804 L61.3398177,60.386985 C60.263566,61.9528634 58.8158502,63.2484417 57.1221138,64.1495439 C61.3782739,65.9769094 64.548771,69.8156185 65.4096099,74.4542758 L72.7272727,74.4545455 C73.4301806,74.4545455 74,75.0243649 74,75.7272727 C74,76.4301806 73.4301806,77 72.7272727,77 L30.2727273,77 C29.5698194,77 29,76.4301806 29,75.7272727 C29,75.0243649 29.5698194,74.4545455 30.2727273,74.4545455 L37.5904189,74.4541249 C38.4513643,69.8152051 41.6222572,65.9763671 45.8789888,64.1493549 C42.1454744,62.1642837 39.6071429,58.2619408 39.6071429,53.7727273 C39.6071429,47.2708295 44.9317564,42 51.5,42 Z M51.5,65.5454545 C45.993061,65.5454545 41.3846104,69.3534833 40.2153068,74.4545455 L62.7846932,74.4545455 C61.6153896,69.3534833 57.006939,65.5454545 51.5,65.5454545 Z M51.5,44.5454545 C46.3519172,44.5454545 42.1785714,48.6766453 42.1785714,53.7727273 C42.1785714,58.8688093 46.3519172,63 51.5,63 C54.0273941,63 56.319856,62.0042963 57.9989054,60.3875463 L55.8547847,60.3873401 C55.6424042,60.753638 55.2460569,61 54.7921687,61 L52.2274392,61 C51.5495432,61 51,60.4504568 51,59.7725608 C51,59.0946649 51.5495432,58.5451217 52.2274392,58.5451217 L54.7921687,58.5451217 C55.2460569,58.5451217 55.6424042,58.7914836 55.8547847,59.1577816 L59.0702412,59.1577686 C59.4945211,58.5743377 59.8516706,57.9398729 60.1304929,57.2654578 L60.1138047,57.1808528 L60.1019856,57.0726351 L60.1019856,57.0726351 L60.0980392,56.9638702 L60.0980392,51.534299 C60.0980392,51.2518423 60.1760724,50.9872124 60.3122028,50.7599089 L60.2963695,50.7119891 C59.0210287,47.1202964 55.5642759,44.5454545 51.5,44.5454545 Z M62.921,58.338 L62.4360569,58.4068166 C62.3254631,58.6622288 62.2060051,58.912987 62.0780659,59.1587122 L62.9215686,59.1588412 L62.921,58.338 Z M63.3928571,53.7727273 C63.3928571,54.4703316 63.331562,55.1537643 63.2140122,55.8180358 L64.4901961,55.6391594 L64.4901961,52.8587029 L63.343986,52.6982228 C63.3763316,53.0521045 63.3928571,53.4105055 63.3928571,53.7727273 Z M73.4925373,27 C74.8773707,27 76,28.1192378 76,29.4998876 L76,39.4341332 C76,40.814783 74.8773707,41.9340208 73.4925373,41.9340208 L65.0751516,41.9340208 L62.2316056,46 L59.9720732,41.9340208 L57.5074627,41.9340208 C56.1226293,41.9340208 55,40.814783 55,39.4341332 L55,29.4998876 C55,28.1192378 56.1226293,27 57.5074627,27 L73.4925373,27 Z M73.4925373,29.4998876 L57.5074627,29.4998876 L57.5074627,39.4341332 L61.4494321,39.4341332 L62.4754539,41.280437 L63.766668,39.4341332 L73.4925373,39.4341332 L73.4925373,29.4998876 Z M61.2686567,33.5622049 C61.9610734,33.5622049 62.5223881,34.1218238 62.5223881,34.8121487 C62.5223881,35.5024736 61.9610734,36.0620924 61.2686567,36.0620924 C60.57624,36.0620924 60.0149254,35.5024736 60.0149254,34.8121487 C60.0149254,34.1218238 60.57624,33.5622049 61.2686567,33.5622049 Z M65.6567164,33.5622049 C66.3491331,33.5622049 66.9104478,34.1218238 66.9104478,34.8121487 C66.9104478,35.5024736 66.3491331,36.0620924 65.6567164,36.0620924 C64.9642997,36.0620924 64.4029851,35.5024736 64.4029851,34.8121487 C64.4029851,34.1218238 64.9642997,33.5622049 65.6567164,33.5622049 Z M70.0447761,33.5622049 C70.7371928,33.5622049 71.2985075,34.1218238 71.2985075,34.8121487 C71.2985075,35.5024736 70.7371928,36.0620924 70.0447761,36.0620924 C69.3523594,36.0620924 68.7910448,35.5024736 68.7910448,34.8121487 C68.7910448,34.1218238 69.3523594,33.5622049 70.0447761,33.5622049 Z" id="Combined-Shape" fill="#24231F" fill-rule="nonzero"></path>
        </g>
        <g id="專家-copy" transform="translate(52.000000, 79.000000)">
            <circle id="Oval" stroke="#24231F" stroke-width="4" fill="#FFFFFF" cx="52" cy="52" r="50"></circle>
            <circle id="Oval-Copy-14" fill="#EABDBF" cx="56" cy="60" r="36"></circle>
            <circle id="Oval" stroke="#24231F" stroke-width="4" cx="52" cy="52" r="41"></circle>
            <path d="M51.5,42 C56.7896454,42 61.2727138,45.4184843 62.8176492,50.1454277 L65.65321,50.5414658 C66.3776934,50.6426985 66.9274726,51.2179877 66.993365,51.9186447 L67,52.0603443 L67,56.4378248 C67,57.1536477 66.495501,57.7673489 65.7956857,57.9302393 L65.65321,57.9567033 L64.176,58.162 L64.1764706,59.7725608 C64.1764706,60.0961021 63.9205089,60.3611686 63.595847,60.3845971 L63.5490196,60.3862804 L61.3398177,60.386985 C60.263566,61.9528634 58.8158502,63.2484417 57.1221138,64.1495439 C61.3782739,65.9769094 64.548771,69.8156185 65.4096099,74.4542758 L72.7272727,74.4545455 C73.4301806,74.4545455 74,75.0243649 74,75.7272727 C74,76.4301806 73.4301806,77 72.7272727,77 L30.2727273,77 C29.5698194,77 29,76.4301806 29,75.7272727 C29,75.0243649 29.5698194,74.4545455 30.2727273,74.4545455 L37.5904189,74.4541249 C38.4513643,69.8152051 41.6222572,65.9763671 45.8789888,64.1493549 C42.1454744,62.1642837 39.6071429,58.2619408 39.6071429,53.7727273 C39.6071429,47.2708295 44.9317564,42 51.5,42 Z M51.5,65.5454545 C45.993061,65.5454545 41.3846104,69.3534833 40.2153068,74.4545455 L62.7846932,74.4545455 C61.6153896,69.3534833 57.006939,65.5454545 51.5,65.5454545 Z M51.5,44.5454545 C46.3519172,44.5454545 42.1785714,48.6766453 42.1785714,53.7727273 C42.1785714,58.8688093 46.3519172,63 51.5,63 C54.0273941,63 56.319856,62.0042963 57.9989054,60.3875463 L55.8547847,60.3873401 C55.6424042,60.753638 55.2460569,61 54.7921687,61 L52.2274392,61 C51.5495432,61 51,60.4504568 51,59.7725608 C51,59.0946649 51.5495432,58.5451217 52.2274392,58.5451217 L54.7921687,58.5451217 C55.2460569,58.5451217 55.6424042,58.7914836 55.8547847,59.1577816 L59.0702412,59.1577686 C59.4945211,58.5743377 59.8516706,57.9398729 60.1304929,57.2654578 L60.1138047,57.1808528 L60.1019856,57.0726351 L60.1019856,57.0726351 L60.0980392,56.9638702 L60.0980392,51.534299 C60.0980392,51.2518423 60.1760724,50.9872124 60.3122028,50.7599089 L60.2963695,50.7119891 C59.0210287,47.1202964 55.5642759,44.5454545 51.5,44.5454545 Z M62.921,58.338 L62.4360569,58.4068166 C62.3254631,58.6622288 62.2060051,58.912987 62.0780659,59.1587122 L62.9215686,59.1588412 L62.921,58.338 Z M63.3928571,53.7727273 C63.3928571,54.4703316 63.331562,55.1537643 63.2140122,55.8180358 L64.4901961,55.6391594 L64.4901961,52.8587029 L63.343986,52.6982228 C63.3763316,53.0521045 63.3928571,53.4105055 63.3928571,53.7727273 Z M73.4925373,27 C74.8773707,27 76,28.1192378 76,29.4998876 L76,39.4341332 C76,40.814783 74.8773707,41.9340208 73.4925373,41.9340208 L65.0751516,41.9340208 L62.2316056,46 L59.9720732,41.9340208 L57.5074627,41.9340208 C56.1226293,41.9340208 55,40.814783 55,39.4341332 L55,29.4998876 C55,28.1192378 56.1226293,27 57.5074627,27 L73.4925373,27 Z M73.4925373,29.4998876 L57.5074627,29.4998876 L57.5074627,39.4341332 L61.4494321,39.4341332 L62.4754539,41.280437 L63.766668,39.4341332 L73.4925373,39.4341332 L73.4925373,29.4998876 Z M61.2686567,33.5622049 C61.9610734,33.5622049 62.5223881,34.1218238 62.5223881,34.8121487 C62.5223881,35.5024736 61.9610734,36.0620924 61.2686567,36.0620924 C60.57624,36.0620924 60.0149254,35.5024736 60.0149254,34.8121487 C60.0149254,34.1218238 60.57624,33.5622049 61.2686567,33.5622049 Z M65.6567164,33.5622049 C66.3491331,33.5622049 66.9104478,34.1218238 66.9104478,34.8121487 C66.9104478,35.5024736 66.3491331,36.0620924 65.6567164,36.0620924 C64.9642997,36.0620924 64.4029851,35.5024736 64.4029851,34.8121487 C64.4029851,34.1218238 64.9642997,33.5622049 65.6567164,33.5622049 Z M70.0447761,33.5622049 C70.7371928,33.5622049 71.2985075,34.1218238 71.2985075,34.8121487 C71.2985075,35.5024736 70.7371928,36.0620924 70.0447761,36.0620924 C69.3523594,36.0620924 68.7910448,35.5024736 68.7910448,34.8121487 C68.7910448,34.1218238 69.3523594,33.5622049 70.0447761,33.5622049 Z" id="Combined-Shape" fill="#24231F" fill-rule="nonzero"></path>
        </g>
    </g>
</svg>