<?xml version="1.0" encoding="UTF-8"?>
<svg width="180px" height="180px" viewBox="0 0 180 180" version="1.1" xmlns="http://www.w3.org/2000/svg" xmlns:xlink="http://www.w3.org/1999/xlink">
    <title>img/有效打擊</title>
    <g id="img/有效打擊" stroke="none" stroke-width="1" fill="none" fill-rule="evenodd">
        <circle id="Oval" fill="#E2E3E6" cx="105" cy="62" r="38"></circle>
        <circle id="Oval-Copy" fill="#E2E3E6" cx="87" cy="95" r="61"></circle>
        <polygon id="Star" fill="#EABDBF" points="61 82.854522 52.4589715 92.8755523 50.072739 79.9265712 37.6654762 84.3345238 42.0734288 71.927261 29.1244477 69.5410285 39.145478 61 29.1244477 52.4589715 42.0734288 50.072739 37.6654762 37.6654762 50.072739 42.0734288 52.4589715 29.1244477 61 39.145478 69.5410285 29.1244477 71.927261 42.0734288 84.3345238 37.6654762 79.9265712 50.072739 92.8755523 52.4589715 82.854522 61 92.8755523 69.5410285 79.9265712 71.927261 84.3345238 84.3345238 71.927261 79.9265712 69.5410285 92.8755523"></polygon>
        <path d="M48.916,40.07 L38.1676348,36.2520277 L38.0446993,36.2138177 C36.899881,35.908326 35.8436805,37.0182417 36.2520277,38.1676348 L40.07,48.916 L28.8526056,50.9838099 L28.7226609,51.0133705 C27.5819321,51.3238306 27.2242932,52.810357 28.1514447,53.6005779 L36.833,61 L28.1514447,68.3994221 L28.0536896,68.4899948 C27.2210195,69.3292254 27.6545584,70.7954145 28.8526056,71.0161901 L40.07,73.083 L36.2520277,83.8323652 L36.2138177,83.9553007 C35.908326,85.100119 37.0182417,86.1563195 38.1676348,85.7479723 L48.916,81.929 L50.9838099,93.1473944 L51.0133705,93.2773391 C51.3238306,94.4180679 52.810357,94.7757068 53.6005779,93.8485553 L61,85.166 L68.3994221,93.8485553 L68.4899948,93.9463104 C69.3292254,94.7789805 70.7954145,94.3454416 71.0161901,93.1473944 L73.083,81.929 L83.8323652,85.7479723 L83.9553007,85.7861823 C85.100119,86.091674 86.1563195,84.9817583 85.7479723,83.8323652 L81.929,73.083 L93.1473944,71.0161901 L93.2773391,70.9866295 C94.4180679,70.6761694 94.7757068,69.189643 93.8485553,68.3994221 L85.166,61 L93.8485553,53.6005779 L93.9463104,53.5100052 C94.7789805,52.6707746 94.3454416,51.2045855 93.1473944,50.9838099 L81.929,48.916 L85.7479723,38.1676348 L85.7861823,38.0446993 C86.091674,36.899881 84.9817583,35.8436805 83.8323652,36.2520277 L73.083,40.07 L71.0161901,28.8526056 L70.9866295,28.7226609 C70.6761694,27.5819321 69.189643,27.2242932 68.3994221,28.1514447 L61,36.833 L53.6005779,28.1514447 C52.7810896,27.1899543 51.2127624,27.6101863 50.9838099,28.8526056 L48.916,40.07 Z M68.637,32.497 L70.4520993,42.3452709 L70.4828872,42.4786658 C70.7132458,43.3053805 71.6029363,43.7805037 72.4294196,43.4868773 L81.866,40.133 L78.5131227,49.5705804 L78.4730883,49.7014977 C78.2592274,50.5326329 78.7921604,51.3889469 79.6547291,51.5479007 L89.502,53.362 L81.8815189,59.8583936 L81.7709146,59.9625463 C81.181025,60.576383 81.2178931,61.5759912 81.8815189,62.1416064 L89.502,68.637 L79.6547291,70.4520993 L79.5213342,70.4828872 C78.6946195,70.7132458 78.2194963,71.6029363 78.5131227,72.4294196 L81.866,81.866 L72.4294196,78.5131227 L72.2985023,78.4730883 C71.4673671,78.2592274 70.6110531,78.7921604 70.4520993,79.6547291 L68.637,89.502 L62.1416064,81.8815189 L62.0374537,81.7709146 C61.423617,81.181025 60.4240088,81.2178931 59.8583936,81.8815189 L53.362,89.502 L51.5479007,79.6547291 L51.5171128,79.5213342 C51.2867542,78.6946195 50.3970637,78.2194963 49.5705804,78.5131227 L40.133,81.866 L43.4868773,72.4294196 L43.5269117,72.2985023 C43.7407726,71.4673671 43.2078396,70.6110531 42.3452709,70.4520993 L32.497,68.637 L40.1184811,62.1416064 L40.2290854,62.0374537 C40.818975,61.423617 40.7821069,60.4240088 40.1184811,59.8583936 L32.497,53.362 L42.3452709,51.5479007 L42.4786658,51.5171128 C43.3053805,51.2867542 43.7805037,50.3970637 43.4868773,49.5705804 L40.133,40.133 L49.5705804,43.4868773 L49.7014977,43.5269117 C50.5326329,43.7407726 51.3889469,43.2078396 51.5479007,42.3452709 L53.362,32.497 L59.8583936,40.1184811 C60.4572803,40.8211437 61.5427197,40.8211437 62.1416064,40.1184811 L68.637,32.497 Z" id="Star" fill="#24231F" fill-rule="nonzero"></path>
        <polygon id="Star" fill="#FFFFFF" points="60.5 75.4008104 54.6765715 82.2333311 53.0495948 73.4044804 44.5900974 76.4099026 47.5955196 67.9504052 38.7666689 66.3234285 45.5991896 60.5 38.7666689 54.6765715 47.5955196 53.0495948 44.5900974 44.5900974 53.0495948 47.5955196 54.6765715 38.7666689 60.5 45.5991896 66.3234285 38.7666689 67.9504052 47.5955196 76.4099026 44.5900974 73.4044804 53.0495948 82.2333311 54.6765715 75.4008104 60.5 82.2333311 66.3234285 73.4044804 67.9504052 76.4099026 76.4099026 67.9504052 73.4044804 66.3234285 82.2333311"></polygon>
        <path d="M73.3564899,142.01879 L73.3588617,142.139011 C73.4195732,143.674866 74.638402,144.905766 76.1570499,144.994837 L76.3335602,145 L114.66644,145 L114.785862,144.997641 C116.311871,144.937246 117.54879,143.724561 117.63832,142.196461 L117.64351,142.01879 L117.64351,122.086893 L117.695658,122.081861 C126.927104,121.195584 132.109659,114.511261 132.969095,102.713755 L132.998897,102.258559 L133,102.189803 L133,61.5534142 C133,56.5791933 128.969877,52.5507032 124.003251,52.5507032 C121.197854,52.5507032 118.691253,53.8360135 117.040975,55.8510649 C115.197396,53.5041292 112.379285,52 109.211152,52 C106.036341,52 103.21303,53.5104762 101.368335,55.8664793 C99.5783814,53.5157879 96.7557002,52 93.5804388,52 C90.4727795,52 87.7028472,53.4519319 85.9067481,55.7170716 C84.2589385,53.7797002 81.7954733,52.5507032 79.0466179,52.5507032 C74.1510612,52.5507032 70.160694,56.4487873 70.0674806,61.3059139 L70.0658135,61.4797855 L70.0653439,65.3385691 C67.8484716,65.5953491 65.5765973,66.2635367 63.6462239,67.3908375 C60.1880461,69.4103465 58.1141484,72.7038272 58.0045719,77.179511 L58,77.5552193 L58.0011248,100.864322 L58.0044979,100.933667 L58.0310157,101.316846 C58.880091,112.860701 63.9438014,119.465269 72.9478945,120.47957 L73.3564899,120.521244 L73.3564899,142.01879 Z" id="Path" fill="#FFFFFF" fill-rule="nonzero"></path>
        <path d="M79.3564899,147.01879 L79.3588617,147.139011 C79.4195732,148.674866 80.638402,149.905766 82.1570499,149.994837 L82.3335602,150 L120.66644,150 L120.785862,149.997641 C122.311871,149.937246 123.54879,148.724561 123.63832,147.196461 L123.64351,147.01879 L123.64351,127.086893 L123.695658,127.081861 C132.927104,126.195584 138.109659,119.511261 138.969095,107.713755 L138.998897,107.258559 L139,107.189803 L139,66.5534142 C139,61.5791933 134.969877,57.5507032 130.003251,57.5507032 C127.197854,57.5507032 124.691253,58.8360135 123.040975,60.8510649 C121.197396,58.5041292 118.379285,57 115.211152,57 C112.036341,57 109.21303,58.5104762 107.368335,60.8664793 C105.578381,58.5157879 102.7557,57 99.5804388,57 C96.4727795,57 93.7028472,58.4519319 91.9067481,60.7170716 C90.2589385,58.7797002 87.7954733,57.5507032 85.0466179,57.5507032 C80.1510612,57.5507032 76.160694,61.4487873 76.0674806,66.3059139 L76.0658135,66.4797855 L76.0653439,70.3385691 C73.8484716,70.5953491 71.5765973,71.2635367 69.6462239,72.3908375 C66.1880461,74.4103465 64.1141484,77.7038272 64.0045719,82.179511 L64,82.5552193 L64.0011248,105.864322 L64.0044979,105.933667 L64.0310157,106.316846 C64.880091,117.860701 69.9438014,124.465269 78.9478945,125.47957 L79.3564899,125.521244 L79.3564899,147.01879 Z" id="Path" fill="#D40B26" fill-rule="nonzero"></path>
        <path d="M51.9812105,120.64351 L51.8609891,120.641138 C50.2660631,120.578092 49,119.266129 49,117.66644 L49,117.66644 L49,79.3335602 L49.0023592,79.2141381 C49.0650766,77.6294362 50.3704271,76.3564899 51.9812105,76.3564899 L51.9812105,76.3564899 L71.9131073,76.3564899 L71.9181392,76.3043417 C72.8044156,67.0728961 79.4887392,61.8903406 91.2862447,61.0309048 L91.6727574,61.0044124 L91.7414414,61.0011034 L91.8101969,61 L132.446586,61 C137.420807,61 141.449297,65.0301232 141.449297,69.9967492 C141.449297,72.8021461 140.163987,75.3087469 138.148935,76.9590252 C140.495871,78.802604 142,81.6207149 142,84.7888483 C142,87.9636588 140.489524,90.78697 138.133521,92.6316646 C140.484212,94.4216186 142,97.2442998 142,100.419561 C142,103.527221 140.548068,106.297153 138.282928,108.093252 C140.2203,109.741062 141.449297,112.204527 141.449297,114.953382 C141.449297,119.848939 137.551213,123.839306 132.694086,123.932519 L132.520215,123.934186 L128.661431,123.934656 C128.404651,126.151528 127.736463,128.423403 126.609163,130.353776 C124.533556,133.908014 121.112219,136 116.444781,136 L116.444781,136 L93.2050965,136 L93.1356779,135.998875 L93.0663328,135.995502 L92.6831535,135.968984 C80.9874063,135.108737 74.3617813,129.922213 73.483297,120.694635 L73.483297,120.694635 L73.4787565,120.64351 L51.9812105,120.64351 Z M53.2679497,80.606947 L53.2679497,116.393053 L75.5168609,116.393053 L75.626675,116.395818 C76.7542029,116.452739 77.6508357,117.381229 77.6508357,118.518282 C77.6508357,126.683975 82.4937025,130.970089 93.0230477,131.73203 L93.0230477,131.73203 L93.2715796,131.749543 L116.444781,131.749543 L116.65926,131.747519 C119.638112,131.690889 121.617209,130.447415 122.919797,128.216883 C123.647087,126.971482 124.124802,125.450958 124.354809,123.934574 L101.316802,123.934186 C100.138241,123.934186 99.1828275,122.982689 99.1828275,121.808958 C99.1828275,120.671906 100.07946,119.743415 101.206988,119.686495 L101.316802,119.683729 L132.520215,119.683729 C135.088249,119.683729 137.181347,117.572005 137.181347,114.953382 C137.181347,112.334759 135.088249,110.223035 132.520215,110.223035 L132.422726,110.21951 C132.334164,110.221855 132.245311,110.223035 132.156181,110.223035 C130.977619,110.223035 130.022206,109.271538 130.022206,108.097806 C130.022206,106.960754 130.918839,106.032263 132.046367,105.975343 L132.156181,105.972578 C135.235648,105.972578 137.73205,103.486408 137.73205,100.419561 C137.73205,97.3527149 135.235648,94.8665448 132.156181,94.8665448 C132.097029,94.8665448 132.038439,94.864148 131.980505,94.8594465 C131.856271,94.8643792 131.731129,94.8665448 131.605477,94.8665448 C130.426916,94.8665448 129.471503,93.9150476 129.471503,92.7413163 C129.471503,91.6042641 130.368135,90.6757734 131.495663,90.6188531 L131.605477,90.6160878 C135.004975,90.6160878 137.73205,87.9907195 137.73205,84.7888483 C137.73205,81.586977 135.004975,78.9616088 131.605477,78.9616088 C130.426916,78.9616088 129.471503,78.0101116 129.471503,76.8363803 C129.471503,75.662649 130.426916,74.7111517 131.605477,74.7111517 C131.886966,74.7111517 132.165904,74.7220203 132.441861,74.7433523 L132.446586,74.7430414 C135.059361,74.7430414 137.181347,72.6201954 137.181347,69.9967492 C137.181347,67.4210021 135.135823,65.3278169 132.588604,65.2525526 L132.446586,65.250457 L91.8760977,65.250457 L91.6233456,65.2680808 C80.9798433,66.0308948 76.0847869,70.3215377 76.0847869,78.4817185 C76.0847869,79.6187707 75.1881541,80.5472614 74.0606261,80.6041816 L73.9508121,80.606947 L53.2679497,80.606947 Z" id="Combined-Shape" fill="#24231F" fill-rule="nonzero" transform="translate(95.500000, 98.500000) scale(1, -1) rotate(90.000000) translate(-95.500000, -98.500000) "></path>
        <path d="M16,99 L20,99 C20.5522847,99 21,98.5522847 21,98 C21,97.4477153 20.5522847,97 20,97 L16,97 C15.4477153,97 15,97.4477153 15,98 C15,98.5522847 15.4477153,99 16,99 Z M30,99 L34,99 C34.5522847,99 35,98.5522847 35,98 C35,97.4477153 34.5522847,97 34,97 L30,97 C29.4477153,97 29,97.4477153 29,98 C29,98.5522847 29.4477153,99 30,99 Z M44,99 L48,99 C48.5522847,99 49,98.5522847 49,98 C49,97.4477153 48.5522847,97 48,97 L44,97 C43.4477153,97 43,97.4477153 43,98 C43,98.5522847 43.4477153,99 44,99 Z" id="Line-3-Copy-11" fill="#24231F" fill-rule="nonzero"></path>
        <path d="M108,125 L112,125 C112.552285,125 113,124.552285 113,124 C113,123.447715 112.552285,123 112,123 L108,123 C107.447715,123 107,123.447715 107,124 C107,124.552285 107.447715,125 108,125 Z M122,125 L126,125 C126.552285,125 127,124.552285 127,124 C127,123.447715 126.552285,123 126,123 L122,123 C121.447715,123 121,123.447715 121,124 C121,124.552285 121.447715,125 122,125 Z M136,125 L140,125 C140.552285,125 141,124.552285 141,124 C141,123.447715 140.552285,123 140,123 L136,123 C135.447715,123 135,123.447715 135,124 C135,124.552285 135.447715,125 136,125 Z" id="Line-3-Copy-12" fill="#24231F" fill-rule="nonzero"></path>
        <path d="M123,125 L127,125 C127.552285,125 128,124.552285 128,124 C128,123.447715 127.552285,123 127,123 L123,123 C122.447715,123 122,123.447715 122,124 C122,124.552285 122.447715,125 123,125 Z M137,125 L141,125 C141.552285,125 142,124.552285 142,124 C142,123.447715 141.552285,123 141,123 L137,123 C136.447715,123 136,123.447715 136,124 C136,124.552285 136.447715,125 137,125 Z M151,125 L155,125 C155.552285,125 156,124.552285 156,124 C156,123.447715 155.552285,123 155,123 L151,123 C150.447715,123 150,123.447715 150,124 C150,124.552285 150.447715,125 151,125 Z" id="Line-3-Copy-13" fill="#24231F" fill-rule="nonzero"></path>
        <path d="M97,36 L101,36 C101.552285,36 102,35.5522847 102,35 C102,34.4477153 101.552285,34 101,34 L97,34 C96.4477153,34 96,34.4477153 96,35 C96,35.5522847 96.4477153,36 97,36 Z M111,36 L115,36 C115.552285,36 116,35.5522847 116,35 C116,34.4477153 115.552285,34 115,34 L111,34 C110.447715,34 110,34.4477153 110,35 C110,35.5522847 110.447715,36 111,36 Z M125,36 L129,36 C129.552285,36 130,35.5522847 130,35 C130,34.4477153 129.552285,34 129,34 L125,34 C124.447715,34 124,34.4477153 124,35 C124,35.5522847 124.447715,36 125,36 Z" id="Line-3-Copy-14" fill="#24231F" fill-rule="nonzero"></path>
        <path d="M125,36 L129,36 C129.552285,36 130,35.5522847 130,35 C130,34.4477153 129.552285,34 129,34 L125,34 C124.447715,34 124,34.4477153 124,35 C124,35.5522847 124.447715,36 125,36 Z M139,36 L143,36 C143.552285,36 144,35.5522847 144,35 C144,34.4477153 143.552285,34 143,34 L139,34 C138.447715,34 138,34.4477153 138,35 C138,35.5522847 138.447715,36 139,36 Z M153,36 L157,36 C157.552285,36 158,35.5522847 158,35 C158,34.4477153 157.552285,34 157,34 L153,34 C152.447715,34 152,34.4477153 152,35 C152,35.5522847 152.447715,36 153,36 Z" id="Line-3-Copy-15" fill="#24231F" fill-rule="nonzero"></path>
        <path d="M42,132 L46,132 C46.5522847,132 47,131.552285 47,131 C47,130.447715 46.5522847,130 46,130 L42,130 C41.4477153,130 41,130.447715 41,131 C41,131.552285 41.4477153,132 42,132 Z M56,132 L60,132 C60.5522847,132 61,131.552285 61,131 C61,130.447715 60.5522847,130 60,130 L56,130 C55.4477153,130 55,130.447715 55,131 C55,131.552285 55.4477153,132 56,132 Z M70,132 L74,132 C74.5522847,132 75,131.552285 75,131 C75,130.447715 74.5522847,130 74,130 L70,130 C69.4477153,130 69,130.447715 69,131 C69,131.552285 69.4477153,132 70,132 Z" id="Line-3-Copy-16" fill="#24231F" fill-rule="nonzero"></path>
        <circle id="Oval-Copy-18" fill="#EABDBF" cx="166" cy="67" r="5"></circle>
        <circle id="Oval-Copy-19" fill="#EABDBF" cx="31" cy="123" r="5"></circle>
        <circle id="Oval-Copy-20" fill="#EABDBF" cx="15" cy="73" r="5"></circle>
        <circle id="Oval-Copy-21" fill="#EABDBF" cx="148" cy="94" r="5"></circle>
        <circle id="Oval-Copy-22" fill="#EABDBF" cx="156" cy="137" r="5"></circle>
    </g>
</svg>