<?xml version="1.0" encoding="UTF-8"?>
<svg width="180px" height="180px" viewBox="0 0 180 180" version="1.1" xmlns="http://www.w3.org/2000/svg" xmlns:xlink="http://www.w3.org/1999/xlink">
    <title>img/有效攔阻</title>
    <g id="img/有效攔阻" stroke="none" stroke-width="1" fill="none" fill-rule="evenodd">
        <circle id="Oval" fill="#E2E3E6" cx="62" cy="68" r="43"></circle>
        <circle id="Oval-Copy" fill="#E2E3E6" cx="102" cy="95" r="61"></circle>
        <path d="M94,39 C124,58.3333333 139,87.6666667 139,127 L94,143 L49,127 C49,87.6666667 64,58.3333333 94,39 Z" id="Triangle" fill="#D40B26" transform="translate(94.000000, 91.000000) scale(1, -1) translate(-94.000000, -91.000000) "></path>
        <path d="M88.6700193,34.1155706 L133.670019,50.1155706 C134.467379,50.3990761 135,51.1537393 135,52 C135,91.9941526 119.672319,121.968285 89.0834027,141.681142 C88.4236966,142.106286 87.5763034,142.106286 86.9165973,141.681142 C56.3276814,121.968285 41,91.9941526 41,52 C41,51.1537393 41.5326214,50.3990761 42.3299807,50.1155706 L87.3299807,34.1155706 C87.7633705,33.9614765 88.2366295,33.9614765 88.6700193,34.1155706 Z M88,38.123 L45.007,53.41 L45.0176073,54.3083768 C45.5810499,91.0508517 59.667726,118.600224 87.3364236,137.169941 L88,137.611 L88.6635764,137.169941 C116.332274,118.600224 130.41895,91.0508517 130.982393,54.3083768 L130.992,53.41 L88,38.123 Z M88.3342944,45.0575313 L124.334294,57.8267621 C124.733344,57.9683053 125,58.3458219 125,58.7692308 C125,90.4911963 112.835627,114.222121 88.5407803,129.841164 C88.211362,130.052945 87.788638,130.052945 87.4592197,129.841164 C63.1643734,114.222121 51,90.4911963 51,58.7692308 C51,58.3458219 51.266656,57.9683053 51.6657056,57.8267621 L87.6657056,45.0575313 C87.8819678,44.9808229 88.1180322,44.9808229 88.3342944,45.0575313 Z M87.999,47.062 L53.002,59.475 L53.0139204,60.6048265 C53.4686571,90.4331418 65.0647594,112.761175 87.8331865,127.699283 L88,127.808 L88.1668135,127.699283 C110.935241,112.761175 122.531343,90.4331418 122.98608,60.6048265 L122.997,59.475 L87.999,47.062 Z" id="Combined-Shape" fill="#24231F" fill-rule="nonzero"></path>
        <path d="M88,65 C83.581722,65 80,68.6738987 80,73.2058824 L80,87.7941176 C80,92.3261013 83.581722,96 88,96 C92.418278,96 96,92.3261013 96,87.7941176 L96,73.2058824 C96,68.6738987 92.418278,65 88,65 Z M88,68.6470588 C90.4545989,68.6470588 92.4444444,70.6881136 92.4444444,73.2058824 L92.4444444,87.7941176 C92.4444444,90.3118864 90.4545989,92.3529412 88,92.3529412 C85.5454011,92.3529412 83.5555556,90.3118864 83.5555556,87.7941176 L83.5555556,73.2058824 C83.5555556,70.6881136 85.5454011,68.6470588 88,68.6470588 Z" id="fill" fill="#9F9EA2" fill-rule="nonzero"></path>
        <path d="M88,61.4 C94.3283824,61.4 99.4405419,66.5438571 99.5963413,72.9067442 L99.6,73.2058824 L99.6,87.7941176 C99.6,94.2941415 94.4272634,99.6 88,99.6 C81.6716176,99.6 76.5594581,94.4561429 76.4036587,88.0932558 L76.4,87.7941176 L76.4,73.2058824 C76.4,66.7058585 81.5727366,61.4 88,61.4 Z M88,65 C83.663542,65 80.1329433,68.5390883 80.0036675,72.9550062 L80,73.2058824 L80,87.7941176 L80.0036675,88.0449938 C80.0646466,90.127974 80.8824171,92.0158603 82.1845787,93.4292424 L82.319708,93.5717181 C83.7028268,95.0031488 85.5970512,95.9143943 87.6984271,95.9942773 L88,96 L88.2445818,95.9962382 C92.4669152,95.8661855 95.8669803,92.3801724 95.9961905,88.0498004 L96,87.7941176 L96,73.2058824 L95.9963325,72.9550062 C95.9353534,70.872026 95.1175829,68.9841397 93.8154213,67.5707576 L93.670411,67.4182978 C92.2224434,65.9245958 90.2164881,65 88,65 Z M88,68.6470588 C90.4545989,68.6470588 92.4444444,70.6881136 92.4444444,73.2058824 L92.4444444,87.7941176 C92.4444444,90.3118864 90.4545989,92.3529412 88,92.3529412 C85.5454011,92.3529412 83.5555556,90.3118864 83.5555556,87.7941176 L83.5555556,73.2058824 C83.5555556,70.6881136 85.5454011,68.6470588 88,68.6470588 Z M88,72.2470588 C87.5886645,72.2470588 87.217191,72.5956368 87.1624752,73.0816406 L87.1555556,73.2058824 L87.1555556,87.7941176 C87.1555556,88.3438462 87.5543865,88.7529412 88,88.7529412 C88.4113355,88.7529412 88.782809,88.4043632 88.8375248,87.9183594 L88.8444444,87.7941176 L88.8444444,73.2058824 C88.8444444,72.6561538 88.4456135,72.2470588 88,72.2470588 Z" id="Combined-Shape" fill="#24231F" fill-rule="nonzero"></path>
        <rect id="fill" fill="#F0F0F0" x="73" y="80" width="30" height="22" rx="4"></rect>
        <path d="M99,78 L77,78 C73.6862915,78 71,80.6862915 71,84 L71,98 C71,101.313708 73.6862915,104 77,104 L99,104 C102.313708,104 105,101.313708 105,98 L105,84 C105,80.6862915 102.313708,78 99,78 Z M77,82 L99,82 C100.104569,82 101,82.8954305 101,84 L101,98 C101,99.1045695 100.104569,100 99,100 L77,100 C75.8954305,100 75,99.1045695 75,98 L75,84 C75,82.8954305 75.8954305,82 77,82 Z" id="Rectangle" fill="#24231F" fill-rule="nonzero"></path>
        <path d="M88,85 C90.209139,85 92,86.790861 92,89 C92,90.5839335 91.0793603,91.9528401 89.7439991,92.6008016 L91,97 L85,97 L86.2570088,92.6012905 C84.921103,91.9535289 84,90.584332 84,89 C84,86.790861 85.790861,85 88,85 Z" id="Combined-Shape" fill="#24231F"></path>
        <rect id="Rectangle-Copy-25" fill="#EABDBF" x="29" y="78" width="6" height="6"></rect>
        <rect id="Rectangle-Copy-33" fill="#EABDBF" x="160" y="101" width="6" height="6"></rect>
        <rect id="Rectangle-Copy-26" fill="#EABDBF" x="123" y="36" width="6" height="6"></rect>
        <rect id="Rectangle-Copy-27" fill="#EABDBF" x="46" y="25" width="6" height="6"></rect>
        <rect id="Rectangle-Copy-28" fill="#EABDBF" x="139" y="111" width="6" height="6"></rect>
        <rect id="Rectangle-Copy-31" fill="#EABDBF" x="13" y="111" width="6" height="6"></rect>
        <rect id="Rectangle-Copy-32" fill="#EABDBF" x="19" y="45" width="6" height="6"></rect>
        <rect id="Rectangle-Copy-29" fill="#EABDBF" x="150" y="61" width="6" height="6"></rect>
        <rect id="Rectangle-Copy-35" fill="#EABDBF" x="114" y="143" width="6" height="6"></rect>
        <rect id="Rectangle-Copy-34" fill="#EABDBF" x="160" y="42" width="6" height="6"></rect>
        <rect id="Rectangle-Copy-30" fill="#EABDBF" x="49" y="128" width="6" height="6"></rect>
    </g>
</svg>