<?xml version="1.0" encoding="UTF-8"?>
<svg width="180px" height="180px" viewBox="0 0 180 180" version="1.1" xmlns="http://www.w3.org/2000/svg" xmlns:xlink="http://www.w3.org/1999/xlink">
    <title>img/精準偵測</title>
    <g id="img/精準偵測" stroke="none" stroke-width="1" fill="none" fill-rule="evenodd">
        <circle id="Oval" fill="#E2E3E6" cx="117" cy="81" r="49"></circle>
        <circle id="Oval-Copy" fill="#E2E3E6" cx="71" cy="90" r="61"></circle>
        <path d="M88.50995,128.546059 C64.4800681,128.546059 45,109.172064 45,85.2730297 C45,61.3739953 64.4800681,42 88.50995,42 C112.539832,42 132.0199,61.3739953 132.0199,85.2730297 C132.0199,109.172064 112.539832,128.546059 88.50995,128.546059 Z" id="Path" fill="#FFFFFF" fill-rule="nonzero"></path>
        <path d="M92.7818871,108.99137 C80.3163859,108.99137 70.2111006,98.9411102 70.2111006,86.5434861 C70.2111006,74.145862 80.3163859,64.095602 92.7818871,64.095602 C105.247388,64.095602 115.352674,74.145862 115.352674,86.5434861 C115.352674,98.9411102 105.247388,108.99137 92.7818871,108.99137 Z" id="Path" fill="#D40B26" fill-rule="nonzero"></path>
        <path d="M88.50995,42 C112.539832,42 132.0199,61.3739953 132.0199,85.2730297 C132.0199,94.0429919 129.396737,102.203618 124.888179,109.021158 L144.675816,125.5344 C147.419599,127.824171 147.787649,131.904674 145.497878,134.648457 C145.490447,134.657362 145.482992,134.666246 145.475513,134.675111 C143.154956,137.425583 139.04843,137.784853 136.285519,135.479119 L116.160922,118.685432 C108.643534,124.846096 99.0111939,128.546059 88.50995,128.546059 C64.4800681,128.546059 45,109.172064 45,85.2730297 C45,61.3739953 64.4800681,42 88.50995,42 Z M88.50995,47.6254939 C67.6039528,47.6254939 50.6562935,64.4808698 50.6562935,85.2730297 C50.6562935,106.06519 67.6039528,122.920565 88.50995,122.920565 C109.415947,122.920565 126.363606,106.06519 126.363606,85.2730297 C126.363606,64.4808698 109.415947,47.6254939 88.50995,47.6254939 Z M88.50995,52.8182574 C89.4110705,52.8182574 90.1415731,53.54876 90.1415731,54.4498805 L90.1412453,58.8018387 C103.379336,59.456592 114.100241,69.6213583 115.539348,82.5683592 L119.519674,82.5684653 C120.415888,82.5684653 121.142412,83.2949901 121.142412,84.1912039 C121.142412,85.0874177 120.415888,85.8139425 119.519674,85.8139425 L115.701,85.813 L115.700062,85.9862628 C115.469684,100.117941 104.231261,111.588244 90.1412453,112.285133 L90.1415731,116.096179 C90.1415731,116.997299 89.4110705,117.727802 88.50995,117.727802 C87.6088294,117.727802 86.8783268,116.997299 86.8783268,116.096179 L86.8786014,112.252797 C73.3462252,111.31279 62.5705091,100.42627 61.8938388,86.8956406 L57.5002261,86.8957683 C56.6040123,86.8957683 55.8774875,86.1692434 55.8774875,85.2730297 C55.8774875,84.3768159 56.6040123,83.650291 57.5002261,83.650291 L61.9263851,83.649957 C62.8591962,70.3713235 73.5271855,59.7616118 86.8786014,58.8341752 L86.8783268,54.4498805 C86.8783268,53.54876 87.6088294,52.8182574 88.50995,52.8182574 Z M113.531097,85.8137074 L111.35,85.813 L111.34965,85.9147029 C111.157707,97.6887279 101.851329,107.259189 90.1418559,107.951293 L90.1418852,110.122853 C103.089328,109.425518 113.390315,98.8315244 113.531097,85.8137074 Z M66.2513773,86.8957131 L64.0679489,86.8960936 C64.7397365,99.2335991 74.546117,109.154958 86.8786212,110.087687 L86.8785628,107.912684 C75.7506502,106.988608 66.9168752,98.0355668 66.2513773,86.8957131 Z M90.1415384,64.8657799 L90.1415731,72.8231491 C90.1415731,73.7242697 89.4110705,74.4547722 88.50995,74.4547722 C87.6088294,74.4547722 86.8783268,73.7242697 86.8783268,72.8231491 L86.8784024,64.9076823 C76.8907744,65.8073436 68.9376497,73.7171832 68.0330958,83.650436 L76.0097239,83.650291 C76.9059376,83.650291 77.6324625,84.3768159 77.6324625,85.2730297 C77.6324625,86.1692434 76.9059376,86.8957683 76.0097239,86.8957683 L67.9909561,86.8955149 C68.6505784,97.081324 76.7101027,105.263354 86.8784024,106.17929 L86.8783268,97.7229102 C86.8783268,96.8217896 87.6088294,96.0912871 88.50995,96.0912871 C89.4110705,96.0912871 90.1415731,96.8217896 90.1415731,97.7229102 L90.1415384,106.221192 C100.925295,105.530319 109.475283,96.6799857 109.614729,85.8133308 L101.010176,85.8139425 C100.113962,85.8139425 99.3874374,85.0874177 99.3874374,84.1912039 C99.3874374,83.2949901 100.113962,82.5684653 101.010176,82.5684653 L109.403317,82.5684055 C108.01581,72.9708713 100.014947,65.4983306 90.1415384,64.8657799 Z M88.50995,78.7820752 C92.1144322,78.7820752 95.0364424,81.6881745 95.0364424,85.2730297 C95.0364424,88.8578848 92.1144322,91.7639841 88.50995,91.7639841 C84.9054677,91.7639841 81.9834575,88.8578848 81.9834575,85.2730297 C81.9834575,81.6881745 84.9054677,78.7820752 88.50995,78.7820752 Z M86.8786212,60.9992857 C74.726685,61.9183571 65.027441,71.5647701 64.1033111,83.6505292 L66.2902294,83.6503832 C67.2043465,72.7627826 75.9313331,64.0833597 86.8785628,63.174288 L86.8786212,60.9992857 Z M90.1418852,60.9641193 L90.1418559,63.1356793 C100.974811,63.7759751 109.750975,72.0151904 111.156147,82.5680613 L113.353593,82.5681089 C111.929896,70.815766 102.179727,61.6124639 90.1418852,60.9641193 Z" id="Combined-Shape" fill="#24231F" fill-rule="nonzero"></path>
        <circle id="Oval" stroke="#24231F" stroke-width="3" fill="#FFFFFF" fill-rule="nonzero" cx="87.9834575" cy="84.7820752" r="7.5"></circle>
        <path d="M87.9834575,75.7820752 C83.0128947,75.7820752 78.9834575,79.8115125 78.9834575,84.7820752 C78.9834575,89.752638 83.0128947,93.7820752 87.9834575,93.7820752 C92.9540202,93.7820752 96.9834575,89.752638 96.9834575,84.7820752 C96.9834575,79.8115125 92.9540202,75.7820752 87.9834575,75.7820752 Z M87.9834575,78.7820752 C91.297166,78.7820752 93.9834575,81.4683667 93.9834575,84.7820752 C93.9834575,88.0957837 91.297166,90.7820752 87.9834575,90.7820752 C84.669749,90.7820752 81.9834575,88.0957837 81.9834575,84.7820752 C81.9834575,81.4683667 84.669749,78.7820752 87.9834575,78.7820752 Z" id="Oval" fill="#24231F" fill-rule="nonzero"></path>
        <polygon id="Triangle-Copy-7" fill="#EABDBF" transform="translate(147.000000, 81.000000) rotate(-270.000000) translate(-147.000000, -81.000000) " points="147 77 152 85 142 85"></polygon>
        <polygon id="Triangle-Copy-8" fill="#EABDBF" transform="translate(45.000000, 49.000000) rotate(-270.000000) translate(-45.000000, -49.000000) " points="45 45 50 53 40 53"></polygon>
        <polygon id="Triangle-Copy-9" fill="#EABDBF" transform="translate(22.000000, 76.000000) rotate(-270.000000) translate(-22.000000, -76.000000) " points="22 72 27 80 17 80"></polygon>
        <polygon id="Triangle-Copy-10" fill="#EABDBF" transform="translate(167.000000, 104.000000) rotate(-270.000000) translate(-167.000000, -104.000000) " points="167 100 172 108 162 108"></polygon>
        <polygon id="Triangle-Copy-11" fill="#EABDBF" transform="translate(114.000000, 142.000000) rotate(-270.000000) translate(-114.000000, -142.000000) " points="114 138 119 146 109 146"></polygon>
        <polygon id="Triangle-Copy-12" fill="#EABDBF" transform="translate(61.000000, 129.000000) rotate(-270.000000) translate(-61.000000, -129.000000) " points="61 125 66 133 56 133"></polygon>
        <polygon id="Triangle-Copy-13" fill="#EABDBF" transform="translate(34.000000, 109.000000) rotate(-270.000000) translate(-34.000000, -109.000000) " points="34 105 39 113 29 113"></polygon>
        <polygon id="Triangle-Copy-14" fill="#EABDBF" transform="translate(139.000000, 37.000000) rotate(-270.000000) translate(-139.000000, -37.000000) " points="139 33 144 41 134 41"></polygon>
    </g>
</svg>