<?xml version="1.0" encoding="UTF-8"?>
<svg width="350px" height="220px" viewBox="0 0 350 220" version="1.1" xmlns="http://www.w3.org/2000/svg" xmlns:xlink="http://www.w3.org/1999/xlink">
    <title>whySonar/TI</title>
    <g id="whySonar/TI" stroke="none" stroke-width="1" fill="none" fill-rule="evenodd">
        <path d="M174.5,168 L28.5,168 C26.0147186,168 24,169.208831 24,170.7 L24,210.3 C24,211.791169 26.0147186,213 28.5,213 L174.5,213 C176.985281,213 179,211.791169 179,210.3 L179,170.7 C179,169.208831 176.985281,168 174.5,168 Z" id="Path" fill="#D40B26" fill-rule="nonzero"></path>
        <path d="M233.651612,61 C242.860615,61 247.028922,65.4727162 248.250624,71.6205385 L248.346899,72.1439978 C248.361792,72.2318848 248.376111,72.3200884 248.389864,72.4086009 L248.465622,72.9433194 L248.528054,73.485075 C248.574606,73.9393659 248.607569,74.4005964 248.627673,74.8677893 L248.645674,75.4312203 L248.651612,76 L248.645674,76.5687797 L248.627673,77.1322107 C248.607569,77.5994036 248.574606,78.0606341 248.528054,78.514925 L248.465622,79.0566806 L248.389864,79.5913991 C248.376111,79.6799116 248.361792,79.7681152 248.346899,79.8560022 L248.250624,80.3794615 C247.028922,86.5272838 242.860615,91 233.651612,91 C224.442609,91 220.274301,86.5272838 219.052599,80.3794615 L218.956324,79.8560022 C218.941431,79.7681152 218.927112,79.6799116 218.913359,79.5913991 L218.837601,79.0566806 L218.775169,78.514925 C218.728617,78.0606341 218.695654,77.5994036 218.67555,77.1322107 L218.657549,76.5687797 C218.655562,76.4744184 218.654078,76.3798342 218.65309,76.285035 L218.651612,76 C218.651612,75.809557 218.653575,75.6199429 218.657549,75.4312203 L218.67555,74.8677893 C218.695654,74.4005964 218.728617,73.9393659 218.775169,73.485075 L218.837601,72.9433194 L218.913359,72.4086009 C218.927112,72.3200884 218.941431,72.2318848 218.956324,72.1439978 L219.052599,71.6205385 C220.274301,65.4727162 224.442609,61 233.651612,61 Z" id="Path" fill="#EABDBF" fill-rule="nonzero"></path>
        <path d="M57.2417562,24.1484752 L57.5428783,24.4433915 L99.6697448,56.5093709 C104.030932,52.7841947 109.660647,50.5068898 115.809874,50.4087548 L116.224471,50.4054486 L162.981244,50.4054486 L162.981019,50.4763377 L233.675401,50.4250203 C241.269876,50.4181555 247.051577,54.2744216 252.836376,59.7445834 L253.190566,60.0814886 L312.852,158.149 L331.151612,158.149044 C333.565885,158.149044 335.536101,160.050281 335.646714,162.437209 L335.651612,162.649044 L335.651612,198.649044 C335.651612,199.642914 335.329414,200.561531 334.783772,201.30614 C334.010465,202.361433 332.788354,203.06722 331.398554,203.142384 L331.151612,203.149044 L185.151612,203.149044 C182.737338,203.149044 180.767122,201.247808 180.65651,198.86088 L180.651612,198.649044 L180.651612,162.649044 C180.651612,160.234771 182.552848,158.264555 184.939776,158.153942 L185.151612,158.149044 L211.121,158.149 L200.09003,143.502991 L120.055346,133.502991 C109.325144,132.846378 101.955929,130.672625 97.9477029,126.981734 L97.7244117,126.771195 L21.4684462,60.5207895 C11.5100747,50.562418 11.5100767,34.4167131 21.4710998,24.45569 C31.3368479,14.6195172 47.2446185,14.5146087 57.2417562,24.1484752 Z M328.651612,163.149044 L187.651612,163.149044 C186.59725,163.149044 185.733446,163.964922 185.657097,164.999782 L185.651612,165.149044 L185.651612,196.149044 C185.651612,197.203406 186.467489,198.067209 187.502349,198.143559 L187.651612,198.149044 L328.651612,198.149044 C329.705973,198.149044 330.569777,197.333166 330.646126,196.298307 L330.651612,196.149044 L330.651612,165.149044 C330.651612,164.044475 329.756181,163.149044 328.651612,163.149044 Z M25.2519419,27.7504223 L25.0025168,27.9949766 L24.7614049,28.2404927 C17.0799214,36.1804229 17.0790879,48.7951066 24.7589044,56.7360514 L25.0039781,56.9852536 L100.938678,122.919953 C104.120162,126.101438 110.146353,127.952106 119.01725,128.471957 L119.587341,128.503331 L202.162217,138.502969 L216.831,158.149 L305.89,158.149 L249.214609,63.1132809 C244.542576,58.7326994 240.059571,55.5660686 234.098233,55.4296001 L233.679907,55.4250183 L125.182628,55.5027323 L119.841093,55.5027487 L119.841278,55.5070031 L116.133077,55.5113816 C110.671138,55.5252681 105.557772,57.6775661 101.751576,61.4322147 L101.43744,61.7487998 L100.782254,62.4220074 C97.8080775,65.8251879 95.9389566,70.2237082 95.7416828,75.0641834 L95.730343,75.414824 L95.7156385,76.0290543 C95.7116744,76.194639 95.709767,76.3602665 95.7099168,76.5258985 C95.7197993,87.4588988 104.498456,96.3354818 115.387759,96.5095466 L115.732326,96.5121428 L177.677146,96.0308757 C179.04837,96.0202222 180.168603,97.1231826 180.179257,98.4944066 L180.179331,98.511452 C180.180581,99.894934 179.065107,101.020134 177.681666,101.030893 L115.736845,101.512633 C101.927338,101.524623 90.7224015,90.3399252 90.7099188,76.5304181 L90.7115665,76.2198817 L90.7170707,75.9093898 L90.7317752,75.2951595 C90.8640251,69.77088 92.7459716,64.6915466 95.8401132,60.5819472 L54.0129429,27.9845131 C46.0738794,20.0823496 33.2834622,20.0061468 25.2519419,27.7504223 Z M116,61 C125.209003,61 129.377311,65.4727162 130.599013,71.6205385 L130.695288,72.1439978 C130.71018,72.2318848 130.7245,72.3200884 130.738252,72.4086009 L130.814011,72.9433194 L130.876443,73.485075 C130.922994,73.9393659 130.955957,74.4005964 130.976062,74.8677893 L130.994062,75.4312203 L131,76 L130.994062,76.5687797 L130.976062,77.1322107 C130.955957,77.5994036 130.922994,78.0606341 130.876443,78.514925 L130.814011,79.0566806 L130.738252,79.5913991 C130.7245,79.6799116 130.71018,79.7681152 130.695288,79.8560022 L130.599013,80.3794615 C129.377311,86.5272838 125.209003,91 116,91 C106.790997,91 102.622689,86.5272838 101.400987,80.3794615 L101.304712,79.8560022 C101.28982,79.7681152 101.2755,79.6799116 101.261748,79.5913991 L101.185989,79.0566806 L101.123557,78.514925 C101.077006,78.0606341 101.044043,77.5994036 101.023938,77.1322107 L101.005938,76.5687797 C101.003951,76.4744184 101.002466,76.3798342 101.001479,76.285035 L101,76 C101,75.809557 101.001964,75.6199429 101.005938,75.4312203 L101.023938,74.8677893 C101.044043,74.4005964 101.077006,73.9393659 101.123557,73.485075 L101.185989,72.9433194 L101.261748,72.4086009 C101.2755,72.3200884 101.28982,72.2318848 101.304712,72.1439978 L101.400987,71.6205385 C102.622689,65.4727162 106.790997,61 116,61 Z M116,66 C108.806211,66 106.085253,69.0266884 106.001979,75.6804121 L106,76 C106,82.8764637 108.692024,86 116,86 C123.307976,86 126,82.8764637 126,76 C126,69.1235363 123.307976,66 116,66 Z" id="Combined-Shape" fill="#24231F" fill-rule="nonzero" transform="translate(174.825806, 110.074522) scale(-1, 1) translate(-174.825806, -110.074522) "></path>
        <path d="M211,157 C211.552285,157 212,157.447715 212,158 L212,164 L218,164 C218.552285,164 219,164.447715 219,165 C219,165.552285 218.552285,166 218,166 L212,166 L212,172 C212,172.552285 211.552285,173 211,173 C210.447715,173 210,172.552285 210,172 L210,166 L204,166 C203.447715,166 203,165.552285 203,165 C203,164.447715 203.447715,164 204,164 L210,164 L210,158 C210,157.447715 210.447715,157 211,157 Z" id="Combined-Shape-Copy-16" fill="#24231F"></path>
        <path d="M312,136 C312.552285,136 313,136.447715 313,137 L313,143 L319,143 C319.552285,143 320,143.447715 320,144 C320,144.552285 319.552285,145 319,145 L313,145 L313,151 C313,151.552285 312.552285,152 312,152 C311.447715,152 311,151.552285 311,151 L311,145 L305,145 C304.447715,145 304,144.552285 304,144 C304,143.447715 304.447715,143 305,143 L311,143 L311,137 C311,136.447715 311.447715,136 312,136 Z" id="Combined-Shape-Copy-17" fill="#24231F"></path>
        <path d="M91,109 C91.5522847,109 92,109.447715 92,110 L92,116 L98,116 C98.5522847,116 99,116.447715 99,117 C99,117.552285 98.5522847,118 98,118 L92,118 L92,124 C92,124.552285 91.5522847,125 91,125 C90.4477153,125 90,124.552285 90,124 L90,118 L84,118 C83.4477153,118 83,117.552285 83,117 C83,116.447715 83.4477153,116 84,116 L90,116 L90,110 C90,109.447715 90.4477153,109 91,109 Z" id="Combined-Shape-Copy-18" fill="#24231F"></path>
    </g>
</svg>