<?xml version="1.0" encoding="UTF-8"?>
<svg width="24px" height="24px" viewBox="0 0 24 24" version="1.1" xmlns="http://www.w3.org/2000/svg" xmlns:xlink="http://www.w3.org/1999/xlink">
    <title>icon/lang</title>
    <defs>
        <path d="M11,0 C17.0751322,0 22,4.92486775 22,11 L21.996,10.744 L22,10.744186 L21.998,10.831 L22,11 C22,16.9787016 17.2302364,21.8433652 11.2884075,21.9962926 L11,22 C10.9145804,22 10.8293883,21.9990264 10.744434,21.9970896 L10.744186,22 L10.5853031,21.994922 C10.5671832,21.9937597 10.5491004,21.9923989 10.5310549,21.9908406 C4.67341801,21.7444866 0,16.9180109 0,11 C0,10.9422751 0.0004446415,10.884654 0.00133068637,10.82714 L0,10.744186 C0.0513796013,8.61840357 0.703048123,6.64136384 1.79346779,4.97776305 L1.79069767,4.86046512 L1.87162582,4.86017156 C3.76460295,2.05132471 6.91980319,0.16356381 10.5240019,0.0101135224 C10.596983,0.0032731279 10.67029,0 10.744186,0 L10.744186,0 L10.744,0.003 Z M8.13528527,16.6768619 L8.14200187,16.7003959 C8.75937243,18.9022185 9.6933542,20.3472273 10.6285125,20.4582299 C10.7516992,20.4627152 10.8755692,20.4651163 11,20.4651163 L11,20.4651163 C11.9713995,20.4651163 12.955577,18.9986501 13.598486,16.7135628 C12.7642246,16.8252022 11.8935688,16.8837209 11,16.8837209 C10.0112193,16.8837209 9.05049477,16.8120672 8.13528527,16.6768619 Z M19.8202621,14.4408567 L19.7527931,14.4909341 C18.5927797,15.3358099 17.04738,15.9997299 15.2695238,16.4117226 C14.9279333,17.8468842 14.4480031,19.083547 13.8568729,20.0260028 C16.5887767,19.1626544 18.7850997,17.0924184 19.8202621,14.4408567 Z M2.17870746,14.4404996 L2.22991763,14.5667069 C3.24226115,17.0534194 5.28151404,19.0127341 7.82108184,19.9180567 C7.25147088,18.9756189 6.78913708,17.7553752 6.45914563,16.346944 C4.76052777,15.922552 3.28742186,15.2657477 2.17870746,14.4404996 Z M14.2694858,9.34429107 L14.1407918,9.37353809 C13.0899006,9.59909115 11.9418579,9.72093023 10.744186,9.72093023 C9.59321583,9.72093023 8.48807986,9.60840781 7.47095508,9.39944937 C7.43673013,9.91857915 7.41860465,10.4535773 7.41860465,11 C7.41860465,12.5260575 7.55998001,13.9630049 7.80083955,15.2341884 C8.7975088,15.4179861 9.87375322,15.5193798 11,15.5193798 C12.0270063,15.5193798 13.0124339,15.4350677 13.9336326,15.2805288 C14.1807571,13.997836 14.3255814,12.54456 14.3255814,11 C14.3255814,10.4345638 14.3061726,9.88136105 14.2694858,9.34429107 Z M19.2701528,6.39289891 L19.2175129,6.48235484 C18.5832207,7.50317503 17.3591975,8.34213551 15.7788904,8.91019894 C15.8327285,9.58671562 15.8604651,10.2858053 15.8604651,11 C15.8604651,12.3771913 15.7573296,13.6982163 15.5639935,14.917093 C18.4168294,14.1081176 20.3519169,12.5786668 20.4603154,10.8934868 L20.4634785,10.8221347 C20.4338814,9.21615446 20.0042963,7.70793265 19.2701528,6.39289891 Z M2.50607182,6.81867088 L2.43416015,6.96798939 C1.85737043,8.19121632 1.53488372,9.55794776 1.53488372,11 L1.537,10.822 L1.53968462,10.8934868 C1.64465785,12.5254179 3.46270339,14.0113059 6.16799996,14.8376089 C5.98245579,13.641209 5.88372093,12.3474894 5.88372093,11 C5.88372093,10.3160768 5.90915609,9.64600516 5.95844224,8.99541678 C4.4385252,8.48891068 3.2235278,7.73847418 2.50607182,6.81867088 Z M11,1.53488372 C10.8752329,1.53488372 10.7510296,1.53729779 10.6274343,1.54208177 C9.36596123,1.69306548 8.1068942,4.27108471 7.62439225,7.85931232 C8.56864327,8.06716792 9.62422932,8.18604651 10.744186,8.18604651 C11.963161,8.18604651 13.1058797,8.04521796 14.1120328,7.80342883 C13.6220768,4.23049833 12.3622,1.67332734 11.1028122,1.54032763 Z M7.82102328,2.08168704 L7.67074033,2.13698641 C5.96130633,2.77941554 4.48698124,3.9022196 3.41222903,5.3409346 C3.70245709,6.14408333 4.69639866,6.89786925 6.1288949,7.42762949 C6.43651407,5.26492544 7.0237346,3.4012988 7.82102328,2.08168704 Z M13.856358,1.97350009 L13.9535525,2.13242029 C14.7239006,3.42953737 15.2946375,5.23847431 15.6022512,7.33345369 C17.1093946,6.72850921 18.0762538,5.86810803 18.1572667,4.9812058 L18.1627907,4.86046512 L18.2038374,4.86024293 C17.0668969,3.52754272 15.5666433,2.51420136 13.856358,1.97350009 Z" id="path-1"></path>
    </defs>
    <g id="icon/lang" stroke="none" stroke-width="1" fill="none" fill-rule="evenodd">
        <g id="color/dark" transform="translate(1.000000, 1.000000)">
            <mask id="mask-2" fill="white">
                <use xlink:href="#path-1"></use>
            </mask>
            <use id="Mask" fill="#FFFFFF" fill-rule="nonzero" xlink:href="#path-1"></use>
            <g id="Group" mask="url(#mask-2)">
                <g transform="translate(-1.000000, -1.000000)" id="color/dark">
                    <rect id="Rectangle" fill="#FFFFFF" x="0" y="0" width="24" height="24"></rect>
                </g>
            </g>
        </g>
    </g>
</svg>