<?xml version="1.0" encoding="UTF-8"?>
<svg width="309px" height="60px" viewBox="0 0 309 60" version="1.1" xmlns="http://www.w3.org/2000/svg" xmlns:xlink="http://www.w3.org/1999/xlink">
    <title>EDR logo</title>
    <defs>
        <polygon id="path-1" points="0 0 60.0004331 0 60.0004331 60 0 60"></polygon>
    </defs>
    <g id="首頁更新" stroke="none" stroke-width="1" fill="none" fill-rule="evenodd">
        <g id="1440up_index" transform="translate(-460.000000, -990.000000)">
            <g id="EDR" transform="translate(-144.000000, 764.000000)">
                <g id="sonar" transform="translate(604.000000, 116.000000)">
                    <g id="EDR-logo" transform="translate(0.000000, 110.000000)">
                        <g id="Group-3">
                            <mask id="mask-2" fill="white">
                                <use xlink:href="#path-1"></use>
                            </mask>
                            <g id="Clip-2"></g>
                            <path d="M60.0004331,29.9999691 C60.0004331,46.5682678 46.568701,60 30.0004022,60 C13.4314847,60 -0.000247509692,46.5682678 -0.000247509692,29.9999691 C-0.000247509692,13.4316703 13.4314847,-6.18774229e-05 30.0004022,-6.18774229e-05 C46.568701,-6.18774229e-05 60.0004331,13.4316703 60.0004331,29.9999691" id="Fill-1" fill="#C71532" mask="url(#mask-2)"></path>
                        </g>
                        <path d="M12.411621,32.9200884 C12.6003471,32.9200884 12.7847419,32.9374141 12.9672803,32.9627838 C12.8002112,31.9931646 12.7104889,31.0037446 12.7104889,30.0000928 C12.7104889,25.3809432 14.5086469,21.0390044 17.7745372,17.7743516 C20.3313123,15.2181953 23.55822,13.5505987 27.1087465,12.9547191 C27.9100591,12.8198264 28.450249,12.0612091 28.315975,11.2598965 C28.1810822,10.4598214 27.4206087,9.92829438 26.6217712,10.0532868 C22.4648459,10.7531204 18.6859917,12.7034968 15.6948371,15.6952702 C11.8739062,19.513726 9.76883626,24.5950999 9.76883626,30.0000928 C9.76883626,31.2370225 9.88454704,32.4560077 10.1004992,33.6483857 C10.7582563,33.1904927 11.5546187,32.9200884 12.411621,32.9200884" id="Fill-4" fill="#FEFEFE"></path>
                        <path d="M16.9718014,24.9503382 C16.3561211,26.540588 16.0232205,28.2428359 16.0232205,30.0001547 C16.0232205,33.7338384 17.4767212,37.2441446 20.1164121,39.8844542 C20.7611748,40.5285982 21.4591521,41.1003456 22.1985873,41.5990776 C22.2511831,40.529217 22.7195952,39.5657855 23.4485113,38.8678082 C23.0110379,38.5435705 22.5884151,38.1964381 22.1961122,37.8041353 C20.1120806,35.7207224 18.9648732,32.9486139 18.9648732,30.0001547 C18.9648732,28.8053017 19.1622622,27.6426249 19.5254827,26.5399692 C18.4840856,26.3543369 17.5794377,25.7695953 16.9718014,24.9503382" id="Fill-6" fill="#FEFEFE"></path>
                        <path d="M27.1260103,16.3197371 C25.1515017,16.7324596 23.3069357,17.5653297 21.6981227,18.7558513 C22.6671232,19.1333036 23.4566791,19.87212 23.9021965,20.8058503 C25.0611607,20.0354764 26.3543988,19.4860049 27.7293152,19.1982749 C28.52444,19.0312058 29.0330725,18.2527878 28.867241,17.4570442 C28.7001719,16.6613005 27.9254666,16.1545244 27.1260103,16.3197371" id="Fill-8" fill="#FEFEFE"></path>
                        <path d="M45.3154975,16.7929757 L46.618636,15.4898371 C47.1984275,14.9094269 47.1984275,13.960846 46.618636,13.3810546 C46.0388446,12.8012631 45.0902637,12.8012631 44.5104722,13.3810546 L28.9458253,28.9457015 C28.3660338,29.525493 28.3660338,30.4740739 28.9458253,31.0538653 L28.9458253,31.0538653 C29.5256167,31.6336568 30.4748164,31.6336568 31.0546079,31.0538653 L34.2592396,27.8492336 C34.5939964,28.5094657 34.7833414,29.2383817 34.7833414,30.0000928 C34.7833414,31.2766241 34.2858469,32.4789024 33.3824365,33.3823128 C31.5774721,35.1891335 28.4266737,35.1916086 26.6179966,33.3823128 C25.7145863,32.4789024 25.2177106,31.2778616 25.2177106,30.0000928 C25.2177106,28.7229428 25.7158238,27.5206645 26.6179966,26.6178729 C27.4094089,25.8264606 28.4582312,25.3351539 29.571406,25.23615 C30.3807627,25.1625159 30.9772611,24.4490692 30.9048645,23.6403313 C30.8312304,22.8303558 30.1109772,22.2258134 29.308427,22.3062541 C27.5102691,22.4665166 25.8160652,23.2597851 24.5376777,24.5381727 C23.0792268,25.9984799 22.2766766,27.9377183 22.2766766,30.0000928 C22.2766766,32.0637049 23.0798456,34.0041809 24.5382965,35.4620129 C25.9979849,36.9210826 27.9372233,37.7242515 30.0002166,37.7242515 C32.0638286,37.7242515 34.0036858,36.9210826 35.4627555,35.4620129 C36.9212063,34.001087 37.724994,32.0624673 37.724994,30.0000928 C37.724994,28.4432569 37.256582,26.9650052 36.4051486,25.7033246 L38.777529,23.3309442 C40.2353611,25.2411002 41.0360549,27.5565534 41.0360549,30.0013304 C41.0360549,32.9497896 39.8882287,35.7218981 37.8035784,37.8046922 C35.776474,39.8311778 33.0978004,40.9629158 30.240301,41.0241745 C30.2898029,41.2753968 30.317029,41.5340444 30.317029,41.7988798 C30.317029,42.5933859 30.0825135,43.3340587 29.6846417,43.9621145 C29.7898333,43.9645896 29.8937874,43.9775839 30.0002166,43.9775839 C33.7332815,43.9775839 37.2429689,42.5240832 39.8832786,39.8843923 C42.5229694,37.2471766 43.9777076,33.7368704 43.9777076,30.0013304 C43.9777076,26.7694726 42.8762895,23.7127279 40.8720798,21.2363934 L43.2252782,18.883195 C45.8488809,21.9943918 47.2893873,25.8840066 47.2893873,30.0000928 C47.2893873,34.6186237 45.4912294,38.9605624 42.2259578,42.2252153 C38.961305,45.4898681 34.6206037,47.288026 30.0008353,47.288026 C25.3823045,47.288026 21.039747,45.4898681 17.7744754,42.2252153 C16.9428428,41.3929639 16.2071202,40.4901723 15.5710203,39.531691 C14.9454396,40.3051588 14.042648,40.8428736 13.0179579,40.998186 C13.7852379,42.1769509 14.6768916,43.2870318 15.6947752,44.3049154 C19.5163248,48.1252275 24.59708,50.2290599 30.0008353,50.2290599 C35.4058282,50.2290599 40.4859647,48.1252275 44.305658,44.3049154 C48.1265888,40.4846034 50.23104,35.4044669 50.23104,30.0000928 C50.23104,25.0969258 48.4916656,20.4647819 45.3154975,16.7929757" id="Fill-10" fill="#FEFEFE"></path>
                        <path d="M14.9667873,36.9845688 C14.9667873,35.5793325 13.8171048,34.42965 12.4118685,34.42965 C11.0066322,34.42965 9.85633094,35.5793325 9.85633094,36.9845688 C9.85633094,38.3898051 11.0066322,39.5394876 12.4118685,39.5394876 C13.8171048,39.5394876 14.9667873,38.3898051 14.9667873,36.9845688" id="Fill-12" fill="#FEFEFE"></path>
                        <path d="M20.2347836,20.1337377 C18.9099879,20.1337377 17.8265143,21.2172114 17.8265143,22.542007 C17.8265143,23.8661839 18.9099879,24.9502763 20.2347836,24.9502763 C21.5595792,24.9502763 22.6430529,23.8661839 22.6430529,22.542007 C22.6430529,21.2172114 21.5595792,20.1337377 20.2347836,20.1337377" id="Fill-14" fill="#FEFEFE"></path>
                        <path d="M28.660756,41.7987561 C28.660756,40.4739604 27.5772823,39.3904868 26.2524867,39.3904868 C24.9283098,39.3904868 23.8442174,40.4739604 23.8442174,41.7987561 C23.8442174,43.1235517 24.9283098,44.2070254 26.2524867,44.2070254 C27.5772823,44.2070254 28.660756,43.1235517 28.660756,41.7987561" id="Fill-16" fill="#FEFEFE"></path>
                        <polygon id="Fill-18" fill="#3F3537" points="69.3336523 19.76105 69.3336523 24.7731213 76.5733108 24.7731213 76.5733108 47.0489935 81.5853821 47.0489935 81.5853821 19.76105"></polygon>
                        <path d="M93.0082637,26.4438117 L92.4383727,26.4438117 C91.1469908,26.4438117 89.9255305,26.7371107 88.8247312,27.2475994 L88.8247312,19.76105 L83.8126599,19.76105 L83.8126599,47.0489935 L88.8247312,47.0489935 L88.8247312,35.0695244 C88.8247312,33.0770714 90.4459196,31.4558829 92.4383727,31.4558829 L93.0082637,31.4558829 C95.0007167,31.4558829 96.6212865,33.0770714 96.6212865,35.0695244 L96.6212865,47.0489935 L101.633358,47.0489935 L101.633358,35.0695244 C101.633358,30.3130069 97.7641625,26.4438117 93.0082637,26.4438117" id="Fill-20" fill="#3F3537"></path>
                        <path d="M146.742308,38.9867366 C146.742308,40.9791896 145.121739,42.5997593 143.129286,42.5997593 L142.558776,42.5997593 C140.566323,42.5997593 138.945753,40.9791896 138.945753,38.9867366 L138.945753,34.5123801 C138.945753,32.5199271 140.566323,30.8987386 142.558776,30.8987386 L143.129286,30.8987386 C145.121739,30.8987386 146.742308,32.5199271 146.742308,34.5123801 L146.742308,36.195446 L146.742308,38.9867366 Z M147.856102,25.8866674 L147.856102,27.3061355 C146.497274,26.4113879 144.874229,25.8866674 143.129286,25.8866674 L142.558776,25.8866674 C137.989128,25.8866674 134.248019,29.4625636 133.961527,33.9616711 L133.961527,39.5368269 C134.248019,44.0365531 137.989128,47.6124493 142.558776,47.6124493 L143.129286,47.6124493 C144.874229,47.6124493 146.497274,47.0877288 147.856102,46.1929812 L147.856102,47.048746 L151.75438,47.048746 L151.75438,25.8866674 L147.856102,25.8866674 Z" id="Fill-22" fill="#3F3537"></path>
                        <path d="M114.412902,26.1487801 C112.497177,26.1487801 110.277634,26.7774548 108.316119,27.8559782 L108.316119,25.8870386 L103.304048,25.8870386 L103.304048,47.0491173 L108.316119,47.0491173 L108.316119,34.7744929 C108.316119,33.3222298 111.979263,31.4560067 114.441984,31.4560067 L114.412902,26.1487801 Z" id="Fill-24" fill="#3F3537"></path>
                        <path d="M120.011262,34.7972638 L120.011262,34.5126276 C120.011262,32.5201746 121.631831,30.8989861 123.624284,30.8989861 L124.194794,30.8989861 C126.187247,30.8989861 127.807817,32.5201746 127.807817,34.5126276 L127.807817,34.7972638 L120.011262,34.7972638 Z M124.194794,25.8869149 L123.624284,25.8869149 C118.868386,25.8869149 114.99919,29.7561101 114.99919,34.5126276 L115.027035,39.5370744 C115.313528,44.0361818 119.054637,47.6126968 123.624284,47.6126968 L124.194794,47.6126968 C128.342438,47.6126968 132.819888,44.9532052 132.819888,40.6576745 L127.807817,40.6576745 C127.807817,41.6013052 125.950876,42.6000068 124.194794,42.6000068 L123.624284,42.6000068 C121.631831,42.6000068 120.011262,40.9794371 120.011262,38.9869841 L120.011262,38.6955414 L132.819888,38.6955414 L132.819888,34.5126276 C132.819888,29.7561101 128.950693,25.8869149 124.194794,25.8869149 L124.194794,25.8869149 Z" id="Fill-26" fill="#3F3537"></path>
                        <path d="M158.437141,30.1419159 L162.335419,30.1419159 L162.335419,26.3370731 L158.437141,26.3370731 L158.437141,22.5452247 L153.42507,22.5452247 L153.42507,41.8540745 C153.42507,43.5587975 153.886676,44.8266659 154.837732,45.7313138 C156.036916,46.873571 157.598083,47.0486841 159.188333,47.0486841 C159.542272,47.0486841 161.897327,47.0053699 162.335419,47.0053699 L162.335419,42.1133409 L158.994038,42.1133409 C158.686507,42.1133409 158.437141,41.8701626 158.437141,41.5700571 L158.437141,30.1419159 Z" id="Fill-28" fill="#3F3537"></path>
                        <path d="M181.522246,30.924294 L172.702857,30.924294 C171.163966,30.924294 169.911567,29.743054 169.911567,28.2907909 L169.911567,27.355823 C169.911567,25.9041787 171.163966,24.7223199 172.702857,24.7223199 L186.661166,24.7223199 L186.661166,19.7609881 L172.702857,19.7609881 C168.399901,19.7609881 164.899496,23.167959 164.899496,27.355823 L164.899496,28.2907909 C164.899496,32.4786549 168.399901,35.8856258 172.702857,35.8856258 L181.522246,35.8856258 C183.061138,35.8856258 184.313537,37.0668658 184.313537,38.5191289 L184.313537,39.4540967 C184.313537,40.9063599 183.061138,42.0875999 181.522246,42.0875999 L165.850552,42.0875999 L165.850552,47.0489316 L181.522246,47.0489316 C185.825202,47.0489316 189.325608,43.6419607 189.325608,39.4540967 L189.325608,38.5191289 C189.325608,34.3312649 185.825202,30.924294 181.522246,30.924294" id="Fill-30" fill="#C71532"></path>
                        <path d="M205.77337,38.920899 C205.77337,40.4610281 204.520352,41.7146646 202.979604,41.7146646 L199.09989,41.7146646 C197.559142,41.7146646 196.306124,40.4610281 196.306124,38.920899 L196.306124,34.2930865 C196.306124,32.7529575 197.559142,31.4999397 199.09989,31.4999397 L202.979604,31.4999397 C204.520352,31.4999397 205.77337,32.7529575 205.77337,34.2930865 L205.77337,38.920899 Z M203.207932,25.8870386 L198.871562,25.8870386 C194.386068,25.8870386 190.737156,29.5359503 190.737156,34.0214447 L190.737156,39.1931597 C190.737156,43.678654 194.386068,47.3275657 198.871562,47.3275657 L203.207932,47.3275657 C207.693426,47.3275657 211.342338,43.678654 211.342338,39.1931597 L211.342338,34.0214447 C211.342338,29.5359503 207.693426,25.8870386 203.207932,25.8870386 L203.207932,25.8870386 Z" id="Fill-32" fill="#C71532"></path>
                        <path d="M259.325371,39.1815886 L259.325371,47.0431152 L264.336205,47.0431152 L264.336205,39.1815886 C264.336205,30.6189908 272.403164,30.6189908 275.053374,30.6189908 L279.78576,30.6189908 L279.78576,25.6081571 L275.053374,25.6081571 C265.058314,25.6081571 259.325371,30.5552571 259.325371,39.1815886" id="Fill-34" fill="#C71532"></path>
                        <path d="M246.16788,42.3108536 L241.648353,42.3108536 C240.535797,42.3108536 239.654043,41.3003953 239.873089,40.1482377 C240.037065,39.2844289 240.847659,38.6928807 241.726937,38.6922619 L250.778366,38.6922619 C250.80188,38.6922619 250.819824,38.7151566 250.813637,38.7380512 C250.267878,40.7923817 248.391754,42.3108536 246.16788,42.3108536 M250.282109,25.8867293 L237.755644,25.8867293 L237.755644,30.897563 L250.282109,30.897563 C251.279574,30.897563 252.091405,31.7093947 252.091405,32.7068588 L252.091405,33.6814282 L241.645878,33.682047 C237.679535,33.682047 234.493466,37.0877803 234.856687,41.1289948 C235.175974,44.6813777 238.312541,47.3216873 241.879155,47.3216873 L246.13261,47.3216873 C248.375047,47.3216873 250.435565,46.5636889 252.091405,45.3020082 L252.091405,47.0432389 L257.102239,47.0432389 L257.102239,32.673445 L257.100383,32.673445 C257.082438,28.9280046 254.031263,25.8867293 250.282109,25.8867293" id="Fill-36" fill="#C71532"></path>
                        <polygon id="Fill-38" fill="#C71532" points="228.116565 38.7973298 218.157393 25.8872243 218.157393 25.8866055 213.084682 25.8866055 213.084682 47.0431152 218.157393 47.0431152 218.157393 34.1385786 228.116565 47.0431152 233.189276 47.0431152 233.189276 25.8866055 228.116565 25.8866055"></polygon>
                        <path d="M273.740769,36.6042083 L279.785574,36.6042083 L279.785574,33.4026704 L275.053189,33.4026704 C272.079979,33.4026704 269.813409,33.7671284 268.416835,35.5436293 C267.214557,37.0732391 267.215176,38.959263 267.215766,41.3477315 L267.215766,47.0429295 C267.215766,47.0429295 267.215766,47.0429295 267.215766,47.0429295 L268.978682,47.0429295 L270.548512,47.0429295 L279.785574,47.0429295 L279.785574,43.8420104 L270.548512,43.8420104 L270.548512,41.9627931 L279.785574,41.9627931 L279.785574,38.761874 L270.734763,38.761874 C271.166668,37.509475 272.342339,36.6042083 273.740769,36.6042083" id="Fill-40" fill="#3F3537"></path>
                        <path d="M290.95383,40.2231094 C290.95383,42.2322693 289.286852,43.8670708 287.237472,43.8670708 L284.441231,43.8670708 L284.441231,36.5791479 L287.444143,36.5791479 C289.379669,36.5791479 290.95383,38.1217521 290.95383,40.0182951 L290.95383,40.2231094 Z M287.444143,33.4029798 L284.441231,33.4029798 L281.8925,33.4029798 L281.140071,33.4029798 L281.140071,47.0432389 L284.441231,47.0432389 L284.441231,47.0432389 C285.156534,47.0432389 286.061801,47.0432389 287.237472,47.0432389 C291.080679,47.0432389 294.19497,43.9895881 294.19497,40.2231094 L294.19497,40.0182951 C294.19497,36.3644333 291.172876,33.4029798 287.444143,33.4029798 L287.444143,33.4029798 Z" id="Fill-42" fill="#3F3537"></path>
                        <path d="M302.991835,40.2231094 L298.513147,40.2231094 L298.513147,36.5791479 L302.991835,36.5791479 C304.017144,36.5791479 304.851252,37.3965487 304.851252,38.4008193 C304.851252,39.4057086 304.017144,40.2231094 302.991835,40.2231094 M308.091772,38.4008193 C308.091772,35.6404674 305.808496,33.4029798 302.991835,33.4029798 L298.513147,33.4029798 L296.054757,33.4029798 L295.257776,33.4029798 L295.257776,47.0432389 L298.513147,47.0432389 L298.513147,43.3992775 L302.833429,43.3992775 C304.113054,43.4091779 304.614261,44.0607471 304.614261,45.7196808 L304.614261,47.0432389 L307.86097,47.0432389 L307.86097,45.7196808 C307.86097,44.0428027 307.390082,42.8120607 306.525655,41.9996102 C307.489705,41.0906308 308.091772,39.8159559 308.091772,38.4008193" id="Fill-44" fill="#3F3537"></path>
                    </g>
                </g>
            </g>
        </g>
    </g>
</svg>