<?xml version="1.0" encoding="UTF-8"?>
<svg width="180px" height="180px" viewBox="0 0 180 180" version="1.1" xmlns="http://www.w3.org/2000/svg" xmlns:xlink="http://www.w3.org/1999/xlink">
    <title>img/threat_score</title>
    <defs>
        <path d="M48.4307806,101 C61.6856146,123.958046 91.0419541,131.824053 114,118.569219 C136.958046,105.314385 144.824053,75.9580459 131.569219,53 C118.314385,30.0419541 88.9580459,22.1759466 66,35.4307806 C43.0419541,48.6856146 35.1759466,78.0419541 48.4307806,101 Z" id="path-1"></path>
        <mask id="mask-2" maskContentUnits="userSpaceOnUse" maskUnits="objectBoundingBox" x="-8" y="-8" width="112.01603" height="112.01603">
            <rect x="33.9919852" y="20.9919852" width="112.01603" height="112.01603" fill="white"></rect>
            <use xlink:href="#path-1" fill="black"></use>
        </mask>
    </defs>
    <g id="img/threat_score" stroke="none" stroke-width="1" fill="none" fill-rule="evenodd">
        <circle id="Oval" fill="#F5F2E9" transform="translate(57.500000, 57.500000) scale(-1, 1) translate(-57.500000, -57.500000) " cx="57.5" cy="57.5" r="47.5"></circle>
        <circle id="Oval-Copy" fill="#F5F2E9" transform="translate(112.000000, 112.000000) scale(-1, 1) translate(-112.000000, -112.000000) " cx="112" cy="112" r="59"></circle>
        <path d="M88,32 L92,32 C92.5522847,32 93,31.5522847 93,31 C93,30.4477153 92.5522847,30 92,30 L88,30 C87.4477153,30 87,30.4477153 87,31 C87,31.5522847 87.4477153,32 88,32 Z M102,32 L106,32 C106.552285,32 107,31.5522847 107,31 C107,30.4477153 106.552285,30 106,30 L102,30 C101.447715,30 101,30.4477153 101,31 C101,31.5522847 101.447715,32 102,32 Z M116,32 L120,32 C120.552285,32 121,31.5522847 121,31 C121,30.4477153 120.552285,30 120,30 L116,30 C115.447715,30 115,30.4477153 115,31 C115,31.5522847 115.447715,32 116,32 Z M130,32 L134,32 C134.552285,32 135,31.5522847 135,31 C135,30.4477153 134.552285,30 134,30 L130,30 C129.447715,30 129,30.4477153 129,31 C129,31.5522847 129.447715,32 130,32 Z M144,32 L145,32 C145.965814,32 146.924007,32.0594731 147.871015,32.1773425 C148.419071,32.2455563 148.918656,31.8565674 148.98687,31.3085115 C149.055084,30.7604555 148.666095,30.2608702 148.118039,30.1926563 C147.089134,30.0645936 146.048443,30 145,30 L144,30 C143.447715,30 143,30.4477153 143,31 C143,31.5522847 143.447715,32 144,32 Z M156.889457,35.3072536 C157.984634,35.9699463 159.023034,36.7232113 159.993628,37.5583745 C160.412265,37.9185981 161.043657,37.8712442 161.40388,37.4526066 C161.764104,37.0339691 161.71675,36.4025773 161.298113,36.0423538 C160.243508,35.1349016 159.115119,34.3163574 157.92486,33.5961305 C157.452346,33.3102121 156.837515,33.4614774 156.551597,33.933991 C156.265679,34.4065045 156.416944,35.0213352 156.889457,35.3072536 Z M165.793115,45.1559518 C166.340716,46.310489 166.791234,47.510005 167.139147,48.74375 C167.289044,49.2753037 167.841469,49.5846975 168.373023,49.4348004 C168.904577,49.2849034 169.21397,48.7324784 169.064073,48.2009247 C168.685665,46.8590418 168.195672,45.5544208 167.600158,44.2988658 C167.36348,43.7998647 166.767095,43.5872097 166.268094,43.8238874 C165.769093,44.0605652 165.556437,44.6569507 165.793115,45.1559518 Z M167.766511,58.2905882 C167.584325,59.5628279 167.296631,60.8111387 166.907485,62.0256143 C166.73896,62.551559 167.028706,63.1145378 167.554651,63.2830627 C168.080596,63.4515876 168.643575,63.1618416 168.812099,62.6358969 C169.23534,61.3150163 169.548223,59.9574079 169.746314,58.574098 C169.824604,58.0273903 169.444875,57.5207304 168.898168,57.4424413 C168.35146,57.3641523 167.8448,57.7438806 167.766511,58.2905882 Z M162.128554,70.3500107 C161.273979,71.3029333 160.341473,72.1836952 159.341399,72.9823734 C158.909847,73.3270195 158.839395,73.9562527 159.184041,74.3878052 C159.528687,74.8193577 160.15792,74.8898093 160.589473,74.5451633 C161.676019,73.6774269 162.689093,72.7205674 163.617514,71.685301 C163.986244,71.2741362 163.951844,70.6419064 163.540679,70.2731762 C163.129514,69.9044459 162.497285,69.9388459 162.128554,70.3500107 Z M150.803658,77.2617708 C149.57072,77.5822573 148.308443,77.8001782 147.026278,77.9120304 C146.476082,77.9600278 146.068971,78.4449586 146.116968,78.9951537 C146.164965,79.5453489 146.649896,79.9524606 147.200091,79.9044633 C148.593624,79.7828957 149.966059,79.5459571 151.306812,79.1974453 C151.841334,79.0585032 152.162014,78.5125528 152.023072,77.978031 C151.88413,77.4435092 151.33818,77.1228286 150.803658,77.2617708 Z M137.116286,78 L133.116286,78 C132.564002,78 132.116286,78.4477153 132.116286,79 C132.116286,79.5522847 132.564002,80 133.116286,80 L137.116286,80 C137.668571,80 138.116286,79.5522847 138.116286,79 C138.116286,78.4477153 137.668571,78 137.116286,78 Z M123.116286,78 L119.116286,78 C118.564002,78 118.116286,78.4477153 118.116286,79 C118.116286,79.5522847 118.564002,80 119.116286,80 L123.116286,80 C123.668571,80 124.116286,79.5522847 124.116286,79 C124.116286,78.4477153 123.668571,78 123.116286,78 Z M109.116286,78 L105.116286,78 C104.564002,78 104.116286,78.4477153 104.116286,79 C104.116286,79.5522847 104.564002,80 105.116286,80 L109.116286,80 C109.668571,80 110.116286,79.5522847 110.116286,79 C110.116286,78.4477153 109.668571,78 109.116286,78 Z M95.1162863,78 L91.1162863,78 C90.5640015,78 90.1162863,78.4477153 90.1162863,79 C90.1162863,79.5522847 90.5640015,80 91.1162863,80 L95.1162863,80 C95.668571,80 96.1162863,79.5522847 96.1162863,79 C96.1162863,78.4477153 95.668571,78 95.1162863,78 Z" id="Rectangle" fill="#4C433F" fill-rule="nonzero"></path>
        <path d="M11,80 L15,80 C15.5522847,80 16,79.5522847 16,79 C16,78.4477153 15.5522847,78 15,78 L11,78 C10.4477153,78 10,78.4477153 10,79 C10,79.5522847 10.4477153,80 11,80 Z M25,80 L29,80 C29.5522847,80 30,79.5522847 30,79 C30,78.4477153 29.5522847,78 29,78 L25,78 C24.4477153,78 24,78.4477153 24,79 C24,79.5522847 24.4477153,80 25,80 Z M39,80 L43,80 C43.5522847,80 44,79.5522847 44,79 C44,78.4477153 43.5522847,78 43,78 L39,78 C38.4477153,78 38,78.4477153 38,79 C38,79.5522847 38.4477153,80 39,80 Z M53,80 L57,80 C57.5522847,80 58,79.5522847 58,79 C58,78.4477153 57.5522847,78 57,78 L53,78 C52.4477153,78 52,78.4477153 52,79 C52,79.5522847 52.4477153,80 53,80 Z M67,80 L68,80 C68.9658145,80 69.9240068,80.0594731 70.8710149,80.1773425 C71.4190708,80.2455563 71.9186562,79.8565674 71.98687,79.3085115 C72.0550838,78.7604555 71.6660949,78.2608702 71.118039,78.1926563 C70.0891339,78.0645936 69.0484427,78 68,78 L67,78 C66.4477153,78 66,78.4477153 66,79 C66,79.5522847 66.4477153,80 67,80 Z M79.8894574,83.3072536 C80.9846344,83.9699463 82.023034,84.7232113 82.9936276,85.5583745 C83.4122651,85.9185981 84.0436568,85.8712442 84.4038804,85.4526066 C84.764104,85.0339691 84.7167501,84.4025773 84.2981126,84.0423538 C83.2435077,83.1349016 82.1151186,82.3163574 80.9248596,81.5961305 C80.452346,81.3102121 79.8375154,81.4614774 79.5515969,81.933991 C79.2656785,82.4065045 79.4169438,83.0213352 79.8894574,83.3072536 Z M88.7931153,93.1559518 C89.3407158,94.310489 89.7912336,95.510005 90.1391472,96.74375 C90.2890442,97.2753037 90.8414692,97.5846975 91.3730229,97.4348004 C91.9045766,97.2849034 92.2139704,96.7324784 92.0640733,96.2009247 C91.6856651,94.8590418 91.1956717,93.5544208 90.600158,92.2988658 C90.3634803,91.7998647 89.7670947,91.5872097 89.2680936,91.8238874 C88.7690926,92.0605652 88.5564375,92.6569507 88.7931153,93.1559518 Z M90.7665109,106.290588 C90.584325,107.562828 90.2966315,108.811139 89.9074853,110.025614 C89.7389604,110.551559 90.0287064,111.114538 90.5546511,111.283063 C91.0805957,111.451588 91.6435746,111.161842 91.8120994,110.635897 C92.2353403,109.315016 92.5482232,107.957408 92.7463145,106.574098 C92.8246035,106.02739 92.4448752,105.52073 91.8981676,105.442441 C91.3514599,105.364152 90.8448,105.743881 90.7665109,106.290588 Z M85.1285544,118.350011 C84.2739788,119.302933 83.3414733,120.183695 82.3413991,120.982373 C81.9098466,121.327019 81.839395,121.956253 82.1840411,122.387805 C82.5286871,122.819358 83.1579203,122.889809 83.5894728,122.545163 C84.6760189,121.677427 85.6890927,120.720567 86.6175137,119.685301 C86.9862439,119.274136 86.9518439,118.641906 86.5406792,118.273176 C86.1295144,117.904446 85.4972846,117.938846 85.1285544,118.350011 Z M73.8036579,125.261771 C72.5707202,125.582257 71.3084429,125.800178 70.0262775,125.91203 C69.4760824,125.960028 69.0689707,126.444959 69.116968,126.995154 C69.1649654,127.545349 69.6498962,127.952461 70.2000914,127.904463 C71.5936239,127.782896 72.9660589,127.545957 74.306812,127.197445 C74.8413337,127.058503 75.1620144,126.512553 75.0230722,125.978031 C74.88413,125.443509 74.3381797,125.122829 73.8036579,125.261771 Z M60.1162863,126 L56.1162863,126 C55.5640015,126 55.1162863,126.447715 55.1162863,127 C55.1162863,127.552285 55.5640015,128 56.1162863,128 L60.1162863,128 C60.668571,128 61.1162863,127.552285 61.1162863,127 C61.1162863,126.447715 60.668571,126 60.1162863,126 Z M46.1162863,126 L42.1162863,126 C41.5640015,126 41.1162863,126.447715 41.1162863,127 C41.1162863,127.552285 41.5640015,128 42.1162863,128 L46.1162863,128 C46.668571,128 47.1162863,127.552285 47.1162863,127 C47.1162863,126.447715 46.668571,126 46.1162863,126 Z M32.1162863,126 L28.1162863,126 C27.5640015,126 27.1162863,126.447715 27.1162863,127 C27.1162863,127.552285 27.5640015,128 28.1162863,128 L32.1162863,128 C32.668571,128 33.1162863,127.552285 33.1162863,127 C33.1162863,126.447715 32.668571,126 32.1162863,126 Z M18.1162863,126 L14.1162863,126 C13.5640015,126 13.1162863,126.447715 13.1162863,127 C13.1162863,127.552285 13.5640015,128 14.1162863,128 L18.1162863,128 C18.668571,128 19.1162863,127.552285 19.1162863,127 C19.1162863,126.447715 18.668571,126 18.1162863,126 Z" id="Rectangle-Copy-9" fill="#4C433F" fill-rule="nonzero" transform="translate(51.378270, 103.000000) scale(-1, 1) translate(-51.378270, -103.000000) "></path>
        <path d="M33,32 L37,32 C37.5522847,32 38,31.5522847 38,31 C38,30.4477153 37.5522847,30 37,30 L33,30 C32.4477153,30 32,30.4477153 32,31 C32,31.5522847 32.4477153,32 33,32 Z M47,32 L51,32 C51.5522847,32 52,31.5522847 52,31 C52,30.4477153 51.5522847,30 51,30 L47,30 C46.4477153,30 46,30.4477153 46,31 C46,31.5522847 46.4477153,32 47,32 Z M61,32 L65,32 C65.5522847,32 66,31.5522847 66,31 C66,30.4477153 65.5522847,30 65,30 L61,30 C60.4477153,30 60,30.4477153 60,31 C60,31.5522847 60.4477153,32 61,32 Z M75,32 L79,32 C79.5522847,32 80,31.5522847 80,31 C80,30.4477153 79.5522847,30 79,30 L75,30 C74.4477153,30 74,30.4477153 74,31 C74,31.5522847 74.4477153,32 75,32 Z" id="Line-3-Copy-7" fill="#4C433F" fill-rule="nonzero"></path>
        <path d="M35,138 C35.5522847,138 36,138.447715 36,139 L36,145 L42,145 C42.5522847,145 43,145.447715 43,146 C43,146.552285 42.5522847,147 42,147 L36,147 L36,153 C36,153.552285 35.5522847,154 35,154 C34.4477153,154 34,153.552285 34,153 L34,147 L28,147 C27.4477153,147 27,146.552285 27,146 C27,145.447715 27.4477153,145 28,145 L34,145 L34,139 C34,138.447715 34.4477153,138 35,138 Z" id="Combined-Shape" fill="#4C433F"></path>
        <path d="M14,48 L18,48 C18.5522847,48 19,47.5522847 19,47 C19,46.4477153 18.5522847,46 18,46 L14,46 C13.4477153,46 13,46.4477153 13,47 C13,47.5522847 13.4477153,48 14,48 Z M28,48 L32,48 C32.5522847,48 33,47.5522847 33,47 C33,46.4477153 32.5522847,46 32,46 L28,46 C27.4477153,46 27,46.4477153 27,47 C27,47.5522847 27.4477153,48 28,48 Z M42,48 L46,48 C46.5522847,48 47,47.5522847 47,47 C47,46.4477153 46.5522847,46 46,46 L42,46 C41.4477153,46 41,46.4477153 41,47 C41,47.5522847 41.4477153,48 42,48 Z" id="Line-3-Copy-9" fill="#4C433F" fill-rule="nonzero"></path>
        <path d="M120,171 L124,171 C124.552285,171 125,170.552285 125,170 C125,169.447715 124.552285,169 124,169 L120,169 C119.447715,169 119,169.447715 119,170 C119,170.552285 119.447715,171 120,171 Z M134,171 L138,171 C138.552285,171 139,170.552285 139,170 C139,169.447715 138.552285,169 138,169 L134,169 C133.447715,169 133,169.447715 133,170 C133,170.552285 133.447715,171 134,171 Z M148,171 L152,171 C152.552285,171 153,170.552285 153,170 C153,169.447715 152.552285,169 152,169 L148,169 C147.447715,169 147,169.447715 147,170 C147,170.552285 147.447715,171 148,171 Z" id="Line-3-Copy-10" fill="#4C433F" fill-rule="nonzero"></path>
        <path d="M48,147 L52,147 C52.5522847,147 53,146.552285 53,146 C53,145.447715 52.5522847,145 52,145 L48,145 C47.4477153,145 47,145.447715 47,146 C47,146.552285 47.4477153,147 48,147 Z M62,147 L66,147 C66.5522847,147 67,146.552285 67,146 C67,145.447715 66.5522847,145 66,145 L62,145 C61.4477153,145 61,145.447715 61,146 C61,146.552285 61.4477153,147 62,147 Z M76,147 L80,147 C80.5522847,147 81,146.552285 81,146 C81,145.447715 80.5522847,145 80,145 L76,145 C75.4477153,145 75,145.447715 75,146 C75,146.552285 75.4477153,147 76,147 Z M90,147 L94,147 C94.5522847,147 95,146.552285 95,146 C95,145.447715 94.5522847,145 94,145 L90,145 C89.4477153,145 89,145.447715 89,146 C89,146.552285 89.4477153,147 90,147 Z M104,147 L108,147 C108.552285,147 109,146.552285 109,146 C109,145.447715 108.552285,145 108,145 L104,145 C103.447715,145 103,145.447715 103,146 C103,146.552285 103.447715,147 104,147 Z" id="Line-3-Copy-8" fill="#4C433F" fill-rule="nonzero"></path>
        <path d="M90,17 C123.137085,17 150,43.862915 150,77 C150,110.137085 123.137085,137 90,137 C56.862915,137 30,110.137085 30,77 C30,43.862915 56.862915,17 90,17 Z M90,21 C59.072054,21 34,46.072054 34,77 C34,107.927946 59.072054,133 90,133 C120.927946,133 146,107.927946 146,77 C146,46.072054 120.927946,21 90,21 Z" id="外圈線" fill="#4C433F" fill-rule="nonzero"></path>
        <use id="深綠環" stroke="#5AA2BF" mask="url(#mask-2)" stroke-width="16" fill="#FFFFFF" stroke-dasharray="160,134" xlink:href="#path-1"></use>
        <path d="M90,21 C59.072054,21 34,46.072054 34,77 C34,107.927946 59.072054,133 90,133 C120.927946,133 146,107.927946 146,77 C146,46.072054 120.927946,21 90,21 Z M90,29 C116.509668,29 138,50.490332 138,77 C138,103.509668 116.509668,125 90,125 C63.490332,125 42,103.509668 42,77 C42,50.490332 63.490332,29 90,29 Z" id="淺綠環" fill="#88B9D8" fill-rule="nonzero"></path>
        <path d="M48.8987712,101.8229 C62.5522595,124.54612 92.0414086,131.898591 114.764629,118.245103 C137.48785,104.591614 144.84032,75.1024652 131.186832,52.3792447 C129.533932,49.6283578 127.648951,47.1027396 125.571987,44.8123882 L131.498009,39.4381656 C133.947716,42.1395337 136.139361,45.0888054 138.04417,48.2589401 C153.97324,74.7693641 145.395358,109.173371 118.884934,125.102441 C92.3745098,141.031511 57.9705025,132.453628 42.0414328,105.943204 L48.8987712,101.8229 Z M48.886718,101.803391 L42.0274395,105.919903 C40.5874089,103.520701 39.3357383,101.035272 38.2771356,98.4797388 L45.6678536,95.417503 C46.4725561,97.3601808 47.4140676,99.2715224 48.4954627,101.139196 L48.886718,101.803391 Z" id="Shape" fill="#5AA2BF" fill-rule="nonzero"></path>
        <path d="M90,29 C116.509668,29 138,50.490332 138,77 C138,103.509668 116.509668,125 90,125 C63.490332,125 42,103.509668 42,77 C42,50.490332 63.490332,29 90,29 Z M90,33 C65.699471,33 46,52.699471 46,77 C46,101.300529 65.699471,121 90,121 C114.300529,121 134,101.300529 134,77 C134,52.699471 114.300529,33 90,33 Z" id="內圈線" fill="#4C433F" fill-rule="nonzero"></path>
        <path d="M101.000251,118 C125.300642,118 145,98.300529 145,74 C145,74 57,74.2293648 57,74 C57,98.300529 76.6998613,118 101.000251,118 Z" id="內圈線" fill="#E7E7E7" transform="translate(101.000000, 96.000000) rotate(-30.000000) translate(-101.000000, -96.000000) "></path>
        <path d="M70.044,92 C70.8466667,92 71.5606667,91.846 72.186,91.538 C72.8113333,91.23 73.2826667,90.852 73.6,90.404 L73.6,90.404 L82.868,77.188 C83.5586667,76.1986667 84.184,75.214 84.744,74.234 C85.304,73.254 85.7846667,72.246 86.186,71.21 C86.5873333,70.174 86.8953333,69.096 87.11,67.976 C87.3246667,66.856 87.432,65.6706667 87.432,64.42 C87.432,62.46 87.1193333,60.6586667 86.494,59.016 C85.8686667,57.3733333 84.9726667,55.964 83.806,54.788 C82.6393333,53.612 81.23,52.6973333 79.578,52.044 C77.926,51.3906667 76.064,51.064 73.992,51.064 C71.9386667,51.064 70.0626667,51.4093333 68.364,52.1 C66.6653333,52.7906667 65.2093333,53.7333333 63.996,54.928 C62.7826667,56.1226667 61.84,57.5133333 61.168,59.1 C60.496,60.6866667 60.16,62.3853333 60.16,64.196 C60.16,66.1373333 60.4773333,67.8313333 61.112,69.278 C61.7466667,70.7246667 62.5913333,71.938 63.646,72.918 C64.7006667,73.898 65.9,74.6306667 67.244,75.116 C68.588,75.6013333 69.96,75.844 71.36,75.844 C72.592,75.844 73.768,75.69 74.888,75.382 C76.008,75.074 77.0346667,74.6213333 77.968,74.024 C77.7066667,74.3973333 77.436,74.7706667 77.156,75.144 C76.876,75.5173333 76.5773333,75.9 76.26,76.292 L76.26,76.292 L63.688,92 L70.044,92 Z M73.796,70.608 C71.6493333,70.608 69.9926667,70.0153333 68.826,68.83 C67.6593333,67.6446667 67.076,65.9226667 67.076,63.664 C67.076,62.656 67.2346667,61.7273333 67.552,60.878 C67.8693333,60.0286667 68.322,59.296 68.91,58.68 C69.498,58.064 70.212,57.5833333 71.052,57.238 C71.892,56.8926667 72.8346667,56.72 73.88,56.72 C74.888,56.72 75.8166667,56.8786667 76.666,57.196 C77.5153333,57.5133333 78.248,57.9706667 78.864,58.568 C79.48,59.1653333 79.956,59.898 80.292,60.766 C80.628,61.634 80.796,62.6186667 80.796,63.72 C80.796,64.6906667 80.642,65.596 80.334,66.436 C80.026,67.276 79.5733333,68.004 78.976,68.62 C78.3786667,69.236 77.646,69.7213333 76.778,70.076 C75.91,70.4306667 74.916,70.608 73.796,70.608 Z M105.24,92.448 C107.330667,92.448 109.239333,92.168 110.966,91.608 C112.692667,91.048 114.172,90.2546667 115.404,89.228 C116.636,88.2013333 117.592667,86.96 118.274,85.504 C118.955333,84.048 119.296,82.424 119.296,80.632 C119.296,78.2426667 118.708,76.222 117.532,74.57 C116.356,72.918 114.526667,71.6906667 112.044,70.888 C114.004,70.0666667 115.478667,68.9 116.468,67.388 C117.457333,65.876 117.952,64.056 117.952,61.928 C117.952,60.3973333 117.639333,58.9693333 117.014,57.644 C116.388667,56.3186667 115.516,55.166 114.396,54.186 C113.276,53.206 111.936667,52.4406667 110.378,51.89 C108.819333,51.3393333 107.106667,51.064 105.24,51.064 C103.373333,51.064 101.660667,51.3393333 100.102,51.89 C98.5433333,52.4406667 97.204,53.206 96.084,54.186 C94.964,55.166 94.0913333,56.3186667 93.466,57.644 C92.8406667,58.9693333 92.528,60.3973333 92.528,61.928 C92.528,64.056 93.018,65.876 93.998,67.388 C94.978,68.9 96.4573333,70.0666667 98.436,70.888 C95.9533333,71.6906667 94.124,72.918 92.948,74.57 C91.772,76.222 91.184,78.2426667 91.184,80.632 C91.184,82.424 91.5246667,84.048 92.206,85.504 C92.8873333,86.96 93.844,88.2013333 95.076,89.228 C96.308,90.2546667 97.7873333,91.048 99.514,91.608 C101.240667,92.168 103.149333,92.448 105.24,92.448 Z M105.24,68.34 C104.12,68.34 103.177333,68.1626667 102.412,67.808 C101.646667,67.4533333 101.030667,66.982 100.564,66.394 C100.097333,65.806 99.766,65.134 99.57,64.378 C99.374,63.622 99.276,62.8426667 99.276,62.04 C99.276,61.2746667 99.3926667,60.5466667 99.626,59.856 C99.8593333,59.1653333 100.223333,58.554 100.718,58.022 C101.212667,57.49 101.833333,57.0653333 102.58,56.748 C103.326667,56.4306667 104.213333,56.272 105.24,56.272 C106.266667,56.272 107.153333,56.4306667 107.9,56.748 C108.646667,57.0653333 109.262667,57.49 109.748,58.022 C110.233333,58.554 110.597333,59.1653333 110.84,59.856 C111.082667,60.5466667 111.204,61.2746667 111.204,62.04 C111.204,62.8426667 111.106,63.622 110.91,64.378 C110.714,65.134 110.382667,65.806 109.916,66.394 C109.449333,66.982 108.833333,67.4533333 108.068,67.808 C107.302667,68.1626667 106.36,68.34 105.24,68.34 Z M105.24,87.044 C104.101333,87.044 103.102667,86.8806667 102.244,86.554 C101.385333,86.2273333 100.662,85.7746667 100.074,85.196 C99.486,84.6173333 99.0426667,83.9266667 98.744,83.124 C98.4453333,82.3213333 98.296,81.4533333 98.296,80.52 C98.296,78.2986667 98.912,76.6186667 100.144,75.48 C101.376,74.3413333 103.074667,73.772 105.24,73.772 C107.405333,73.772 109.104,74.3413333 110.336,75.48 C111.568,76.6186667 112.184,78.2986667 112.184,80.52 C112.184,81.4533333 112.034667,82.3213333 111.736,83.124 C111.437333,83.9266667 110.994,84.6173333 110.406,85.196 C109.818,85.7746667 109.094667,86.2273333 108.236,86.554 C107.377333,86.8806667 106.378667,87.044 105.24,87.044 Z" id="98" fill="#4C433F" fill-rule="nonzero"></path>
        <path d="M73.328,111 L73.328,106.072 L78.064,106.072 L78.064,111 L80.784,111 L80.784,99.344 L78.064,99.344 L78.064,104.216 L73.328,104.216 L73.328,99.344 L70.608,99.344 L70.608,111 L73.328,111 Z M85.664,111 L85.664,99.344 L82.944,99.344 L82.944,111 L85.664,111 Z M93.104,111.128 C93.5786667,111.128 94.0226667,111.104 94.436,111.056 C94.8493333,111.008 95.2386667,110.933333 95.604,110.832 C95.9693333,110.730667 96.3133333,110.601333 96.636,110.444 C96.9586667,110.286667 97.2693333,110.098667 97.568,109.88 L97.568,109.88 L97.568,104.96 L93.424,104.96 L93.424,106.448 C93.424,106.586667 93.472,106.701333 93.568,106.792 C93.664,106.882667 93.7973333,106.928 93.968,106.928 L93.968,106.928 L95.12,106.928 L95.12,108.696 C94.864,108.802667 94.592,108.888 94.304,108.952 C94.016,109.016 93.6853333,109.048 93.312,109.048 C92.8213333,109.048 92.3693333,108.961333 91.956,108.788 C91.5426667,108.614667 91.1853333,108.362667 90.884,108.032 C90.5826667,107.701333 90.3466667,107.296 90.176,106.816 C90.0053333,106.336 89.92,105.786667 89.92,105.168 C89.92,104.608 89.9973333,104.1 90.152,103.644 C90.3066667,103.188 90.5266667,102.797333 90.812,102.472 C91.0973333,102.146667 91.4426667,101.894667 91.848,101.716 C92.2533333,101.537333 92.7093333,101.448 93.216,101.448 C93.488,101.448 93.7333333,101.461333 93.952,101.488 C94.1706667,101.514667 94.3786667,101.557333 94.576,101.616 C94.7733333,101.674667 94.9666667,101.750667 95.156,101.844 C95.3453333,101.937333 95.5466667,102.048 95.76,102.176 C95.9306667,102.282667 96.096,102.336 96.256,102.336 C96.3786667,102.336 96.492,102.304 96.596,102.24 C96.7,102.176 96.7893333,102.088 96.864,101.976 L96.864,101.976 L97.648,100.784 C97.4133333,100.56 97.1466667,100.352 96.848,100.16 C96.5493333,99.968 96.22,99.8026667 95.86,99.664 C95.5,99.5253333 95.1066667,99.416 94.68,99.336 C94.2533333,99.256 93.7973333,99.216 93.312,99.216 C92.3733333,99.216 91.524,99.3626667 90.764,99.656 C90.004,99.9493333 89.356,100.36 88.82,100.888 C88.284,101.416 87.872,102.044 87.584,102.772 C87.296,103.5 87.152,104.298667 87.152,105.168 C87.152,106.021333 87.3026667,106.812 87.604,107.54 C87.9053333,108.268 88.3213333,108.897333 88.852,109.428 C89.3826667,109.958667 90.0106667,110.374667 90.736,110.676 C91.4613333,110.977333 92.2506667,111.128 93.104,111.128 Z M101.936,111 L101.936,106.072 L106.672,106.072 L106.672,111 L109.392,111 L109.392,99.344 L106.672,99.344 L106.672,104.216 L101.936,104.216 L101.936,99.344 L99.216,99.344 L99.216,111 L101.936,111 Z" id="HIGH" fill="#4C433F" fill-rule="nonzero"></path>
        <path d="M127.734914,95.5249783 L163.282266,157.504976 C163.831802,158.463142 163.500542,159.685377 162.542376,160.234914 C162.239523,160.408609 161.896478,160.5 161.547351,160.5 L90.4526485,160.5 C89.348079,160.5 88.4526485,159.604569 88.4526485,158.5 C88.4526485,158.150873 88.5440397,157.807828 88.7177345,157.504976 L124.265086,95.5249783 C124.814623,94.5668118 126.036858,94.2355518 126.995024,94.7850885 C127.302943,94.9616892 127.558313,95.2170592 127.734914,95.5249783 Z" id="Triangle" fill="#FFD36A"></path>
        <path d="M120.795258,93.5349299 L85.2479064,155.514927 C84.726822,156.423485 84.4526485,157.45262 84.4526485,158.5 C84.4526485,161.813708 87.13894,164.5 90.4526485,164.5 L161.547351,164.5 C162.594732,164.5 163.623867,164.225827 164.532424,163.704742 C167.406924,162.056132 168.400704,158.389427 166.752094,155.514927 L131.204742,93.5349299 C130.67494,92.6111725 129.90883,91.8450624 128.985073,91.3152604 C126.110573,89.6666503 122.443868,90.6604302 120.795258,93.5349299 Z M126.995024,94.7850885 C127.302943,94.9616892 127.558313,95.2170592 127.734914,95.5249783 L163.282266,157.504976 C163.831802,158.463142 163.500542,159.685377 162.542376,160.234914 C162.239523,160.408609 161.896478,160.5 161.547351,160.5 L90.4526485,160.5 C89.348079,160.5 88.4526485,159.604569 88.4526485,158.5 C88.4526485,158.150873 88.5440397,157.807828 88.7177345,157.504976 L124.265086,95.5249783 C124.814623,94.5668118 126.036858,94.2355518 126.995024,94.7850885 Z" id="Triangle" fill="#4C433F" fill-rule="nonzero"></path>
        <path d="M127.068682,110.605648 L148.882576,150.520433 C149.147433,151.005066 148.96927,151.612648 148.484638,151.877505 C148.337572,151.957878 148.172665,152 148.005071,152 L104.377282,152 C103.824998,152 103.377282,151.552285 103.377282,151 C103.377282,150.832405 103.419404,150.667498 103.499777,150.520433 L125.313671,110.605648 C125.578529,110.121015 126.186111,109.942852 126.670743,110.20771 C126.838749,110.299526 126.976865,110.437643 127.068682,110.605648 Z" id="Triangle" fill="#FFFFFF"></path>
        <path d="M123.55866,109.646514 L101.744766,149.561299 C101.503648,150.002495 101.377282,150.497216 101.377282,151 C101.377282,152.656854 102.720428,154 104.377282,154 L148.005071,154 C148.507855,154 149.002575,153.873635 149.443771,153.632516 C150.89767,152.837944 151.432159,151.015198 150.637587,149.561299 L128.823692,109.646514 C128.548242,109.142498 128.133893,108.72815 127.629877,108.452699 C126.175979,107.658127 124.353233,108.192616 123.55866,109.646514 Z M126.191,113.17 L146.319,150 L106.062,150 L126.191,113.17 Z" id="Triangle" fill="#4C433F" fill-rule="nonzero"></path>
        <path d="M127.534091,138.405167 C127.704545,137.510537 127.841856,136.632563 127.946023,135.771244 C128.050189,134.909925 128.102273,134.041468 128.102273,133.165874 L128.102273,133.165874 L128.102273,125 L123.982955,125 L123.982955,133.165874 C123.982955,134.041468 124.035038,134.909925 124.139205,135.771244 C124.243371,136.632563 124.380682,137.510537 124.551136,138.405167 L124.551136,138.405167 L127.534091,138.405167 Z M126,146 C126.350379,146 126.677083,145.938137 126.980114,145.814412 C127.283144,145.690687 127.548295,145.519375 127.775568,145.300476 C128.002841,145.081577 128.180398,144.82223 128.308239,144.522434 C128.43608,144.222638 128.5,143.901428 128.5,143.558804 C128.5,143.216179 128.43608,142.897349 128.308239,142.602311 C128.180398,142.307274 128.002841,142.050306 127.775568,141.831407 C127.548295,141.612508 127.283144,141.438817 126.980114,141.310333 C126.677083,141.181849 126.350379,141.117607 126,141.117607 C125.640152,141.117607 125.308712,141.181849 125.005682,141.310333 C124.702652,141.438817 124.439867,141.612508 124.21733,141.831407 C123.994792,142.050306 123.819602,142.307274 123.691761,142.602311 C123.56392,142.897349 123.5,143.216179 123.5,143.558804 C123.5,143.901428 123.56392,144.222638 123.691761,144.522434 C123.819602,144.82223 123.994792,145.081577 124.21733,145.300476 C124.439867,145.519375 124.702652,145.690687 125.005682,145.814412 C125.308712,145.938137 125.640152,146 126,146 Z" id="!" fill="#4C433F" fill-rule="nonzero"></path>
        <path d="M163,89 C163.552285,89 164,89.4477153 164,90 L164,96 L170,96 C170.552285,96 171,96.4477153 171,97 C171,97.5522847 170.552285,98 170,98 L164,98 L164,104 C164,104.552285 163.552285,105 163,105 C162.447715,105 162,104.552285 162,104 L162,98 L156,98 C155.447715,98 155,97.5522847 155,97 C155,96.4477153 155.447715,96 156,96 L162,96 L162,90 C162,89.4477153 162.447715,89 163,89 Z" id="Combined-Shape-Copy-2" fill="#4C433F"></path>
        <path d="M22,15 C22.5522847,15 23,15.4477153 23,16 L23,22 L29,22 C29.5522847,22 30,22.4477153 30,23 C30,23.5522847 29.5522847,24 29,24 L23,24 L23,30 C23,30.5522847 22.5522847,31 22,31 C21.4477153,31 21,30.5522847 21,30 L21,24 L15,24 C14.4477153,24 14,23.5522847 14,23 C14,22.4477153 14.4477153,22 15,22 L21,22 L21,16 C21,15.4477153 21.4477153,15 22,15 Z" id="Combined-Shape-Copy-3" fill="#4C433F"></path>
        <rect id="Rectangle" fill="#FFD36A" x="45" y="8" width="8" height="8"></rect>
        <rect id="Rectangle-Copy" fill="#FFD36A" x="152" y="47" width="8" height="8"></rect>
        <rect id="Rectangle-Copy-3" fill="#FFD36A" x="24" y="104" width="8" height="8"></rect>
        <rect id="Rectangle-Copy-4" fill="#FFD36A" x="67" y="159" width="8" height="8"></rect>
        <rect id="Rectangle-Copy-5" fill="#FFD36A" x="129" y="15" width="8" height="8"></rect>
        <rect id="Rectangle-Copy-6" fill="#FFD36A" x="165" y="123" width="8" height="8"></rect>
        <rect id="Rectangle-Copy-7" fill="#FFD36A" x="16" y="151" width="8" height="8"></rect>
    </g>
</svg>