<?xml version="1.0" encoding="UTF-8"?>
<svg width="180px" height="180px" viewBox="0 0 180 180" version="1.1" xmlns="http://www.w3.org/2000/svg" xmlns:xlink="http://www.w3.org/1999/xlink">
    <title>img/port_history</title>
    <g id="img/port_history" stroke="none" stroke-width="1" fill="none" fill-rule="evenodd">
        <circle id="Oval-Copy" fill="#F5F2E9" transform="translate(90.000000, 90.000000) scale(1, -1) translate(-90.000000, -90.000000) " cx="90" cy="90" r="80"></circle>
        <path d="M34,153 L38,153 C38.5522847,153 39,152.552285 39,152 C39,151.447715 38.5522847,151 38,151 L34,151 C33.4477153,151 33,151.447715 33,152 C33,152.552285 33.4477153,153 34,153 Z M48,153 L52,153 C52.5522847,153 53,152.552285 53,152 C53,151.447715 52.5522847,151 52,151 L48,151 C47.4477153,151 47,151.447715 47,152 C47,152.552285 47.4477153,153 48,153 Z M62,153 L66,153 C66.5522847,153 67,152.552285 67,152 C67,151.447715 66.5522847,151 66,151 L62,151 C61.4477153,151 61,151.447715 61,152 C61,152.552285 61.4477153,153 62,153 Z M76,153 L80,153 C80.5522847,153 81,152.552285 81,152 C81,151.447715 80.5522847,151 80,151 L76,151 C75.4477153,151 75,151.447715 75,152 C75,152.552285 75.4477153,153 76,153 Z M90,153 L94,153 C94.5522847,153 95,152.552285 95,152 C95,151.447715 94.5522847,151 94,151 L90,151 C89.4477153,151 89,151.447715 89,152 C89,152.552285 89.4477153,153 90,153 Z M104,153 L108,153 C108.552285,153 109,152.552285 109,152 C109,151.447715 108.552285,151 108,151 L104,151 C103.447715,151 103,151.447715 103,152 C103,152.552285 103.447715,153 104,153 Z M118,153 L122,153 C122.552285,153 123,152.552285 123,152 C123,151.447715 122.552285,151 122,151 L118,151 C117.447715,151 117,151.447715 117,152 C117,152.552285 117.447715,153 118,153 Z" id="Line-3-Copy-12" fill="#4C433F" fill-rule="nonzero"></path>
        <path d="M81,133 L85,133 C85.5522847,133 86,132.552285 86,132 C86,131.447715 85.5522847,131 85,131 L81,131 C80.4477153,131 80,131.447715 80,132 C80,132.552285 80.4477153,133 81,133 Z M95,133 L99,133 C99.5522847,133 100,132.552285 100,132 C100,131.447715 99.5522847,131 99,131 L95,131 C94.4477153,131 94,131.447715 94,132 C94,132.552285 94.4477153,133 95,133 Z M109,133 L113,133 C113.552285,133 114,132.552285 114,132 C114,131.447715 113.552285,131 113,131 L109,131 C108.447715,131 108,131.447715 108,132 C108,132.552285 108.447715,133 109,133 Z M123,133 L127,133 C127.552285,133 128,132.552285 128,132 C128,131.447715 127.552285,131 127,131 L123,131 C122.447715,131 122,131.447715 122,132 C122,132.552285 122.447715,133 123,133 Z M137,133 L141,133 C141.552285,133 142,132.552285 142,132 C142,131.447715 141.552285,131 141,131 L137,131 C136.447715,131 136,131.447715 136,132 C136,132.552285 136.447715,133 137,133 Z M151,133 L155,133 C155.552285,133 156,132.552285 156,132 C156,131.447715 155.552285,131 155,131 L151,131 C150.447715,131 150,131.447715 150,132 C150,132.552285 150.447715,133 151,133 Z M165,133 L169,133 C169.552285,133 170,132.552285 170,132 C170,131.447715 169.552285,131 169,131 L165,131 C164.447715,131 164,131.447715 164,132 C164,132.552285 164.447715,133 165,133 Z" id="Line-3-Copy-13" fill="#4C433F" fill-rule="nonzero"></path>
        <path d="M62,21 L66,21 C66.5522847,21 67,20.5522847 67,20 C67,19.4477153 66.5522847,19 66,19 L62,19 C61.4477153,19 61,19.4477153 61,20 C61,20.5522847 61.4477153,21 62,21 Z M76,21 L80,21 C80.5522847,21 81,20.5522847 81,20 C81,19.4477153 80.5522847,19 80,19 L76,19 C75.4477153,19 75,19.4477153 75,20 C75,20.5522847 75.4477153,21 76,21 Z M90,21 L94,21 C94.5522847,21 95,20.5522847 95,20 C95,19.4477153 94.5522847,19 94,19 L90,19 C89.4477153,19 89,19.4477153 89,20 C89,20.5522847 89.4477153,21 90,21 Z M104,21 L108,21 C108.552285,21 109,20.5522847 109,20 C109,19.4477153 108.552285,19 108,19 L104,19 C103.447715,19 103,19.4477153 103,20 C103,20.5522847 103.447715,21 104,21 Z M118,21 L122,21 C122.552285,21 123,20.5522847 123,20 C123,19.4477153 122.552285,19 122,19 L118,19 C117.447715,19 117,19.4477153 117,20 C117,20.5522847 117.447715,21 118,21 Z M132,21 L136,21 C136.552285,21 137,20.5522847 137,20 C137,19.4477153 136.552285,19 136,19 L132,19 C131.447715,19 131,19.4477153 131,20 C131,20.5522847 131.447715,21 132,21 Z M146,21 L150,21 C150.552285,21 151,20.5522847 151,20 C151,19.4477153 150.552285,19 150,19 L146,19 C145.447715,19 145,19.4477153 145,20 C145,20.5522847 145.447715,21 146,21 Z" id="Line-3-Copy-14" fill="#4C433F" fill-rule="nonzero"></path>
        <g id="Group" transform="translate(17.000000, 58.000000)">
            <rect id="Rectangle" fill="#FFFFFF" x="2" y="0" width="110" height="80" rx="1"></rect>
            <path d="M111,0 L3,0 C1.34314575,0 0,1.34314575 0,3 L0,81 C0,82.6568542 1.34314575,84 3,84 L111,84 C112.656854,84 114,82.6568542 114,81 L114,3 C114,1.34314575 112.656854,0 111,0 Z M110,4 L110,80 L4,80 L4,4 L110,4 Z" id="Rectangle" fill="#4C433F" fill-rule="nonzero"></path>
            <rect id="Rectangle" fill="#E7E7E7" x="4" y="28" width="106" height="52"></rect>
            <rect id="Rectangle-Copy" fill="#F5AB1A" x="2" y="2" width="110" height="24" rx="1"></rect>
            <path d="M111,0 L3,0 C1.34314575,0 0,1.34314575 0,3 L0,25 C0,26.6568542 1.34314575,28 3,28 L111,28 C112.656854,28 114,26.6568542 114,25 L114,3 C114,1.34314575 112.656854,0 111,0 Z M110,4 L110,24 L4,24 L4,4 L110,4 Z" id="Rectangle-Copy" fill="#4C433F" fill-rule="nonzero"></path>
            <circle id="Oval" fill="#4C433F" cx="78" cy="14" r="4"></circle>
            <circle id="Oval-Copy" fill="#4C433F" cx="90" cy="14" r="4"></circle>
            <circle id="Oval-Copy-2" fill="#4C433F" cx="102" cy="14" r="4"></circle>
        </g>
        <g id="Group-Copy" transform="translate(33.000000, 42.000000)">
            <rect id="Rectangle" fill="#FFFFFF" x="2" y="0" width="110" height="80" rx="1"></rect>
            <path d="M111,0 L3,0 C1.34314575,0 0,1.34314575 0,3 L0,81 C0,82.6568542 1.34314575,84 3,84 L111,84 C112.656854,84 114,82.6568542 114,81 L114,3 C114,1.34314575 112.656854,0 111,0 Z M110,4 L110,80 L4,80 L4,4 L110,4 Z" id="Rectangle" fill="#4C433F" fill-rule="nonzero"></path>
            <rect id="Rectangle" fill="#E7E7E7" x="4" y="28" width="106" height="52"></rect>
            <rect id="Rectangle-Copy" fill="#F5AB1A" x="2" y="2" width="110" height="24" rx="1"></rect>
            <path d="M111,0 L3,0 C1.34314575,0 0,1.34314575 0,3 L0,25 C0,26.6568542 1.34314575,28 3,28 L111,28 C112.656854,28 114,26.6568542 114,25 L114,3 C114,1.34314575 112.656854,0 111,0 Z M110,4 L110,24 L4,24 L4,4 L110,4 Z" id="Rectangle-Copy" fill="#4C433F" fill-rule="nonzero"></path>
            <circle id="Oval" fill="#4C433F" cx="78" cy="14" r="4"></circle>
            <circle id="Oval-Copy" fill="#4C433F" cx="90" cy="14" r="4"></circle>
            <circle id="Oval-Copy-2" fill="#4C433F" cx="102" cy="14" r="4"></circle>
        </g>
        <g id="Group-Copy-2" transform="translate(49.000000, 26.000000)">
            <rect id="Rectangle" fill="#FFFFFF" x="2" y="1" width="110" height="80" rx="1"></rect>
            <path d="M111,0 L3,0 C1.34314575,0 0,1.34314575 0,3 L0,81 C0,82.6568542 1.34314575,84 3,84 L111,84 C112.656854,84 114,82.6568542 114,81 L114,3 C114,1.34314575 112.656854,0 111,0 Z M110,4 L110,80 L4,80 L4,4 L110,4 Z" id="Rectangle" fill="#4C433F" fill-rule="nonzero"></path>
            <rect id="Rectangle" fill="#E7E7E7" x="10" y="34" width="59" height="5"></rect>
            <rect id="Rectangle-Copy-3" fill="#E7E7E7" x="10" y="43" width="59" height="5"></rect>
            <rect id="Rectangle-Copy-2" fill="#E7E7E7" x="72" y="34" width="32" height="5"></rect>
            <rect id="Rectangle-Copy-4" fill="#E7E7E7" x="72" y="43" width="32" height="5"></rect>
            <rect id="Rectangle-Copy-7" fill="#E7E7E7" x="10" y="52" width="59" height="5"></rect>
            <rect id="Rectangle-Copy-5" fill="#E7E7E7" x="72" y="52" width="32" height="5"></rect>
            <rect id="Rectangle-Copy-12" fill="#E7E7E7" x="72" y="61" width="32" height="14"></rect>
            <rect id="Rectangle-Copy-8" fill="#E7E7E7" x="10" y="61" width="27.14" height="5"></rect>
            <rect id="Rectangle-Copy-10" fill="#E7E7E7" x="40.94" y="61" width="28.06" height="5"></rect>
            <rect id="Rectangle-Copy-9" fill="#E7E7E7" x="10" y="70" width="27.14" height="5"></rect>
            <rect id="Rectangle-Copy-11" fill="#E7E7E7" x="40.94" y="70" width="28.06" height="5"></rect>
            <rect id="Rectangle-Copy" fill="#F5AB1A" x="2" y="2" width="110" height="24" rx="1"></rect>
            <path d="M111,0 L3,0 C1.34314575,0 0,1.34314575 0,3 L0,25 C0,26.6568542 1.34314575,28 3,28 L111,28 C112.656854,28 114,26.6568542 114,25 L114,3 C114,1.34314575 112.656854,0 111,0 Z M110,4 L110,24 L4,24 L4,4 L110,4 Z" id="Rectangle-Copy" fill="#4C433F" fill-rule="nonzero"></path>
            <rect id="Rectangle-Copy-6" fill="#FFD36A" x="4" y="4" width="106" height="10"></rect>
            <circle id="Oval" fill="#4C433F" cx="78" cy="14" r="4"></circle>
            <circle id="Oval-Copy" fill="#4C433F" cx="90" cy="14" r="4"></circle>
            <circle id="Oval-Copy-2" fill="#4C433F" cx="102" cy="14" r="4"></circle>
        </g>
        <path d="M11,37 L15,37 C15.5522847,37 16,36.5522847 16,36 C16,35.4477153 15.5522847,35 15,35 L11,35 C10.4477153,35 10,35.4477153 10,36 C10,36.5522847 10.4477153,37 11,37 Z M25,37 L29,37 C29.5522847,37 30,36.5522847 30,36 C30,35.4477153 29.5522847,35 29,35 L25,35 C24.4477153,35 24,35.4477153 24,36 C24,36.5522847 24.4477153,37 25,37 Z M39,37 L43,37 C43.5522847,37 44,36.5522847 44,36 C44,35.4477153 43.5522847,35 43,35 L39,35 C38.4477153,35 38,35.4477153 38,36 C38,36.5522847 38.4477153,37 39,37 Z" id="Line-3-Copy-13" fill="#4C433F" fill-rule="nonzero"></path>
        <path d="M37,10 L41,10 C41.5522847,10 42,9.55228475 42,9 C42,8.44771525 41.5522847,8 41,8 L37,8 C36.4477153,8 36,8.44771525 36,9 C36,9.55228475 36.4477153,10 37,10 Z M51,10 L55,10 C55.5522847,10 56,9.55228475 56,9 C56,8.44771525 55.5522847,8 55,8 L51,8 C50.4477153,8 50,8.44771525 50,9 C50,9.55228475 50.4477153,10 51,10 Z M65,10 L69,10 C69.5522847,10 70,9.55228475 70,9 C70,8.44771525 69.5522847,8 69,8 L65,8 C64.4477153,8 64,8.44771525 64,9 C64,9.55228475 64.4477153,10 65,10 Z" id="Line-3-Copy-15" fill="#4C433F" fill-rule="nonzero"></path>
        <path d="M88,166 L92,166 C92.5522847,166 93,165.552285 93,165 C93,164.447715 92.5522847,164 92,164 L88,164 C87.4477153,164 87,164.447715 87,165 C87,165.552285 87.4477153,166 88,166 Z M102,166 L106,166 C106.552285,166 107,165.552285 107,165 C107,164.447715 106.552285,164 106,164 L102,164 C101.447715,164 101,164.447715 101,165 C101,165.552285 101.447715,166 102,166 Z M116,166 L120,166 C120.552285,166 121,165.552285 121,165 C121,164.447715 120.552285,164 120,164 L116,164 C115.447715,164 115,164.447715 115,165 C115,165.552285 115.447715,166 116,166 Z" id="Line-3-Copy-16" fill="#4C433F" fill-rule="nonzero"></path>
        <polygon id="Triangle-Copy-4" fill="#88B9D8" transform="translate(151.000000, 10.000000) scale(-1, 1) rotate(-270.000000) translate(-151.000000, -10.000000) " points="151 6 156 14 146 14"></polygon>
        <polygon id="Triangle-Copy-10" fill="#88B9D8" transform="translate(166.000000, 155.000000) scale(-1, 1) rotate(-270.000000) translate(-166.000000, -155.000000) " points="166 151 171 159 161 159"></polygon>
        <polygon id="Triangle-Copy-5" fill="#88B9D8" transform="translate(23.000000, 152.000000) scale(-1, 1) rotate(-270.000000) translate(-23.000000, -152.000000) " points="23 148 28 156 18 156"></polygon>
        <polygon id="Triangle-Copy-6" fill="#88B9D8" transform="translate(76.000000, 165.000000) scale(-1, 1) rotate(-270.000000) translate(-76.000000, -165.000000) " points="76 161 81 169 71 169"></polygon>
        <polygon id="Triangle-Copy-7" fill="#88B9D8" transform="translate(151.000000, 143.000000) scale(-1, 1) rotate(-270.000000) translate(-151.000000, -143.000000) " points="151 139 156 147 146 147"></polygon>
        <polygon id="Triangle-Copy-8" fill="#88B9D8" transform="translate(10.000000, 105.000000) scale(-1, 1) rotate(-270.000000) translate(-10.000000, -105.000000) " points="10 101 15 109 5 109"></polygon>
        <polygon id="Triangle-Copy-9" fill="#88B9D8" transform="translate(40.000000, 23.000000) scale(-1, 1) rotate(-270.000000) translate(-40.000000, -23.000000) " points="40 19 45 27 35 27"></polygon>
        <circle id="Oval" fill="#88B9D8" cx="137" cy="125" r="35"></circle>
        <path d="M137,90 C156.329966,90 172,105.670034 172,125 C172,144.329966 156.329966,160 137,160 C117.670034,160 102,144.329966 102,125 C102,105.670034 117.670034,90 137,90 Z M137,94 C119.879173,94 106,107.879173 106,125 C106,142.120827 119.879173,156 137,156 C154.120827,156 168,142.120827 168,125 C168,107.879173 154.120827,94 137,94 Z" id="Oval" fill="#4C433F" fill-rule="nonzero"></path>
        <circle id="Oval" fill="#FFFFFF" cx="137" cy="125" r="25"></circle>
        <path d="M137,100 C150.807119,100 162,111.192881 162,125 C162,138.807119 150.807119,150 137,150 C123.192881,150 112,138.807119 112,125 C112,111.192881 123.192881,100 137,100 Z M137,104 C125.40202,104 116,113.40202 116,125 C116,136.59798 125.40202,146 137,146 C148.59798,146 158,136.59798 158,125 C158,113.40202 148.59798,104 137,104 Z" id="Oval" fill="#4C433F" fill-rule="nonzero"></path>
        <g id="Group-2" transform="translate(127.000000, 115.000000)">
            <circle id="Oval" fill="#FFFFFF" cx="8.5" cy="8.5" r="6.5"></circle>
            <path d="M13.4459488,2.3069601 C16.2861365,5.14714773 16.5038256,9.616747 14.0990163,12.7067106 L19.71163,18.3192564 C20.0961233,18.7037497 20.0961233,19.3271366 19.71163,19.71163 C19.3271366,20.0961233 18.7037497,20.0961233 18.3192564,19.71163 L12.7059246,14.099628 C9.61598907,16.5037887 5.14690691,16.2858956 2.3069601,13.4459488 C-0.7689867,10.370002 -0.7689867,5.3829069 2.3069601,2.3069601 C5.3829069,-0.7689867 10.370002,-0.7689867 13.4459488,2.3069601 Z M12.0535752,3.69933369 C9.74661514,1.39237359 6.00629379,1.39237359 3.69933369,3.69933369 C1.39237359,6.00629379 1.39237359,9.74661514 3.69933369,12.0535752 C6.00629379,14.3605353 9.74661514,14.3605353 12.0535752,12.0535752 C14.3605353,9.74661514 14.3605353,6.00629379 12.0535752,3.69933369 Z" id="Shape" fill="#4C433F" fill-rule="nonzero"></path>
        </g>
    </g>
</svg>