<?xml version="1.0" encoding="UTF-8"?>
<svg width="180px" height="180px" viewBox="0 0 180 180" version="1.1" xmlns="http://www.w3.org/2000/svg" xmlns:xlink="http://www.w3.org/1999/xlink">
    <title>img/auto_update</title>
    <g id="img/auto_update" stroke="none" stroke-width="1" fill="none" fill-rule="evenodd">
        <circle id="Oval" fill="#F5F2E9" cx="90" cy="90" r="80"></circle>
        <path d="M42,43 L46,43 C46.5522847,43 47,42.5522847 47,42 C47,41.4477153 46.5522847,41 46,41 L42,41 C41.4477153,41 41,41.4477153 41,42 C41,42.5522847 41.4477153,43 42,43 Z M56,43 L60,43 C60.5522847,43 61,42.5522847 61,42 C61,41.4477153 60.5522847,41 60,41 L56,41 C55.4477153,41 55,41.4477153 55,42 C55,42.5522847 55.4477153,43 56,43 Z M70,43 L74,43 C74.5522847,43 75,42.5522847 75,42 C75,41.4477153 74.5522847,41 74,41 L70,41 C69.4477153,41 69,41.4477153 69,42 C69,42.5522847 69.4477153,43 70,43 Z M84,43 L88,43 C88.5522847,43 89,42.5522847 89,42 C89,41.4477153 88.5522847,41 88,41 L84,41 C83.4477153,41 83,41.4477153 83,42 C83,42.5522847 83.4477153,43 84,43 Z M98,43 L102,43 C102.552285,43 103,42.5522847 103,42 C103,41.4477153 102.552285,41 102,41 L98,41 C97.4477153,41 97,41.4477153 97,42 C97,42.5522847 97.4477153,43 98,43 Z" id="Line-3-Copy" fill="#4C433F" fill-rule="nonzero"></path>
        <path d="M101.010638,162.749943 L105.010411,162.707393 C105.562665,162.701518 106.005592,162.249065 105.999775,161.696812 C105.993842,161.144558 105.541389,160.701631 104.989136,160.707506 L100.989362,160.750057 C100.437109,160.755932 99.9941815,161.208384 99.9999988,161.760638 C100.005932,162.312891 100.458384,162.755818 101.010638,162.749943 Z M115.009846,162.601016 L119.009619,162.558465 C119.561873,162.55259 120.0048,162.100137 119.998983,161.547884 C119.99305,160.99563 119.540597,160.552703 118.988344,160.558578 L114.98857,160.601129 C114.436317,160.607004 113.993389,161.059456 113.999207,161.61171 C114.005139,162.163963 114.457592,162.606891 115.009846,162.601016 Z M129.009053,162.452088 L133.008827,162.409537 C133.561081,162.403662 134.004008,161.95121 133.998191,161.398956 C133.992258,160.846703 133.539805,160.403775 132.987552,160.40965 L128.987778,160.452201 C128.435525,160.458076 127.992597,160.910529 127.998415,161.462782 C128.004347,162.015036 128.4568,162.457963 129.009053,162.452088 Z M143.008261,162.30316 L147.008035,162.260609 C147.560288,162.254734 148.003216,161.802282 147.997398,161.250028 C147.991466,160.697775 147.539013,160.254848 146.98676,160.260723 L142.986986,160.303273 C142.434732,160.309148 141.991805,160.761601 141.997622,161.313854 C142.003555,161.866108 142.456008,162.309035 143.008261,162.30316 Z" id="Line-3" fill="#4C433F" fill-rule="nonzero"></path>
        <path d="M19,33 L23,33 C23.5522847,33 24,32.5522847 24,32 C24,31.4477153 23.5522847,31 23,31 L19,31 C18.4477153,31 18,31.4477153 18,32 C18,32.5522847 18.4477153,33 19,33 Z M33,33 L37,33 C37.5522847,33 38,32.5522847 38,32 C38,31.4477153 37.5522847,31 37,31 L33,31 C32.4477153,31 32,31.4477153 32,32 C32,32.5522847 32.4477153,33 33,33 Z M47,33 L51,33 C51.5522847,33 52,32.5522847 52,32 C52,31.4477153 51.5522847,31 51,31 L47,31 C46.4477153,31 46,31.4477153 46,32 C46,32.5522847 46.4477153,33 47,33 Z" id="Line-3-Copy-2" fill="#4C433F" fill-rule="nonzero"></path>
        <path d="M27,167 L31,167 C31.5522847,167 32,166.552285 32,166 C32,165.447715 31.5522847,165 31,165 L27,165 C26.4477153,165 26,165.447715 26,166 C26,166.552285 26.4477153,167 27,167 Z M41,167 L45,167 C45.5522847,167 46,166.552285 46,166 C46,165.447715 45.5522847,165 45,165 L41,165 C40.4477153,165 40,165.447715 40,166 C40,166.552285 40.4477153,167 41,167 Z M55,167 L59,167 C59.5522847,167 60,166.552285 60,166 C60,165.447715 59.5522847,165 59,165 L55,165 C54.4477153,165 54,165.447715 54,166 C54,166.552285 54.4477153,167 55,167 Z" id="Line-3-Copy-7" fill="#4C433F" fill-rule="nonzero"></path>
        <path d="M137,100 L141,100 C141.552285,100 142,99.5522847 142,99 C142,98.4477153 141.552285,98 141,98 L137,98 C136.447715,98 136,98.4477153 136,99 C136,99.5522847 136.447715,100 137,100 Z M151,100 L155,100 C155.552285,100 156,99.5522847 156,99 C156,98.4477153 155.552285,98 155,98 L151,98 C150.447715,98 150,98.4477153 150,99 C150,99.5522847 150.447715,100 151,100 Z M165,100 L169,100 C169.552285,100 170,99.5522847 170,99 C170,98.4477153 169.552285,98 169,98 L165,98 C164.447715,98 164,98.4477153 164,99 C164,99.5522847 164.447715,100 165,100 Z" id="Line-3-Copy-3" fill="#4C433F" fill-rule="nonzero"></path>
        <line x1="64" y1="113" x2="96" y2="113" id="Line-3-Copy-4" stroke="#4C433F" stroke-width="2" stroke-linecap="round" stroke-linejoin="round" stroke-dasharray="4,10"></line>
        <path d="M49,15 L53,15 C53.5522847,15 54,14.5522847 54,14 C54,13.4477153 53.5522847,13 53,13 L49,13 C48.4477153,13 48,13.4477153 48,14 C48,14.5522847 48.4477153,15 49,15 Z M63,15 L67,15 C67.5522847,15 68,14.5522847 68,14 C68,13.4477153 67.5522847,13 67,13 L63,13 C62.4477153,13 62,13.4477153 62,14 C62,14.5522847 62.4477153,15 63,15 Z M77,15 L81,15 C81.5522847,15 82,14.5522847 82,14 C82,13.4477153 81.5522847,13 81,13 L77,13 C76.4477153,13 76,13.4477153 76,14 C76,14.5522847 76.4477153,15 77,15 Z M91,15 L95,15 C95.5522847,15 96,14.5522847 96,14 C96,13.4477153 95.5522847,13 95,13 L91,13 C90.4477153,13 90,13.4477153 90,14 C90,14.5522847 90.4477153,15 91,15 Z" id="Line-3-Copy-5" fill="#4C433F" fill-rule="nonzero"></path>
        <path d="M87,122 L91,122 C91.5522847,122 92,121.552285 92,121 C92,120.447715 91.5522847,120 91,120 L87,120 C86.4477153,120 86,120.447715 86,121 C86,121.552285 86.4477153,122 87,122 Z M101,122 L105,122 C105.552285,122 106,121.552285 106,121 C106,120.447715 105.552285,120 105,120 L101,120 C100.447715,120 100,120.447715 100,121 C100,121.552285 100.447715,122 101,122 Z M115,122 L119,122 C119.552285,122 120,121.552285 120,121 C120,120.447715 119.552285,120 119,120 L115,120 C114.447715,120 114,120.447715 114,121 C114,121.552285 114.447715,122 115,122 Z M129,122 L133,122 C133.552285,122 134,121.552285 134,121 C134,120.447715 133.552285,120 133,120 L129,120 C128.447715,120 128,120.447715 128,121 C128,121.552285 128.447715,122 129,122 Z" id="Line-3-Copy-6" fill="#4C433F" fill-rule="nonzero"></path>
        <g id="齒輪大" transform="translate(121.000000, 61.500000) rotate(16.000000) translate(-121.000000, -61.500000) translate(75.999180, 16.000000)">
            <path d="M50.1792421,4 L50.8641795,13.6088255 C53.7143632,14.1313058 56.4340992,15.0277834 58.9708377,16.2456163 L65.1617907,8.87665874 L73.5406542,14.9749307 L68.4541601,23.1573774 C70.4116751,25.2187719 72.1011823,27.5379446 73.4667255,30.0588411 L82.8003785,27.7421891 L86.0008196,37.6094004 L77.0880692,41.2322719 C77.2713775,42.6288069 77.36596,44.0533386 77.36596,45.5 C77.36596,46.9466614 77.2713775,48.3711931 77.0880692,49.7677281 L86.0008196,53.3905996 L82.8003785,63.2578109 L73.4667255,60.9411589 C72.1011823,63.4620554 70.4116751,65.7812281 68.4541601,67.8426226 L73.5406542,76.0250693 L65.1617907,82.1233413 L58.9708377,74.7543837 C56.4340992,75.9722166 53.7143632,76.8686942 50.8641795,77.3911745 L50.1792421,87 L39.8223971,87 L39.1374597,77.3911745 C36.2872759,76.8686942 33.56754,75.9722166 31.0308015,74.7543837 L24.8398485,82.1233413 L16.460985,76.0250693 L21.5474791,67.8426226 C19.5899641,65.7812281 17.9004569,63.4620554 16.5349137,60.9411589 L7.20126068,63.2578109 L4.00081959,53.3905996 L12.91357,49.7677281 C12.7302617,48.3711931 12.6356792,46.9466614 12.6356792,45.5 C12.6356792,44.0533386 12.7302617,42.6288069 12.91357,41.2322719 L4.00081959,37.6094004 L7.20126068,27.7421891 L16.5349137,30.0588411 C17.9004569,27.5379446 19.5899641,25.2187719 21.5474791,23.1573774 L16.460985,14.9749307 L24.8398485,8.87665874 L31.0308015,16.2456163 C33.56754,15.0277834 36.2872759,14.1313058 39.1374597,13.6088255 L39.8223971,4 L50.1792421,4 Z" id="Combined-Shape" fill="#FFD36A"></path>
            <path d="M39.8223971,0 L39.6204451,0.0050252403 C37.6128966,0.10514376 35.9769338,1.68965721 35.8325208,3.71559318 L35.3568196,10.375 L35.0642492,10.4555218 C34.1831423,10.7056935 33.3128938,10.9890486 32.4550803,11.3048392 L32.1878196,11.405 L27.9024574,6.30363976 C26.5508509,4.69485166 24.1848891,4.40608074 22.4860124,5.64255056 L14.1071489,11.7408225 L13.9362737,11.8722685 C12.3829524,13.1344227 11.9954614,15.368002 13.0638638,17.0866997 L16.5918196,22.763 L16.4043034,22.998024 C15.8394917,23.7171663 15.3017798,24.4573491 14.7924298,25.2169798 L14.6288196,25.464 L8.16484029,23.8599842 C6.12666515,23.3541006 4.04431323,24.5105085 3.39639933,26.508078 L0.195958238,36.3752894 L0.136739307,36.575222 C-0.383052672,38.5120001 0.6168502,40.5517064 2.49457394,41.314967 L8.67381959,43.826 L8.67047517,43.8938363 C8.64730106,44.4277236 8.63567917,44.9631999 8.63567917,45.5 L8.64438688,46.3041741 L8.65526171,46.7054544 L8.67381959,47.173 L2.49457394,49.685033 C0.552101105,50.4746129 -0.450967708,52.6301871 0.195958238,54.6247106 L3.39639933,64.491922 L3.463529,64.6825817 C4.17861255,66.5623687 6.19241273,67.6295806 8.16484029,67.1400158 L14.6288196,65.535 L14.7924298,65.7830202 C15.3017798,66.5426509 15.8394917,67.2828337 16.4043034,68.001976 L16.5918196,68.236 L13.0638638,73.9133003 C11.9573042,75.6933801 12.4124874,78.0257755 14.1071489,79.2591775 L22.4860124,85.3574494 L22.664069,85.4799277 C24.3468527,86.5724344 26.597458,86.2496729 27.9024574,84.6963602 L32.1878196,79.594 L32.4550803,79.6951608 C33.3128938,80.0109514 34.1831423,80.2943065 35.0642492,80.5444782 L35.3568196,80.624 L35.8325208,87.2844068 C35.9817476,89.377874 37.7236181,91 39.8223971,91 L50.1792421,91 L50.381194,90.9949748 C52.3887426,90.8948562 54.0247053,89.3103428 54.1691183,87.2844068 L54.6438196,80.624 L54.93739,80.5444782 C55.8184969,80.2943065 56.6887454,80.0109514 57.5465589,79.6951608 L57.8128196,79.594 L62.0991818,84.6963602 C63.4507883,86.3051483 65.8167501,86.5939193 67.5156267,85.3574494 L75.8944903,79.2591775 L76.0653655,79.1277315 C77.6186868,77.8655773 78.0061778,75.631998 76.9377754,73.9133003 L73.4088196,68.236 L73.5973357,68.001976 C74.1621475,67.2828337 74.6998594,66.5426509 75.2092093,65.7830202 L75.3718196,65.535 L81.8367989,67.1400158 C83.874974,67.6458994 85.9573259,66.4894915 86.6052398,64.491922 L89.8056809,54.6247106 L89.8648999,54.424778 C90.3846918,52.4879999 89.384789,50.4482936 87.5070652,49.685033 L81.3268196,47.173 L81.331164,47.1061637 C81.3543381,46.5722764 81.36596,46.0368001 81.36596,45.5 L81.3572523,44.6958259 L81.3463775,44.2945456 L81.3268196,43.826 L87.5070652,41.314967 C89.4495381,40.5253871 90.4526069,38.3698129 89.8056809,36.3752894 L86.6052398,26.508078 L86.5381102,26.3174183 C85.8230266,24.4376313 83.8092264,23.3704194 81.8367989,23.8599842 L75.3718196,25.464 L75.2092093,25.2169798 C74.6998594,24.4573491 74.1621475,23.7171663 73.5973357,22.998024 L73.4088196,22.763 L76.9377754,17.0866997 C78.044335,15.3066199 77.5891518,12.9742245 75.8944903,11.7408225 L67.5156267,5.64255056 L67.3375702,5.52007228 C65.6547864,4.42756556 63.4041812,4.75032711 62.0991818,6.30363976 L57.8128196,11.405 L57.5465589,11.3048392 C56.6887454,10.9890486 55.8184969,10.7056935 54.93739,10.4555218 L54.6438196,10.375 L54.1691183,3.71559318 C54.0198916,1.62212601 52.2780211,0 50.1792421,0 L39.8223971,0 Z M50.1792421,4 L50.8641795,13.6088255 C53.7143632,14.1313058 56.4340992,15.0277834 58.9708377,16.2456163 L65.1617907,8.87665874 L73.5406542,14.9749307 L68.4541601,23.1573774 C70.4116751,25.2187719 72.1011823,27.5379446 73.4667255,30.0588411 L82.8003785,27.7421891 L86.0008196,37.6094004 L77.0880692,41.2322719 C77.2713775,42.6288069 77.36596,44.0533386 77.36596,45.5 C77.36596,46.9466614 77.2713775,48.3711931 77.0880692,49.7677281 L86.0008196,53.3905996 L82.8003785,63.2578109 L73.4667255,60.9411589 C72.1011823,63.4620554 70.4116751,65.7812281 68.4541601,67.8426226 L73.5406542,76.0250693 L65.1617907,82.1233413 L58.9708377,74.7543837 C56.4340992,75.9722166 53.7143632,76.8686942 50.8641795,77.3911745 L50.1792421,87 L39.8223971,87 L39.1374597,77.3911745 C36.2872759,76.8686942 33.56754,75.9722166 31.0308015,74.7543837 L24.8398485,82.1233413 L16.460985,76.0250693 L21.5474791,67.8426226 C19.5899641,65.7812281 17.9004569,63.4620554 16.5349137,60.9411589 L7.20126068,63.2578109 L4.00081959,53.3905996 L12.91357,49.7677281 C12.7302617,48.3711931 12.6356792,46.9466614 12.6356792,45.5 C12.6356792,44.0533386 12.7302617,42.6288069 12.91357,41.2322719 L4.00081959,37.6094004 L7.20126068,27.7421891 L16.5349137,30.0588411 C17.9004569,27.5379446 19.5899641,25.2187719 21.5474791,23.1573774 L16.460985,14.9749307 L24.8398485,8.87665874 L31.0308015,16.2456163 C33.56754,15.0277834 36.2872759,14.1313058 39.1374597,13.6088255 L39.8223971,4 L50.1792421,4 Z" id="Combined-Shape" fill="#4C433F" fill-rule="nonzero"></path>
            <ellipse id="Oval" fill="#C8BDB8" cx="45.0008196" cy="45.5" rx="23.9580027" ry="24"></ellipse>
            <path d="M45.0008196,20 C30.9401642,20 19.5428168,31.4173264 19.5428168,45.5 C19.5428168,59.5826736 30.9401642,71 45.0008196,71 C59.0614749,71 70.4588223,59.5826736 70.4588223,45.5 C70.4588223,31.4173264 59.0614749,20 45.0008196,20 Z M45.0008196,23 C57.4034433,23 67.4588223,33.0730056 67.4588223,45.5 C67.4588223,57.9269944 57.4034433,68 45.0008196,68 C32.5981958,68 22.5428168,57.9269944 22.5428168,45.5 C22.5428168,33.0730056 32.5981958,23 45.0008196,23 Z" id="Oval" fill="#4C433F" fill-rule="nonzero"></path>
            <path d="M45.0008196,20 C30.9401642,20 19.5428168,31.4173264 19.5428168,45.5 C19.5428168,59.5826736 30.9401642,71 45.0008196,71 C59.0614749,71 70.4588223,59.5826736 70.4588223,45.5 C70.4588223,31.4173264 59.0614749,20 45.0008196,20 Z M45.0008196,23 C57.4034433,23 67.4588223,33.0730056 67.4588223,45.5 C67.4588223,57.9269944 57.4034433,68 45.0008196,68 C32.5981958,68 22.5428168,57.9269944 22.5428168,45.5 C22.5428168,33.0730056 32.5981958,23 45.0008196,23 Z" id="Oval" fill="#4C433F" fill-rule="nonzero"></path>
            <ellipse id="Oval" fill="#FFFFFF" cx="45.0008196" cy="45.5" rx="16.9702519" ry="17"></ellipse>
            <g id="Group" transform="translate(44.721781, 45.032847) rotate(60.000000) translate(-44.721781, -45.032847) translate(32.728584, 34.032847)" fill="#F5AB1A" fill-rule="nonzero">
                <path d="M11.6183148,-1.43207695e-16 C15.9386065,-1.43207695e-16 19.6023206,2.79580217 20.8800759,6.6674629 L21.6649678,4.98241127 C21.9275583,4.41928398 22.5702047,4.15391443 23.1488895,4.34653735 L23.2810947,4.39919176 C23.8473119,4.66322319 24.1163127,5.30473117 23.9254352,5.88058171 L23.873149,6.01210307 L21.8250037,10.4043647 C21.5624132,10.967492 20.9197668,11.2328615 20.341082,11.0402386 L20.2088768,10.9875842 L20.0142607,10.8972368 C19.7379597,10.8677072 19.4893177,10.7463026 19.2998376,10.5643539 L15.7925144,8.92820061 C15.182742,8.64385907 14.9176703,7.92173408 15.2004601,7.3152893 C15.4630507,6.752162 16.1056971,6.48679246 16.6843819,6.67941537 L16.816587,6.73206979 L18.6105634,7.56801257 C17.6967776,4.58971514 14.9119473,2.42316225 11.6183148,2.42316225 C8.56053359,2.42316225 5.85836532,4.30777504 4.78640808,7.10192915 C4.54656346,7.72710598 3.84254414,8.0405405 3.21393691,7.80200475 C2.58532968,7.563469 2.27017531,6.86329162 2.51001993,6.23811479 C3.93933325,2.5124795 7.5417403,-1.43207695e-16 11.6183148,-1.43207695e-16 Z" id="Combined-Shape"></path>
                <path d="M9.18865901,10.8974223 C13.5089507,10.8974223 17.1726648,13.6932244 18.4504201,17.5648852 L19.2353119,15.8798335 C19.4979025,15.3167062 20.1405489,15.0513367 20.7192337,15.2439596 L20.8514388,15.296614 C21.4176561,15.5606455 21.6866569,16.2021534 21.4957794,16.778004 L21.4434931,16.9095253 L19.3953479,21.301787 C19.1327573,21.8649143 18.4901109,22.1302838 17.9114261,21.9376609 L17.779221,21.8850065 L17.5846049,21.794659 C17.3083039,21.7651294 17.0596619,21.6437249 16.8701818,21.4617762 L13.3628586,19.8256229 C12.7530862,19.5412813 12.4880145,18.8191563 12.7708043,18.2127116 C13.0333949,17.6495843 13.6760413,17.3842147 14.2547261,17.5768376 L14.3869312,17.6294921 L16.1809076,18.4654348 C15.2671217,15.4871374 12.4822914,13.3205845 9.18865901,13.3205845 C6.13087776,13.3205845 3.42870948,15.2051973 2.35675225,17.9993514 C2.11690763,18.6245282 1.41288831,18.9379628 0.784281078,18.699427 C0.155673847,18.4608913 -0.15948052,17.7607139 0.0803640962,17.1355371 C1.50967742,13.4099018 5.11208447,10.8974223 9.18865901,10.8974223 Z" id="Combined-Shape" transform="translate(10.778370, 16.448711) scale(-1, -1) translate(-10.778370, -16.448711) "></path>
            </g>
            <path d="M45.0008196,26 C34.5074093,26 26.0008196,34.7304474 26.0008196,45.5 C26.0008196,56.2695526 34.5074093,65 45.0008196,65 C55.4942298,65 64.0008196,56.2695526 64.0008196,45.5 C64.0008196,34.7304474 55.4942298,26 45.0008196,26 Z M45.0008196,29.5454545 C53.5863371,29.5454545 60.5462741,36.6885479 60.5462741,45.5 C60.5462741,54.3114521 53.5863371,61.4545455 45.0008196,61.4545455 C36.4153021,61.4545455 29.455365,54.3114521 29.455365,45.5 C29.455365,36.6885479 36.4153021,29.5454545 45.0008196,29.5454545 Z" id="Oval" fill="#4C433F" fill-rule="nonzero"></path>
        </g>
        <g id="齒輪小" transform="translate(40.500000, 85.500000) rotate(31.000000) translate(-40.500000, -85.500000) translate(-11.653985, 33.345973)">
            <path d="M56.3094177,19.2535197 L56.8591256,26.8712504 C59.1462349,27.2854669 61.3286678,27.9961759 63.3642569,28.9616451 L68.3321848,23.1196533 L75.0558156,27.9542616 L70.9748345,34.4418796 C72.5450764,36.0756511 73.9003872,37.9136468 74.9959082,39.9114705 L82.4862943,38.0759309 L85.0544928,45.8984914 L77.9023707,48.7700937 C78.0495146,49.8774193 78.1254376,51.0069483 78.1254376,52.1540271 C78.1254376,53.3011059 78.0495146,54.4306349 77.9023707,55.5379605 L85.0544928,58.4095628 L82.4862943,66.2321233 L74.9959082,64.3965838 C73.9003872,66.3944074 72.5450764,68.2324031 70.9748345,69.8661746 L75.0558156,76.3537926 L68.3321848,81.1884009 L63.3642569,75.3464091 C61.3286678,76.3118783 59.1462349,77.0225873 56.8591256,77.4368038 L56.3094177,85.0545345 L47.998553,85.0545345 L47.4488451,77.4368038 C45.1617358,77.0225873 42.9793029,76.3118783 40.9437138,75.3464091 L35.9757859,81.1884009 L29.2521551,76.3537926 L33.3331362,69.8661746 C31.7628943,68.2324031 30.4075835,66.3944074 29.3120625,64.3965838 L21.8216764,66.2321233 L19.2534779,58.4095628 L26.4056,55.5379605 C26.2584561,54.4306349 26.1825331,53.3011059 26.1825331,52.1540271 C26.1825331,51.0069483 26.2584561,49.8774193 26.4056,48.7700937 L19.2534779,45.8984914 L21.8216764,38.0759309 L29.3120625,39.9114705 C30.4075835,37.9136468 31.7628943,36.0756511 33.3331362,34.4418796 L29.2521551,27.9542616 L35.9757859,23.1196533 L40.9437138,28.9616451 C42.9793029,27.9961759 45.1617358,27.2854669 47.4488451,26.8712504 L47.998553,19.2535197 L56.3094177,19.2535197 Z" id="Combined-Shape" fill="#FFD36A" transform="translate(52.153985, 52.154027) rotate(47.000000) translate(-52.153985, -52.154027) "></path>
            <path d="M47.998553,15.2535197 L47.7967291,15.2585387 C45.7904384,15.3585339 44.1550189,16.9411133 44.0089271,18.9656218 L43.6699853,23.6590271 L43.5241207,23.7013661 C43.1031358,23.8266261 42.6852726,23.9610319 42.2707891,24.1044633 L42.1109853,24.1610271 L39.0229678,20.528383 C37.6734656,18.9414475 35.331918,18.6559156 33.6406052,19.8720494 L26.9169744,24.7066577 L26.7496117,24.8336934 C25.1724617,26.0966377 24.7787163,28.3550933 25.8663262,30.0840886 L28.3749853,34.0720271 L28.3110064,34.1536232 C28.0446443,34.4997029 27.7859468,34.851545 27.5351212,35.2088927 L27.4469853,35.3360271 L22.7737185,34.1908807 C20.7438341,33.693452 18.6731593,34.8425571 18.021251,36.8282261 L15.4530526,44.6507866 L15.3928053,44.8516538 C14.8636652,46.7976251 15.8712767,48.8508948 17.7631052,49.6104706 L22.1919853,51.3880271 L22.1825331,52.1540271 L22.1919853,52.9190271 L17.7631052,54.6975836 C15.8060412,55.4833517 14.7952261,57.6535722 15.4530526,59.6572676 L18.021251,67.4798281 L18.091117,67.6755764 C18.811159,69.5402747 20.8114969,70.5980213 22.7737185,70.1171736 L27.4469853,68.9710271 L27.5351212,69.0991615 C27.7859468,69.4565092 28.0446443,69.8083513 28.3110064,70.154431 L28.3749853,70.2350271 L25.8663262,74.2239656 C24.7412126,76.0125815 25.201378,78.3678016 26.9169744,79.6013965 L33.6406052,84.4360048 L33.8178208,84.5564632 C35.4922244,85.6308993 37.7200001,85.3118848 39.0229678,83.7796712 L42.1109853,80.1460271 L42.2707891,80.2035909 C42.6852726,80.3470223 43.1031358,80.4814281 43.5241207,80.6066881 L43.6699853,80.6480271 L44.0089271,85.3424324 C44.1598886,87.4344245 45.9011212,89.0545345 47.998553,89.0545345 L56.3094177,89.0545345 L56.5112416,89.0495155 C58.5175323,88.9495203 60.1529518,87.3669409 60.2990436,85.3424324 L60.6369853,80.6480271 L60.78385,80.6066881 C61.2048349,80.4814281 61.6226981,80.3470223 62.0371816,80.2035909 L62.1959853,80.1460271 L65.2850029,83.7796712 C66.6345051,85.3666067 68.9760527,85.6521386 70.6673655,84.4360048 L77.3909963,79.6013965 L77.5583589,79.4743608 C79.135509,78.2114165 79.5292543,75.9529609 78.4416445,74.2239656 L75.9319853,70.2350271 L75.9969643,70.154431 C76.2633264,69.8083513 76.5220239,69.4565092 76.7728495,69.0991615 L76.8599853,68.9710271 L81.5342522,70.1171736 C83.5641366,70.6146023 85.6348114,69.4654971 86.2867197,67.4798281 L88.8549181,59.6572676 L88.9151654,59.4564004 C89.4443055,57.5104291 88.436694,55.4571595 86.5448655,54.6975836 L82.1149853,52.9190271 L82.1254376,52.1540271 L82.1149853,51.3880271 L86.5448655,49.6104706 C88.5019295,48.8247025 89.5127446,46.654482 88.8549181,44.6507866 L86.2867197,36.8282261 L86.2168537,36.6324778 C85.4968117,34.7677795 83.4964738,33.7100329 81.5342522,34.1908807 L76.8599853,35.3360271 L76.7728495,35.2088927 C76.5220239,34.851545 76.2633264,34.4997029 75.9969643,34.1536232 L75.9319853,34.0720271 L78.4416445,30.0840886 C79.5667581,28.2954727 79.1065927,25.9402526 77.3909963,24.7066577 L70.6673655,19.8720494 L70.4901499,19.751591 C68.8157463,18.6771549 66.5879706,18.9961694 65.2850029,20.528383 L62.1959853,24.1610271 L62.0371816,24.1044633 C61.6226981,23.9610319 61.2048349,23.8266261 60.78385,23.7013661 L60.6369853,23.6590271 L60.2990436,18.9656218 C60.148082,16.8736297 58.4068495,15.2535197 56.3094177,15.2535197 L47.998553,15.2535197 Z M56.3094177,19.2535197 L56.8591256,26.8712504 C59.1462349,27.2854669 61.3286678,27.9961759 63.3642569,28.9616451 L68.3321848,23.1196533 L75.0558156,27.9542616 L70.9748345,34.4418796 C72.5450764,36.0756511 73.9003872,37.9136468 74.9959082,39.9114705 L82.4862943,38.0759309 L85.0544928,45.8984914 L77.9023707,48.7700937 C78.0495146,49.8774193 78.1254376,51.0069483 78.1254376,52.1540271 C78.1254376,53.3011059 78.0495146,54.4306349 77.9023707,55.5379605 L85.0544928,58.4095628 L82.4862943,66.2321233 L74.9959082,64.3965838 C73.9003872,66.3944074 72.5450764,68.2324031 70.9748345,69.8661746 L75.0558156,76.3537926 L68.3321848,81.1884009 L63.3642569,75.3464091 C61.3286678,76.3118783 59.1462349,77.0225873 56.8591256,77.4368038 L56.3094177,85.0545345 L47.998553,85.0545345 L47.4488451,77.4368038 C45.1617358,77.0225873 42.9793029,76.3118783 40.9437138,75.3464091 L35.9757859,81.1884009 L29.2521551,76.3537926 L33.3331362,69.8661746 C31.7628943,68.2324031 30.4075835,66.3944074 29.3120625,64.3965838 L21.8216764,66.2321233 L19.2534779,58.4095628 L26.4056,55.5379605 C26.2584561,54.4306349 26.1825331,53.3011059 26.1825331,52.1540271 C26.1825331,51.0069483 26.2584561,49.8774193 26.4056,48.7700937 L19.2534779,45.8984914 L21.8216764,38.0759309 L29.3120625,39.9114705 C30.4075835,37.9136468 31.7628943,36.0756511 33.3331362,34.4418796 L29.2521551,27.9542616 L35.9757859,23.1196533 L40.9437138,28.9616451 C42.9793029,27.9961759 45.1617358,27.2854669 47.4488451,26.8712504 L47.998553,19.2535197 L56.3094177,19.2535197 Z" id="Combined-Shape" fill="#4C433F" fill-rule="nonzero" transform="translate(52.153985, 52.154027) rotate(47.000000) translate(-52.153985, -52.154027) "></path>
            <ellipse id="Oval" fill="#C8BDB8" cx="52.1539853" cy="52.1540271" rx="19.198054" ry="19"></ellipse>
            <path d="M52.1539853,32.1540271 C41.0012161,32.1540271 31.9559313,41.1059975 31.9559313,52.1540271 C31.9559313,63.2020567 41.0012161,72.1540271 52.1539853,72.1540271 C63.3067546,72.1540271 72.3520394,63.2020567 72.3520394,52.1540271 C72.3520394,41.1059975 63.3067546,32.1540271 52.1539853,32.1540271 Z M52.1539853,34.1540271 C62.206801,34.1540271 70.3520394,42.2152362 70.3520394,52.1540271 C70.3520394,62.092818 62.206801,70.1540271 52.1539853,70.1540271 C42.1011696,70.1540271 33.9559313,62.092818 33.9559313,52.1540271 C33.9559313,42.2152362 42.1011696,34.1540271 52.1539853,34.1540271 Z" id="Oval" fill="#4C433F" fill-rule="nonzero"></path>
            <ellipse id="Oval" fill="#FFFFFF" cx="52.1539853" cy="52.1540271" rx="14.1459345" ry="14"></ellipse>
            <path d="M52.1539853,36.6540271 C43.5935717,36.6540271 36.6539853,43.5936135 36.6539853,52.1540271 C36.6539853,60.7144407 43.5935717,67.6540271 52.1539853,67.6540271 C60.714399,67.6540271 67.6539853,60.7144407 67.6539853,52.1540271 C67.6539853,43.5936135 60.714399,36.6540271 52.1539853,36.6540271 Z M52.1539853,39.1540271 C59.3336871,39.1540271 65.1539853,44.9743254 65.1539853,52.1540271 C65.1539853,59.3337289 59.3336871,65.1540271 52.1539853,65.1540271 C44.9742836,65.1540271 39.1539853,59.3337289 39.1539853,52.1540271 C39.1539853,44.9743254 44.9742836,39.1540271 52.1539853,39.1540271 Z" id="Oval" fill="#4C433F" fill-rule="nonzero"></path>
        </g>
        <rect id="Rectangle" fill="#FFFFFF" x="12" y="128" width="150" height="24" rx="2"></rect>
        <path d="M160,126 L14,126 C11.790861,126 10,127.790861 10,130 L10,150 C10,152.209139 11.790861,154 14,154 L160,154 C162.209139,154 164,152.209139 164,150 L164,130 C164,127.790861 162.209139,126 160,126 Z M14,130 L160,130 L160,150 L14,150 L14,130 Z" id="Rectangle" fill="#4C433F" fill-rule="nonzero"></path>
        <rect id="Rectangle-Copy-3" fill="#ECE8E6" x="14" y="141" width="146" height="9"></rect>
        <rect id="Rectangle" fill="#88B9D8" x="16" y="132" width="16" height="16"></rect>
        <rect id="Rectangle-Copy" fill="#88B9D8" x="34" y="132" width="16" height="16"></rect>
        <rect id="Rectangle-Copy-2" fill="#88B9D8" x="52" y="132" width="16" height="16"></rect>
        <rect id="Rectangle-Copy-3" fill="#88B9D8" x="70" y="132" width="16" height="16"></rect>
        <rect id="Rectangle-Copy-4" fill="#88B9D8" x="88" y="132" width="16" height="16"></rect>
        <rect id="Rectangle-Copy-5" fill="#88B9D8" x="106" y="132" width="16" height="16"></rect>
        <rect id="Rectangle" fill="#5AA2BF" x="16" y="141" width="16" height="7"></rect>
        <rect id="Rectangle-Copy" fill="#5AA2BF" x="34" y="141" width="16" height="7"></rect>
        <rect id="Rectangle-Copy-2" fill="#5AA2BF" x="52" y="141" width="16" height="7"></rect>
        <rect id="Rectangle-Copy-3" fill="#5AA2BF" x="70" y="141" width="16" height="7"></rect>
        <rect id="Rectangle-Copy-4" fill="#5AA2BF" x="88" y="141" width="16" height="7"></rect>
        <rect id="Rectangle-Copy-5" fill="#5AA2BF" x="106" y="141" width="16" height="7"></rect>
        <path d="M40.5,76.5 C44.0464786,76.5 47.0539635,78.807706 48.1027387,82.0034019 L48.7515443,80.6100027 C48.9682781,80.1452156 49.496778,79.9252929 49.9719325,80.0831243 L50.0804704,80.1263132 C50.5452575,80.343047 50.7651801,80.8715468 50.6073487,81.3467013 L50.5641599,81.4552392 L48.8736868,85.0804704 C48.656953,85.5452575 48.1284532,85.7651801 47.6532987,85.6073487 L47.5447608,85.5641599 L47.3933643,85.494 L47.3833789,85.4932723 C47.1608361,85.4674243 46.9605784,85.3685123 46.807221,85.2211517 L43.9195296,83.8736868 C43.4189897,83.6402812 43.2024345,83.0453008 43.4358401,82.5447608 C43.6525739,82.0799737 44.1810738,81.860051 44.6562283,82.0178824 L44.7647662,82.0610713 L46.2401923,82.7480656 C45.4906253,80.2890138 43.2042359,78.5 40.5,78.5 C37.9899787,78.5 35.7718671,80.0554986 34.8919364,82.3617034 C34.6950567,82.8777042 34.1171528,83.1364029 33.601152,82.9395232 C33.0851513,82.7426435 32.8264525,82.1647396 33.0233322,81.6487388 C34.1966035,78.5737196 37.1536883,76.5 40.5,76.5 Z" id="Combined-Shape" fill="#F5AB1A" fill-rule="nonzero"></path>
        <path d="M38.5,85.5 C42.0464786,85.5 45.0539635,87.807706 46.1027387,91.0034019 L46.7515443,89.6100027 C46.9682781,89.1452156 47.496778,88.9252929 47.9719325,89.0831243 L48.0804704,89.1263132 C48.5452575,89.343047 48.7651801,89.8715468 48.6073487,90.3467013 L48.5641599,90.4552392 L46.8736868,94.0804704 C46.656953,94.5452575 46.1284532,94.7651801 45.6532987,94.6073487 L45.5447608,94.5641599 L45.3933643,94.494 L45.3833789,94.4932723 C45.1608361,94.4674243 44.9605784,94.3685123 44.807221,94.2211517 L41.9195296,92.8736868 C41.4189897,92.6402812 41.2024345,92.0453008 41.4358401,91.5447608 C41.6525739,91.0799737 42.1810738,90.860051 42.6562283,91.0178824 L42.7647662,91.0610713 L44.2401923,91.7480656 C43.4906253,89.2890138 41.2042359,87.5 38.5,87.5 C35.9899787,87.5 33.7718671,89.0554986 32.8919364,91.3617034 C32.6950567,91.8777042 32.1171528,92.1364029 31.601152,91.9395232 C31.0851513,91.7426435 30.8264525,91.1647396 31.0233322,90.6487388 C32.1966035,87.5737196 35.1536883,85.5 38.5,85.5 Z" id="Combined-Shape" fill="#F5AB1A" fill-rule="nonzero" transform="translate(39.807727, 90.079045) scale(-1, -1) translate(-39.807727, -90.079045) "></path>
        <polygon id="Triangle" fill="#FFD36A" transform="translate(38.000000, 14.000000) rotate(-270.000000) translate(-38.000000, -14.000000) " points="38 10 43 18 33 18"></polygon>
        <polygon id="Triangle-Copy" fill="#FFD36A" transform="translate(74.000000, 29.000000) rotate(-270.000000) translate(-74.000000, -29.000000) " points="74 25 79 33 69 33"></polygon>
        <polygon id="Triangle-Copy-2" fill="#FFD36A" transform="translate(147.000000, 114.000000) rotate(-270.000000) translate(-147.000000, -114.000000) " points="147 110 152 118 142 118"></polygon>
        <polygon id="Triangle-Copy-3" fill="#FFD36A" transform="translate(72.000000, 166.000000) rotate(-270.000000) translate(-72.000000, -166.000000) " points="72 162 77 170 67 170"></polygon>
        <polygon id="Triangle-Copy-4" fill="#FFD36A" transform="translate(160.000000, 18.000000) rotate(-270.000000) translate(-160.000000, -18.000000) " points="160 14 165 22 155 22"></polygon>
        <polygon id="Triangle-Copy-5" fill="#FFD36A" transform="translate(10.000000, 118.000000) rotate(-270.000000) translate(-10.000000, -118.000000) " points="10 114 15 122 5 122"></polygon>
        <polygon id="Triangle-Copy-6" fill="#FFD36A" transform="translate(18.000000, 41.000000) rotate(-270.000000) translate(-18.000000, -41.000000) " points="18 37 23 45 13 45"></polygon>
        <polygon id="Triangle-Copy-7" fill="#FFD36A" transform="translate(90.000000, 102.000000) rotate(-270.000000) translate(-90.000000, -102.000000) " points="90 98 95 106 85 106"></polygon>
        <polygon id="Triangle-Copy-8" fill="#FFD36A" transform="translate(160.000000, 161.000000) rotate(-270.000000) translate(-160.000000, -161.000000) " points="160 157 165 165 155 165"></polygon>
    </g>
</svg>