<?xml version="1.0" encoding="UTF-8"?>
<svg width="180px" height="180px" viewBox="0 0 180 180" version="1.1" xmlns="http://www.w3.org/2000/svg" xmlns:xlink="http://www.w3.org/1999/xlink">
    <title>img/threat_type</title>
    <g id="img/threat_type" stroke="none" stroke-width="1" fill="none" fill-rule="evenodd">
        <circle id="Oval" fill="#F5F2E9" cx="123.5" cy="57.5" r="47.5"></circle>
        <circle id="Oval-Copy" fill="#F5F2E9" cx="69" cy="112" r="59"></circle>
        <rect id="Rectangle-Copy" fill="#FFFFFF" x="84" y="75" width="90" height="30" rx="1"></rect>
        <path d="M173,73 L85,73 C83.3431458,73 82,74.3431458 82,76 L82,104 C82,105.656854 83.3431458,107 85,107 L173,107 C174.656854,107 176,105.656854 176,104 L176,76 C176,74.3431458 174.656854,73 173,73 Z M172,77 L172,103 L86,103 L86,77 L172,77 Z" id="Rectangle-Copy" fill="#4C433F" fill-rule="nonzero"></path>
        <rect id="Rectangle-Copy-2" fill="#FFFFFF" x="31" y="115" width="50" height="30" rx="1"></rect>
        <rect id="Rectangle-Copy-21" fill="#FFFFFF" x="56" y="30" width="50" height="30" rx="1"></rect>
        <path d="M80,113 L32,113 C30.3431458,113 29,114.343146 29,116 L29,144 C29,145.656854 30.3431458,147 32,147 L80,147 C81.6568542,147 83,145.656854 83,144 L83,116 C83,114.343146 81.6568542,113 80,113 Z M79,117 L79,143 L33,143 L33,117 L79,117 Z" id="Rectangle-Copy-2" fill="#4C433F" fill-rule="nonzero"></path>
        <path d="M105,28 L57,28 C55.3431458,28 54,29.3431458 54,31 L54,59 C54,60.6568542 55.3431458,62 57,62 L105,62 C106.656854,62 108,60.6568542 108,59 L108,31 C108,29.3431458 106.656854,28 105,28 Z M104,32 L104,58 L58,58 L58,32 L104,32 Z" id="Rectangle-Copy-22" fill="#4C433F" fill-rule="nonzero"></path>
        <rect id="Rectangle-Copy-3" fill="#E7E7E7" x="86" y="91" width="86" height="12"></rect>
        <rect id="Rectangle-Copy-4" fill="#E7E7E7" x="33" y="131" width="46" height="12"></rect>
        <rect id="Rectangle-Copy-23" fill="#E7E7E7" x="58" y="46" width="46" height="12"></rect>
        <rect id="Rectangle-Copy-5" fill="#FFD36A" x="103" y="94" width="54" height="7"></rect>
        <rect id="Rectangle-Copy-6" fill="#88B9D8" x="46" y="134" width="19" height="7"></rect>
        <rect id="Rectangle-Copy-24" fill="#88B9D8" x="70" y="49" width="22" height="7"></rect>
        <path d="M60,156 L64,156 C64.5522847,156 65,155.552285 65,155 C65,154.447715 64.5522847,154 64,154 L60,154 C59.4477153,154 59,154.447715 59,155 C59,155.552285 59.4477153,156 60,156 Z M74,156 L78,156 C78.5522847,156 79,155.552285 79,155 C79,154.447715 78.5522847,154 78,154 L74,154 C73.4477153,154 73,154.447715 73,155 C73,155.552285 73.4477153,156 74,156 Z M88,156 L92,156 C92.5522847,156 93,155.552285 93,155 C93,154.447715 92.5522847,154 92,154 L88,154 C87.4477153,154 87,154.447715 87,155 C87,155.552285 87.4477153,156 88,156 Z M102,156 L106,156 C106.552285,156 107,155.552285 107,155 C107,154.447715 106.552285,154 106,154 L102,154 C101.447715,154 101,154.447715 101,155 C101,155.552285 101.447715,156 102,156 Z M116,156 L120,156 C120.552285,156 121,155.552285 121,155 C121,154.447715 120.552285,154 120,154 L116,154 C115.447715,154 115,154.447715 115,155 C115,155.552285 115.447715,156 116,156 Z M130,156 L134,156 C134.552285,156 135,155.552285 135,155 C135,154.447715 134.552285,154 134,154 L130,154 C129.447715,154 129,154.447715 129,155 C129,155.552285 129.447715,156 130,156 Z M144,156 L148,156 C148.552285,156 149,155.552285 149,155 C149,154.447715 148.552285,154 148,154 L144,154 C143.447715,154 143,154.447715 143,155 C143,155.552285 143.447715,156 144,156 Z" id="Line-3-Copy-12" fill="#4C433F" fill-rule="nonzero"></path>
        <path d="M44.1994177,17.2639925 C44.5600649,16.9120025 45.1447897,16.9120025 45.505437,17.2639925 L45.505437,17.2639925 L50.7295145,22.3626658 C51.0901618,22.7146558 51.0901618,23.2853442 50.7295145,23.6373342 L50.7295145,23.6373342 L45.505437,28.7360075 C45.1447897,29.0879975 44.5600649,29.0879975 44.1994177,28.7360075 C43.8387704,28.3840176 43.8387704,27.8133291 44.1994177,27.4613392 L44.1994177,27.4613392 L48.7704855,23 L44.1994177,18.5386608 C43.8387704,18.1866709 43.8387704,17.6159824 44.1994177,17.2639925 Z M35.7349516,17.2639925 C36.0955989,16.9120025 36.6803236,16.9120025 37.0409709,17.2639925 L37.0409709,17.2639925 L42.2650484,22.3626658 C42.6256957,22.7146558 42.6256957,23.2853442 42.2650484,23.6373342 L42.2650484,23.6373342 L37.0409709,28.7360075 C36.6803236,29.0879975 36.0955989,29.0879975 35.7349516,28.7360075 C35.3743043,28.3840176 35.3743043,27.8133291 35.7349516,27.4613392 L35.7349516,27.4613392 L40.3060194,23 L35.7349516,18.5386608 C35.3743043,18.1866709 35.3743043,17.6159824 35.7349516,17.2639925 Z M27.2704855,17.2639925 C27.6311328,16.9120025 28.2158576,16.9120025 28.5765048,17.2639925 L28.5765048,17.2639925 L33.8005823,22.3626658 C34.1612296,22.7146558 34.1612296,23.2853442 33.8005823,23.6373342 L33.8005823,23.6373342 L28.5765048,28.7360075 C28.2158576,29.0879975 27.6311328,29.0879975 27.2704855,28.7360075 C26.9098382,28.3840176 26.9098382,27.8133291 27.2704855,27.4613392 L27.2704855,27.4613392 L31.8415533,23 L27.2704855,18.5386608 C26.9098382,18.1866709 26.9098382,17.6159824 27.2704855,17.2639925 Z" id="Combined-Shape" fill="#4C433F"></path>
        <path d="M149.199418,113.263992 C149.560065,112.912003 150.14479,112.912003 150.505437,113.263992 L150.505437,113.263992 L155.729515,118.362666 C156.090162,118.714656 156.090162,119.285344 155.729515,119.637334 L155.729515,119.637334 L150.505437,124.736008 C150.14479,125.087997 149.560065,125.087997 149.199418,124.736008 C148.83877,124.384018 148.83877,123.813329 149.199418,123.461339 L149.199418,123.461339 L153.770485,119 L149.199418,114.538661 C148.83877,114.186671 148.83877,113.615982 149.199418,113.263992 Z M140.734952,113.263992 C141.095599,112.912003 141.680324,112.912003 142.040971,113.263992 L142.040971,113.263992 L147.265048,118.362666 C147.625696,118.714656 147.625696,119.285344 147.265048,119.637334 L147.265048,119.637334 L142.040971,124.736008 C141.680324,125.087997 141.095599,125.087997 140.734952,124.736008 C140.374304,124.384018 140.374304,123.813329 140.734952,123.461339 L140.734952,123.461339 L145.306019,119 L140.734952,114.538661 C140.374304,114.186671 140.374304,113.615982 140.734952,113.263992 Z M132.270485,113.263992 C132.631133,112.912003 133.215858,112.912003 133.576505,113.263992 L133.576505,113.263992 L138.800582,118.362666 C139.16123,118.714656 139.16123,119.285344 138.800582,119.637334 L138.800582,119.637334 L133.576505,124.736008 C133.215858,125.087997 132.631133,125.087997 132.270485,124.736008 C131.909838,124.384018 131.909838,123.813329 132.270485,123.461339 L132.270485,123.461339 L136.841553,119 L132.270485,114.538661 C131.909838,114.186671 131.909838,113.615982 132.270485,113.263992 Z" id="Combined-Shape-Copy" fill="#4C433F"></path>
        <path d="M19.1994177,135.263992 C19.5600649,134.912003 20.1447897,134.912003 20.505437,135.263992 L20.505437,135.263992 L25.7295145,140.362666 C26.0901618,140.714656 26.0901618,141.285344 25.7295145,141.637334 L25.7295145,141.637334 L20.505437,146.736008 C20.1447897,147.087997 19.5600649,147.087997 19.1994177,146.736008 C18.8387704,146.384018 18.8387704,145.813329 19.1994177,145.461339 L19.1994177,145.461339 L23.7704855,141 L19.1994177,136.538661 C18.8387704,136.186671 18.8387704,135.615982 19.1994177,135.263992 Z M10.7349516,135.263992 C11.0955989,134.912003 11.6803236,134.912003 12.0409709,135.263992 L12.0409709,135.263992 L17.2650484,140.362666 C17.6256957,140.714656 17.6256957,141.285344 17.2650484,141.637334 L17.2650484,141.637334 L12.0409709,146.736008 C11.6803236,147.087997 11.0955989,147.087997 10.7349516,146.736008 C10.3743043,146.384018 10.3743043,145.813329 10.7349516,145.461339 L10.7349516,145.461339 L15.3060194,141 L10.7349516,136.538661 C10.3743043,136.186671 10.3743043,135.615982 10.7349516,135.263992 Z M2.27048547,135.263992 C2.63113276,134.912003 3.21585755,134.912003 3.57650484,135.263992 L3.57650484,135.263992 L8.80058234,140.362666 C9.16122963,140.714656 9.16122963,141.285344 8.80058234,141.637334 L8.80058234,141.637334 L3.57650484,146.736008 C3.21585755,147.087997 2.63113276,147.087997 2.27048547,146.736008 C1.90983818,146.384018 1.90983818,145.813329 2.27048547,145.461339 L2.27048547,145.461339 L6.84155328,141 L2.27048547,136.538661 C1.90983818,136.186671 1.90983818,135.615982 2.27048547,135.263992 Z" id="Combined-Shape-Copy-2" fill="#4C433F"></path>
        <rect id="Rectangle" fill="#FFD36A" x="145" y="18" width="5" height="5"></rect>
        <rect id="Rectangle-Copy-7" fill="#FFD36A" x="34" y="52" width="5" height="5"></rect>
        <rect id="Rectangle-Copy-8" fill="#FFD36A" x="72" y="76" width="5" height="5"></rect>
        <rect id="Rectangle-Copy-9" fill="#FFD36A" x="163" y="113" width="5" height="5"></rect>
        <rect id="Rectangle-Copy-10" fill="#FFD36A" x="17" y="79" width="5" height="5"></rect>
        <rect id="Rectangle-Copy-11" fill="#FFD36A" x="127" y="31" width="5" height="5"></rect>
        <rect id="Rectangle-Copy-12" fill="#FFD36A" x="130" y="59" width="5" height="5"></rect>
        <rect id="Rectangle-Copy-13" fill="#FFD36A" x="90" y="110" width="5" height="5"></rect>
        <rect id="Rectangle-Copy-14" fill="#FFD36A" x="48" y="103" width="5" height="5"></rect>
        <rect id="Rectangle-Copy-15" fill="#FFD36A" x="12" y="116" width="5" height="5"></rect>
        <rect id="Rectangle-Copy-16" fill="#FFD36A" x="47" y="157" width="5" height="5"></rect>
        <rect id="Rectangle-Copy-17" fill="#FFD36A" x="109" y="136" width="5" height="5"></rect>
        <rect id="Rectangle-Copy-20" fill="#FFD36A" x="22" y="42" width="5" height="5"></rect>
        <rect id="Rectangle-Copy-18" fill="#FFD36A" x="140" y="146" width="5" height="5"></rect>
        <rect id="Rectangle-Copy-19" fill="#FFD36A" x="93" y="144" width="5" height="5"></rect>
        <path d="M117,50 L121,50 C121.552285,50 122,49.5522847 122,49 C122,48.4477153 121.552285,48 121,48 L117,48 C116.447715,48 116,48.4477153 116,49 C116,49.5522847 116.447715,50 117,50 Z M131,50 L135,50 C135.552285,50 136,49.5522847 136,49 C136,48.4477153 135.552285,48 135,48 L131,48 C130.447715,48 130,48.4477153 130,49 C130,49.5522847 130.447715,50 131,50 Z M145,50 L149,50 C149.552285,50 150,49.5522847 150,49 C150,48.4477153 149.552285,48 149,48 L145,48 C144.447715,48 144,48.4477153 144,49 C144,49.5522847 144.447715,50 145,50 Z M159,50 L163,50 C163.552285,50 164,49.5522847 164,49 C164,48.4477153 163.552285,48 163,48 L159,48 C158.447715,48 158,48.4477153 158,49 C158,49.5522847 158.447715,50 159,50 Z" id="Line-3-Copy-10" fill="#4C433F" fill-rule="nonzero"></path>
        <path d="M46,98 L50,98 C50.5522847,98 51,97.5522847 51,97 C51,96.4477153 50.5522847,96 50,96 L46,96 C45.4477153,96 45,96.4477153 45,97 C45,97.5522847 45.4477153,98 46,98 Z M60,98 L64,98 C64.5522847,98 65,97.5522847 65,97 C65,96.4477153 64.5522847,96 64,96 L60,96 C59.4477153,96 59,96.4477153 59,97 C59,97.5522847 59.4477153,98 60,98 Z M74,98 L78,98 C78.5522847,98 79,97.5522847 79,97 C79,96.4477153 78.5522847,96 78,96 L74,96 C73.4477153,96 73,96.4477153 73,97 C73,97.5522847 73.4477153,98 74,98 Z" id="Line-3-Copy-13" fill="#4C433F" fill-rule="nonzero"></path>
        <path d="M24,73 L28,73 C28.5522847,73 29,72.5522847 29,72 C29,71.4477153 28.5522847,71 28,71 L24,71 C23.4477153,71 23,71.4477153 23,72 C23,72.5522847 23.4477153,73 24,73 Z M38,73 L42,73 C42.5522847,73 43,72.5522847 43,72 C43,71.4477153 42.5522847,71 42,71 L38,71 C37.4477153,71 37,71.4477153 37,72 C37,72.5522847 37.4477153,73 38,73 Z M52,73 L56,73 C56.5522847,73 57,72.5522847 57,72 C57,71.4477153 56.5522847,71 56,71 L52,71 C51.4477153,71 51,71.4477153 51,72 C51,72.5522847 51.4477153,73 52,73 Z M66,73 L70,73 C70.5522847,73 71,72.5522847 71,72 C71,71.4477153 70.5522847,71 70,71 L66,71 C65.4477153,71 65,71.4477153 65,72 C65,72.5522847 65.4477153,73 66,73 Z" id="Line-3-Copy-11" fill="#4C433F" fill-rule="nonzero"></path>
        <path d="M125,118 C125.552285,118 126,118.447715 126,119 C126,119.512836 125.61396,119.935507 125.116621,119.993272 L125,120 L81,120 C80.4477153,120 80,119.552285 80,119 C80,118.487164 80.3860402,118.064493 80.8833789,118.006728 L81,118 L125,118 Z" id="Line-3-Copy-15" fill="#4C433F" fill-rule="nonzero"></path>
        <path d="M101,22 C101.552285,22 102,22.4477153 102,23 C102,23.5128358 101.61396,23.9355072 101.116621,23.9932723 L101,24 L65,24 C64.4477153,24 64,23.5522847 64,23 C64,22.4871642 64.3860402,22.0644928 64.8833789,22.0067277 L65,22 L101,22 Z" id="Line-3-Copy-16" fill="#4C433F" fill-rule="nonzero"></path>
        <path d="M117,22 C117.552285,22 118,22.4477153 118,23 C118,23.5128358 117.61396,23.9355072 117.116621,23.9932723 L117,24 L106,24 C105.447715,24 105,23.5522847 105,23 C105,22.4871642 105.38604,22.0644928 105.883379,22.0067277 L106,22 L117,22 Z" id="Line-3-Copy-18" fill="#4C433F" fill-rule="nonzero"></path>
        <path d="M126.5,130.5 C127.052285,130.5 127.5,130.947715 127.5,131.5 C127.5,132.012836 127.11396,132.435507 126.616621,132.493272 L126.5,132.5 L90.5,132.5 C89.9477153,132.5 89.5,132.052285 89.5,131.5 C89.5,130.987164 89.8860402,130.564493 90.3833789,130.506728 L90.5,130.5 L126.5,130.5 Z" id="Line-3-Copy-19" fill="#4C433F" fill-rule="nonzero"></path>
        <path d="M142.5,130.5 C143.052285,130.5 143.5,130.947715 143.5,131.5 C143.5,132.012836 143.11396,132.435507 142.616621,132.493272 L142.5,132.5 L131.5,132.5 C130.947715,132.5 130.5,132.052285 130.5,131.5 C130.5,130.987164 130.88604,130.564493 131.383379,130.506728 L131.5,130.5 L142.5,130.5 Z" id="Line-3-Copy-20" fill="#4C433F" fill-rule="nonzero"></path>
        <path d="M84,86 C84.5522847,86 85,86.4477153 85,87 C85,87.5128358 84.6139598,87.9355072 84.1166211,87.9932723 L84,88 L44,88 C43.4477153,88 43,87.5522847 43,87 C43,86.4871642 43.3860402,86.0644928 43.8833789,86.0067277 L44,86 L84,86 Z" id="Line-3-Copy-14" fill="#4C433F" fill-rule="nonzero"></path>
        <path d="M39,86 C39.5522847,86 40,86.4477153 40,87 C40,87.5128358 39.6139598,87.9355072 39.1166211,87.9932723 L39,88 L30,88 C29.4477153,88 29,87.5522847 29,87 C29,86.4871642 29.3860402,86.0644928 29.8833789,86.0067277 L30,86 L39,86 Z" id="Line-3-Copy-17" fill="#4C433F" fill-rule="nonzero"></path>
        <path d="M108.696,97.128 C109.570667,97.128 110.368,96.98 111.088,96.684 C111.808,96.388 112.424,95.976 112.936,95.448 C113.448,94.92 113.845333,94.2946667 114.128,93.572 C114.410667,92.8493333 114.552,92.064 114.552,91.216 C114.552,90.368 114.410667,89.5826667 114.128,88.86 C113.845333,88.1373333 113.448,87.5133333 112.936,86.988 C112.424,86.4626667 111.808,86.0506667 111.088,85.752 C110.368,85.4533333 109.570667,85.304 108.696,85.304 C107.821333,85.304 107.022667,85.452 106.3,85.748 C105.577333,86.044 104.958667,86.456 104.444,86.984 C103.929333,87.512 103.530667,88.1373333 103.248,88.86 C102.965333,89.5826667 102.824,90.368 102.824,91.216 C102.824,92.064 102.965333,92.8493333 103.248,93.572 C103.530667,94.2946667 103.929333,94.92 104.444,95.448 C104.958667,95.976 105.577333,96.388 106.3,96.684 C107.022667,96.98 107.821333,97.128 108.696,97.128 Z M108.696,95.288 C108.130667,95.288 107.621333,95.1946667 107.168,95.008 C106.714667,94.8213333 106.329333,94.5533333 106.012,94.204 C105.694667,93.8546667 105.450667,93.428 105.28,92.924 C105.109333,92.42 105.024,91.8506667 105.024,91.216 C105.024,90.5813333 105.109333,90.012 105.28,89.508 C105.450667,89.004 105.694667,88.576 106.012,88.224 C106.329333,87.872 106.714667,87.6026667 107.168,87.416 C107.621333,87.2293333 108.130667,87.136 108.696,87.136 C109.261333,87.136 109.769333,87.2293333 110.22,87.416 C110.670667,87.6026667 111.053333,87.872 111.368,88.224 C111.682667,88.576 111.924,89.004 112.092,89.508 C112.26,90.012 112.344,90.5813333 112.344,91.216 C112.344,91.8506667 112.26,92.42 112.092,92.924 C111.924,93.428 111.682667,93.8546667 111.368,94.204 C111.053333,94.5533333 110.670667,94.8213333 110.22,95.008 C109.769333,95.1946667 109.261333,95.288 108.696,95.288 Z M120.296,97 L120.296,87.2 L123.776,87.2 L123.776,85.432 L114.648,85.432 L114.648,87.2 L118.144,87.2 L118.144,97 L120.296,97 Z M127.312,97 L127.312,91.944 L132.736,91.944 L132.736,97 L134.904,97 L134.904,85.432 L132.736,85.432 L132.736,90.408 L127.312,90.408 L127.312,85.432 L125.144,85.432 L125.144,97 L127.312,97 Z M144.536,97 L144.536,95.28 L139.408,95.28 L139.408,92.008 L143.448,92.008 L143.448,90.352 L139.408,90.352 L139.408,87.144 L144.536,87.144 L144.536,85.432 L137.24,85.432 L137.24,97 L144.536,97 Z M148.624,97 L148.624,92.48 L149.544,92.48 C149.757333,92.48 149.918667,92.5093333 150.028,92.568 C150.137333,92.6266667 150.237333,92.7253333 150.328,92.864 L150.328,92.864 L152.76,96.568 C152.850667,96.7066667 152.961333,96.8133333 153.092,96.888 C153.222667,96.9626667 153.381333,97 153.568,97 L153.568,97 L155.504,97 L152.608,92.728 C152.410667,92.44 152.176,92.2186667 151.904,92.064 C152.309333,91.936 152.670667,91.7653333 152.988,91.552 C153.305333,91.3386667 153.572,91.0906667 153.788,90.808 C154.004,90.5253333 154.169333,90.2106667 154.284,89.864 C154.398667,89.5173333 154.456,89.1493333 154.456,88.76 C154.456,88.2693333 154.372,87.82 154.204,87.412 C154.036,87.004 153.772,86.6533333 153.412,86.36 C153.052,86.0666667 152.590667,85.8386667 152.028,85.676 C151.465333,85.5133333 150.789333,85.432 150,85.432 L150,85.432 L146.472,85.432 L146.472,97 L148.624,97 Z M149.968,90.936 L148.624,90.936 L148.624,87.096 L150,87.096 C150.794667,87.096 151.385333,87.2533333 151.772,87.568 C152.158667,87.8826667 152.352,88.3333333 152.352,88.92 C152.352,89.2133333 152.304,89.4826667 152.208,89.728 C152.112,89.9733333 151.966667,90.1853333 151.772,90.364 C151.577333,90.5426667 151.329333,90.6826667 151.028,90.784 C150.726667,90.8853333 150.373333,90.936 149.968,90.936 L149.968,90.936 Z" id="OTHER" fill="#4C433F" fill-rule="nonzero"></path>
        <path d="M51.128,136.128 C52.088,136.128 52.9106667,135.973333 53.596,135.664 C54.2813333,135.354667 54.8586667,134.909333 55.328,134.328 L55.328,134.328 L54.48,133.408 C54.3946667,133.317333 54.2933333,133.272 54.176,133.272 C54.1066667,133.272 54.0426667,133.286667 53.984,133.316 C53.9253333,133.345333 53.8693333,133.384 53.816,133.432 C53.64,133.592 53.4626667,133.726667 53.284,133.836 C53.1053333,133.945333 52.916,134.034667 52.716,134.104 C52.516,134.173333 52.2973333,134.224 52.06,134.256 C51.8226667,134.288 51.5573333,134.304 51.264,134.304 C50.7733333,134.304 50.3146667,134.212 49.888,134.028 C49.4613333,133.844 49.0906667,133.578667 48.776,133.232 C48.4613333,132.885333 48.212,132.458667 48.028,131.952 C47.844,131.445333 47.752,130.866667 47.752,130.216 C47.752,129.586667 47.844,129.02 48.028,128.516 C48.212,128.012 48.468,127.584 48.796,127.232 C49.124,126.88 49.516,126.609333 49.972,126.42 C50.428,126.230667 50.928,126.136 51.472,126.136 C51.936,126.136 52.3186667,126.184 52.62,126.28 C52.9213333,126.376 53.1706667,126.48 53.368,126.592 C53.5653333,126.704 53.728,126.808 53.856,126.904 C53.984,127 54.1093333,127.048 54.232,127.048 C54.3493333,127.048 54.4413333,127.024 54.508,126.976 C54.5746667,126.928 54.6293333,126.872 54.672,126.808 L54.672,126.808 L55.392,125.808 C54.9333333,125.354667 54.3826667,124.990667 53.74,124.716 C53.0973333,124.441333 52.3466667,124.304 51.488,124.304 C50.608,124.304 49.804,124.449333 49.076,124.74 C48.348,125.030667 47.7226667,125.437333 47.2,125.96 C46.6773333,126.482667 46.272,127.105333 45.984,127.828 C45.696,128.550667 45.552,129.346667 45.552,130.216 C45.552,131.074667 45.6813333,131.866667 45.94,132.592 C46.1986667,133.317333 46.5706667,133.941333 47.056,134.464 C47.5413333,134.986667 48.1266667,135.394667 48.812,135.688 C49.4973333,135.981333 50.2693333,136.128 51.128,136.128 Z M64.248,136 L64.248,134.28 L59.12,134.28 L59.12,131.008 L63.16,131.008 L63.16,129.352 L59.12,129.352 L59.12,126.144 L64.248,126.144 L64.248,124.432 L56.952,124.432 L56.952,136 L64.248,136 Z" id="CE" fill="#4C433F" fill-rule="nonzero"></path>
        <path d="M76.344,52.128 C77.304,52.128 78.1266667,51.9733333 78.812,51.664 C79.4973333,51.3546667 80.0746667,50.9093333 80.544,50.328 L80.544,50.328 L79.696,49.408 C79.6106667,49.3173333 79.5093333,49.272 79.392,49.272 C79.3226667,49.272 79.2586667,49.2866667 79.2,49.316 C79.1413333,49.3453333 79.0853333,49.384 79.032,49.432 C78.856,49.592 78.6786667,49.7266667 78.5,49.836 C78.3213333,49.9453333 78.132,50.0346667 77.932,50.104 C77.732,50.1733333 77.5133333,50.224 77.276,50.256 C77.0386667,50.288 76.7733333,50.304 76.48,50.304 C75.9893333,50.304 75.5306667,50.212 75.104,50.028 C74.6773333,49.844 74.3066667,49.5786667 73.992,49.232 C73.6773333,48.8853333 73.428,48.4586667 73.244,47.952 C73.06,47.4453333 72.968,46.8666667 72.968,46.216 C72.968,45.5866667 73.06,45.02 73.244,44.516 C73.428,44.012 73.684,43.584 74.012,43.232 C74.34,42.88 74.732,42.6093333 75.188,42.42 C75.644,42.2306667 76.144,42.136 76.688,42.136 C77.152,42.136 77.5346667,42.184 77.836,42.28 C78.1373333,42.376 78.3866667,42.48 78.584,42.592 C78.7813333,42.704 78.944,42.808 79.072,42.904 C79.2,43 79.3253333,43.048 79.448,43.048 C79.5653333,43.048 79.6573333,43.024 79.724,42.976 C79.7906667,42.928 79.8453333,42.872 79.888,42.808 L79.888,42.808 L80.608,41.808 C80.1493333,41.3546667 79.5986667,40.9906667 78.956,40.716 C78.3133333,40.4413333 77.5626667,40.304 76.704,40.304 C75.824,40.304 75.02,40.4493333 74.292,40.74 C73.564,41.0306667 72.9386667,41.4373333 72.416,41.96 C71.8933333,42.4826667 71.488,43.1053333 71.2,43.828 C70.912,44.5506667 70.768,45.3466667 70.768,46.216 C70.768,47.0746667 70.8973333,47.8666667 71.156,48.592 C71.4146667,49.3173333 71.7866667,49.9413333 72.272,50.464 C72.7573333,50.9866667 73.3426667,51.3946667 74.028,51.688 C74.7133333,51.9813333 75.4853333,52.128 76.344,52.128 Z M87.072,52.128 C88.032,52.128 88.8546667,51.9733333 89.54,51.664 C90.2253333,51.3546667 90.8026667,50.9093333 91.272,50.328 L91.272,50.328 L90.424,49.408 C90.3386667,49.3173333 90.2373333,49.272 90.12,49.272 C90.0506667,49.272 89.9866667,49.2866667 89.928,49.316 C89.8693333,49.3453333 89.8133333,49.384 89.76,49.432 C89.584,49.592 89.4066667,49.7266667 89.228,49.836 C89.0493333,49.9453333 88.86,50.0346667 88.66,50.104 C88.46,50.1733333 88.2413333,50.224 88.004,50.256 C87.7666667,50.288 87.5013333,50.304 87.208,50.304 C86.7173333,50.304 86.2586667,50.212 85.832,50.028 C85.4053333,49.844 85.0346667,49.5786667 84.72,49.232 C84.4053333,48.8853333 84.156,48.4586667 83.972,47.952 C83.788,47.4453333 83.696,46.8666667 83.696,46.216 C83.696,45.5866667 83.788,45.02 83.972,44.516 C84.156,44.012 84.412,43.584 84.74,43.232 C85.068,42.88 85.46,42.6093333 85.916,42.42 C86.372,42.2306667 86.872,42.136 87.416,42.136 C87.88,42.136 88.2626667,42.184 88.564,42.28 C88.8653333,42.376 89.1146667,42.48 89.312,42.592 C89.5093333,42.704 89.672,42.808 89.8,42.904 C89.928,43 90.0533333,43.048 90.176,43.048 C90.2933333,43.048 90.3853333,43.024 90.452,42.976 C90.5186667,42.928 90.5733333,42.872 90.616,42.808 L90.616,42.808 L91.336,41.808 C90.8773333,41.3546667 90.3266667,40.9906667 89.684,40.716 C89.0413333,40.4413333 88.2906667,40.304 87.432,40.304 C86.552,40.304 85.748,40.4493333 85.02,40.74 C84.292,41.0306667 83.6666667,41.4373333 83.144,41.96 C82.6213333,42.4826667 82.216,43.1053333 81.928,43.828 C81.64,44.5506667 81.496,45.3466667 81.496,46.216 C81.496,47.0746667 81.6253333,47.8666667 81.884,48.592 C82.1426667,49.3173333 82.5146667,49.9413333 83,50.464 C83.4853333,50.9866667 84.0706667,51.3946667 84.756,51.688 C85.4413333,51.9813333 86.2133333,52.128 87.072,52.128 Z" id="CC" fill="#4C433F" fill-rule="nonzero"></path>
    </g>
</svg>